<?xml version="1.0" encoding="UTF-8"?>
<svg version="1.1" xmlns="http://www.w3.org/2000/svg" width="214" height="236">
<path d="M0 0 C1.82423996 0.62000381 1.82423996 0.62000381 3.68533325 1.25253296 C6.94493837 2.36083168 10.20114302 3.47880688 13.45666122 4.5990448 C16.13629955 5.51977678 18.8178843 6.4347625 21.49949741 7.34972382 C40.18462493 13.72591587 58.8414524 20.18363316 77.40234375 26.9140625 C77.62121123 34.12224615 76.77039984 41.08216885 75.86328125 48.2265625 C75.70184631 49.5295076 75.54041138 50.8324527 75.37408447 52.17488098 C74.93789016 55.69440855 74.49571313 59.21315878 74.05207062 62.7317543 C73.59226935 66.38421135 73.13692122 70.03722352 72.68115234 73.69018555 C72.12725291 78.12741274 71.57273824 82.56455976 71.01565552 87.00138855 C69.85539001 96.24685129 68.72089906 105.49509471 67.60546875 114.74609375 C67.20552859 118.03824983 66.8048047 121.33030915 66.40362549 124.62231445 C66.15377304 126.68354648 65.90631672 128.74507044 65.66131592 130.80688477 C65.32392872 133.64165618 64.97751932 136.47518439 64.62890625 139.30859375 C64.53337463 140.13156448 64.43784302 140.95453522 64.3394165 141.80244446 C63.40477891 149.25737023 63.40477891 149.25737023 61.40234375 151.9140625 C59.12182617 153.46289062 59.12182617 153.46289062 56.2578125 154.9453125 C55.19949219 155.5021875 54.14117187 156.0590625 53.05078125 156.6328125 C51.90867188 157.220625 50.7665625 157.8084375 49.58984375 158.4140625 C47.19508332 159.66911999 44.80470969 160.93244179 42.4140625 162.1953125 C41.81379242 162.51105225 41.21352234 162.82679199 40.59506226 163.15209961 C35.29063816 165.94972802 30.0875785 168.90290257 24.90234375 171.9140625 C15.71006568 177.23239396 6.38547221 182.28302884 -2.98242188 187.28320312 C-4.03107422 187.84330078 -5.07972656 188.40339844 -6.16015625 188.98046875 C-7.08957031 189.47490479 -8.01898438 189.96934082 -8.9765625 190.47875977 C-11.63690127 191.87687594 -11.63690127 191.87687594 -14.125 193.65991211 C-16.59765625 194.9140625 -16.59765625 194.9140625 -19.10205078 194.75683594 C-21.75659073 193.86038985 -24.07002616 192.77695739 -26.52734375 191.4296875 C-27.94950195 190.6552832 -27.94950195 190.6552832 -29.40039062 189.86523438 C-30.41423828 189.30384766 -31.42808594 188.74246094 -32.47265625 188.1640625 C-33.53548828 187.58205078 -34.59832031 187.00003906 -35.69335938 186.40039062 C-43.80625052 181.94333807 -51.86703367 177.39500866 -59.90917969 172.81176758 C-68.12791798 168.14010093 -76.43829417 163.64659699 -84.79492188 159.2265625 C-85.74302734 158.71996094 -86.69113281 158.21335938 -87.66796875 157.69140625 C-88.50086426 157.25046631 -89.33375977 156.80952637 -90.19189453 156.35522461 C-97.20182527 152.15595313 -97.20182527 152.15595313 -98.46226501 148.20141602 C-98.57518387 147.15912842 -98.68810272 146.11684082 -98.80444336 145.04296875 C-98.94506195 143.84792725 -99.08568054 142.65288574 -99.2305603 141.42163086 C-99.3607254 140.1197583 -99.4908905 138.81788574 -99.625 137.4765625 C-99.77907611 136.09816584 -99.93517891 134.71999441 -100.09317017 133.34204102 C-100.51256839 129.63645186 -100.90476975 125.92844482 -101.29185867 122.21936035 C-101.6977265 118.3736738 -102.12789392 114.53071884 -102.55639648 110.6875 C-103.16345011 105.22546185 -103.76285425 99.76268899 -104.35271168 94.29876709 C-105.33764713 85.18401693 -106.38790396 76.0790551 -107.48046875 66.9765625 C-107.76834353 64.56380602 -108.05618634 62.15104572 -108.34399414 59.73828125 C-108.74909509 56.34557207 -109.15543387 52.95304211 -109.56637573 49.56103516 C-109.93913075 46.47114335 -110.3027607 43.38031127 -110.6640625 40.2890625 C-110.83054794 38.93760132 -110.83054794 38.93760132 -111.00039673 37.55883789 C-111.09509247 36.73504639 -111.18978821 35.91125488 -111.28735352 35.0625 C-111.37203384 34.35270996 -111.45671417 33.64291992 -111.54396057 32.91162109 C-111.60465644 30.65364522 -111.43003504 29.02005059 -110.59765625 26.9140625 C-107.95590816 25.66984546 -105.50894825 24.73072698 -102.74609375 23.83984375 C-101.92000107 23.55831955 -101.09390839 23.27679535 -100.24278259 22.98674011 C-97.49085285 22.05181725 -94.73201703 21.13929616 -91.97265625 20.2265625 C-88.05479928 18.90706072 -84.1406411 17.57675527 -80.2265625 16.24609375 C-79.20634506 15.90091705 -78.18612762 15.55574036 -77.13499451 15.20010376 C-69.56434657 12.62519749 -62.05591695 9.9042771 -54.5625 7.11328125 C-53.49992981 6.71949783 -52.43735962 6.32571442 -51.34259033 5.91999817 C-45.08426223 3.6001062 -45.08426223 3.6001062 -38.83782959 1.2484436 C-35.94685527 0.15281658 -33.04870581 -0.92145331 -30.1484375 -1.9921875 C-29.29805405 -2.32160843 -28.44767059 -2.65102936 -27.57151794 -2.99043274 C-17.52978229 -6.64850393 -9.72349045 -3.35754217 0 0 Z " fill="#F40E2A" transform="translate(123.59765625,15.0859375)"/>
<path d="M0 0 C1.21615997 0.41333588 2.43231995 0.82667175 3.68533325 1.25253296 C6.94493837 2.36083168 10.20114302 3.47880688 13.45666122 4.5990448 C16.13629955 5.51977678 18.8178843 6.4347625 21.49949741 7.34972382 C40.18462493 13.72591587 58.8414524 20.18363316 77.40234375 26.9140625 C77.62121123 34.12224615 76.77039984 41.08216885 75.86328125 48.2265625 C75.70184631 49.5295076 75.54041138 50.8324527 75.37408447 52.17488098 C74.93789016 55.69440855 74.49571313 59.21315878 74.05207062 62.7317543 C73.59226935 66.38421135 73.13692122 70.03722352 72.68115234 73.69018555 C72.12725291 78.12741274 71.57273824 82.56455976 71.01565552 87.00138855 C69.85539001 96.24685129 68.72089906 105.49509471 67.60546875 114.74609375 C67.20552859 118.03824983 66.8048047 121.33030915 66.40362549 124.62231445 C66.15377304 126.68354648 65.90631672 128.74507044 65.66131592 130.80688477 C65.32392872 133.64165618 64.97751932 136.47518439 64.62890625 139.30859375 C64.53337463 140.13156448 64.43784302 140.95453522 64.3394165 141.80244446 C63.40477891 149.25737023 63.40477891 149.25737023 61.40234375 151.9140625 C59.12182617 153.46289062 59.12182617 153.46289062 56.2578125 154.9453125 C55.19949219 155.5021875 54.14117187 156.0590625 53.05078125 156.6328125 C51.90867187 157.220625 50.7665625 157.8084375 49.58984375 158.4140625 C47.19508332 159.66911999 44.80470969 160.93244179 42.4140625 162.1953125 C41.81379242 162.51105225 41.21352234 162.82679199 40.59506226 163.15209961 C35.29063816 165.94972802 30.0875785 168.90290257 24.90234375 171.9140625 C15.71006568 177.23239396 6.38547221 182.28302884 -2.98242188 187.28320312 C-4.03107422 187.84330078 -5.07972656 188.40339844 -6.16015625 188.98046875 C-7.08957031 189.47490479 -8.01898438 189.96934082 -8.9765625 190.47875977 C-11.64582113 191.89441199 -11.64582113 191.89441199 -14.25 193.65991211 C-15.02472656 194.07378174 -15.79945312 194.48765137 -16.59765625 194.9140625 C-17.58765625 194.5840625 -18.57765625 194.2540625 -19.59765625 193.9140625 C-18.93765625 193.9140625 -18.27765625 193.9140625 -17.59765625 193.9140625 C-17.59765625 169.1640625 -17.59765625 144.4140625 -17.59765625 118.9140625 C-25.84765625 118.9140625 -34.09765625 118.9140625 -42.59765625 118.9140625 C-42.59765625 118.5840625 -42.59765625 118.2540625 -42.59765625 117.9140625 C-25.43765625 117.9140625 -8.27765625 117.9140625 9.40234375 117.9140625 C14.08437486 127.27812471 18.38641083 136.31500333 22.40234375 145.9140625 C32.30234375 146.4090625 32.30234375 146.4090625 42.40234375 146.9140625 C41.20351562 144.44292969 41.20351562 144.44292969 39.98046875 141.921875 C32.80222277 127.09028721 25.79282948 112.19259538 18.92041016 97.21630859 C16.32368109 91.56765028 13.70772488 85.92794266 11.08984375 80.2890625 C10.5599585 79.14759766 10.03007324 78.00613281 9.48413086 76.83007812 C4.25095186 65.56894522 -1.02166351 54.32635803 -6.30162048 43.08709717 C-7.17140646 41.23351535 -8.03878203 39.37882155 -8.90576172 37.52392578 C-10.05330705 35.07549789 -11.2076622 32.63148303 -12.37158203 30.19091797 C-13.19698486 28.44319092 -13.19698486 28.44319092 -14.0390625 26.66015625 C-14.77878296 25.10639282 -14.77878296 25.10639282 -15.53344727 23.52124023 C-16.59765625 20.9140625 -16.59765625 20.9140625 -16.59765625 17.9140625 C-17.25765625 17.9140625 -17.91765625 17.9140625 -18.59765625 17.9140625 C-18.88640625 18.8628125 -19.17515625 19.8115625 -19.47265625 20.7890625 C-20.59765625 23.9140625 -20.59765625 23.9140625 -22.59765625 25.9140625 C-22.59765625 23.9340625 -22.59765625 21.9540625 -22.59765625 19.9140625 C-21.60765625 19.5840625 -20.61765625 19.2540625 -19.59765625 18.9140625 C-19.56869649 15.78908187 -19.55087142 12.6641356 -19.53515625 9.5390625 C-19.52677734 8.64960938 -19.51839844 7.76015625 -19.50976562 6.84375 C-19.50654297 5.99296875 -19.50332031 5.1421875 -19.5 4.265625 C-19.49476318 3.48010254 -19.48952637 2.69458008 -19.48413086 1.88525391 C-19.47191672 -0.16366418 -19.47191672 -0.16366418 -20.59765625 -2.0859375 C-26.45425531 -0.42440738 -32.05666965 1.38448166 -37.59765625 3.9140625 C-37.59765625 4.9040625 -37.59765625 5.8940625 -37.59765625 6.9140625 C-39.47265625 7.5390625 -39.47265625 7.5390625 -41.59765625 7.9140625 C-42.25765625 7.2540625 -42.91765625 6.5940625 -43.59765625 5.9140625 C-45.90765625 6.5740625 -48.21765625 7.2340625 -50.59765625 7.9140625 C-50.59765625 7.2540625 -50.59765625 6.5940625 -50.59765625 5.9140625 C-46.48007218 4.30644441 -42.35432016 2.72260718 -38.21972656 1.15942383 C-36.81691333 0.62538 -35.41645209 0.08511216 -34.01855469 -0.46166992 C-31.99883574 -1.25039754 -29.97147829 -2.01572316 -27.94140625 -2.77734375 C-26.72646484 -3.24342041 -25.51152344 -3.70949707 -24.25976562 -4.18969727 C-15.74919419 -6.27251778 -8.00758205 -2.76503531 0 0 Z " fill="#C41B28" transform="translate(123.59765625,15.0859375)"/>
<path d="M0 0 C0.66 0 1.32 0 2 0 C2.36013184 0.80066895 2.72026367 1.60133789 3.09130859 2.42626953 C10.9342412 19.83615349 18.9308717 37.16216772 27.14376831 54.40072632 C32.84531308 66.37441101 38.41210773 78.40114449 43.86331177 90.49075317 C48.38125436 100.50971971 53.01812905 110.45665285 57.85327148 120.32788086 C58.27165283 121.18776611 58.69003418 122.04765137 59.12109375 122.93359375 C59.4864624 123.67665771 59.85183105 124.41972168 60.22827148 125.18530273 C61 127 61 127 61 129 C54.4 129 47.8 129 41 129 C36.27181789 119.7742788 32.17343159 110.53927221 28 101 C10.51 100.67 -6.98 100.34 -25 100 C-25.33 101.98 -25.66 103.96 -26 106 C-26.62200507 107.80766115 -27.3008269 109.59664285 -28.03125 111.36328125 C-28.42957031 112.33201172 -28.82789062 113.30074219 -29.23828125 114.29882812 C-29.65464844 115.29333984 -30.07101563 116.28785156 -30.5 117.3125 C-30.91636719 118.32634766 -31.33273438 119.34019531 -31.76171875 120.38476562 C-34.85309821 127.85309821 -34.85309821 127.85309821 -36 129 C-37.63472882 129.08700342 -39.27314055 129.10701063 -40.91015625 129.09765625 C-41.89951172 129.09443359 -42.88886719 129.09121094 -43.90820312 129.08789062 C-44.94912109 129.07951172 -45.99003906 129.07113281 -47.0625 129.0625 C-48.10728516 129.05798828 -49.15207031 129.05347656 -50.22851562 129.04882812 C-52.8190666 129.03699913 -55.40950559 129.02051689 -58 129 C-53.57924631 118.01278221 -48.88861864 107.19171189 -43.89483643 96.45327759 C-42.00870954 92.39591903 -40.13535942 88.33266738 -38.26171875 84.26953125 C-37.70460205 83.0619944 -37.70460205 83.0619944 -37.13623047 81.83006287 C-34.07396591 75.18291716 -31.08043058 68.50791861 -28.125 61.8125 C-23.2181186 50.70315911 -18.23961794 39.62718306 -13.23651123 28.56088257 C-12.37688737 26.65941462 -11.517709 24.75774521 -10.65899658 22.85586548 C-9.44974194 20.17806153 -8.23881284 17.50102147 -7.02734375 14.82421875 C-6.66534378 14.02225067 -6.30334381 13.22028259 -5.93037415 12.39401245 C-4.03713865 8.21707784 -2.08353002 4.08678322 0 0 Z " fill="#FCF6F7" transform="translate(105,33)"/>
<path d="M0 0 C2.18184802 2.02184374 3.60523395 3.84924033 4.90112305 6.52172852 C5.24124924 7.21577286 5.58137543 7.9098172 5.93180847 8.62489319 C6.28817886 9.3687175 6.64454926 10.11254181 7.01171875 10.87890625 C7.57135063 12.03071632 7.57135063 12.03071632 8.14228821 13.20579529 C8.92768312 14.82577329 9.71002131 16.44723633 10.48950195 18.07006836 C11.68644185 20.56029853 12.8941917 23.04506108 14.10351562 25.52929688 C14.86522861 27.10385467 15.626318 28.67871432 16.38671875 30.25390625 C16.74916183 30.99975479 17.11160492 31.74560333 17.48503113 32.51405334 C20 37.76876004 20 37.76876004 20 40 C8.12 40 -3.76 40 -16 40 C-14.22775616 34.68326848 -12.55335979 29.70824143 -10.37109375 24.609375 C-9.89349609 23.48789063 -9.41589844 22.36640625 -8.92382812 21.2109375 C-8.43333984 20.06882812 -7.94285156 18.92671875 -7.4375 17.75 C-6.45666334 15.45328208 -5.47618092 13.15641285 -4.49609375 10.859375 C-4.06482178 9.85358398 -3.6335498 8.84779297 -3.18920898 7.81152344 C-2.09298062 5.21982443 -1.03499047 2.61666667 0 0 Z " fill="#BC1E2B" transform="translate(105,75)"/>
<path d="M0 0 C0.66 0 1.32 0 2 0 C2 11.88 2 23.76 2 36 C-2.95 36 -7.9 36 -13 36 C-13 30.39321641 -12.5679295 28.26681192 -10.41015625 23.359375 C-10.14617538 22.75111877 -9.88219452 22.14286255 -9.61021423 21.51617432 C-8.77113621 19.58947939 -7.91708358 17.66985998 -7.0625 15.75 C-6.49184812 14.44574539 -5.92217672 13.14106133 -5.35351562 11.8359375 C-1.44113233 2.88226466 -1.44113233 2.88226466 0 0 Z " fill="#F30F2A" transform="translate(104,78)"/>
<path d="M0 0 C-0.66 0.33 -1.32 0.66 -2 1 C-1.505 1.99 -1.505 1.99 -1 3 C-0.84932786 4.4465242 -0.75138964 5.8987934 -0.68359375 7.3515625 C-0.64169922 8.20234375 -0.59980469 9.053125 -0.55664062 9.9296875 C-0.51732422 10.81914062 -0.47800781 11.70859375 -0.4375 12.625 C-0.39431641 13.5221875 -0.35113281 14.419375 -0.30664062 15.34375 C-0.20043139 17.56234283 -0.09838806 19.7810488 0 22 C-0.66 22 -1.32 22 -2 22 C-2.28875 22.94875 -2.5775 23.8975 -2.875 24.875 C-4 28 -4 28 -6 30 C-6 28.02 -6 26.04 -6 24 C-5.01 23.67 -4.02 23.34 -3 23 C-2.97104024 19.87501937 -2.95321517 16.7500731 -2.9375 13.625 C-2.92912109 12.73554688 -2.92074219 11.84609375 -2.91210938 10.9296875 C-2.90888672 10.07890625 -2.90566406 9.228125 -2.90234375 8.3515625 C-2.89710693 7.56604004 -2.89187012 6.78051758 -2.88647461 5.97119141 C-2.87426047 3.92227332 -2.87426047 3.92227332 -4 2 C-9.85659906 3.66153012 -15.4590134 5.47041916 -21 8 C-21 8.99 -21 9.98 -21 11 C-22.875 11.625 -22.875 11.625 -25 12 C-25.66 11.34 -26.32 10.68 -27 10 C-29.31 10.66 -31.62 11.32 -34 12 C-34 11.34 -34 10.68 -34 10 C-30.28855926 8.56089335 -26.57153546 7.13738268 -22.84887695 5.72753906 C-20.96713992 5.01128202 -19.08996542 4.2830752 -17.21289062 3.5546875 C-16.01728516 3.10351562 -14.82167969 2.65234375 -13.58984375 2.1875 C-12.49534912 1.76855469 -11.40085449 1.34960938 -10.27319336 0.91796875 C-6.71184491 -0.08081324 -3.68076275 -0.16295574 0 0 Z " fill="#D21127" transform="translate(107,11)"/>
<path d="M0 0 C0.33 0 0.66 0 1 0 C1.20046927 7.14329131 0.6387135 13.9420417 -0.4375 21 C-0.57220703 21.93972656 -0.70691406 22.87945312 -0.84570312 23.84765625 C-1.85893654 30.71787309 -1.85893654 30.71787309 -3 33 C-3.66 32.67 -4.32 32.34 -5 32 C-4.67 30.35 -4.34 28.7 -4 27 C-4.66 27 -5.32 27 -6 27 C-6.38095238 16.1005291 -6.38095238 16.1005291 -4 12 C-3.34 11.67 -2.68 11.34 -2 11 C-1.30906104 8.42048126 -1.30906104 8.42048126 -0.875 5.4375 C-0.62363281 3.91962891 -0.62363281 3.91962891 -0.3671875 2.37109375 C-0.24601563 1.58863281 -0.12484375 0.80617187 0 0 Z " fill="#B01622" transform="translate(198,58)"/>
<path d="M0 0 C1.32 0.33 2.64 0.66 4 1 C1.91932667 7.76296354 -0.73249736 14.13878613 -3.6875 20.5625 C-4.10322266 21.47580078 -4.51894531 22.38910156 -4.94726562 23.33007812 C-5.96082902 25.55525752 -6.97845216 27.77847781 -8 30 C-8.33 30 -8.66 30 -9 30 C-9 28.02 -9 26.04 -9 24 C-8.34 24 -7.68 24 -7 24 C-6.91773332 20.95613276 -7.02391783 18.92824652 -8 16 C-6.35 15.67 -4.7 15.34 -3 15 C-3 13.68 -3 12.36 -3 11 C-2.34 11 -1.68 11 -1 11 C-1.33 9.02 -1.66 7.04 -2 5 C-1.01 5.33 -0.02 5.66 1 6 C0.67 4.02 0.34 2.04 0 0 Z " fill="#DF182C" transform="translate(60,122)"/>
<path d="M0 0 C7.98676972 1.51473219 15.40122878 4.16802552 23 7 C23.09038099 12.15171623 22.84681133 16.91913204 22 22 C21.67 22 21.34 22 21 22 C21 19.03 21 16.06 21 13 C20.01 12.67 19.02 12.34 18 12 C17.67 10.35 17.34 8.7 17 7 C8.585 4.525 8.585 4.525 0 2 C0 1.34 0 0.68 0 0 Z " fill="#A61824" transform="translate(178,35)"/>
<path d="M0 0 C0.66 0 1.32 0 2 0 C2 11.88 2 23.76 2 36 C1.67 36 1.34 36 1 36 C0.80305995 31.75038214 0.61907926 27.50029973 0.4375 23.25 C0.38142578 22.0434375 0.32535156 20.836875 0.26757812 19.59375 C0.21923828 18.43359375 0.17089844 17.2734375 0.12109375 16.078125 C0.0739624 15.00981445 0.02683105 13.94150391 -0.02172852 12.84082031 C-0.00254744 10.33305593 0.25500441 8.37796573 1 6 C0.34 6 -0.32 6 -1 6 C-1 6.99 -1 7.98 -1 9 C-1.66 9 -2.32 9 -3 9 C-2.44271087 5.65626525 -1.64826111 2.96687001 0 0 Z " fill="#E12034" transform="translate(104,78)"/>
<path d="M0 0 C1.53202706 0.25195908 3.05257128 0.57596777 4.5625 0.9375 C5.38878906 1.13214844 6.21507813 1.32679688 7.06640625 1.52734375 C8.02353516 1.76130859 8.02353516 1.76130859 9 2 C3.21428571 6.82142857 3.21428571 6.82142857 0 8 C-0.99 7.67 -1.98 7.34 -3 7 C-2.34 7 -1.68 7 -1 7 C-1.020625 6.030625 -1.04125 5.06125 -1.0625 4.0625 C-1 1 -1 1 0 0 Z " fill="#B71825" transform="translate(107,202)"/>
<path d="M0 0 C1.65 0 3.3 0 5 0 C4.01 0.495 4.01 0.495 3 1 C3.33 1.66 3.66 2.32 4 3 C4.15067214 4.4465242 4.24861036 5.8987934 4.31640625 7.3515625 C4.35830078 8.20234375 4.40019531 9.053125 4.44335938 9.9296875 C4.48267578 10.81914062 4.52199219 11.70859375 4.5625 12.625 C4.60568359 13.5221875 4.64886719 14.419375 4.69335938 15.34375 C4.79956861 17.56234283 4.90161194 19.7810488 5 22 C4.34 22 3.68 22 3 22 C2.71125 22.94875 2.4225 23.8975 2.125 24.875 C1 28 1 28 -1 30 C-1 28.02 -1 26.04 -1 24 C-0.01 23.67 0.98 23.34 2 23 C2.0582253 19.91674642 2.09367134 16.83363495 2.125 13.75 C2.14175781 12.87730469 2.15851563 12.00460938 2.17578125 11.10546875 C2.18222656 10.26113281 2.18867187 9.41679687 2.1953125 8.546875 C2.20578613 7.77182617 2.21625977 6.99677734 2.22705078 6.19824219 C1.97326556 3.74116461 1.22444152 2.12688458 0 0 Z " fill="#E7162B" transform="translate(102,11)"/>
<path d="M0 0 C0.99 0.495 0.99 0.495 2 1 C2 12.5 2 12.5 1.78125 16.984375 C1.73613281 17.91894531 1.69101563 18.85351562 1.64453125 19.81640625 C1.59683594 20.78449219 1.54914063 21.75257812 1.5 22.75 C1.45230469 23.73355469 1.40460938 24.71710938 1.35546875 25.73046875 C1.2378367 28.15368892 1.11931637 30.57686228 1 33 C0.67 33 0.34 33 0 33 C0 22.11 0 11.22 0 0 Z " fill="#CA1827" transform="translate(106,80)"/>
<path d="M0 0 C0 0.66 0 1.32 0 2 C-4.455 3.485 -4.455 3.485 -9 5 C-9 11.6 -9 18.2 -9 25 C-9.33 25 -9.66 25 -10 25 C-10.66 18.07 -11.32 11.14 -12 4 C-3 0 -3 0 0 0 Z " fill="#C51228" transform="translate(24,39)"/>
<path d="M0 0 C0.66 0.33 1.32 0.66 2 1 C-0.2863012 2.36402043 -2.57821749 3.71634274 -4.875 5.0625 C-5.85146484 5.64741211 -5.85146484 5.64741211 -6.84765625 6.24414062 C-8.53065725 7.22444533 -10.26296199 8.11898432 -12 9 C-12.66 8.67 -13.32 8.34 -14 8 C-13.67 7.01 -13.34 6.02 -13 5 C-12.34 5 -11.68 5 -11 5 C-10.67 4.01 -10.34 3.02 -10 2 C-8.63875 2.061875 -8.63875 2.061875 -7.25 2.125 C-4.06287624 2.00241832 -2.72251062 1.45848783 0 0 Z " fill="#AC1421" transform="translate(132,194)"/>
<path d="M0 0 C1.09658936 3.28976808 0.79953138 4.71303767 0 8 C-0.66 8 -1.32 8 -2 8 C-2.103125 8.639375 -2.20625 9.27875 -2.3125 9.9375 C-3.23903073 14.06477326 -4.61660629 18.00642949 -6 22 C-6.66 22 -7.32 22 -8 22 C-7.29807915 17.06678166 -5.36469225 12.74025318 -3.4375 8.1875 C-3.10814453 7.39923828 -2.77878906 6.61097656 -2.43945312 5.79882812 C-1.63041094 3.86416204 -0.81576148 1.93184247 0 0 Z " fill="#D62033" transform="translate(99,89)"/>
<path d="M0 0 C2.64 0 5.28 0 8 0 C8.33 1.32 8.66 2.64 9 4 C10.32 3.01 11.64 2.02 13 1 C13 2.65 13 4.3 13 6 C7.71862571 5.48474397 4.42778844 3.74522883 0 1 C0 0.67 0 0.34 0 0 Z " fill="#DB132D" transform="translate(93,203)"/>
<path d="M0 0 C0.33 0.99 0.66 1.98 1 3 C1.66 3 2.32 3 3 3 C3 2.34 3 1.68 3 1 C3.99 1 4.98 1 6 1 C7.125 4.75 7.125 4.75 6 7 C6.99 7.33 7.98 7.66 9 8 C8.01 8.495 8.01 8.495 7 9 C4.8359375 8.00390625 4.8359375 8.00390625 2.375 6.5625 C1.55773438 6.08941406 0.74046875 5.61632812 -0.1015625 5.12890625 C-0.72804687 4.75636719 -1.35453125 4.38382813 -2 4 C-1.34 3.67 -0.68 3.34 0 3 C0 2.01 0 1.02 0 0 Z " fill="#DF132B" transform="translate(37,168)"/>
<path d="M0 0 C0 1.32 0 2.64 0 4 C0.99 4 1.98 4 3 4 C3 4.66 3 5.32 3 6 C-1.50802601 4.74194623 -4.4912812 3.09592835 -8 0 C-4.71303767 -0.79953138 -3.28976808 -1.09658936 0 0 Z " fill="#D4172A" transform="translate(61,181)"/>
<path d="M0 0 C0.33 0 0.66 0 1 0 C1.9765625 6.0546875 1.9765625 6.0546875 2 8 C1.34 8.66 0.68 9.32 0 10 C-1.32 10 -2.64 10 -4 10 C-2.8905928 6.51329166 -1.73662334 3.22515763 0 0 Z " fill="#FCE0E0" transform="translate(84,79)"/>
<path d="M0 0 C2.79163712 2.40768703 3.89717557 4.76146616 5.1875 8.1875 C5.53167969 9.08855469 5.87585938 9.98960937 6.23046875 10.91796875 C6.48441406 11.60503906 6.73835937 12.29210937 7 13 C5 13 5 13 2.9375 11.5625 C0.18918922 7.92763735 0.19041398 4.45568718 0 0 Z " fill="#B12433" transform="translate(133,135)"/>
<path d="M0 0 C4 2 4 2 5.25 5.125 C5.4975 6.07375 5.745 7.0225 6 8 C5.01 8.495 5.01 8.495 4 9 C2.68 6.03 1.36 3.06 0 0 Z " fill="#B32B37" transform="translate(153,134)"/>
<path d="M0 0 C2.64 0 5.28 0 8 0 C2.85714286 4.42857143 2.85714286 4.42857143 -1 5 C-0.67 3.35 -0.34 1.7 0 0 Z " fill="#A7151F" transform="translate(173,168)"/>
<path d="M0 0 C0.99 0.33 1.98 0.66 3 1 C2.01 1.495 2.01 1.495 1 2 C0.32060826 3.99571323 -0.34561559 5.99594773 -1 8 C-1.66 8.66 -2.32 9.32 -3 10 C-3 8.02 -3 6.04 -3 4 C-2.01 3.67 -1.02 3.34 0 3 C0 2.01 0 1.02 0 0 Z " fill="#DB2235" transform="translate(104,31)"/>
<path d="M0 0 C0.33 0.66 0.66 1.32 1 2 C1.66 2.33 2.32 2.66 3 3 C2.01 5.31 1.02 7.62 0 10 C-1.125 8.375 -1.125 8.375 -2 6 C-1.125 2.75 -1.125 2.75 0 0 Z " fill="#DF1A32" transform="translate(67,109)"/>
<path d="M0 0 C0.66 0 1.32 0 2 0 C3.09658936 3.28976808 2.79953138 4.71303767 2 8 C0 7 0 7 -0.6875 5.125 C-1 3 -1 3 0 0 Z " fill="#F00B1F" transform="translate(28,161)"/>
<path d="M0 0 C0.66 0.99 1.32 1.98 2 3 C1.01 4.98 0.02 6.96 -1 9 C-1.66 9 -2.32 9 -3 9 C-2.01 6.03 -1.02 3.06 0 0 Z " fill="#FEDDE2" transform="translate(73,103)"/>
</svg>
