<?xml version="1.0" encoding="UTF-8"?>
<svg version="1.1" xmlns="http://www.w3.org/2000/svg" width="340" height="480">
<path d="M0 0 C112.2 0 224.4 0 340 0 C340 13.5 340 13.5 339.53147888 18.72401047 C339.42697701 19.91832396 339.32247515 21.11263746 339.21480656 22.34314227 C339.09807811 23.6155468 338.98134966 24.88795133 338.86108398 26.19891357 C338.73688712 27.59516295 338.61315828 28.99145403 338.48985195 30.38778234 C338.15256383 34.19203603 337.80871155 37.99567112 337.46371031 41.79923201 C337.09173659 45.91323319 336.72595861 50.02778591 336.35940552 54.14227295 C335.72445199 61.26002679 335.08562512 68.37742431 334.44412231 75.49459076 C333.51663699 85.78465959 332.59506315 96.07525119 331.67490423 106.36597744 C330.18163686 123.06434638 328.68362826 139.76228642 327.18261719 156.45996094 C325.72503979 172.67458126 324.26970832 188.88940058 322.81738281 205.10449219 C322.72777295 206.10497002 322.63816308 207.10544785 322.54583776 208.13624319 C322.096279 213.15564024 321.64676423 218.17504123 321.19727135 223.19444418 C317.47166892 264.79690905 313.73836308 306.39867997 310 348 C303.29860928 349.87763773 296.5971103 351.75488871 289.89554405 353.63189983 C287.62692256 354.26735314 285.35832376 354.90288751 283.08975029 355.53851223 C262.3980888 361.33594255 241.69568387 367.0940088 220.98632812 372.82788086 C216.39181367 374.09999725 211.79761121 375.3732367 207.20348549 376.64675617 C203.59032553 377.64824335 199.97702984 378.64924006 196.36368942 379.65007591 C194.66439373 380.12080305 192.96513603 380.59166736 191.26591873 381.06267738 C188.93734386 381.7080499 186.60859057 382.35277441 184.27978516 382.99731445 C183.59660721 383.18679153 182.91342926 383.37626862 182.20954895 383.57148743 C180.47406852 384.05142002 178.73711476 384.52601696 177 385 C176.00134415 385.30945808 176.00134415 385.30945808 174.98251343 385.62516785 C168.57915864 386.83584477 163.02693747 385.4463832 156.91992188 383.69604492 C156.03544876 383.45036774 155.15097565 383.20469055 154.23970032 382.9515686 C151.31357246 382.13645819 148.39123665 381.30853063 145.46875 380.48046875 C143.39763806 379.90069534 141.32630376 379.32171576 139.25476074 378.7434845 C133.77659436 377.21201079 128.30155467 375.66963643 122.8270874 374.125 C117.4087079 372.59821992 111.98743355 371.08179923 106.56640625 369.56445312 C94.04063443 366.05584512 81.51954991 362.53073639 69 359 C67.83578585 358.67168584 67.83578585 358.67168584 66.64805222 358.33673906 C54.43187894 354.89171193 42.21588205 351.44605964 30 348 C26.17193041 305.40040641 22.34947638 262.80031224 18.53453189 220.19954114 C18.08393415 215.16785453 17.63329001 210.13617207 17.18261719 205.10449219 C17.04803952 203.60194393 17.04803952 203.60194393 16.91074312 202.06904116 C15.45874347 185.85883238 14.00298732 169.64896304 12.54583776 153.43921646 C11.0502748 136.80120856 9.55876063 120.16284128 8.07098866 103.52413487 C7.15314672 93.2607541 6.23216415 82.99766517 5.30713677 72.73492947 C4.67274466 65.69326638 4.04229272 58.65125738 3.41490626 51.60896668 C3.05305813 47.54859693 2.68950528 43.48839935 2.32126236 39.42860413 C1.98358196 35.70532581 1.65089724 31.9816347 1.322034 28.25756755 C1.14664219 26.28577301 0.96603767 24.31444422 0.78519344 22.34314227 C0.68069158 21.14882878 0.57618971 19.95451528 0.46852112 18.72401047 C0.37738824 17.70787886 0.28625536 16.69174726 0.19236088 15.64482379 C-0.08250351 10.43673649 0 5.21533544 0 0 Z " fill="#264DE4" transform="translate(0,94)"/>
<path d="M0 0 C70.29 0 140.58 0 213 0 C213 6.79280969 212.93952732 13.25226884 212.28491211 19.95947266 C212.1698968 21.20293111 212.1698968 21.20293111 212.05255795 22.47150993 C211.79882513 25.20282007 211.53803606 27.93340861 211.27734375 30.6640625 C211.09406808 32.62515624 210.91131132 34.58629853 210.72903442 36.54748535 C210.33958294 40.72952045 209.94731385 44.91127723 209.55276489 49.09283447 C208.61564221 59.02947295 207.6944795 68.96759486 206.77368736 78.9057579 C206.56461589 81.16225478 206.3553878 83.41873716 206.14600563 85.67520523 C204.03041128 108.48433268 202.02160938 131.30195447 200.0625 154.125 C199.91814008 155.80397703 199.77376167 157.48295248 199.62936401 159.16192627 C199.22188741 163.90212993 198.81572681 168.64244541 198.41015625 173.3828125 C198.34734655 174.11613422 198.28453686 174.84945595 198.21982384 175.60499954 C197.59690597 182.88345602 196.98303678 190.16239688 196.40185547 197.44433594 C196.31109238 198.57177216 196.22032928 199.69920837 196.1268158 200.86080933 C195.96213524 202.91761137 195.80056374 204.97466592 195.64283752 207.03201294 C195.57177292 207.91847504 195.50070831 208.80493713 195.42749023 209.71826172 C195.36843002 210.47968475 195.30936981 211.24110779 195.2485199 212.02560425 C195 214 195 214 194 217 C190.99721597 218.20111361 188.10721092 219.12119287 185 220 C184.37351563 220.17789063 183.74703125 220.35578125 183.1015625 220.5390625 C178.53907205 221.83033338 173.96831697 223.09039636 169.39501953 224.34277344 C165.59407145 225.38580628 161.7971943 226.44340025 158 227.5 C156.49480797 227.91802747 154.98959962 228.33599616 153.484375 228.75390625 C149.80593712 229.77560593 146.12821853 230.79986337 142.45092773 231.82568359 C140.98491718 232.23320688 139.51828068 232.63848519 138.05102539 233.04150391 C133.78526927 234.21427444 129.53528019 235.42842584 125.29296875 236.68359375 C123.34117754 237.2475056 121.38935507 237.81130924 119.4375 238.375 C118.53354492 238.65013428 117.62958984 238.92526855 116.69824219 239.20874023 C107.64861108 241.78753356 100.41880733 240.36609078 91.5625 237.75 C89.98052318 237.296685 88.39849032 236.84356553 86.81640625 236.390625 C85.61781982 236.04354492 85.61781982 236.04354492 84.39501953 235.68945312 C80.60443393 234.59825906 76.80199268 233.55060538 73 232.5 C71.5012508 232.08351783 70.00255298 231.66685075 68.50390625 231.25 C65.49184981 230.41313604 62.47875159 229.58017044 59.46484375 228.75 C47.51432975 225.45357269 35.61957672 221.98758285 23.74609375 218.42431641 C22.40889282 218.02305038 22.40889282 218.02305038 21.04467773 217.61367798 C20.36993408 217.41116425 19.69519043 217.20865051 19 217 C18.34462712 209.29815697 17.69243785 201.59604987 17.04424286 193.89359951 C16.74311896 190.31654709 16.44092456 186.73959202 16.13623047 183.1628418 C15.84188772 179.7071282 15.55042653 176.25118227 15.26091003 172.79506111 C15.09669142 170.84354846 14.92953696 168.89228358 14.7623291 166.94102478 C14.66222534 165.74030838 14.56212158 164.53959198 14.45898438 163.30249023 C14.37015991 162.25214096 14.28133545 161.20179169 14.18981934 160.11961365 C13.9849126 156.75204395 14 153.37379792 14 150 C28.19 150 42.38 150 57 150 C57.99 161.22 58.98 172.44 60 184 C62.805 184.680625 65.61 185.36125 68.5 186.0625 C74.51412448 187.53157203 80.47048178 189.11145685 86.390625 190.92578125 C87.44958984 191.24861084 88.50855469 191.57144043 89.59960938 191.90405273 C91.66241156 192.53980632 93.72125405 193.1885884 95.77539062 193.85180664 C105.15707313 196.7357409 112.09781158 195.14709798 121.4375 192.75 C122.30060791 192.53182617 123.16371582 192.31365234 124.05297852 192.08886719 C130.59142235 190.41458484 137.07469851 188.57893732 143.53100586 186.61230469 C147.00448402 185.55761707 150.43641153 184.6819754 154 184 C154.08040527 182.93789307 154.16081055 181.87578613 154.24365234 180.78149414 C154.54953141 176.75355015 154.860079 172.72597624 155.171875 168.69848633 C155.30493904 166.9716925 155.43681926 165.24480695 155.56738281 163.51782227 C155.75777094 161.00250224 155.95274887 158.48756887 156.1484375 155.97265625 C156.20373627 155.22919449 156.25903503 154.48573273 156.31600952 153.71974182 C156.96926426 145.4383187 158.02668425 137.27318388 159 129 C110.16 129 61.32 129 11 129 C10.01 114.81 9.02 100.62 8 86 C59.15 86 110.3 86 163 86 C163.33 79.4 163.66 72.8 164 66 C164.66 58.41 165.32 50.82 166 43 C112.54 43 59.08 43 4 43 C1 11 1 11 0 0 Z " fill="#FEFEFE" transform="translate(63,165)"/>
<path d="M0 0 C45.87 0 91.74 0 139 0 C135.78540925 43.93274021 135.78540925 43.93274021 133.68359375 62.45703125 C132.80900933 70.44826148 132.29828648 78.45877957 131.77148438 86.47900391 C131.11764602 96.10150512 130.11398066 105.66603796 129.03735352 115.24926758 C128.20123481 122.79254737 127.62131747 130.29222195 127.26367188 137.87109375 C127.03809294 141.87446609 126.57143505 145.83661784 126.0625 149.8125 C125.02120392 158.30868531 124.34562229 166.81183855 123.73849487 175.34848022 C122.76672564 188.95375498 121.59431047 202.50210497 120.05493164 216.0559082 C119.03754024 225.18166154 118.37446305 234.31064202 117.77148438 243.47192383 C117.11699421 253.09117131 116.14852244 262.6598698 115.05273438 272.23828125 C114.15538948 280.14821036 113.51374108 288.05602695 113 296 C101.95089338 299.63422422 90.84845185 302.91494502 79.60595703 305.89624023 C67.71411903 309.05561736 55.85750711 312.33948722 44 315.625 C41.99186308 316.18107495 39.98372508 316.73714598 37.97558594 317.29321289 C37.00280701 317.5627327 36.03002808 317.8322525 35.027771 318.10993958 C33.10815442 318.64170997 31.18843759 319.1731186 29.26861572 319.70414734 C24.730166 320.96060463 20.19445016 322.22549456 15.6640625 323.51074219 C14.83245605 323.74546234 14.00084961 323.9801825 13.14404297 324.22201538 C11.59266341 324.66034813 10.04214548 325.10174662 8.49267578 325.54678345 C5.5620295 326.3726905 3.06169801 327 0 327 C-0.33 312.48 -0.66 297.96 -1 283 C11.39273796 279.49922657 23.77815707 276.01969399 36.25 272.8125 C43.03118431 271.06752129 49.7299672 269.2025542 56.40234375 267.07421875 C66.50420397 264.05791955 76.7721802 261.55314297 87 259 C87.03898407 258.43214783 87.07796814 257.86429565 87.11813354 257.27923584 C88.73544293 234.02542398 90.79371573 210.8100432 92.83195877 187.590168 C93.12734821 184.22323439 93.42202476 180.85623904 93.71652222 177.48922729 C95.8924952 152.62049152 98.09802749 127.75459369 100.37109375 102.89453125 C100.50036601 101.4806994 100.50036601 101.4806994 100.63224983 100.03830528 C102.40319543 80.69051259 104.20571634 61.34564024 106 42 C71.02 42 36.04 42 0 42 C0 28.14 0 14.28 0 0 Z " fill="#2965F1" transform="translate(170,123)"/>
<path d="M0 0 C14.19 0 28.38 0 43 0 C43.99 11.22 44.98 22.44 46 34 C48.805 34.680625 51.61 35.36125 54.5 36.0625 C67.43398853 39.25360586 80.35838816 42.78612939 93 47 C93 61.52 93 76.04 93 91 C84.17785579 89.10954053 75.70904162 87.16980236 67.125 84.5625 C60.44326021 82.57122563 53.77831494 80.63443711 47 79 C32.85022276 75.57379608 18.93969878 71.18576068 5 67 C4.34462712 59.29815697 3.69243785 51.59604987 3.04424286 43.89359951 C2.74311896 40.31654709 2.44092456 36.73959202 2.13623047 33.1628418 C1.84188772 29.7071282 1.55042653 26.25118227 1.26091003 22.79506111 C1.09669142 20.84354846 0.92953696 18.89228358 0.7623291 16.94102478 C0.66222534 15.74030838 0.56212158 14.53959198 0.45898438 13.30249023 C0.37015991 12.25214096 0.28133545 11.20179169 0.18981934 10.11961365 C-0.0150874 6.75204395 0 3.37379792 0 0 Z " fill="#E9E9EA" transform="translate(77,315)"/>
<path d="M0 0 C70.29 0 140.58 0 213 0 C213 0.33 213 0.66 213 1 C178.02 1 143.04 1 107 1 C107 14.53 107 28.06 107 42 C126.8 42 146.6 42 167 42 C167 44.97 167 47.94 167 51 C166.67 51 166.34 51 166 51 C166 48.36 166 45.72 166 43 C112.54 43 59.08 43 4 43 C1 11 1 11 0 0 Z " fill="#E7E8EB" transform="translate(63,165)"/>
<path d="M0 0 C51.15 0 102.3 0 155 0 C155 0.33 155 0.66 155 1 C136.52 1 118.04 1 99 1 C99 14.86 99 28.72 99 43 C67.32 43 35.64 43 3 43 C2.01 28.81 1.02 14.62 0 0 Z " fill="#E8E8EB" transform="translate(71,251)"/>
<path d="M0 0 C17.49 0 34.98 0 53 0 C53 6.27 53 12.54 53 19 C43.1 19 33.2 19 23 19 C23 19.99 23 20.98 23 22 C32.9 22 42.8 22 53 22 C53 36.52 53 51.04 53 66 C35.51 66 18.02 66 0 66 C0 59.07 0 52.14 0 45 C9.9 45 19.8 45 30 45 C30 44.34 30 43.68 30 43 C20.1 43 10.2 43 0 43 C0 28.81 0 14.62 0 0 Z " fill="#000000" transform="translate(203,0)"/>
<path d="M0 0 C17.49 0 34.98 0 53 0 C53 6.27 53 12.54 53 19 C43.1 19 33.2 19 23 19 C23 19.99 23 20.98 23 22 C32.9 22 42.8 22 53 22 C53 36.52 53 51.04 53 66 C35.51 66 18.02 66 0 66 C0 59.07 0 52.14 0 45 C9.9 45 19.8 45 30 45 C30 44.34 30 43.68 30 43 C20.1 43 10.2 43 0 43 C0 28.81 0 14.62 0 0 Z " fill="#000000" transform="translate(141,0)"/>
<path d="M0 0 C17.16 0 34.32 0 52 0 C50.85072802 19.53762373 50.85072802 19.53762373 50.24609375 26.97265625 C50.18092056 27.79205185 50.11574738 28.61144745 50.04859924 29.45567322 C49.84654269 31.99141681 49.64208503 34.5269593 49.4375 37.0625 C49.29736403 38.81574227 49.15738931 40.56899743 49.01757812 42.32226562 C48.68023463 46.54832731 48.3407429 50.77421111 48 55 C42.84484814 56.73595151 37.66340378 58.30646452 32.4375 59.8125 C31.23963867 60.16538086 31.23963867 60.16538086 30.01757812 60.52539062 C20.08008914 63.38720718 10.09689674 65.59597697 0 68 C0 45.56 0 23.12 0 0 Z " fill="#2965F1" transform="translate(170,294)"/>
<path d="M0 0 C17.16 0 34.32 0 52 0 C52 7.26 52 14.52 52 22 C42.1 22 32.2 22 22 22 C22 28.93 22 35.86 22 43 C31.9 43 41.8 43 52 43 C52 50.26 52 57.52 52 65 C34.84 65 17.68 65 0 65 C0 43.55 0 22.1 0 0 Z " fill="#000000" transform="translate(80,0)"/>
<path d="M0 0 C19.47 0 38.94 0 59 0 C59 13.5119667 59 13.5119667 58.59765625 18.4296875 C58.51193359 19.491875 58.42621094 20.5540625 58.33789062 21.6484375 C58.24701172 22.71320313 58.15613281 23.77796875 58.0625 24.875 C57.97548828 25.96296875 57.88847656 27.0509375 57.79882812 28.171875 C57.38474977 33.18989117 56.82995013 38.02029921 56 43 C37.52 43 19.04 43 0 43 C0 28.81 0 14.62 0 0 Z " fill="#2965F1" transform="translate(170,208)"/>
</svg>
