<?xml version="1.0" encoding="UTF-8"?>
<svg version="1.1" xmlns="http://www.w3.org/2000/svg" width="680" height="367">
<path d="M0 0 C1.26568817 0.00164658 1.26568817 0.00164658 2.5569458 0.00332642 C17.15447487 0.057506 30.81873016 1.63759335 44.9375 5.5 C45.77974121 5.71881836 46.62198242 5.93763672 47.48974609 6.16308594 C55.3841987 8.22250836 62.74627771 10.57751511 69.9375 14.5 C71.20112717 14.97784221 72.47251559 15.43554536 73.75 15.875 C87.3726095 20.88137487 99.94535785 30.14633924 110.9375 39.5 C111.88625 40.221875 112.835 40.94375 113.8125 41.6875 C114.51375 42.285625 115.215 42.88375 115.9375 43.5 C115.9375 44.16 115.9375 44.82 115.9375 45.5 C116.7728125 45.8403125 116.7728125 45.8403125 117.625 46.1875 C120.57937072 47.86430501 122.56852343 50.07324352 124.9375 52.5 C125.741875 53.098125 126.54625 53.69625 127.375 54.3125 C130.28413118 56.79590467 132.30233475 59.49210514 134.5078125 62.59765625 C135.87620887 64.53552243 135.87620887 64.53552243 137.6171875 66.05859375 C138.9375 67.5 138.9375 67.5 138.9375 70.5 C139.9275 70.83 140.9175 71.16 141.9375 71.5 C144.93927409 75.34842832 147.46860325 79.27412537 149.8359375 83.546875 C151.17298438 85.91752549 152.58642716 88.23672005 154 90.5625 C157.83881483 96.96372374 160.82070556 103.50433659 163.65625 110.40234375 C164.54466827 112.55025742 165.47490239 114.68116566 166.4375 116.796875 C181.5502607 154.10650298 179.63721164 204.38355986 164.3828125 241.3203125 C154.42221616 263.23362445 154.42221616 263.23362445 148.9375 270.5 C148.2775 270.5 147.6175 270.5 146.9375 270.5 C146.875625 271.20125 146.81375 271.9025 146.75 272.625 C145.62969429 276.58915867 143.77683474 278.52216113 140.9375 281.5 C140.2775 281.5 139.6175 281.5 138.9375 281.5 C138.83856445 282.08338135 138.73962891 282.6667627 138.63769531 283.26782227 C137.80041408 285.93702113 136.66320251 287.20061175 134.734375 289.21484375 C134.08339844 289.90126953 133.43242187 290.58769531 132.76171875 291.29492188 C132.07722656 292.00197266 131.39273437 292.70902344 130.6875 293.4375 C130.01847656 294.14068359 129.34945313 294.84386719 128.66015625 295.56835938 C126.76344734 297.5563637 124.85179091 299.52894693 122.9375 301.5 C122.43283203 302.03383301 121.92816406 302.56766602 121.40820312 303.11767578 C120.28978914 304.28330621 119.11895452 305.39831522 117.9375 306.5 C117.2775 306.5 116.6175 306.5 115.9375 306.5 C115.710625 307.098125 115.48375 307.69625 115.25 308.3125 C113.57850363 311.09832728 111.7318596 311.87537232 108.9375 313.5 C108.23625 314.2425 107.535 314.985 106.8125 315.75 C101.30731489 321.01582923 94.44969037 324.6027822 87.9375 328.5 C86.53564453 329.35078125 86.53564453 329.35078125 85.10546875 330.21875 C80.18133365 333.16161449 75.45041473 335.95874058 69.99609375 337.76953125 C67.87126323 338.48502553 67.87126323 338.48502553 65.66015625 339.57421875 C58.50533252 342.90473141 51.21863422 344.83978098 43.5625 346.6875 C42.53519775 346.93733643 41.50789551 347.18717285 40.44946289 347.44458008 C27.87150473 350.38165077 15.56182963 351.8388554 2.66113281 351.76074219 C0.57066631 351.7500418 -1.51893455 351.76070286 -3.609375 351.7734375 C-18.11369723 351.79181771 -31.83019543 349.93442101 -45.875 346.1875 C-46.99841797 345.90455078 -48.12183594 345.62160156 -49.27929688 345.33007812 C-56.61836843 343.40905591 -63.24102365 340.79039963 -70.0625 337.5 C-71.30237796 336.96550133 -72.54543691 336.43825711 -73.79296875 335.921875 C-77.41247781 334.34779937 -80.89348112 332.60547737 -84.375 330.75 C-85.02654053 330.40291992 -85.67808105 330.05583984 -86.34936523 329.69824219 C-91.11977382 327.11086203 -95.58402334 324.2458076 -99.96484375 321.03515625 C-101.83218471 319.66855477 -103.7296907 318.41851234 -105.6875 317.1875 C-106.47125 316.630625 -107.255 316.07375 -108.0625 315.5 C-108.0625 314.84 -108.0625 314.18 -108.0625 313.5 C-108.825625 313.231875 -109.58875 312.96375 -110.375 312.6875 C-112.95238618 311.54865495 -114.33204864 310.68583329 -116.0625 308.5 C-116.0625 307.84 -116.0625 307.18 -116.0625 306.5 C-116.619375 306.273125 -117.17625 306.04625 -117.75 305.8125 C-120.73454749 304.11856764 -122.68904045 301.98385302 -125.0625 299.5 C-125.86880859 298.72462891 -125.86880859 298.72462891 -126.69140625 297.93359375 C-131.27478082 293.51427733 -135.51102285 288.80022882 -139.0625 283.5 C-139.0625 282.84 -139.0625 282.18 -139.0625 281.5 C-139.7225 281.5 -140.3825 281.5 -141.0625 281.5 C-144.66119094 277.54143996 -147.50841824 272.95814339 -150.06640625 268.27734375 C-151.16191943 266.32260455 -152.35289646 264.44859914 -153.5625 262.5625 C-156.01851702 258.66752822 -158.06227855 254.64219088 -160.0625 250.5 C-160.5471875 249.54480469 -161.031875 248.58960938 -161.53125 247.60546875 C-179.61799963 210.92443314 -180.82947921 162.43161428 -168.9375 123.62890625 C-167.75331623 120.19711052 -166.45460206 116.85264579 -165.0625 113.5 C-164.67771484 112.55181396 -164.67771484 112.55181396 -164.28515625 111.58447266 C-158.70742429 97.90368391 -151.76522809 85.47213135 -143.0625 73.5 C-142.0725 72.015 -142.0725 72.015 -141.0625 70.5 C-140.4025 70.5 -139.7425 70.5 -139.0625 70.5 C-138.87300781 69.8296875 -138.68351562 69.159375 -138.48828125 68.46875 C-136.47006053 64.2664274 -133.46697675 61.33245797 -130.25 58 C-129.63318359 57.34902344 -129.01636719 56.69804688 -128.38085938 56.02734375 C-126.61913547 54.17388289 -124.84233357 52.3360497 -123.0625 50.5 C-122.32314209 49.71689453 -122.32314209 49.71689453 -121.56884766 48.91796875 C-120.43879248 47.74022317 -119.25559322 46.61383927 -118.0625 45.5 C-117.4025 45.5 -116.7425 45.5 -116.0625 45.5 C-115.835625 44.901875 -115.60875 44.30375 -115.375 43.6875 C-113.70350363 40.90167272 -111.8568596 40.12462768 -109.0625 38.5 C-108.32902344 37.74460938 -107.59554687 36.98921875 -106.83984375 36.2109375 C-103.75147728 33.19641383 -100.53877626 30.91167842 -96.9375 28.5625 C-96.27516357 28.12719971 -95.61282715 27.69189941 -94.93041992 27.2434082 C-85.70391161 21.24366908 -76.27769424 16.58052596 -66.0625 12.5 C-64.9178125 11.99339844 -64.9178125 11.99339844 -63.75 11.4765625 C-58.3241782 9.12160512 -52.76177964 7.4778146 -47.0625 5.9375 C-46.34634521 5.73962891 -45.63019043 5.54175781 -44.89233398 5.33789062 C-30.0360482 1.46025126 -15.32087921 -0.0829171 0 0 Z " fill="#393939" transform="translate(340.0625,7.5)"/>
<path d="M0 0 C2.24699125 1.73135005 4.42041212 3.52302808 6.58203125 5.359375 C7.51982422 6.09800781 7.51982422 6.09800781 8.4765625 6.8515625 C9.88790286 7.9687359 11.24240382 9.15714525 12.58203125 10.359375 C12.58203125 11.019375 12.58203125 11.679375 12.58203125 12.359375 C13.24203125 12.359375 13.90203125 12.359375 14.58203125 12.359375 C15.85774609 14.5441503 17.12763798 16.73199119 18.39453125 18.921875 C18.75095703 19.53095703 19.10738281 20.14003906 19.47460938 20.76757812 C23.26000112 27.33123905 25.97807509 33.94284292 27.76953125 41.296875 C27.94677734 41.94205078 28.12402344 42.58722656 28.30664062 43.25195312 C30.2499677 51.21284127 29.58203125 57.62519515 29.58203125 66.359375 C-2.42796875 66.359375 -34.43796875 66.359375 -67.41796875 66.359375 C-66.96012849 77.67488977 -66.96012849 77.67488977 -64.04296875 87.546875 C-63.62273437 88.59230469 -63.2025 89.63773437 -62.76953125 90.71484375 C-61.5170717 93.16546546 -60.33197781 94.46215549 -58.41796875 96.359375 C-58.41796875 97.349375 -58.41796875 98.339375 -58.41796875 99.359375 C-57.73734375 99.58625 -57.05671875 99.813125 -56.35546875 100.046875 C-53.29410609 101.41471789 -50.97489472 103.07341906 -48.359375 105.140625 C-42.15321783 109.03664318 -35.62509841 108.69344056 -28.54296875 108.671875 C-27.49238281 108.68798828 -26.44179688 108.70410156 -25.359375 108.72070312 C-16.36118373 108.72633403 -9.67086239 107.0005145 -2.41796875 101.359375 C1.86796997 96.97376329 3.65397199 93.04714982 5.58203125 87.359375 C6.58203125 86.359375 6.58203125 86.359375 8.62329102 86.24584961 C9.49783936 86.25108643 10.3723877 86.25632324 11.2734375 86.26171875 C12.21767578 86.26494141 13.16191406 86.26816406 14.13476562 86.27148438 C15.12798828 86.27986328 16.12121094 86.28824219 17.14453125 86.296875 C18.14162109 86.30138672 19.13871094 86.30589844 20.16601562 86.31054688 C22.63807974 86.32237493 25.11002643 86.33885651 27.58203125 86.359375 C26.94587476 89.63593757 26.20711264 92.75615326 25.14453125 95.921875 C24.89832031 96.66566406 24.65210938 97.40945312 24.3984375 98.17578125 C23.5943077 100.3265399 22.64673587 102.32675709 21.58203125 104.359375 C20.92203125 104.359375 20.26203125 104.359375 19.58203125 104.359375 C19.52015625 104.895625 19.45828125 105.431875 19.39453125 105.984375 C16.71766 113.80907557 8.34313942 119.3844665 1.3515625 123.16015625 C-4.33314896 125.62166037 -10.39737852 126.97000802 -16.41796875 128.359375 C-17.23136719 128.55273438 -18.04476562 128.74609375 -18.8828125 128.9453125 C-35.55937826 131.66906592 -52.20776224 127.35753345 -66.41796875 118.359375 C-67.07796875 117.369375 -67.73796875 116.379375 -68.41796875 115.359375 C-69.61099609 114.65941406 -69.61099609 114.65941406 -70.828125 113.9453125 C-78.97714396 108.95511386 -82.90864663 97.807348 -86.41796875 89.359375 C-86.74925781 88.5653125 -87.08054688 87.77125 -87.421875 86.953125 C-90.92325853 77.61610225 -90.51299439 67.56949803 -90.60546875 57.734375 C-90.61860107 56.86393555 -90.6317334 55.99349609 -90.64526367 55.09667969 C-90.66682986 37.50530205 -83.60634503 21.91136971 -71.54296875 9.171875 C-69.41796875 7.359375 -69.41796875 7.359375 -67.41796875 7.359375 C-67.41796875 6.699375 -67.41796875 6.039375 -67.41796875 5.359375 C-60.24647087 -1.33964772 -51.63587664 -4.0162324 -42.41796875 -6.640625 C-41.76828125 -6.84558594 -41.11859375 -7.05054687 -40.44921875 -7.26171875 C-27.2772134 -9.71880436 -11.15654029 -7.56986579 0 0 Z " fill="#F9F9F9" transform="translate(302.41796875,122.640625)"/>
<path d="M0 0 C4.56201698 -0.17437877 9.12317706 -0.28089025 13.6875 -0.375 C15.62786133 -0.45041016 15.62786133 -0.45041016 17.60742188 -0.52734375 C26.92160673 -0.67174972 26.92160673 -0.67174972 29.90478516 1.18652344 C31.20703125 2.7109375 31.20703125 2.7109375 33 6 C33.51175781 6.82113281 34.02351563 7.64226562 34.55078125 8.48828125 C35.02902344 9.31714844 35.50726563 10.14601563 36 11 C38.10159449 14.13029084 40.22615199 17.24398065 42.35546875 20.35546875 C44 23 44 23 44 25 C44.66 25 45.32 25 46 25 C47.296875 26.90625 47.296875 26.90625 48.75 29.5 C50.74223742 32.95223494 52.79839953 36.16988469 55.25 39.3125 C57.40141228 42.08906087 58.94004789 44.60815324 60 48 C60.66 48 61.32 48 62 48 C62.20625 47.154375 62.4125 46.30875 62.625 45.4375 C64.07410194 41.81474515 65.6891488 39.84156335 68.27734375 37.01171875 C70.97525191 33.86110037 73.19787481 30.39690541 75.484375 26.94140625 C76.23460937 25.98041016 76.23460937 25.98041016 77 25 C77.66 25 78.32 25 79 25 C79.0825 24.278125 79.165 23.55625 79.25 22.8125 C80.15907268 19.40347744 81.727807 17.67316824 84 15 C84.53625 14.071875 85.0725 13.14375 85.625 12.1875 C86.07875 11.465625 86.5325 10.74375 87 10 C87.66 10 88.32 10 89 10 C89.061875 9.46375 89.12375 8.9275 89.1875 8.375 C90.42657169 4.75309814 91.80929914 2.12605154 95 0 C99.4534716 -0.76000416 103.81123397 -0.56386431 108.3125 -0.375 C109.53001953 -0.34792969 110.74753906 -0.32085937 112.00195312 -0.29296875 C115.00310498 -0.22235341 118.00064712 -0.12376972 121 0 C120.34 1.65 119.68 3.3 119 5 C118.34 5 117.68 5 117 5 C116.74089844 5.71929687 116.48179687 6.43859375 116.21484375 7.1796875 C114.94316591 10.1319428 113.42310298 12.50815193 111.5625 15.125 C110.66724609 16.39730469 110.66724609 16.39730469 109.75390625 17.6953125 C108 20 108 20 106.55859375 21.4375 C104.27703484 23.72477711 102.43399609 26.28989189 100.5 28.875 C99.7265625 29.90367187 98.953125 30.93234375 98.15625 31.9921875 C95.98442125 34.91552649 95.98442125 34.91552649 94.34375 37.8828125 C93.9003125 38.58148438 93.456875 39.28015625 93 40 C92.34 40 91.68 40 91 40 C90.7525 40.721875 90.505 41.44375 90.25 42.1875 C88.6266696 45.8399934 86.29506388 48.49881484 83.69921875 51.5078125 C81.39490225 54.21317524 79.39056055 56.71322053 78 60 C77.34 60 76.68 60 76 60 C75.74969023 62.41619823 75.74969023 62.41619823 76 65 C77.485 65.99 77.485 65.99 79 67 C79.95891176 68.65329613 80.91250817 70.31028645 81.8203125 71.9921875 C83.54252188 74.92336505 85.62569231 77.53885102 87.73046875 80.203125 C89 82 89 82 90 85 C90.70125 85.66 91.4025 86.32 92.125 87 C95.54422771 90.26156879 97.77150533 94.23799025 100.24609375 98.23046875 C103.16966547 102.84697733 106.50008188 107.11041243 109.89453125 111.38671875 C110.52746094 112.18722656 111.16039062 112.98773438 111.8125 113.8125 C112.39644531 114.54082031 112.98039062 115.26914063 113.58203125 116.01953125 C115 118 115 118 116 121 C117.3191652 122.34735249 118.65462284 123.67882028 120 125 C121.28760691 126.68017 122.53782565 128.38962219 123.75 130.125 C124.36359375 130.99382812 124.9771875 131.86265625 125.609375 132.7578125 C127 135 127 135 127 137 C122.41699875 137.14505993 117.83458637 137.23399681 113.25 137.3125 C111.29707031 137.3753418 111.29707031 137.3753418 109.3046875 137.43945312 C108.05429687 137.45556641 106.80390625 137.47167969 105.515625 137.48828125 C104.36352539 137.51446533 103.21142578 137.54064941 102.02441406 137.56762695 C99 137 99 137 96.68823242 134.62548828 C95.07151497 132.11121793 93.51535451 129.57650462 92 127 C90.23397696 124.44732972 88.42891873 121.92552313 86.62109375 119.40234375 C85 117 85 117 83.97265625 114.87890625 C82.90280683 112.81224934 81.65925368 111.61777234 80 110 C78.96764858 108.56438631 77.96917356 107.10399923 77 105.625 C76.505 104.87476563 76.01 104.12453125 75.5 103.3515625 C74.48494591 101.76025375 73.49718947 100.15125582 72.53515625 98.52734375 C70.40675879 95.0233408 68.00779561 91.73346097 65.62109375 88.40234375 C64 86 64 86 62.97265625 83.75390625 C62.06149836 81.64478709 62.06149836 81.64478709 59 81 C58.67 82.65 58.34 84.3 58 86 C57.34 86 56.68 86 56 86 C55.73574219 86.72960937 55.47148437 87.45921875 55.19921875 88.2109375 C53.99517571 91.01122 52.60719109 93.16910693 50.8125 95.625 C47.46969242 100.26856534 44.44252993 105.0514723 41.48046875 109.9453125 C40.99191406 110.62335938 40.50335938 111.30140625 40 112 C39.34 112 38.68 112 38 112 C37.9175 112.721875 37.835 113.44375 37.75 114.1875 C36.84092732 117.59652256 35.272193 119.32683176 33 122 C32.46375 122.928125 31.9275 123.85625 31.375 124.8125 C30.694375 125.8953125 30.694375 125.8953125 30 127 C29.34 127 28.68 127 28 127 C27.731875 127.9075 27.46375 128.815 27.1875 129.75 C26.04913135 132.86553526 25.31856509 134.67113295 23 137 C20.1809082 137.45410156 20.1809082 137.45410156 16.80078125 137.390625 C15.59228516 137.37773437 14.38378906 137.36484375 13.13867188 137.3515625 C11.2447168 137.30128906 11.2447168 137.30128906 9.3125 137.25 C8.03826172 137.23195312 6.76402344 137.21390625 5.45117188 137.1953125 C2.30003159 137.14810441 -0.8496114 137.08226384 -4 137 C-2.64457318 134.13250505 -1.10258357 131.60345273 0.75 129.03125 C1.53890625 127.92716797 1.53890625 127.92716797 2.34375 126.80078125 C3.44791667 125.26692708 4.55208333 123.73307292 5.65625 122.19921875 C6.1821875 121.46316406 6.708125 120.72710937 7.25 119.96875 C7.72953125 119.30294922 8.2090625 118.63714844 8.703125 117.95117188 C10.04613742 116.01993779 10.04613742 116.01993779 11.0546875 113.86914062 C12.28730817 111.43191339 14.07118832 109.92881168 16 108 C17.34658386 106.00889737 18.67766353 104.00728773 20 102 C21.60498736 99.69396818 23.23871079 97.40889542 24.875 95.125 C25.31408691 94.51076172 25.75317383 93.89652344 26.20556641 93.26367188 C28.55875931 89.9804694 30.93728353 86.7212682 33.375 83.5 C36.21639721 79.74330677 38.86560143 75.89641098 41.28515625 71.8515625 C41.72730469 71.11679688 42.16945313 70.38203125 42.625 69.625 C43.02976562 68.93664062 43.43453125 68.24828125 43.8515625 67.5390625 C44.23054688 67.03117187 44.60953125 66.52328125 45 66 C45.66 66 46.32 66 47 66 C45.8553125 64.6696875 45.8553125 64.6696875 44.6875 63.3125 C43.14396043 61.51865672 41.86837395 59.78049645 40.6484375 57.74609375 C38.57420561 54.29067902 36.2754022 51.03054982 33.9375 47.75 C33.49083984 47.11320312 33.04417969 46.47640625 32.58398438 45.8203125 C30.27937033 42.38241953 30.27937033 42.38241953 27 40 C26.12852387 38.43134297 25.25857895 36.86182347 24.39453125 35.2890625 C21.32981337 30.25846116 17.57658663 25.6727384 14 21 C11.98918515 18.34130925 9.99123898 15.67337627 8 13 C7.29230469 12.05511719 6.58460938 11.11023438 5.85546875 10.13671875 C5.11941406 9.14285156 4.38335937 8.14898437 3.625 7.125 C2.93664062 6.19945313 2.24828125 5.27390625 1.5390625 4.3203125 C0 2 0 2 0 0 Z " fill="#F9F9F9" transform="translate(341,115)"/>
<path d="M0 0 C10.92061866 5.54853695 16.82754599 12.59737003 20.69921875 23.99609375 C21.54193837 27.43675156 21.87312452 30.9849962 22.3125 34.5 C-2.1075 34.5 -26.5275 34.5 -51.6875 34.5 C-51.6875 23.19936034 -51.6875 23.19936034 -48.5 17.6875 C-47.90832031 16.62917969 -47.31664062 15.57085937 -46.70703125 14.48046875 C-44.63326193 11.41995426 -42.37056099 9.03177728 -39.6875 6.5 C-39.1925 5.9225 -38.6975 5.345 -38.1875 4.75 C-36.1547515 3.05604291 -34.26955543 2.84892641 -31.6875 2.5 C-31.6875 1.84 -31.6875 1.18 -31.6875 0.5 C-23.43889503 -3.82316822 -8.59599735 -3.11329391 0 0 Z " fill="#393939" transform="translate(286.6875,136.5)"/>
<path d="M0 0 C0.33 0 0.66 0 1 0 C1.39024151 10.37753341 0.7990832 20.4917564 -0.375 30.8125 C-0.50108643 31.95122559 -0.62717285 33.08995117 -0.75708008 34.26318359 C-0.88622803 35.33777832 -1.01537598 36.41237305 -1.1484375 37.51953125 C-1.32125244 38.95969604 -1.32125244 38.95969604 -1.49755859 40.42895508 C-1.98878175 42.94259503 -2.73582056 44.78687102 -4 47 C-5.32282891 42.14962733 -4.79068692 37.8648077 -3.4609375 33.046875 C-2.97251131 30.87793157 -2.93534131 29.03110116 -3 26.8125 C-3.13379854 15.26759709 -3.13379854 15.26759709 -1 11 C-0.7724985 9.12943209 -0.59037189 7.25314042 -0.4375 5.375 C-0.35371094 4.37210938 -0.26992188 3.36921875 -0.18359375 2.3359375 C-0.12300781 1.56507813 -0.06242188 0.79421875 0 0 Z " fill="#726F70" transform="translate(515,175)"/>
<path d="M0 0 C0.66 0 1.32 0 2 0 C3.34106405 2.6821281 3.21450419 4.88398032 3.31640625 7.8828125 C3.35830078 9.04941406 3.40019531 10.21601563 3.44335938 11.41796875 C3.48267578 12.64128906 3.52199219 13.86460937 3.5625 15.125 C3.60568359 16.35605469 3.64886719 17.58710938 3.69335938 18.85546875 C3.79968704 21.90352853 3.90171781 24.9516719 4 28 C3.01 28 2.02 28 1 28 C0.00736571 18.64087671 -0.10731538 9.39605802 0 0 Z " fill="#5A5455" transform="translate(164,176)"/>
<path d="M0 0 C0.66 0 1.32 0 2 0 C2 0.99 2 1.98 2 3 C0.35 3.33 -1.3 3.66 -3 4 C-3 5.32 -3 6.64 -3 8 C-3.99 8.495 -3.99 8.495 -5 9 C-6.13350534 11.01669827 -6.13350534 11.01669827 -7 13 C-7.99 13 -8.98 13 -10 13 C-10.2475 13.556875 -10.495 14.11375 -10.75 14.6875 C-12.64138717 18.18656627 -14.39009106 21.41864399 -18.25 22.8125 C-18.8275 22.874375 -19.405 22.93625 -20 23 C-18.31021686 18.759992 -15.27162013 15.82562589 -12.1875 12.5625 C-11.66607422 12.00240234 -11.14464844 11.44230469 -10.60742188 10.86523438 C-7.47003822 7.50850805 -4.26633732 4.23115235 -1 1 C-0.67 0.67 -0.34 0.34 0 0 Z " fill="#5E5A5B" transform="translate(222,53)"/>
<path d="M0 0 C0.33 0 0.66 0 1 0 C1 2.64 1 5.28 1 8 C0.01 8.33 -0.98 8.66 -2 9 C-1.4740625 10.5778125 -1.4740625 10.5778125 -0.9375 12.1875 C-0.05029473 15.7954681 0.05262882 17.52632489 -1 21 C-1.99 21 -2.98 21 -4 21 C-5.21348091 15.3540439 -4.65231744 11.91447149 -2.5625 6.5625 C-2.31951172 5.92634766 -2.07652344 5.29019531 -1.82617188 4.63476562 C-1.23164238 3.08432597 -0.61780742 1.54131193 0 0 Z " fill="#4B4546" transform="translate(175,121)"/>
<path d="M0 0 C-0.3125 1.9375 -0.3125 1.9375 -1 4 C-1.99 4.33 -2.98 4.66 -4 5 C-4.66 4.67 -5.32 4.34 -6 4 C-6.66 5.65 -7.32 7.3 -8 9 C-10.475 8.01 -10.475 8.01 -13 7 C-9.00689936 2.71111413 -6.01500844 0 0 0 Z " fill="#585556" transform="translate(255,31)"/>
<path d="M0 0 C5.57522124 -0.37168142 5.57522124 -0.37168142 7.5 1.3125 C7.995 1.869375 8.49 2.42625 9 3 C10.97620986 4.04622875 12.9737129 5.05439935 15 6 C15 6.66 15 7.32 15 8 C9.23167884 6.7856166 4.99813269 5.12383293 0 2 C0 1.34 0 0.68 0 0 Z " fill="#564F51" transform="translate(257,337)"/>
<path d="M0 0 C0 0.33 0 0.66 0 1 C-1.65 1 -3.3 1 -5 1 C-5 1.66 -5 2.32 -5 3 C-9.8333472 3.08333357 -14.23692563 2.95261487 -19 2 C-19 1.67 -19 1.34 -19 1 C-12.62641289 0.03794912 -6.44070471 -0.10655578 0 0 Z " fill="#8D898A" transform="translate(332,8)"/>
<path d="M0 0 C0.89332031 0.12761719 1.78664063 0.25523437 2.70703125 0.38671875 C3.60808594 0.50660156 4.50914062 0.62648438 5.4375 0.75 C6.12457031 0.85699219 6.81164062 0.96398437 7.51953125 1.07421875 C7.51953125 2.06421875 7.51953125 3.05421875 7.51953125 4.07421875 C3.22953125 3.74421875 -1.06046875 3.41421875 -5.48046875 3.07421875 C-2.48046875 0.07421875 -2.48046875 0.07421875 0 0 Z " fill="#746A6C" transform="translate(313.48046875,353.92578125)"/>
<path d="M0 0 C0.33 0 0.66 0 1 0 C0.88566637 2.25056722 0.75813564 4.50046674 0.625 6.75 C0.52058594 8.62945312 0.52058594 8.62945312 0.4140625 10.546875 C0.04676696 13.60998121 -0.39711286 15.41974266 -2 18 C-3.7327403 11.64661892 -2.21467206 6.05343697 0 0 Z " fill="#5E595C" transform="translate(513,204)"/>
<path d="M0 0 C0.99 0.33 1.98 0.66 3 1 C2.125 5.75 2.125 5.75 1 8 C0.34 8 -0.32 8 -1 8 C-1.66 6.35 -2.32 4.7 -3 3 C-2.01 2.01 -1.02 1.02 0 0 Z " fill="#454545" transform="translate(402,155)"/>
<path d="M0 0 C2.64 1.65 5.28 3.3 8 5 C7.67 5.66 7.34 6.32 7 7 C6.01 7 5.02 7 4 7 C4 6.01 4 5.02 4 4 C3.01 5.485 3.01 5.485 2 7 C0.4375 5.1875 0.4375 5.1875 -1 3 C-0.67 2.01 -0.34 1.02 0 0 Z " fill="#696767" transform="translate(440,39)"/>
<path d="M0 0 C4.51478398 0.53115106 7.34666857 2.36620292 11 5 C10.67 5.66 10.34 6.32 10 7 C7.0280615 5.87548273 4.66559313 4.77706209 2 3 C2 2.34 2 1.68 2 1 C1.34 0.67 0.68 0.34 0 0 Z " fill="#5E5B5C" transform="translate(230,320)"/>
<path d="M0 0 C0.33 0 0.66 0 1 0 C1 2.64 1 5.28 1 8 C0.01 8.33 -0.98 8.66 -2 9 C-2 10.65 -2 12.3 -2 14 C-2.66 14 -3.32 14 -4 14 C-3.00956295 9.16371695 -2.04301154 4.52381127 0 0 Z " fill="#746F70" transform="translate(175,121)"/>
<path d="M0 0 C5.44693314 -0.09688221 10.63904667 -0.12862175 16 1 C16 1.33 16 1.66 16 2 C11.05 2.33 6.1 2.66 1 3 C0.67 2.01 0.34 1.02 0 0 Z " fill="#938E90" transform="translate(350,8)"/>
<path d="M0 0 C0.66 0 1.32 0 2 0 C6 6.625 6 6.625 6 10 C5.01 10 4.02 10 3 10 C2.01 6.7 1.02 3.4 0 0 Z " fill="#696364" transform="translate(176,247)"/>
<path d="M0 0 C0.66 0.33 1.32 0.66 2 1 C2 1.99 2 2.98 2 4 C-2.625 6.125 -2.625 6.125 -6 5 C-4.00856305 2.01284458 -3.23356015 1.21258505 0 0 Z " fill="#635F5F" transform="translate(399,345)"/>
<path d="M0 0 C0.33 0 0.66 0 1 0 C1 3.96 1 7.92 1 12 C0.34 12 -0.32 12 -1 12 C-1.33 12.66 -1.66 13.32 -2 14 C-2 11.03 -2 8.06 -2 5 C-1.67 5 -1.34 5 -1 5 C-0.67 3.35 -0.34 1.7 0 0 Z " fill="#6E6466" transform="translate(514,192)"/>
<path d="M0 0 C4.875 2.625 4.875 2.625 6 6 C8.00016466 7.20882096 8.00016466 7.20882096 10 8 C9.34 8.66 8.68 9.32 8 10 C7.34 10 6.68 10 6 10 C5.566875 9.030625 5.13375 8.06125 4.6875 7.0625 C3.2985139 3.72268235 3.2985139 3.72268235 0 3 C0 2.01 0 1.02 0 0 Z " fill="#6C696A" transform="translate(450,47)"/>
<path d="M0 0 C0 0.66 0 1.32 0 2 C-1.41377782 2.36552803 -2.83120576 2.71695495 -4.25 3.0625 C-5.03890625 3.25972656 -5.8278125 3.45695312 -6.640625 3.66015625 C-9.10394822 4.01497267 -10.65604132 3.76877544 -13 3 C-11.58603098 2.49242138 -10.16868271 1.99425075 -8.75 1.5 C-7.96109375 1.2215625 -7.1721875 0.943125 -6.359375 0.65625 C-4 0 -4 0 0 0 Z " fill="#7D797A" transform="translate(291,15)"/>
<path d="M0 0 C1.485 0.99 1.485 0.99 3 2 C3.29296875 4.1640625 3.29296875 4.1640625 3.1875 6.625 C3.16042969 7.44226563 3.13335937 8.25953125 3.10546875 9.1015625 C3.07066406 9.72804687 3.03585938 10.35453125 3 11 C2.01 11 1.02 11 0 11 C0 7.37 0 3.74 0 0 Z " fill="#666364" transform="translate(165,193)"/>
<path d="M0 0 C1.32 0 2.64 0 4 0 C6.25 3 6.25 3 8 6 C7.34 6.66 6.68 7.32 6 8 C4.02 5.36 2.04 2.72 0 0 Z " fill="#605C5E" transform="translate(202,292)"/>
<path d="M0 0 C0.66 0 1.32 0 2 0 C3.17571451 3.67410785 3.07366746 7.16929183 3 11 C0.60236815 8.60236815 0.65719414 7.66726502 0.375 4.375 C0.30023438 3.55773437 0.22546875 2.74046875 0.1484375 1.8984375 C0.09945313 1.27195313 0.05046875 0.64546875 0 0 Z " fill="#544D51" transform="translate(510,145)"/>
<path d="M0 0 C5.75 1.75 5.75 1.75 8 4 C4.37673261 5.2077558 3.35853631 4.54311128 0 3 C0 2.01 0 1.02 0 0 Z " fill="#565152" transform="translate(402,19)"/>
<path d="M0 0 C0.598125 0.350625 1.19625 0.70125 1.8125 1.0625 C-1.6525 2.5475 -1.6525 2.5475 -5.1875 4.0625 C-5.1875 2.7425 -5.1875 1.4225 -5.1875 0.0625 C-2.1875 -0.9375 -2.1875 -0.9375 0 0 Z " fill="#625E60" transform="translate(430.1875,332.9375)"/>
<path d="M0 0 C2 3.75 2 3.75 2 6 C2.99 6.33 3.98 6.66 5 7 C4.67 8.65 4.34 10.3 4 12 C1.15119698 7.72679547 -0.28990619 5.21831143 0 0 Z " fill="#7B7677" transform="translate(172,234)"/>
<path d="M0 0 C1.32 0.33 2.64 0.66 4 1 C3.625 2.9375 3.625 2.9375 3 5 C2.01 5.495 2.01 5.495 1 6 C0.67 4.02 0.34 2.04 0 0 Z M-2 2 C-1.34 2.33 -0.68 2.66 0 3 C-0.99 3 -1.98 3 -3 3 C-2.67 2.67 -2.34 2.34 -2 2 Z " fill="#524F4F" transform="translate(468,296)"/>
<path d="M0 0 C0.66 0 1.32 0 2 0 C4.1875 2.25 4.1875 2.25 6 5 C5.61328125 7.171875 5.61328125 7.171875 5 9 C4.16396622 7.68921847 3.3312426 6.37632511 2.5 5.0625 C2.0359375 4.33160156 1.571875 3.60070312 1.09375 2.84765625 C0 1 0 1 0 0 Z " fill="#8A8183" transform="translate(185,267)"/>
<path d="M0 0 C0.33 0.66 0.66 1.32 1 2 C1.66 2.33 2.32 2.66 3 3 C1.35 4.32 -0.3 5.64 -2 7 C-2.66 6.67 -3.32 6.34 -4 6 C-2.68 4.02 -1.36 2.04 0 0 Z " fill="#4A4A4A" transform="translate(386,218)"/>
<path d="M0 0 C0.33 0 0.66 0 1 0 C1.33 1.98 1.66 3.96 2 6 C0.35 7.32 -1.3 8.64 -3 10 C-2.01 6.7 -1.02 3.4 0 0 Z " fill="#736F6F" transform="translate(179,111)"/>
<path d="M0 0 C3.35693737 2.23795825 3.91970563 3.2189697 5 7 C4.625 9.3125 4.625 9.3125 4 11 C4 10.01 4 9.02 4 8 C3.01 7.67 2.02 7.34 1 7 C0.67 4.69 0.34 2.38 0 0 Z " fill="#8B888A" transform="translate(498,108)"/>
<path d="M0 0 C-3.2131264 2.14208427 -5.21065397 2.59687808 -9 3 C-9.66 2.67 -10.32 2.34 -11 2 C-7.36576791 -0.32590854 -4.22911669 -0.16265833 0 0 Z " fill="#332E30" transform="translate(310,12)"/>
<path d="M0 0 C0.66 0.66 1.32 1.32 2 2 C-2.455 2.495 -2.455 2.495 -7 3 C-7.33 2.34 -7.66 1.68 -8 1 C-5.23749964 -0.38125018 -3.05268901 -0.19079306 0 0 Z " fill="#352F31" transform="translate(319,10)"/>
<path d="M0 0 C1.98 0 3.96 0 6 0 C6 0.66 6 1.32 6 2 C6.66 2.33 7.32 2.66 8 3 C5.03 2.67 2.06 2.34 -1 2 C-0.67 1.34 -0.34 0.68 0 0 Z " fill="#6C6568" transform="translate(300,353)"/>
<path d="M0 0 C1.65 1.65 3.3 3.3 5 5 C4.67 5.66 4.34 6.32 4 7 C2.35 6.01 0.7 5.02 -1 4 C-0.67 2.68 -0.34 1.36 0 0 Z " fill="#716D6D" transform="translate(482,81)"/>
<path d="M0 0 C1.65 0 3.3 0 5 0 C4.34 1.32 3.68 2.64 3 4 C1.68 3.67 0.36 3.34 -1 3 C-0.67 2.01 -0.34 1.02 0 0 Z " fill="#5A5758" transform="translate(233,43)"/>
</svg>
