<?xml version="1.0" encoding="UTF-8"?>
<svg version="1.1" xmlns="http://www.w3.org/2000/svg" width="530" height="471">
<path d="M0 0 C0.33 0.66 0.66 1.32 1 2 C1.52396183 1.67481123 2.04792367 1.34962245 2.58776313 1.01457947 C5.71715996 -0.30163529 8.19986851 -0.24259447 11.59578991 -0.2332716 C12.2602598 -0.23419051 12.92472969 -0.23510942 13.60933504 -0.23605618 C15.84573148 -0.23667958 18.08180939 -0.22291912 20.31816101 -0.20927429 C21.93369636 -0.20673275 23.5492333 -0.20507121 25.16477042 -0.2042163 C29.61187351 -0.19928788 34.05885273 -0.18177599 38.50591242 -0.1622473 C43.29866491 -0.14337377 48.09143658 -0.13606136 52.88421631 -0.12731934 C62.27547514 -0.10834387 71.66667094 -0.07861566 81.05788859 -0.04527863 C91.98431065 -0.00688015 102.91075181 0.0210315 113.83720586 0.04850843 C133.32484886 0.09788297 152.81245043 0.15697115 172.30004883 0.22143555 C191.23037179 0.28404915 210.16069825 0.3396317 229.09106445 0.38745117 C230.84051291 0.39187173 230.84051291 0.39187173 232.62530377 0.39638159 C234.37166426 0.40079359 234.37166426 0.40079359 236.15330476 0.40529472 C257.67847371 0.45973172 279.20361975 0.52072362 300.72876203 0.5848012 C308.35414608 0.60735103 315.97953403 0.62794733 323.60492516 0.6479435 C332.88894542 0.67241997 342.17294573 0.70065238 351.45693978 0.73364202 C356.19823756 0.75041889 360.93952621 0.76559456 365.68084145 0.77650261 C370.01383062 0.78652672 374.34677873 0.80110514 378.67974041 0.81945875 C380.25431989 0.82531597 381.82890676 0.82946272 383.40349539 0.83180443 C385.52962213 0.83521864 387.65563506 0.84466399 389.78173351 0.85574818 C390.96695069 0.85949036 392.15216788 0.86323255 393.37330073 0.86708814 C396 1 396 1 397 2 C397.09794972 4.09541603 397.12371187 6.19420522 397.12304783 8.29190922 C397.12420167 8.95997067 397.12535552 9.62803212 397.12654433 10.31633785 C397.12921747 12.58291018 397.12468315 14.84941324 397.12025452 17.11598206 C397.12069008 18.74614143 397.1215647 20.37630073 397.12284368 22.00645965 C397.12509164 26.50783081 397.12106328 31.00917841 397.11606562 35.51054657 C397.11176559 40.35651837 397.11320722 45.20248874 397.1139679 50.04846191 C397.11449342 58.45168436 397.11134369 66.85489908 397.10573006 75.25811958 C397.09761884 87.40791453 397.09500023 99.55770571 397.09374207 111.70750307 C397.09155095 131.417553 397.08488925 151.1275988 397.07543945 170.83764648 C397.06626688 189.98933898 397.05918529 209.14103036 397.05493164 228.29272461 C397.05453756 230.0621254 397.05453756 230.0621254 397.05413551 231.86727167 C397.05283051 237.78470917 397.0515668 243.70214669 397.05032361 249.6195842 C397.03994913 298.74639232 397.0223292 347.87319596 397 397 C394.16905723 398.41547138 391.80497992 398.12540862 388.63748169 398.12584114 C387.64215522 398.1280213 387.64215522 398.1280213 386.62672114 398.13024551 C384.38149601 398.13392327 382.13633802 398.1304109 379.89111328 398.12698364 C378.27389046 398.12813476 376.65666789 398.12972222 375.03944588 398.13171089 C370.57840183 398.1359055 366.11737903 398.13381292 361.65633488 398.13072467 C356.85192276 398.12847133 352.04751441 398.13194985 347.24310303 398.13470459 C337.82452949 398.13916198 328.4059639 398.13818595 318.98739004 398.13529195 C311.33585132 398.1330378 303.68431484 398.13272545 296.03277588 398.13381577 C294.9456827 398.133969 293.85858952 398.13412223 292.73855412 398.13428011 C290.53046465 398.13459982 288.32237518 398.13492403 286.11428571 398.1352527 C265.38653703 398.1381074 244.65879277 398.13482062 223.93104482 398.12945233 C206.12785579 398.1249843 188.32467328 398.12576024 170.52148438 398.13037109 C149.87024007 398.13571703 129.21899964 398.13783271 108.56775475 398.13475883 C106.36757787 398.13444027 104.167401 398.13412589 101.96722412 398.13381577 C100.8845643 398.13366149 99.80190447 398.13350721 98.68643677 398.13334826 C91.04000069 398.13248317 83.39356705 398.13394583 75.74713135 398.13629532 C66.43455716 398.13909373 57.12199141 398.13835419 47.8094182 398.13301457 C43.05382606 398.13037812 38.298248 398.12937157 33.54265594 398.13266373 C29.195361 398.13562782 24.84809329 398.13403196 20.50080085 398.12868617 C18.9221009 398.12756248 17.34339868 398.12815213 15.76470017 398.13056196 C13.63060612 398.13357149 11.49660726 398.13051565 9.36251831 398.12584114 C8.17355894 398.12567879 6.98459957 398.12551644 5.75961113 398.12534916 C3 398 3 398 1 397 C1 268.3 1 139.6 1 7 C0.34 7 -0.32 7 -1 7 C-1.33 5.68 -1.66 4.36 -2 3 C-1.34 3 -0.68 3 0 3 C0 2.01 0 1.02 0 0 Z " fill="#F2E01D" transform="translate(66,36)"/>
<path d="M0 0 C1.6642135 0.67276716 3.32986582 1.34206835 5 2 C5 2.66 5 3.32 5 4 C6.32 4.33 7.64 4.66 9 5 C9 5.66 9 6.32 9 7 C9.88945312 7.38671875 9.88945312 7.38671875 10.796875 7.78125 C13.17660965 9.09769895 14.50978792 10.42580782 16.25 12.5 C17.03117187 13.41265625 17.03117187 13.41265625 17.828125 14.34375 C19 16 19 16 19 18 C19.66 18 20.32 18 21 18 C22.4606285 20.64738916 23 21.89448334 23 25 C20.76953125 26.71875 20.76953125 26.71875 17.8125 28.5 C16.84957031 29.0878125 15.88664062 29.675625 14.89453125 30.28125 C13.93933594 30.8484375 12.98414063 31.415625 12 32 C11.09636719 32.5671875 10.19273437 33.134375 9.26171875 33.71875 C7 35 7 35 5 35 C5 35.66 5 36.32 5 37 C3.35 37.33 1.7 37.66 0 38 C0 38.66 0 39.32 0 40 C-1.98 40.66 -3.96 41.32 -6 42 C-6.66 41.34 -7.32 40.68 -8 40 C-8 39.01 -8 38.02 -8 37 C-8.66 37 -9.32 37 -10 37 C-11.0828125 35.6078125 -11.0828125 35.6078125 -12.1875 34.1875 C-14.97214632 30.80271438 -17.67857087 28.89230875 -22 28 C-31.17143286 26.9691374 -31.17143286 26.9691374 -39.6875 29.75 C-43.91465052 33.86290321 -45.76639132 36.70284802 -46.375 42.6875 C-46.25263543 47.82681176 -44.44852152 51.24073258 -41 55 C-34.63512101 60.28319115 -27.22821616 63.28947148 -19.62548828 66.30493164 C-3.377443 72.772164 15.81267571 81.14348541 26 96 C26 96.66 26 97.32 26 98 C26.66 98 27.32 98 28 98 C28.81974263 100.03876949 29.6304807 102.08116075 30.4375 104.125 C30.88996094 105.26195312 31.34242188 106.39890625 31.80859375 107.5703125 C36.31415665 120.54042472 35.42576819 137.49378453 30.1328125 150.05859375 C29.48094465 151.40268316 28.75269428 152.70966695 28 154 C27.34 154 26.68 154 26 154 C25.814375 154.680625 25.62875 155.36125 25.4375 156.0625 C22.04163127 163.00188393 15.65274701 167.41412218 9 171 C8.21109375 171.433125 7.4221875 171.86625 6.609375 172.3125 C-11.32526456 181.33351631 -33.93029253 181.23279391 -53 176 C-56.81414788 174.57315776 -60.40208117 172.90113783 -64 171 C-65.134375 170.443125 -66.26875 169.88625 -67.4375 169.3125 C-68.283125 168.879375 -69.12875 168.44625 -70 168 C-70.70125 167.690625 -71.4025 167.38125 -72.125 167.0625 C-74.50542003 165.71359532 -76.09687259 163.96079794 -78 162 C-79.2065625 161.071875 -79.2065625 161.071875 -80.4375 160.125 C-83.44342777 157.63227941 -85.63528394 155.10791253 -88 152 C-88 151.34 -88 150.68 -88 150 C-88.66 150 -89.32 150 -90 150 C-94.03405065 143.64331412 -94.03405065 143.64331412 -93.890625 140.93359375 C-92.67343204 138.29100378 -91.2475817 137.64072569 -88.6875 136.3125 C-87.90761719 135.89613281 -87.12773437 135.47976563 -86.32421875 135.05078125 C-84.20916539 134.09456385 -82.26586835 133.47183986 -80 133 C-80 132.34 -80 131.68 -80 131 C-74.66666667 128.33333333 -69.33333333 125.66666667 -64 123 C-63.55269531 123.67546875 -63.10539062 124.3509375 -62.64453125 125.046875 C-57.4664859 132.71193249 -57.4664859 132.71193249 -50 138 C-50 138.66 -50 139.32 -50 140 C-48.35 140.33 -46.7 140.66 -45 141 C-45 141.66 -45 142.32 -45 143 C-43.783125 143.144375 -42.56625 143.28875 -41.3125 143.4375 C-39.01246397 143.71897294 -36.82248183 144.04096573 -34.5625 144.5625 C-26.79740949 145.88824716 -20.36087753 144.59493414 -13 142 C-11.989375 141.67 -10.97875 141.34 -9.9375 141 C-7.64657009 140.10301684 -7.64657009 140.10301684 -7 137 C-6.34 137 -5.68 137 -5 137 C-3.47992374 129.39961871 -3.01480902 123.85452848 -7 117 C-7.33 116.01 -7.66 115.02 -8 114 C-9.81335308 112.88859759 -9.81335308 112.88859759 -12 112 C-13.06299316 111.45436401 -13.06299316 111.45436401 -14.14746094 110.89770508 C-20.73385883 107.54188994 -27.45765909 104.59813193 -34.25 101.6875 C-44.67689646 97.16590557 -54.53133211 92.31244526 -64 86 C-64 85.34 -64 84.68 -64 84 C-64.86625 83.63261719 -64.86625 83.63261719 -65.75 83.2578125 C-72.52279218 79.47163354 -77.17499793 72.0562827 -80 65 C-80.52207031 63.84371094 -81.04414063 62.68742187 -81.58203125 61.49609375 C-83.57714642 56.11419749 -83.43878905 50.80222547 -83.375 45.125 C-83.38660156 44.10019531 -83.39820313 43.07539063 -83.41015625 42.01953125 C-83.36036673 28.95807968 -79.11497942 19.05574548 -70.5625 9.1875 C-51.05413086 -7.46598585 -23.44425882 -11.4727224 0 0 Z " fill="#060708" transform="translate(397,223)"/>
<path d="M0 0 C12.21 0 24.42 0 37 0 C37.09065633 17.29095246 37.1641876 34.58169878 37.20724869 51.87282372 C37.22778333 59.90325874 37.25572738 67.93353448 37.30175781 75.96386719 C37.34190692 82.97156538 37.36749872 89.97914811 37.37635398 96.98695815 C37.38152181 100.68992087 37.39347217 104.39255356 37.42292023 108.09540939 C37.7585849 152.05960085 37.7585849 152.05960085 24.9375 166.2890625 C23 168 23 168 21 168 C20.67 168.99 20.34 169.98 20 171 C18.1796875 172.5 18.1796875 172.5 15.875 174 C14.75738281 174.7425 14.75738281 174.7425 13.6171875 175.5 C-2.78339916 184.89973922 -22.17826912 184.76199919 -40 180 C-46.68599225 177.73441528 -53.30600567 174.16053865 -59 170 C-59 169.34 -59 168.68 -59 168 C-59.86431641 167.65195312 -59.86431641 167.65195312 -60.74609375 167.296875 C-66.62931682 163.91172758 -71.67578797 156.35284622 -74 150 C-72.64408456 145.93225367 -70.7624948 145.37219903 -67.1015625 143.20703125 C-66.51079926 142.85613937 -65.92003601 142.5052475 -65.31137085 142.14372253 C-64.06135421 141.40409242 -62.80872095 140.66886941 -61.55371094 139.93774414 C-59.63287264 138.81709304 -57.72234546 137.68027782 -55.8125 136.54101562 C-46.41173727 131 -46.41173727 131 -43 131 C-41.67578125 132.9765625 -41.67578125 132.9765625 -40.3125 135.625 C-36.84609693 141.63797437 -33.17803021 145.38023122 -26.65234375 147.91015625 C-20.04182724 149.65969073 -14.20440609 148.81199695 -8 146 C-2.65642491 141.52884534 -1.90180814 136.59300209 -1 130 C-0.7184906 125.6423525 -0.68914712 121.29697299 -0.68115234 116.93115234 C-0.67110672 115.66172791 -0.6610611 114.39230347 -0.65071106 113.08441162 C-0.62362756 109.63471311 -0.60832668 106.18505492 -0.59528303 102.73527861 C-0.57955671 99.11844526 -0.55279727 95.50169314 -0.5272522 91.88491821 C-0.48063144 85.05000034 -0.44380701 78.21506691 -0.41057932 71.38007224 C-0.37223924 63.59275547 -0.32286059 55.80552062 -0.27259517 48.01827312 C-0.16952399 32.01223554 -0.08164039 16.00616341 0 0 Z " fill="#070808" transform="translate(246,219)"/>
<path d="M0 0 C0.33 0.66 0.66 1.32 1 2 C1.52396183 1.67481123 2.04792367 1.34962245 2.58776313 1.01457947 C5.71715996 -0.30163529 8.19986851 -0.24259447 11.59578991 -0.2332716 C12.2602598 -0.23419051 12.92472969 -0.23510942 13.60933504 -0.23605618 C15.84573148 -0.23667958 18.08180939 -0.22291912 20.31816101 -0.20927429 C21.93369636 -0.20673275 23.5492333 -0.20507121 25.16477042 -0.2042163 C29.61187351 -0.19928788 34.05885273 -0.18177599 38.50591242 -0.1622473 C43.29866491 -0.14337377 48.09143658 -0.13606136 52.88421631 -0.12731934 C62.27547514 -0.10834387 71.66667094 -0.07861566 81.05788859 -0.04527863 C91.98431065 -0.00688015 102.91075181 0.0210315 113.83720586 0.04850843 C133.32484886 0.09788297 152.81245043 0.15697115 172.30004883 0.22143555 C191.23037179 0.28404915 210.16069825 0.3396317 229.09106445 0.38745117 C230.84051291 0.39187173 230.84051291 0.39187173 232.62530377 0.39638159 C234.37166426 0.40079359 234.37166426 0.40079359 236.15330476 0.40529472 C257.67847371 0.45973172 279.20361975 0.52072362 300.72876203 0.5848012 C308.35414608 0.60735103 315.97953403 0.62794733 323.60492516 0.6479435 C332.88894542 0.67241997 342.17294573 0.70065238 351.45693978 0.73364202 C356.19823756 0.75041889 360.93952621 0.76559456 365.68084145 0.77650261 C370.01383062 0.78652672 374.34677873 0.80110514 378.67974041 0.81945875 C380.25431989 0.82531597 381.82890676 0.82946272 383.40349539 0.83180443 C385.52962213 0.83521864 387.65563506 0.84466399 389.78173351 0.85574818 C390.96695069 0.85949036 392.15216788 0.86323255 393.37330073 0.86708814 C396 1 396 1 397 2 C397.09794972 4.09541603 397.12371187 6.19420522 397.12304783 8.29190922 C397.12420167 8.95997067 397.12535552 9.62803212 397.12654433 10.31633785 C397.12921747 12.58291018 397.12468315 14.84941324 397.12025452 17.11598206 C397.12069008 18.74614143 397.1215647 20.37630073 397.12284368 22.00645965 C397.12509164 26.50783081 397.12106328 31.00917841 397.11606562 35.51054657 C397.11176559 40.35651837 397.11320722 45.20248874 397.1139679 50.04846191 C397.11449342 58.45168436 397.11134369 66.85489908 397.10573006 75.25811958 C397.09761884 87.40791453 397.09500023 99.55770571 397.09374207 111.70750307 C397.09155095 131.417553 397.08488925 151.1275988 397.07543945 170.83764648 C397.06626688 189.98933898 397.05918529 209.14103036 397.05493164 228.29272461 C397.05453756 230.0621254 397.05453756 230.0621254 397.05413551 231.86727167 C397.05283051 237.78470917 397.0515668 243.70214669 397.05032361 249.6195842 C397.03994913 298.74639232 397.0223292 347.87319596 397 397 C394.16905723 398.41547138 391.80497992 398.12540862 388.63748169 398.12584114 C387.64215522 398.1280213 387.64215522 398.1280213 386.62672114 398.13024551 C384.38149601 398.13392327 382.13633802 398.1304109 379.89111328 398.12698364 C378.27389046 398.12813476 376.65666789 398.12972222 375.03944588 398.13171089 C370.57840183 398.1359055 366.11737903 398.13381292 361.65633488 398.13072467 C356.85192276 398.12847133 352.04751441 398.13194985 347.24310303 398.13470459 C337.82452949 398.13916198 328.4059639 398.13818595 318.98739004 398.13529195 C311.33585132 398.1330378 303.68431484 398.13272545 296.03277588 398.13381577 C294.9456827 398.133969 293.85858952 398.13412223 292.73855412 398.13428011 C290.53046465 398.13459982 288.32237518 398.13492403 286.11428571 398.1352527 C265.38653703 398.1381074 244.65879277 398.13482062 223.93104482 398.12945233 C206.12785579 398.1249843 188.32467328 398.12576024 170.52148438 398.13037109 C149.87024007 398.13571703 129.21899964 398.13783271 108.56775475 398.13475883 C106.36757787 398.13444027 104.167401 398.13412589 101.96722412 398.13381577 C100.8845643 398.13366149 99.80190447 398.13350721 98.68643677 398.13334826 C91.04000069 398.13248317 83.39356705 398.13394583 75.74713135 398.13629532 C66.43455716 398.13909373 57.12199141 398.13835419 47.8094182 398.13301457 C43.05382606 398.13037812 38.298248 398.12937157 33.54265594 398.13266373 C29.195361 398.13562782 24.84809329 398.13403196 20.50080085 398.12868617 C18.9221009 398.12756248 17.34339868 398.12815213 15.76470017 398.13056196 C13.63060612 398.13357149 11.49660726 398.13051565 9.36251831 398.12584114 C8.17355894 398.12567879 6.98459957 398.12551644 5.75961113 398.12534916 C3 398 3 398 1 397 C1 268.3 1 139.6 1 7 C0.34 7 -0.32 7 -1 7 C-1.33 5.68 -1.66 4.36 -2 3 C-1.34 3 -0.68 3 0 3 C0 2.01 0 1.02 0 0 Z M2 3 C2 132.69 2 262.38 2 396 C132.02 396 262.04 396 396 396 C396 266.31 396 136.62 396 3 C265.98 3 135.96 3 2 3 Z " fill="#F7F3BD" transform="translate(66,36)"/>
<path d="M0 0 C0.99 0 1.98 0 3 0 C3 0.66 3 1.32 3 2 C3.88945312 2.38671875 3.88945312 2.38671875 4.796875 2.78125 C7.17660965 4.09769895 8.50978792 5.42580782 10.25 7.5 C10.77078125 8.1084375 11.2915625 8.716875 11.828125 9.34375 C13 11 13 11 13 13 C13.66 13 14.32 13 15 13 C16.4606285 15.64738916 17 16.89448334 17 20 C13.37 21.98 9.74 23.96 6 26 C6 25.01 6 24.02 6 23 C6.99 22.67 7.98 22.34 9 22 C8.34 21.01 7.68 20.02 7 19 C6.875 16.3125 6.875 16.3125 7 14 C7.99 14 8.98 14 10 14 C10 13.01 10 12.02 10 11 C9.34 11 8.68 11 8 11 C8 9.68 8 8.36 8 7 C7.01 6.67 6.02 6.34 5 6 C5 5.34 5 4.68 5 4 C4.360625 3.896875 3.72125 3.79375 3.0625 3.6875 C2.381875 3.460625 1.70125 3.23375 1 3 C0.67 2.01 0.34 1.02 0 0 Z " fill="#0F0D05" transform="translate(403,228)"/>
<path d="M0 0 C2.97922593 -0.02683987 5.95821295 -0.04676037 8.9375 -0.0625 C10.21270508 -0.07506836 10.21270508 -0.07506836 11.51367188 -0.08789062 C12.32255859 -0.09111328 13.13144531 -0.09433594 13.96484375 -0.09765625 C14.7137085 -0.10289307 15.46257324 -0.10812988 16.23413086 -0.11352539 C18 0 18 0 19 1 C20.68183948 1.23287008 22.3712416 1.41264166 24.0625 1.5625 C24.98160156 1.64628906 25.90070313 1.73007813 26.84765625 1.81640625 C27.91306641 1.90728516 27.91306641 1.90728516 29 2 C29 2.66 29 3.32 29 4 C31.31 4 33.62 4 36 4 C36.495 4.99 36.495 4.99 37 6 C37.99 6 38.98 6 40 6 C40.66 6.99 41.32 7.98 42 9 C41.34 9.33 40.68 9.66 40 10 C39.360625 9.5875 38.72125 9.175 38.0625 8.75 C24.43673182 0.96384676 6.05426316 1.97346457 -9 4 C-7 2 -7 2 -3.375 1.875 C-1.704375 1.936875 -1.704375 1.936875 0 2 C0 1.34 0 0.68 0 0 Z " fill="#EBE045" transform="translate(359,215)"/>
<path d="M0 0 C0 0.99 0 1.98 0 3 C-3.96 2.67 -7.92 2.34 -12 2 C-12 2.66 -12 3.32 -12 4 C-18.38699558 5.92814961 -21.71134652 6.23596568 -28 4 C-21.6948745 -2.3051255 -8.30450378 -0.18546038 0 0 Z " fill="#0B0803" transform="translate(376,217)"/>
<path d="M0 0 C0.33 0 0.66 0 1 0 C0.97501848 6.20790664 0.48057685 11.02687588 -3.99609375 15.58984375 C-8.95063642 19.07637378 -15.19646484 20.50335235 -21.1875 19.6875 C-22.115625 19.460625 -23.04375 19.23375 -24 19 C-24 18.67 -24 18.34 -24 18 C-22.89591797 17.92652344 -22.89591797 17.92652344 -21.76953125 17.8515625 C-20.79371094 17.77679688 -19.81789062 17.70203125 -18.8125 17.625 C-17.84957031 17.55539062 -16.88664063 17.48578125 -15.89453125 17.4140625 C-12.94841552 16.99262084 -10.65141258 16.34712704 -8 15 C-7.3121764 12.64632287 -7.3121764 12.64632287 -7 10 C-5.5625 7.1875 -5.5625 7.1875 -4 5 C-3.34 5 -2.68 5 -2 5 C-1.34 3.35 -0.68 1.7 0 0 Z " fill="#F0E33A" transform="translate(244,349)"/>
<path d="M0 0 C1.65 0 3.3 0 5 0 C5.33 2.31 5.66 4.62 6 7 C7.65 7.33 9.3 7.66 11 8 C11 8.99 11 9.98 11 11 C12.63631892 12.04892238 14.30485863 13.04906703 16 14 C16.33 14.66 16.66 15.32 17 16 C18.98 15.01 20.96 14.02 23 13 C22.67 14.65 22.34 16.3 22 18 C21.34 18 20.68 18 20 18 C19.67 18.66 19.34 19.32 19 20 C16.5 18.625 16.5 18.625 14 17 C14 16.34 14 15.68 14 15 C13.42507813 14.76023437 12.85015625 14.52046875 12.2578125 14.2734375 C9.54905005 12.74565799 7.91844548 10.96369616 5.875 8.625 C5.19179688 7.85414063 4.50859375 7.08328125 3.8046875 6.2890625 C2.19148073 4.24287383 1.05067645 2.37214579 0 0 Z " fill="#130D01" transform="translate(319,292)"/>
<path d="M0 0 C0 0.66 0 1.32 0 2 C-1.79143207 2.9795958 -3.58315304 3.9586633 -5.375 4.9375 C-6.37273437 5.48277344 -7.37046875 6.02804687 -8.3984375 6.58984375 C-9.92070346 7.4149759 -11.45128783 8.22564391 -13 9 C-12.34414811 12.60992379 -12.34414811 12.60992379 -11 16 C-11.99 16 -12.98 16 -14 16 C-14 15.01 -14 14.02 -14 13 C-14.99 13 -15.98 13 -17 13 C-17.66 11.35 -18.32 9.7 -19 8 C-16 7 -16 7 -12 7 C-11.731875 6.360625 -11.46375 5.72125 -11.1875 5.0625 C-10 3 -10 3 -7 2 C-6.34 2.33 -5.68 2.66 -5 3 C-5 2.34 -5 1.68 -5 1 C-2 0 -2 0 0 0 Z " fill="#EEE13B" transform="translate(317,354)"/>
<path d="M0 0 C2.97 0.495 2.97 0.495 6 1 C6 1.99 6 2.98 6 4 C7.32 4 8.64 4 10 4 C10.33 3.34 10.66 2.68 11 2 C11.99 2.33 12.98 2.66 14 3 C14 4.32 14 5.64 14 7 C15.65 6.67 17.3 6.34 19 6 C18.67 7.32 18.34 8.64 18 10 C7.90882638 6.90009699 7.90882638 6.90009699 4 4 C4 3.34 4 2.68 4 2 C2.68 2 1.36 2 0 2 C0 1.34 0 0.68 0 0 Z " fill="#ECDF30" transform="translate(368,283)"/>
<path d="M0 0 C0.66 0 1.32 0 2 0 C2.49243231 9.26502269 2.2450071 19.60045377 -4 27 C-4 21.96000723 -3.41469688 16.85038929 -2 12 C-1.34 12 -0.68 12 0 12 C0 8.04 0 4.08 0 0 Z " fill="#120F01" transform="translate(429,348)"/>
<path d="M0 0 C0.66 0.33 1.32 0.66 2 1 C2 2.32 2 3.64 2 5 C2.66 5.33 3.32 5.66 4 6 C2.25 13.625 2.25 13.625 0 17 C-0.66 17 -1.32 17 -2 17 C-2 17.66 -2 18.32 -2 19 C-2.66 19 -3.32 19 -4 19 C-3.505 17.515 -3.505 17.515 -3 16 C-2.34 16 -1.68 16 -1 16 C0.12862175 10.63904667 0.09688221 5.44693314 0 0 Z M-4 19 C-4 19.66 -4 20.32 -4 21 C-5.65 21.33 -7.3 21.66 -9 22 C-6.25 19 -6.25 19 -4 19 Z " fill="#110C01" transform="translate(393,344)"/>
<path d="M0 0 C4.84111765 0.58838199 8.96071195 2.07653116 13.375 4.0625 C14.01566406 4.34416016 14.65632813 4.62582031 15.31640625 4.91601562 C16.88029659 5.60459421 18.44053941 6.30144711 20 7 C19.34 7.66 18.68 8.32 18 9 C16.24593347 8.60079865 14.49681018 8.17984334 12.75 7.75 C11.77546875 7.51796875 10.8009375 7.2859375 9.796875 7.046875 C6.64683146 5.86780842 5.23636794 4.46573901 3 2 C2.01 1.34 1.02 0.68 0 0 Z " fill="#130F02" transform="translate(369,287)"/>
<path d="M0 0 C0.33 0 0.66 0 1 0 C1.02689216 1.47906892 1.04634621 2.95827483 1.0625 4.4375 C1.07410156 5.26121094 1.08570313 6.08492188 1.09765625 6.93359375 C1 9 1 9 0 10 C-0.185625 11.8253125 -0.185625 11.8253125 -0.375 13.6875 C-0.8070901 17.61881158 -2.01613641 20.54980245 -4 24 C-4.66 23.67 -5.32 23.34 -6 23 C-5.81824219 22.42894531 -5.63648438 21.85789062 -5.44921875 21.26953125 C-3.27440363 14.25435838 -1.58448337 7.16950633 0 0 Z " fill="#EEE247" transform="translate(282,355)"/>
<path d="M0 0 C0.66 0.33 1.32 0.66 2 1 C1.01 1.33 0.02 1.66 -1 2 C-1 2.66 -1 3.32 -1 4 C-1.99 4 -2.98 4 -4 4 C-4 4.99 -4 5.98 -4 7 C-4.99 7.66 -5.98 8.32 -7 9 C-7 9.99 -7 10.98 -7 12 C-8.65 11.67 -10.3 11.34 -12 11 C-11.67 9.68 -11.34 8.36 -11 7 C-9.68 6.67 -8.36 6.34 -7 6 C-7 5.34 -7 4.68 -7 4 C-5.35 3.67 -3.7 3.34 -2 3 C-2 2.34 -2 1.68 -2 1 C-1.34 0.67 -0.68 0.34 0 0 Z " fill="#F3E22E" transform="translate(404,257)"/>
<path d="M0 0 C-6.25980767 3.5054923 -12.97216771 4.39442715 -20 5 C-20 4.34 -20 3.68 -20 3 C-17.69 3 -15.38 3 -13 3 C-12.67 2.01 -12.34 1.02 -12 0 C-11.05125 0.020625 -10.1025 0.04125 -9.125 0.0625 C-0.375 -0.1125 -0.375 -0.1125 0 0 Z " fill="#151100" transform="translate(400,396)"/>
<path d="M0 0 C6.15234375 -0.09765625 6.15234375 -0.09765625 8 0 C8.33 0.33 8.66 0.66 9 1 C11.52596259 1.23653523 14.03107207 1.42173692 16.5625 1.5625 C17.27341797 1.60568359 17.98433594 1.64886719 18.71679688 1.69335938 C20.47761912 1.79971777 22.2387832 1.90038846 24 2 C19.99458364 4.67027758 16.63388461 4.46338846 12 4 C7.95180558 3.16026662 3.97612408 2.13026878 0 1 C0 0.67 0 0.34 0 0 Z " fill="#EEE74C" transform="translate(353,365)"/>
<path d="M0 0 C0.33 0.66 0.66 1.32 1 2 C0.67 2.99 0.34 3.98 0 5 C1.65 4.34 3.3 3.68 5 3 C5.33 3.99 5.66 4.98 6 6 C5.34 6 4.68 6 4 6 C4 6.66 4 7.32 4 8 C4.99 8 5.98 8 7 8 C7.33 9.65 7.66 11.3 8 13 C4.29346269 11.76448756 3.35084565 10.03334922 1 7 C0.34 6.67 -0.32 6.34 -1 6 C-1 5.34 -1 4.68 -1 4 C-1.66 3.67 -2.32 3.34 -3 3 C-2.34 3 -1.68 3 -1 3 C-0.67 2.01 -0.34 1.02 0 0 Z " fill="#F3E239" transform="translate(407,224)"/>
<path d="M0 0 C5.28 0 10.56 0 16 0 C16 0.99 16 1.98 16 3 C12.04 2.67 8.08 2.34 4 2 C4 2.66 4 3.32 4 4 C3.01 4 2.02 4 1 4 C0.67 2.68 0.34 1.36 0 0 Z " fill="#161202" transform="translate(360,217)"/>
<path d="M0 0 C0.474375 0.70125 0.94875 1.4025 1.4375 2.125 C4.29414856 5.33002034 7.25967906 7.31211004 10.87890625 9.5703125 C12.84746387 10.89718559 14.3920802 12.2636521 16 14 C14.35 14 12.7 14 11 14 C10.67 13.01 10.34 12.02 10 11 C8.06381575 10.32843384 8.06381575 10.32843384 6 10 C5.34 9.67 4.68 9.34 4 9 C4 8.34 4 7.68 4 7 C3.34 7 2.68 7 2 7 C2 6.34 2 5.68 2 5 C1.34 5 0.68 5 0 5 C0 3.35 0 1.7 0 0 Z " fill="#110A01" transform="translate(351,272)"/>
<path d="M0 0 C0.33 0.66 0.66 1.32 1 2 C-2.3738794 4.8340587 -5.95916013 6.29859374 -10 8 C-11.68535024 8.96817992 -13.36021682 9.95650161 -15 11 C-15 10.01 -15 9.02 -15 8 C-10.68680274 4.32537999 -5.222641 2.06729539 0 0 Z " fill="#1C1802" transform="translate(346,220)"/>
<path d="M0 0 C0.33 0.66 0.66 1.32 1 2 C1.66 2.33 2.32 2.66 3 3 C2.67 10.59 2.34 18.18 2 26 C1.67 26 1.34 26 1 26 C1 19.73 1 13.46 1 7 C0.34 7 -0.32 7 -1 7 C-1.33 5.68 -1.66 4.36 -2 3 C-1.34 3 -0.68 3 0 3 C0 2.01 0 1.02 0 0 Z " fill="#F0EECC" transform="translate(66,36)"/>
<path d="M0 0 C3.30823705 3.12941343 5.7131982 6.07976834 8 10 C8.66 10.33 9.32 10.66 10 11 C9.67 12.32 9.34 13.64 9 15 C8.03644756 13.92130607 7.07938583 12.83681257 6.125 11.75 C5.32449219 10.84507812 5.32449219 10.84507812 4.5078125 9.921875 C3 8 3 8 1.9375 5.84375 C0.73150579 3.47196138 -0.57970874 2.96811651 -3 2 C-2.01 1.34 -1.02 0.68 0 0 Z " fill="#0E0501" transform="translate(332,346)"/>
<path d="M0 0 C3.83961632 3.59189914 4.92753519 5.50239395 5.1875 10.875 C5.15581093 14.31009496 4.55421259 16.89157482 3 20 C2.71125 19.38125 2.4225 18.7625 2.125 18.125 C1.06279958 15.86674235 1.06279958 15.86674235 -1 14 C-0.01 13.67 0.98 13.34 2 13 C2.66 13.33 3.32 13.66 4 14 C2.85248597 9.2460133 1.61737483 4.62107093 0 0 Z " fill="#EEE544" transform="translate(389,339)"/>
<path d="M0 0 C0.99 0.495 0.99 0.495 2 1 C1.01 1.495 1.01 1.495 0 2 C0 1.34 0 0.68 0 0 Z M-1 2 C-1 5.65725087 -2.04218764 6.95451411 -4 10 C-4.8353125 11.3921875 -4.8353125 11.3921875 -5.6875 12.8125 C-6.120625 13.534375 -6.55375 14.25625 -7 15 C-6.34 15.33 -5.68 15.66 -5 16 C-6.65 16.66 -8.3 17.32 -10 18 C-9.33977477 14.49510064 -7.91332586 11.90691522 -6.0625 8.875 C-5.53785156 8.00617188 -5.01320313 7.13734375 -4.47265625 6.2421875 C-3 4 -3 4 -1 2 Z " fill="#110D00" transform="translate(327,231)"/>
<path d="M0 0 C8.17367067 -0.4485551 13.97563746 -0.40744316 21 4 C21 4.66 21 5.32 21 6 C21.66 6.33 22.32 6.66 23 7 C22.01 7.495 22.01 7.495 21 8 C20.2575 7.360625 19.515 6.72125 18.75 6.0625 C16.2888879 4.21666593 14.96533074 3.43930826 12 3 C12 2.34 12 1.68 12 1 C8.04 1 4.08 1 0 1 C0 0.67 0 0.34 0 0 Z " fill="#EDE449" transform="translate(362,250)"/>
<path d="M0 0 C2.31 0 4.62 0 7 0 C7 2.31 7 4.62 7 7 C6.01 7.495 6.01 7.495 5 8 C5 7.01 5 6.02 5 5 C3.35 4.67 1.7 4.34 0 4 C0 2.68 0 1.36 0 0 Z " fill="#EEDD26" transform="translate(310,242)"/>
<path d="M0 0 C2.45925493 2.45925493 3.34371127 4.79646927 4.6875 8 C5.14511719 9.0725 5.60273438 10.145 6.07421875 11.25 C6.37972656 12.1575 6.68523437 13.065 7 14 C6.67 14.66 6.34 15.32 6 16 C5.01 15.67 4.02 15.34 3 15 C3 13.02 3 11.04 3 9 C1.68 9 0.36 9 -1 9 C-0.67 6.03 -0.34 3.06 0 0 Z " fill="#EEE33F" transform="translate(314,280)"/>
<path d="M0 0 C1.32 0.66 2.64 1.32 4 2 C4 2.66 4 3.32 4 4 C4.61875 4.28875 5.2375 4.5775 5.875 4.875 C8 6 8 6 10 8 C8.88625 7.814375 7.7725 7.62875 6.625 7.4375 C3.17431139 6.68319343 3.17431139 6.68319343 1 8 C-0.5625 5.625 -0.5625 5.625 -2 3 C-1 1 -1 1 0 0 Z " fill="#EEE13B" transform="translate(183,385)"/>
<path d="M0 0 C6.30596952 1.10938353 11.37529486 2.93197901 17 6 C16.67 6.99 16.34 7.98 16 9 C15.236875 8.690625 14.47375 8.38125 13.6875 8.0625 C11.81210323 7.32106407 9.91315348 6.63771783 8 6 C8 5.01 8 4.02 8 3 C7.13375 3.309375 7.13375 3.309375 6.25 3.625 C3.48032433 4.08661261 2.35438733 3.42944945 0 2 C0 1.34 0 0.68 0 0 Z " fill="#161100" transform="translate(385,219)"/>
<path d="M0 0 C0 0.66 0 1.32 0 2 C-5.69398894 4.09570426 -10.95198929 5.45018084 -17 6 C-17 5.34 -17 4.68 -17 4 C-15.906875 3.690625 -14.81375 3.38125 -13.6875 3.0625 C-11.44592006 2.41662103 -9.2130649 1.7376883 -7 1 C-4.61638708 0.4767679 -2.44222751 0 0 0 Z " fill="#171402" transform="translate(254,395)"/>
<path d="M0 0 C-1.27273947 3.95963389 -3.68299713 5.37729554 -7.1796875 7.25 C-9.53294894 8.21958411 -11.48739234 8.3045585 -14 8 C-4.57142857 0 -4.57142857 0 0 0 Z " fill="#120B02" transform="translate(190,357)"/>
<path d="M0 0 C1.33897583 0.95043374 2.67105427 1.91059147 4 2.875 C5.11375 3.67550781 5.11375 3.67550781 6.25 4.4921875 C6.8275 4.98976563 7.405 5.48734375 8 6 C8 6.66 8 7.32 8 8 C10.475 8.99 10.475 8.99 13 10 C12.01 10.66 11.02 11.32 10 12 C4.64273188 9.32136594 1.88671609 5.66014826 0 0 Z " fill="#EAE242" transform="translate(325,301)"/>
<path d="M0 0 C1.46067199 0.45082469 2.91848032 0.91093537 4.375 1.375 C5.18710937 1.63023437 5.99921875 1.88546875 6.8359375 2.1484375 C9 3 9 3 11 5 C6.74938644 6.41687119 4.28148375 5.19320039 0 4 C0 2.68 0 1.36 0 0 Z " fill="#ECE038" transform="translate(328,392)"/>
<path d="M0 0 C2 2 2 2 2 5 C-1.63 6.98 -5.26 8.96 -9 11 C-9 10.01 -9 9.02 -9 8 C-8.030625 7.54625 -7.06125 7.0925 -6.0625 6.625 C-2.92920418 5.34213779 -2.92920418 5.34213779 -2 3 C-1.34 3 -0.68 3 0 3 C0 2.01 0 1.02 0 0 Z " fill="#191302" transform="translate(418,243)"/>
<path d="M0 0 C0.66 1.32 1.32 2.64 2 4 C2.66 4 3.32 4 4 4 C5.32 7.3 6.64 10.6 8 14 C7.01 13.67 6.02 13.34 5 13 C3.8125 9.4375 3.8125 9.4375 3 6 C1.68 5.67 0.36 5.34 -1 5 C-0.67 3.35 -0.34 1.7 0 0 Z " fill="#171300" transform="translate(421,317)"/>
<path d="M0 0 C0.33 0.66 0.66 1.32 1 2 C0.0625 4.625 0.0625 4.625 -1 7 C-1.99 7 -2.98 7 -4 7 C-4 8.32 -4 9.64 -4 11 C-5.65 11.33 -7.3 11.66 -9 12 C-7.87994369 8.63983107 -6.62788203 7.30935087 -4 5 C-3.34 5 -2.68 5 -2 5 C-1.34 3.35 -0.68 1.7 0 0 Z " fill="#ECE143" transform="translate(275,378)"/>
<path d="M0 0 C0.33 0 0.66 0 1 0 C1 1.65 1 3.3 1 5 C1.99 5.33 2.98 5.66 4 6 C6.32265612 8.58072903 7 9.45176068 7 13 C6.34 13 5.68 13 5 13 C5 12.34 5 11.68 5 11 C4.34 11 3.68 11 3 11 C-1.06153846 4.6 -1.06153846 4.6 -0.75 1.5625 C-0.5025 1.046875 -0.255 0.53125 0 0 Z " fill="#161001" transform="translate(304,362)"/>
<path d="M0 0 C0.66 0.33 1.32 0.66 2 1 C1.01 2.485 1.01 2.485 0 4 C0.66 4.33 1.32 4.66 2 5 C-0.64 5.99 -3.28 6.98 -6 8 C-6.66 7.34 -7.32 6.68 -8 6 C-5.36 4.02 -2.72 2.04 0 0 Z " fill="#F0E338" transform="translate(416,386)"/>
<path d="M0 0 C0.78761719 0.26425781 1.57523438 0.52851563 2.38671875 0.80078125 C4.3125 1.6875 4.3125 1.6875 5.3125 3.6875 C3.35270573 3.40581703 1.39467622 3.11183283 -0.5625 2.8125 C-2.19832031 2.56886719 -2.19832031 2.56886719 -3.8671875 2.3203125 C-6.6875 1.6875 -6.6875 1.6875 -8.6875 -0.3125 C-5.31450256 -1.46256091 -3.33896785 -1.16449953 0 0 Z " fill="#0F0E02" transform="translate(212.6875,397.3125)"/>
<path d="M0 0 C2.60082878 2.47078734 4.77020294 5.19477144 7 8 C7.66 8.66 8.32 9.32 9 10 C7.68 10 6.36 10 5 10 C2.875 7.5625 2.875 7.5625 1 5 C0.34 4.67 -0.32 4.34 -1 4 C-0.67 2.68 -0.34 1.36 0 0 Z " fill="#110A00" transform="translate(204,354)"/>
<path d="M0 0 C1.6274637 0.61855631 3.25190356 1.24507305 4.875 1.875 C5.77992188 2.22304688 6.68484375 2.57109375 7.6171875 2.9296875 C10 4 10 4 12 6 C8.7 5.67 5.4 5.34 2 5 C2 4.01 2 3.02 2 2 C1.34 2 0.68 2 0 2 C0 1.34 0 0.68 0 0 Z " fill="#ECE343" transform="translate(371,328)"/>
<path d="M0 0 C1.32 1.32 2.64 2.64 4 4 C2.1875 5.5625 2.1875 5.5625 0 7 C-0.99 6.67 -1.98 6.34 -3 6 C-3 4.68 -3 3.36 -3 2 C-2.34 2 -1.68 2 -1 2 C-0.67 1.34 -0.34 0.68 0 0 Z " fill="#F2E331" transform="translate(321,296)"/>
<path d="M0 0 C0.66 0 1.32 0 2 0 C2 0.66 2 1.32 2 2 C1.34 2 0.68 2 0 2 C-0.226875 2.7425 -0.45375 3.485 -0.6875 4.25 C-2.24407532 7.51139591 -4.08518854 8.92894975 -7 11 C-5.51131293 6.39860359 -3.25370145 3.49772906 0 0 Z " fill="#150B00" transform="translate(423,375)"/>
<path d="M0 0 C1.32 0 2.64 0 4 0 C4.33 0.66 4.66 1.32 5 2 C5.99 2 6.98 2 8 2 C7.67 2.99 7.34 3.98 7 5 C4.03 4.505 4.03 4.505 1 4 C0.67 2.68 0.34 1.36 0 0 Z " fill="#141309" transform="translate(221,368)"/>
<path d="M0 0 C1 3 1 3 -0.125 6.125 C-2 9 -2 9 -4.6875 9.875 C-5.450625 9.91625 -6.21375 9.9575 -7 10 C-6.21718695 8.66144944 -5.42348123 7.32926356 -4.625 6 C-4.18414062 5.2575 -3.74328125 4.515 -3.2890625 3.75 C-2.86367188 3.1725 -2.43828125 2.595 -2 2 C-1.34 2 -0.68 2 0 2 C0 1.34 0 0.68 0 0 Z " fill="#F1E448" transform="translate(425,375)"/>
<path d="M0 0 C-0.8125 1.9375 -0.8125 1.9375 -2 4 C-4.6739124 4.89130413 -7.23723823 5.47731534 -10 6 C-10 5.34 -10 4.68 -10 4 C-9.01 4 -8.02 4 -7 4 C-7 3.34 -7 2.68 -7 2 C-2.25 0 -2.25 0 0 0 Z " fill="#151300" transform="translate(324,352)"/>
<path d="M0 0 C0.33 0 0.66 0 1 0 C1.33 3.3 1.66 6.6 2 10 C0 9 0 9 -1 6 C-1.66 6 -2.32 6 -3 6 C-2.67 4.68 -2.34 3.36 -2 2 C-1.34 2 -0.68 2 0 2 C0 1.34 0 0.68 0 0 Z " fill="#151504" transform="translate(429,334)"/>
<path d="M0 0 C0.66 0.33 1.32 0.66 2 1 C1.01 1.33 0.02 1.66 -1 2 C-1 2.66 -1 3.32 -1 4 C-1.99 4 -2.98 4 -4 4 C-4 4.99 -4 5.98 -4 7 C-5.65 7 -7.3 7 -9 7 C-8.34 6.67 -7.68 6.34 -7 6 C-7 5.34 -7 4.68 -7 4 C-5.35 3.67 -3.7 3.34 -2 3 C-2 2.34 -2 1.68 -2 1 C-1.34 0.67 -0.68 0.34 0 0 Z " fill="#ECE34A" transform="translate(404,257)"/>
<path d="M0 0 C-0.99 0.33 -1.98 0.66 -3 1 C-4.2684375 1.804375 -4.2684375 1.804375 -5.5625 2.625 C-6.366875 3.07875 -7.17125 3.5325 -8 4 C-8.66 3.67 -9.32 3.34 -10 3 C-9.67 2.01 -9.34 1.02 -9 0 C-5.62182575 -0.84454356 -3.32534757 -1.10844919 0 0 Z " fill="#F0E647" transform="translate(335,346)"/>
<path d="M0 0 C0 1.32 0 2.64 0 4 C-0.721875 3.979375 -1.44375 3.95875 -2.1875 3.9375 C-4.91925138 3.99820559 -7.34256091 4.39258535 -10 5 C-3.63636364 0 -3.63636364 0 0 0 Z " fill="#F2E542" transform="translate(264,392)"/>
<path d="M0 0 C2.475 0.495 2.475 0.495 5 1 C5 1.66 5 2.32 5 3 C5.99 3.66 6.98 4.32 8 5 C7.67 5.99 7.34 6.98 7 8 C5.62437146 6.71034824 4.29233607 5.37310707 3 4 C3 3.34 3 2.68 3 2 C2.01 1.67 1.02 1.34 0 1 C0 0.67 0 0.34 0 0 Z " fill="#130E01" transform="translate(386,335)"/>
<path d="M0 0 C0.33 0.99 0.66 1.98 1 3 C-0.33333333 4.33333333 -1.66666667 5.66666667 -3 7 C-3.66 6.34 -4.32 5.68 -5 5 C-4 2 -4 2 -1.9375 0.8125 C-1.298125 0.544375 -0.65875 0.27625 0 0 Z " fill="#16130C" transform="translate(341,305)"/>
<path d="M0 0 C-0.639375 0.28875 -1.27875 0.5775 -1.9375 0.875 C-4.15206079 1.82823451 -4.15206079 1.82823451 -5 4 C-5 3.34 -5 2.68 -5 2 C-6.65 2 -8.3 2 -10 2 C-10 1.67 -10 1.34 -10 1 C-6.59437148 0.22157062 -3.49234244 -0.09978121 0 0 Z M-7 4 C-5 5 -5 5 -5 5 Z " fill="#F1E33F" transform="translate(245,400)"/>
<path d="M0 0 C0.33 0.99 0.66 1.98 1 3 C0.67 3.33 0.34 3.66 0 4 C0.66 4.66 1.32 5.32 2 6 C1.01 6.495 1.01 6.495 0 7 C-0.99 6.34 -1.98 5.68 -3 5 C-2.625 3.0625 -2.625 3.0625 -2 1 C-1.34 0.67 -0.68 0.34 0 0 Z " fill="#F0E235" transform="translate(345,354)"/>
<path d="M0 0 C1.65 1.65 3.3 3.3 5 5 C1.79604584 5 -0.09399739 4.25664978 -3 3 C-2.01 2.01 -1.02 1.02 0 0 Z " fill="#221B02" transform="translate(332,346)"/>
<path d="M0 0 C0.99 0.33 1.98 0.66 3 1 C4.6875 4.5625 4.6875 4.5625 6 8 C5.34 8 4.68 8 4 8 C3.896875 7.360625 3.79375 6.72125 3.6875 6.0625 C3.460625 5.381875 3.23375 4.70125 3 4 C2.01 3.67 1.02 3.34 0 3 C0 2.01 0 1.02 0 0 Z " fill="#EBE449" transform="translate(419,313)"/>
<path d="M0 0 C0.28875 0.639375 0.5775 1.27875 0.875 1.9375 C1.82823451 4.15206079 1.82823451 4.15206079 4 5 C3.01 5.495 3.01 5.495 2 6 C-0.03144641 5.06553465 -2.03533587 4.06775224 -4 3 C-2.68 2.01 -1.36 1.02 0 0 Z " fill="#EBDF3C" transform="translate(390,291)"/>
</svg>
