<?xml version="1.0" encoding="UTF-8"?>
<!DOCTYPE svg PUBLIC "-//W3C//DTD SVG 1.1//EN" "http://www.w3.org/Graphics/SVG/1.1/DTD/svg11.dtd">
<svg xmlns="http://www.w3.org/2000/svg" version="1.1" width="500px" height="500px" style="shape-rendering:geometricPrecision; text-rendering:geometricPrecision; image-rendering:optimizeQuality; fill-rule:evenodd; clip-rule:evenodd" xmlns:xlink="http://www.w3.org/1999/xlink">
<g><path style="opacity:1" fill="#6bab48" d="M 251.5,41.5 C 252.469,128.83 253.135,216.164 253.5,303.5C 252.252,304.334 251.585,305.667 251.5,307.5C 250.612,315.486 249.946,323.486 249.5,331.5C 249.5,332.833 249.5,334.167 249.5,335.5C 247.768,337.716 246.768,340.382 246.5,343.5C 243.559,346.407 241.893,345.74 241.5,341.5C 239.5,341.167 237.5,340.833 235.5,340.5C 236.602,337.573 237.602,334.573 238.5,331.5C 236.924,329.021 235.924,326.354 235.5,323.5C 231.023,321.712 226.69,320.378 222.5,319.5C 221.948,321.003 221.948,322.669 222.5,324.5C 221.167,324.5 219.833,324.5 218.5,324.5C 216.192,320.401 214.026,316.067 212,311.5C 209.471,309.46 206.638,308.126 203.5,307.5C 203.5,307.167 203.5,306.833 203.5,306.5C 200.532,299.899 197.032,293.566 193,287.5C 192.506,285.866 192.34,284.199 192.5,282.5C 190.801,282.473 189.467,281.806 188.5,280.5C 186.061,275.512 184.395,270.179 183.5,264.5C 181.979,261.407 180.313,258.407 178.5,255.5C 177.833,255.5 177.5,255.167 177.5,254.5C 178.649,254.209 179.316,253.376 179.5,252C 177.907,242.618 175.907,233.451 173.5,224.5C 173.5,222.5 173.5,220.5 173.5,218.5C 173.179,202.781 173.846,187.114 175.5,171.5C 175.369,166.152 176.369,161.152 178.5,156.5C 179.15,154.553 180.317,152.887 182,151.5C 182.465,147.152 182.965,142.819 183.5,138.5C 183.796,136.597 184.463,134.93 185.5,133.5C 186.458,133.047 187.292,132.381 188,131.5C 189.925,127.307 191.592,122.974 193,118.5C 194,117.833 195,117.167 196,116.5C 196.621,112.75 197.454,109.084 198.5,105.5C 200.339,104.492 201.672,102.992 202.5,101C 203.448,100.517 204.448,100.351 205.5,100.5C 206.612,96.8823 207.612,93.2157 208.5,89.5C 212.262,86.0711 215.262,82.0711 217.5,77.5C 217.5,76.8333 217.833,76.5 218.5,76.5C 222.744,72.6447 226.91,72.6447 231,76.5C 230.554,74.1171 229.388,71.9504 227.5,70C 229.617,68.2691 231.117,66.1024 232,63.5C 233.441,62.13 235.108,61.13 237,60.5C 237.939,56.614 240.439,54.4474 244.5,54C 247.794,50.9431 249.628,47.1098 250,42.5C 250.383,41.944 250.883,41.6107 251.5,41.5 Z"/></g>
<g><path style="opacity:1" fill="#599636" d="M 253.5,40.5 C 257.404,46.6343 261.071,52.9677 264.5,59.5C 266.122,62.1376 267.789,64.8043 269.5,67.5C 270.736,68.2458 272.07,68.5792 273.5,68.5C 275.261,72.6288 277.927,76.2955 281.5,79.5C 282.098,80.7946 282.598,82.1279 283,83.5C 285.14,84.7282 286.807,86.3949 288,88.5C 288.383,87.944 288.883,87.6107 289.5,87.5C 290.202,91.4061 291.869,94.9061 294.5,98C 293.161,100.005 291.495,101.672 289.5,103C 292.047,103.354 294.381,103.02 296.5,102C 298.613,104.924 300.78,107.758 303,110.5C 303.671,111.252 304.504,111.586 305.5,111.5C 305.511,113.547 305.844,115.547 306.5,117.5C 308.921,120.896 311.254,124.229 313.5,127.5C 313.338,129.527 313.505,131.527 314,133.5C 315.789,136.291 317.122,139.291 318,142.5C 318.949,144.093 320.115,145.426 321.5,146.5C 323.268,153.381 324.435,160.381 325,167.5C 328.035,172.698 329.701,178.364 330,184.5C 330.383,185.056 330.883,185.389 331.5,185.5C 331.5,186.5 331.5,187.5 331.5,188.5C 331.667,202.171 331.5,215.837 331,229.5C 330.06,236.374 328.893,243.208 327.5,250C 327.514,251.385 327.848,252.551 328.5,253.5C 326.496,260.507 324.329,267.507 322,274.5C 321.284,276.879 320.117,278.879 318.5,280.5C 316.956,280.703 315.622,281.37 314.5,282.5C 313.226,285.367 312.393,288.367 312,291.5C 309.444,292.219 308.277,293.886 308.5,296.5C 307.5,296.5 306.5,296.5 305.5,296.5C 303.66,302.725 301.327,308.725 298.5,314.5C 298.5,315.167 298.167,315.5 297.5,315.5C 295.088,315.694 294.088,317.027 294.5,319.5C 291.103,320.568 289.103,322.901 288.5,326.5C 287.178,326.67 286.011,326.337 285,325.5C 283.086,326.676 283.252,327.676 285.5,328.5C 284.675,329.386 283.675,329.719 282.5,329.5C 282.5,330.5 282.5,331.5 282.5,332.5C 279.714,334.279 276.714,335.612 273.5,336.5C 273.67,337.822 273.337,338.989 272.5,340C 270.325,341.181 268.158,342.348 266,343.5C 262.629,341.63 260.129,338.963 258.5,335.5C 256.87,332.47 255.87,329.137 255.5,325.5C 255.696,318.039 255.029,310.706 253.5,303.5C 253.135,216.164 252.469,128.83 251.5,41.5C 252.167,41.1667 252.833,40.8333 253.5,40.5 Z"/></g>
<g><path style="opacity:0.89" fill="#99b484" d="M 264.5,59.5 C 267.833,62.1667 270.833,65.1667 273.5,68.5C 272.07,68.5792 270.736,68.2458 269.5,67.5C 267.789,64.8043 266.122,62.1376 264.5,59.5 Z"/></g>
<g><path style="opacity:1" fill="#7aae5c" d="M 253.5,40.5 C 252.833,40.8333 252.167,41.1667 251.5,41.5C 250.883,41.6107 250.383,41.944 250,42.5C 249.628,47.1098 247.794,50.9431 244.5,54C 240.439,54.4474 237.939,56.614 237,60.5C 235.108,61.13 233.441,62.13 232,63.5C 231.117,66.1024 229.617,68.2691 227.5,70C 229.388,71.9504 230.554,74.1171 231,76.5C 226.91,72.6447 222.744,72.6447 218.5,76.5C 221.409,72.3787 224.575,68.3787 228,64.5C 234.302,59.1991 240.302,53.5325 246,47.5C 248.091,44.1546 249.424,40.488 250,36.5C 250.667,35.1667 251.333,35.1667 252,36.5C 252.791,37.745 253.291,39.0783 253.5,40.5 Z"/></g>
<g><path style="opacity:0.869" fill="#789f62" d="M 273.5,68.5 C 279.536,74.2374 284.87,80.5708 289.5,87.5C 288.883,87.6107 288.383,87.944 288,88.5C 286.807,86.3949 285.14,84.7282 283,83.5C 282.598,82.1279 282.098,80.7946 281.5,79.5C 277.927,76.2955 275.261,72.6288 273.5,68.5 Z"/></g>
<g><path style="opacity:0.886" fill="#90b377" d="M 217.5,77.5 C 215.262,82.0711 212.262,86.0711 208.5,89.5C 210.738,84.9289 213.738,80.9289 217.5,77.5 Z"/></g>
<g><path style="opacity:0.996" fill="#85b168" d="M 208.5,89.5 C 207.612,93.2157 206.612,96.8823 205.5,100.5C 204.448,100.351 203.448,100.517 202.5,101C 201.672,102.992 200.339,104.492 198.5,105.5C 201.336,99.8222 204.669,94.4888 208.5,89.5 Z"/></g>
<g><path style="opacity:1" fill="#6b9b4d" d="M 289.5,87.5 C 295.823,94.8036 301.156,102.804 305.5,111.5C 304.504,111.586 303.671,111.252 303,110.5C 300.78,107.758 298.613,104.924 296.5,102C 294.381,103.02 292.047,103.354 289.5,103C 291.495,101.672 293.161,100.005 294.5,98C 291.869,94.9061 290.202,91.4061 289.5,87.5 Z"/></g>
<g><path style="opacity:0.992" fill="#7da264" d="M 305.5,111.5 C 309.111,116.316 311.778,121.649 313.5,127.5C 311.254,124.229 308.921,120.896 306.5,117.5C 305.844,115.547 305.511,113.547 305.5,111.5 Z"/></g>
<g><path style="opacity:1" fill="#87b16e" d="M 198.5,105.5 C 197.454,109.084 196.621,112.75 196,116.5C 195,117.167 194,117.833 193,118.5C 191.592,122.974 189.925,127.307 188,131.5C 187.292,132.381 186.458,133.047 185.5,133.5C 188.308,123.386 192.641,114.053 198.5,105.5 Z"/></g>
<g><path style="opacity:0.98" fill="#779f60" d="M 313.5,127.5 C 316.919,133.397 319.586,139.73 321.5,146.5C 320.115,145.426 318.949,144.093 318,142.5C 317.122,139.291 315.789,136.291 314,133.5C 313.505,131.527 313.338,129.527 313.5,127.5 Z"/></g>
<g><path style="opacity:1" fill="#85af69" d="M 183.5,138.5 C 182.965,142.819 182.465,147.152 182,151.5C 180.317,152.887 179.15,154.553 178.5,156.5C 179.251,150.151 180.918,144.151 183.5,138.5 Z"/></g>
<g><path style="opacity:0.984" fill="#719a56" d="M 321.5,146.5 C 326.336,158.98 329.67,171.98 331.5,185.5C 330.883,185.389 330.383,185.056 330,184.5C 329.701,178.364 328.035,172.698 325,167.5C 324.435,160.381 323.268,153.381 321.5,146.5 Z"/></g>
<g><path style="opacity:0.904" fill="#94ba80" d="M 175.5,171.5 C 173.846,187.114 173.179,202.781 173.5,218.5C 172.082,213.234 171.415,207.734 171.5,202C 172.152,191.596 173.485,181.43 175.5,171.5 Z"/></g>
<g><path style="opacity:0.922" fill="#87b06d" d="M 173.5,224.5 C 175.907,233.451 177.907,242.618 179.5,252C 179.316,253.376 178.649,254.209 177.5,254.5C 175.948,244.53 174.614,234.53 173.5,224.5 Z"/></g>
<g><path style="opacity:0.806" fill="#779d5e" d="M 331.5,188.5 C 334.726,210.217 333.726,231.884 328.5,253.5C 327.848,252.551 327.514,251.385 327.5,250C 328.893,243.208 330.06,236.374 331,229.5C 331.5,215.837 331.667,202.171 331.5,188.5 Z"/></g>
<g><path style="opacity:1" fill="#8bb573" d="M 178.5,255.5 C 180.313,258.407 181.979,261.407 183.5,264.5C 184.395,270.179 186.061,275.512 188.5,280.5C 183.629,272.908 180.295,264.574 178.5,255.5 Z"/></g>
<g><path style="opacity:0.89" fill="#91b67a" d="M 188.5,280.5 C 189.467,281.806 190.801,282.473 192.5,282.5C 192.34,284.199 192.506,285.866 193,287.5C 197.032,293.566 200.532,299.899 203.5,306.5C 196.834,298.825 191.834,290.158 188.5,280.5 Z"/></g>
<g><path style="opacity:1" fill="#6d9b51" d="M 318.5,280.5 C 313.879,293.082 307.212,304.415 298.5,314.5C 301.327,308.725 303.66,302.725 305.5,296.5C 306.5,296.5 307.5,296.5 308.5,296.5C 308.277,293.886 309.444,292.219 312,291.5C 312.393,288.367 313.226,285.367 314.5,282.5C 315.622,281.37 316.956,280.703 318.5,280.5 Z"/></g>
<g><path style="opacity:1" fill="#7da663" d="M 253.5,303.5 C 255.029,310.706 255.696,318.039 255.5,325.5C 254.885,320.906 254.051,316.239 253,311.5C 251.625,313.937 251.125,316.603 251.5,319.5C 251.656,323.764 250.989,327.764 249.5,331.5C 249.946,323.486 250.612,315.486 251.5,307.5C 251.585,305.667 252.252,304.334 253.5,303.5 Z"/></g>
<g><path style="opacity:1" fill="#82b065" d="M 203.5,307.5 C 206.638,308.126 209.471,309.46 212,311.5C 214.026,316.067 216.192,320.401 218.5,324.5C 218.5,324.833 218.5,325.167 218.5,325.5C 212.776,320.109 207.776,314.109 203.5,307.5 Z"/></g>
<g><path style="opacity:1" fill="#72ac51" d="M 246.5,343.5 C 246.5,344.5 246.5,345.5 246.5,346.5C 243.549,346.713 240.882,346.046 238.5,344.5C 231.175,338.842 224.509,332.508 218.5,325.5C 218.5,325.167 218.5,324.833 218.5,324.5C 219.833,324.5 221.167,324.5 222.5,324.5C 221.948,322.669 221.948,321.003 222.5,319.5C 226.69,320.378 231.023,321.712 235.5,323.5C 235.924,326.354 236.924,329.021 238.5,331.5C 237.602,334.573 236.602,337.573 235.5,340.5C 237.5,340.833 239.5,341.167 241.5,341.5C 241.893,345.74 243.559,346.407 246.5,343.5 Z"/></g>
<g><path style="opacity:0.941" fill="#82a568" d="M 297.5,315.5 C 295.25,319.753 292.25,323.42 288.5,326.5C 289.103,322.901 291.103,320.568 294.5,319.5C 294.088,317.027 295.088,315.694 297.5,315.5 Z"/></g>
<g><path style="opacity:1" fill="#afc1a4" d="M 255.5,325.5 C 255.87,329.137 256.87,332.47 258.5,335.5C 258.841,338.516 260.007,341.182 262,343.5C 263.444,345.155 265.278,345.822 267.5,345.5C 267.167,346.5 266.5,347.167 265.5,347.5C 263.833,347.5 262.167,347.5 260.5,347.5C 256.864,338.239 253.864,328.906 251.5,319.5C 251.125,316.603 251.625,313.937 253,311.5C 254.051,316.239 254.885,320.906 255.5,325.5 Z"/></g>
<g><path style="opacity:0.906" fill="#769d5c" d="M 288.5,326.5 C 286.42,330.086 283.754,333.253 280.5,336C 276.551,339.796 272.217,342.963 267.5,345.5C 265.278,345.822 263.444,345.155 262,343.5C 260.007,341.182 258.841,338.516 258.5,335.5C 260.129,338.963 262.629,341.63 266,343.5C 268.158,342.348 270.325,341.181 272.5,340C 273.337,338.989 273.67,337.822 273.5,336.5C 276.714,335.612 279.714,334.279 282.5,332.5C 282.5,331.5 282.5,330.5 282.5,329.5C 283.675,329.719 284.675,329.386 285.5,328.5C 283.252,327.676 283.086,326.676 285,325.5C 286.011,326.337 287.178,326.67 288.5,326.5 Z"/></g>
<g><path style="opacity:1" fill="#8db274" d="M 249.5,335.5 C 249.192,339.595 248.359,343.595 247,347.5C 246.292,348.381 245.458,349.047 244.5,349.5C 241.891,348.557 239.891,346.89 238.5,344.5C 240.882,346.046 243.549,346.713 246.5,346.5C 246.5,345.5 246.5,344.5 246.5,343.5C 246.768,340.382 247.768,337.716 249.5,335.5 Z"/></g>
<g><path style="opacity:0.986" fill="#c3c3c0" d="M 251.5,319.5 C 253.864,328.906 256.864,338.239 260.5,347.5C 262.167,347.5 263.833,347.5 265.5,347.5C 263.232,352.234 261.732,357.234 261,362.5C 260.362,372.85 260.529,383.183 261.5,393.5C 257.077,393.638 253.244,392.305 250,389.5C 250.314,375.809 248.48,362.475 244.5,349.5C 245.458,349.047 246.292,348.381 247,347.5C 248.359,343.595 249.192,339.595 249.5,335.5C 249.5,334.167 249.5,332.833 249.5,331.5C 250.989,327.764 251.656,323.764 251.5,319.5 Z"/></g>
<g><path style="opacity:0.912" fill="#686868" d="M 92.5,426.5 C 92.0919,427.643 91.4252,428.643 90.5,429.5C 89.549,428.674 88.549,428.508 87.5,429C 87.2642,430.451 87.2642,431.951 87.5,433.5C 84.2033,433.368 82.5367,431.702 82.5,428.5C 85.8647,427.96 89.198,427.294 92.5,426.5 Z"/></g>
<g><path style="opacity:0.974" fill="#59595b" d="M 163.5,425.5 C 182.369,426.21 188.535,435.543 182,453.5C 172.217,463.62 162.217,463.954 152,454.5C 145.79,440.601 149.624,430.934 163.5,425.5 Z M 162.5,430.5 C 168.532,430.265 172.699,432.932 175,438.5C 175.667,442.833 175.667,447.167 175,451.5C 170.916,457.84 166.25,458.173 161,452.5C 155.831,444.641 156.331,437.308 162.5,430.5 Z"/></g>
<g><path style="opacity:0.968" fill="#c4c4c3" d="M 373.5,409.5 C 384.172,409.333 394.839,409.5 405.5,410C 415.185,416.102 415.852,423.102 407.5,431C 416.293,435.368 418.793,442.202 415,451.5C 411.398,455.72 406.898,458.553 401.5,460C 391.839,460.5 382.172,460.666 372.5,460.5C 372.343,459.127 372.51,457.793 373,456.5C 374.785,455.76 376.618,455.093 378.5,454.5C 379.666,441.513 379.833,428.513 379,415.5C 377.211,413.771 375.044,413.104 372.5,413.5C 372.433,412.041 372.766,410.708 373.5,409.5 Z M 390.5,413.5 C 400.06,412.89 404.226,417.223 403,426.5C 402.167,427.333 401.333,428.167 400.5,429C 396.848,429.499 393.182,429.665 389.5,429.5C 389.218,424.073 389.551,418.74 390.5,413.5 Z M 389.5,435.5 C 395.233,434.891 400.4,436.224 405,439.5C 408.585,445.011 407.752,449.844 402.5,454C 397.973,456.226 393.807,455.726 390,452.5C 389.501,446.843 389.334,441.176 389.5,435.5 Z"/></g>
<g><path style="opacity:0.888" fill="#565657" d="M 95.5,426.5 C 95.238,427.978 95.5713,429.311 96.5,430.5C 97.1067,430.376 97.44,430.043 97.5,429.5C 104.11,423.907 110.277,424.241 116,430.5C 121.186,425.81 127.019,424.643 133.5,427C 135.726,428.227 137.226,430.061 138,432.5C 138.333,439.833 138.667,447.167 139,454.5C 143.109,454.471 144.943,456.471 144.5,460.5C 138.5,460.5 132.5,460.5 126.5,460.5C 125.756,457.05 127.09,455.384 130.5,455.5C 130.666,448.825 130.5,442.158 130,435.5C 126.476,431.926 122.642,431.593 118.5,434.5C 117.336,441.142 117.169,447.808 118,454.5C 120.179,455.116 122.012,456.283 123.5,458C 123.043,458.414 122.709,458.914 122.5,459.5C 116.537,460.496 110.537,460.829 104.5,460.5C 103.833,456.5 105.5,454.833 109.5,455.5C 109.666,448.825 109.5,442.158 109,435.5C 105.379,431.853 101.379,431.52 97,434.5C 96.5004,441.492 96.3337,448.492 96.5,455.5C 98.099,455.232 99.4324,455.566 100.5,456.5C 100.567,457.959 100.234,459.292 99.5,460.5C 94.1563,460.666 88.8229,460.499 83.5,460C 82.6689,456.978 84.0022,455.478 87.5,455.5C 88.1174,455.389 88.6174,455.056 89,454.5C 89.1667,451 89.3333,447.5 89.5,444C 89.4877,440.098 88.821,436.598 87.5,433.5C 87.2642,431.951 87.2642,430.451 87.5,429C 88.549,428.508 89.549,428.674 90.5,429.5C 91.4252,428.643 92.0919,427.643 92.5,426.5C 93.6522,425.375 94.6522,425.375 95.5,426.5 Z"/></g>
<g><path style="opacity:0.043" fill="#c9c9c9" d="M 95.5,426.5 C 96.1667,427.5 96.8333,428.5 97.5,429.5C 97.44,430.043 97.1067,430.376 96.5,430.5C 95.5713,429.311 95.238,427.978 95.5,426.5 Z"/></g>
<g><path style="opacity:0.206" fill="#aaaaaa" d="M 193.5,433.5 C 194.822,436.768 195.489,440.435 195.5,444.5C 195.333,448.167 195.167,451.833 195,455.5C 193.644,456.38 192.144,456.714 190.5,456.5C 191.531,455.751 192.698,455.085 194,454.5C 194.795,447.42 194.628,440.42 193.5,433.5 Z"/></g>
<g><path style="opacity:0.968" fill="#575758" d="M 287.5,425.5 C 303.546,424.915 310.379,432.581 308,448.5C 302.977,459.758 294.477,463.591 282.5,460C 276.286,456.279 273.286,450.779 273.5,443.5C 273.711,433.963 278.378,427.963 287.5,425.5 Z M 287.5,430.5 C 293.709,430.516 297.543,433.516 299,439.5C 299.81,444.257 299.476,448.924 298,453.5C 291.408,457.527 286.408,455.86 283,448.5C 282.333,443.833 282.333,439.167 283,434.5C 284.397,432.93 285.897,431.596 287.5,430.5 Z"/></g>
<g><path style="opacity:0.616" fill="#79797b" d="M 87.5,433.5 C 88.821,436.598 89.4877,440.098 89.5,444C 89.3333,447.5 89.1667,451 89,454.5C 88.6174,455.056 88.1174,455.389 87.5,455.5C 88.764,448.123 88.764,440.79 87.5,433.5 Z"/></g>
<g><path style="opacity:0.936" fill="#525254" d="M 190.5,456.5 C 192.144,456.714 193.644,456.38 195,455.5C 195.167,451.833 195.333,448.167 195.5,444.5C 195.489,440.435 194.822,436.768 193.5,433.5C 191.883,432.962 190.216,432.629 188.5,432.5C 188.33,431.178 188.663,430.011 189.5,429C 193.521,427.94 197.521,426.773 201.5,425.5C 202.971,426.381 203.804,427.714 204,429.5C 211.807,423.469 218.473,424.469 224,432.5C 224.333,439.833 224.667,447.167 225,454.5C 226.441,455.26 227.941,455.926 229.5,456.5C 230.429,457.689 230.762,459.022 230.5,460.5C 224.771,460.212 219.104,460.546 213.5,461.5C 211.429,460.214 211.096,458.547 212.5,456.5C 213.736,455.754 215.07,455.421 216.5,455.5C 216.666,449.158 216.5,442.825 216,436.5C 212.336,431.605 208.336,431.272 204,435.5C 203.5,442.158 203.334,448.825 203.5,455.5C 207.676,454.831 209.009,456.331 207.5,460C 201.509,460.499 195.509,460.666 189.5,460.5C 189.232,458.901 189.566,457.568 190.5,456.5 Z"/></g>
<g><path style="opacity:0.004" fill="#dedede" d="M 257.5,447.5 C 257.027,448.906 256.027,449.573 254.5,449.5C 254.973,448.094 255.973,447.427 257.5,447.5 Z"/></g>
<g><path style="opacity:0.927" fill="#c5c4c3" d="M 318.5,408.5 C 326.106,409.729 333.773,409.729 341.5,408.5C 358.695,407.868 368.362,416.035 370.5,433C 369.811,448.092 362.144,457.092 347.5,460C 337.506,460.5 327.506,460.666 317.5,460.5C 317.343,459.127 317.51,457.793 318,456.5C 320.51,455.891 322.51,454.558 324,452.5C 324.667,440.5 324.667,428.5 324,416.5C 322.195,413.961 319.695,412.961 316.5,413.5C 316.365,411.446 317.032,409.779 318.5,408.5 Z M 334.5,413.5 C 353.463,413.3 361.63,422.634 359,441.5C 354.383,454.861 346.05,458.195 334,451.5C 333.205,438.788 333.372,426.121 334.5,413.5 Z"/></g>
<g><path style="opacity:0.02" fill="#f0f0f0" d="M 100.5,456.5 C 101.124,456.917 101.457,457.584 101.5,458.5C 101.253,459.713 100.586,460.38 99.5,460.5C 100.234,459.292 100.567,457.959 100.5,456.5 Z"/></g>
<g><path style="opacity:0.961" fill="#5b5b5d" d="M 257.5,447.5 C 255.973,447.427 254.973,448.094 254.5,449.5C 251.856,450.493 249.19,451.493 246.5,452.5C 246.709,453.086 247.043,453.586 247.5,454C 252.897,454.227 258.231,454.894 263.5,456C 266.813,457.566 268.479,460.233 268.5,464C 266.28,475.047 259.446,480.547 248,480.5C 237.958,480.866 233.292,476.2 234,466.5C 235.873,464.291 238.04,462.458 240.5,461C 235.195,457.353 235.195,453.853 240.5,450.5C 232.559,443.05 232.559,435.55 240.5,428C 247.754,424.897 255.087,424.73 262.5,427.5C 264.858,427.247 267.192,426.914 269.5,426.5C 270.028,431.811 267.694,434.145 262.5,433.5C 262.665,436.85 262.498,440.183 262,443.5C 260.951,445.384 259.451,446.718 257.5,447.5 Z M 244.5,462.5 C 248.846,462.334 253.179,462.501 257.5,463C 262.839,467.034 262.505,470.701 256.5,474C 250.924,475.472 246.091,474.305 242,470.5C 241.018,467.225 241.851,464.559 244.5,462.5 Z M 245.5,430.5 C 252.809,430.403 255.975,434.07 255,441.5C 251.964,447.837 248.297,448.17 244,442.5C 241.847,438.14 242.347,434.14 245.5,430.5 Z"/></g>
</svg>
