<?xml version="1.0" encoding="UTF-8"?>
<svg version="1.1" xmlns="http://www.w3.org/2000/svg" width="348" height="252">
<path d="M0 0 C3.59188555 0.58358229 6.40343429 1.5394432 9.609375 3.25 C10.44597656 3.6934375 11.28257812 4.136875 12.14453125 4.59375 C13.00433594 5.0578125 13.86414063 5.521875 14.75 6 C16.06291016 6.69609375 16.06291016 6.69609375 17.40234375 7.40625 C23.83928571 10.83928571 23.83928571 10.83928571 25 12 C25.1860239 15.1118539 25.30624985 18.20284045 25.38330078 21.31811523 C25.41075378 22.29706253 25.43820679 23.27600983 25.4664917 24.28462219 C25.70674161 33.34217646 25.84989218 42.40150368 25.96293831 51.46145535 C26.04037288 57.55035411 26.1500754 63.63484362 26.33740234 69.72143555 C26.51761654 75.60398035 26.61370939 81.48247815 26.65185165 87.36760139 C26.68065595 89.60674556 26.73902606 91.84571846 26.82797623 94.08328056 C27.47648587 111.16110441 27.47648587 111.16110441 23.33963013 115.90334892 C19.28213194 119.15658802 14.83586513 121.25845544 10.02266312 123.16069412 C7.28222089 124.29784309 4.84757398 125.81211562 2.359375 127.41796875 C1.57949219 127.88654297 0.79960937 128.35511719 -0.00390625 128.83789062 C-1.5547504 129.76974567 -3.0986515 130.71321946 -4.63671875 131.66601562 C-5.40113281 132.12041016 -6.16554687 132.57480469 -6.953125 133.04296875 C-7.94554199 133.64661255 -7.94554199 133.64661255 -8.95800781 134.26245117 C-11.72906777 135.26333258 -13.20084093 134.87553002 -16 134 C-18.62792969 132.68066406 -18.62792969 132.68066406 -21.421875 131.015625 C-22.44796875 130.40976563 -23.4740625 129.80390625 -24.53125 129.1796875 C-25.5934375 128.54289063 -26.655625 127.90609375 -27.75 127.25 C-29.84845736 126.00436398 -31.94740828 124.75955903 -34.046875 123.515625 C-35.05169922 122.91685547 -36.05652344 122.31808594 -37.09179688 121.70117188 C-40.470962 119.72450779 -43.90037851 117.85768597 -47.36425781 116.03417969 C-49 115 -49 115 -50 113 C-50.1337737 111.64420073 -50.21056841 110.28251194 -50.25634766 108.92089844 C-50.2998082 107.65883575 -50.2998082 107.65883575 -50.34414673 106.37127686 C-50.44172067 102.51678681 -50.51568137 98.66247317 -50.56982422 94.80712891 C-50.60648614 92.77579908 -50.66105913 90.74471039 -50.73388672 88.71435547 C-50.83744831 85.78265579 -50.88176658 82.855123 -50.9140625 79.921875 C-50.95737701 79.01854431 -51.00069153 78.11521362 -51.0453186 77.18450928 C-51.03735864 74.51656921 -50.9080411 72.51239264 -50 70 C-47.31836048 67.36508242 -44.31732183 65.72606214 -41 64 C-39.36780518 62.97338257 -39.36780518 62.97338257 -37.70263672 61.92602539 C-34.43825858 59.95163289 -31.15930078 58.00356286 -27.875 56.0625 C-27.30313965 55.7130835 -26.7312793 55.36366699 -26.14208984 55.00366211 C-24.45725053 53.97515145 -22.75608568 52.97353683 -21.0546875 51.97265625 C-20.05937012 51.37718994 -19.06405273 50.78172363 -18.03857422 50.16821289 C-13.34284277 48.36288789 -9.64895097 49.45034968 -5 51 C-4.01 50.34 -3.02 49.68 -2 49 C-1.63637182 46.79274927 -1.63637182 46.79274927 -1.8125 44.375 C-1.83957031 43.55773438 -1.86664063 42.74046875 -1.89453125 41.8984375 C-1.94673828 40.95871094 -1.94673828 40.95871094 -2 40 C-1.34 40 -0.68 40 0 40 C-0.66 30.1 -1.32 20.2 -2 10 C-1.34 10 -0.68 10 0 10 C0 6.7 0 3.4 0 0 Z M-2 52 C-2.33 52.66 -2.66 53.32 -3 54 C-2.34 54 -1.68 54 -1 54 C-1.33 53.34 -1.66 52.68 -2 52 Z M-22.65625 82.51171875 C-25.79829115 85.84751911 -25.72412968 87.91831325 -25.6875 92.4375 C-25.51146664 94.62991553 -25.29920047 96.82097437 -25 99 C-23.28133783 100.0384211 -21.54955402 101.05514635 -19.8125 102.0625 C-18.84957031 102.63097656 -17.88664062 103.19945313 -16.89453125 103.78515625 C-13.58410511 105.17455238 -12.35664381 105.09526852 -9 104 C-8.26136719 103.78085938 -7.52273437 103.56171875 -6.76171875 103.3359375 C-4.1748883 102.13751887 -2.76192362 101.27635388 -1 99 C-0.29061697 93.91518576 -0.53820626 89.09897253 -1 84 C-1.94488281 83.53980469 -2.88976562 83.07960938 -3.86328125 82.60546875 C-7 81 -7 81 -9.1875 79.3125 C-13.75993032 76.00142977 -18.59018509 79.9276275 -22.65625 82.51171875 Z " fill="#323232" transform="translate(232,20)"/>
<path d="M0 0 C2.97954074 1.31254462 5.75683146 2.91535787 8.5625 4.5625 C9.34101318 5.00851563 10.11952637 5.45453125 10.92163086 5.9140625 C12.51276306 6.82653043 14.10140689 7.74335155 15.6875 8.66455078 C17.86384894 9.92137392 20.05255726 11.15161668 22.25 12.37109375 C31.87114508 17.74229016 31.87114508 17.74229016 33 20 C33.68280784 25.97935839 33.65606904 32.07145774 33.78955078 38.08300781 C33.84623965 40.10113159 33.928039 42.11871547 34.03564453 44.13476562 C34.90898611 60.81312583 34.90898611 60.81312583 30.46582031 65.90307617 C27.06581735 68.00586988 23.70459091 69.50696336 20 71 C17.93845941 72.18616199 15.89552326 73.40539906 13.875 74.66015625 C11.91808747 75.79672068 9.9597645 76.93086029 8 78.0625 C7.00355469 78.65482422 6.00710937 79.24714844 4.98046875 79.85742188 C4.01753906 80.41107422 3.05460937 80.96472656 2.0625 81.53515625 C1.20785156 82.034104 0.35320312 82.53305176 -0.52734375 83.04711914 C-3.5749219 84.2215561 -4.91923292 84.01180584 -8 83 C-10.50439453 81.80419922 -10.50439453 81.80419922 -13.1328125 80.3046875 C-14.10476562 79.75296875 -15.07671875 79.20125 -16.078125 78.6328125 C-17.58632812 77.76269531 -17.58632812 77.76269531 -19.125 76.875 C-20.10726562 76.318125 -21.08953125 75.76125 -22.1015625 75.1875 C-24.09160977 74.05107827 -26.06576983 72.88640365 -28.0234375 71.69506836 C-30.95541274 69.93039663 -30.95541274 69.93039663 -34.1328125 68.77563477 C-37.65022687 67.20212998 -39.57145099 66.01903917 -42 63 C-43.94508935 56.93697347 -43.83322734 50.52792159 -43.76367188 44.22241211 C-43.75003778 41.19588558 -43.88519434 38.20024765 -44.03125 35.17773438 C-44.2926299 21.6331388 -44.2926299 21.6331388 -40.38497925 17.14511108 C-36.32904453 13.90302778 -31.81771803 11.79889924 -27.03253174 9.84640503 C-24.52317851 8.80143773 -22.23494912 7.49343935 -19.91015625 6.08984375 C-18.62860116 5.37061645 -17.34612368 4.6530289 -16.0625 3.9375 C-15.39283203 3.56173828 -14.72316406 3.18597656 -14.03320312 2.79882812 C-8.75486332 -0.15725522 -5.9833252 -1.59815672 0 0 Z " fill="#72AF60" transform="translate(133,70)"/>
<path d="M0 0 C2.61206055 1.18994141 2.61206055 1.18994141 5.38671875 2.8515625 C6.9190918 3.75841797 6.9190918 3.75841797 8.48242188 4.68359375 C9.54009766 5.32425781 10.59777344 5.96492188 11.6875 6.625 C12.72583984 7.24246094 13.76417969 7.85992187 14.83398438 8.49609375 C17.89598618 10.31985658 20.94810217 12.15939419 24 14 C28.07319196 16.42567086 28.07319196 16.42567086 32.14770508 18.84912109 C34 20 34 20 35 21 C35.09376053 22.81055025 35.1174411 24.62477201 35.11352539 26.43774414 C35.11341209 28.17943626 35.11341209 28.17943626 35.11329651 29.95631409 C35.10813522 31.219832 35.10297394 32.48334991 35.09765625 33.78515625 C35.0962413 35.07111191 35.09482635 36.35706757 35.09336853 37.68199158 C35.08954418 41.10643443 35.07971462 44.53083509 35.06866455 47.95526123 C35.05844864 51.44738189 35.05387053 54.93950934 35.04882812 58.43164062 C35.03809227 65.28777778 35.02101684 72.14388687 35 79 C34.01 79 33.02 79 32 79 C32 78.34 32 77.68 32 77 C31.34257813 76.76152344 30.68515625 76.52304688 30.0078125 76.27734375 C26.13705023 74.63352653 22.53521313 72.62595349 18.875 70.5625 C17.80185547 69.96985352 17.80185547 69.96985352 16.70703125 69.36523438 C16.01738281 68.97787109 15.32773437 68.59050781 14.6171875 68.19140625 C13.99440918 67.84279541 13.37163086 67.49418457 12.72998047 67.13500977 C10.77222454 65.85056053 9.39096947 64.90239068 8 63 C7.81811523 60.27612305 7.81811523 60.27612305 8.05859375 57.01171875 C8.11337891 55.83029297 8.16816406 54.64886719 8.22460938 53.43164062 C8.36596931 50.94552134 8.53504048 48.46081543 8.73242188 45.97851562 C8.87021084 42.40958741 8.88439207 39.46438895 8 36 C5.08925813 32.9361672 2.05945985 31.16211078 -2 30 C-5.84118455 30.43975666 -8.28188942 32.28188942 -11 35 C-11.99 35 -12.98 35 -14 35 C-13.91508301 35.84071045 -13.83016602 36.6814209 -13.74267578 37.54760742 C-11.78590019 60.95983291 -11.78590019 60.95983291 -17.15820312 67.71289062 C-22.86840767 72.38262406 -29.82413667 76.15185274 -37 78 C-37.99 77.67 -38.98 77.34 -40 77 C-40.25398039 69.15361844 -40.4288431 61.308299 -40.54931641 53.45874023 C-40.59390849 50.78848544 -40.66767721 48.12360548 -40.75439453 45.45385742 C-40.87600598 41.6130816 -40.93247165 37.77594623 -40.9765625 33.93359375 C-41.05398178 32.15038979 -41.05398178 32.15038979 -41.13296509 30.3311615 C-41.13843199 22.2200681 -41.13843199 22.2200681 -37.9070282 18.75694275 C-35.34902449 16.93313921 -32.79300196 15.43305903 -30 14 C-28.46194702 13.07707153 -28.46194702 13.07707153 -26.89282227 12.13549805 C-26.04260498 11.68215088 -25.1923877 11.22880371 -24.31640625 10.76171875 C-23.36958984 10.25189453 -22.42277344 9.74207031 -21.44726562 9.21679688 C-20.49529297 8.71212891 -19.54332031 8.20746094 -18.5625 7.6875 C-16.6256912 6.65088015 -14.68946611 5.61316875 -12.75390625 4.57421875 C-11.91158447 4.12651123 -11.0692627 3.67880371 -10.20141602 3.2175293 C-3.63211576 -0.41573014 -3.63211576 -0.41573014 0 0 Z " fill="#333333" transform="translate(40,68)"/>
<path d="M0 0 C2.2890625 1.08813477 2.2890625 1.08813477 4.625 2.44140625 C5.4910083 2.93809814 6.3570166 3.43479004 7.24926758 3.9465332 C9.10713896 5.03797286 10.96371713 6.1316164 12.8190918 7.22729492 C14.21381714 8.05064331 14.21381714 8.05064331 15.63671875 8.890625 C16.5498584 9.43009766 17.46299805 9.96957031 18.40380859 10.52539062 C20.66033108 11.80707163 22.91798205 12.95376539 25.26953125 14.046875 C28.74755177 15.7801333 31.33101382 17.17457236 34 20 C35.75764952 25.38463868 35.76600199 29.6178987 34 35 C30.81975847 38.42309633 27.20108442 40.06103796 23 42 C21.17638579 43.12806094 19.3630195 44.2729315 17.5625 45.4375 C14.14829191 47.59176968 13.21801544 48 9 48 C7.72257008 45.44514016 7.96450811 43.5387847 7.9375 40.6875 C7.62186459 36.51495224 7.62186459 36.51495224 5.33203125 33.1640625 C1.50312844 30.67850833 -1.38392851 29.54479418 -6 30 C-9.74586789 31.3042052 -12.38631604 33.01181804 -15 36 C-15.50561213 39.259065 -15.50561213 39.259065 -15.26171875 42.73828125 C-15.22393311 43.91044189 -15.18614746 45.08260254 -15.1472168 46.2902832 C-15.09863525 47.18448975 -15.05005371 48.07869629 -15 49 C-14.29504395 49.39268066 -13.59008789 49.78536133 -12.86376953 50.18994141 C-9.6165818 51.99996267 -6.37078565 53.81246577 -3.125 55.625 C-2.01640625 56.24246094 -0.9078125 56.85992187 0.234375 57.49609375 C2.43690228 58.72691782 4.63585137 59.96416831 6.83105469 61.20800781 C8.89518666 62.37524423 10.96844855 63.52652611 13.05175781 64.65917969 C13.96538086 65.17125977 14.87900391 65.68333984 15.8203125 66.2109375 C16.63000488 66.6548584 17.43969727 67.0987793 18.27392578 67.55615234 C18.84353027 68.03262207 19.41313477 68.5090918 20 69 C20 70.32 20 71.64 20 73 C16.45048651 75.04430895 12.88358428 77.05614694 9.3125 79.0625 C8.30509766 79.64322266 7.29769531 80.22394531 6.25976562 80.82226562 C4.79506836 81.63920898 4.79506836 81.63920898 3.30078125 82.47265625 C2.40528564 82.98062744 1.50979004 83.48859863 0.5871582 84.01196289 C-2.53246161 85.20334738 -3.85644055 85.04538906 -7 84 C-9.52026367 82.78833008 -9.52026367 82.78833008 -12.16796875 81.26953125 C-13.63266602 80.43518555 -13.63266602 80.43518555 -15.12695312 79.58398438 C-16.13693359 78.99939453 -17.14691406 78.41480469 -18.1875 77.8125 C-19.17814453 77.24724609 -20.16878906 76.68199219 -21.18945312 76.09960938 C-24.13459835 74.41363443 -27.06872194 72.70995337 -30 71 C-30.96760254 70.44103027 -31.93520508 69.88206055 -32.93212891 69.30615234 C-33.83753418 68.77586426 -34.74293945 68.24557617 -35.67578125 67.69921875 C-36.89068237 66.99091919 -36.89068237 66.99091919 -38.13012695 66.26831055 C-40 65 -40 65 -41 63 C-41.10385543 61.65796978 -41.14858854 60.31107218 -41.16113281 58.96508789 C-41.17074036 58.13405045 -41.1803479 57.303013 -41.19024658 56.4467926 C-41.19449646 55.54782761 -41.19874634 54.64886261 -41.203125 53.72265625 C-41.20882507 52.80036728 -41.21452515 51.87807831 -41.22039795 50.92784119 C-41.22985248 48.97509918 -41.23638372 47.02234118 -41.24023438 45.06958008 C-41.24994964 42.07800603 -41.28097255 39.08711611 -41.3125 36.09570312 C-41.31902899 34.20052492 -41.32427987 32.3053418 -41.328125 30.41015625 C-41.3404718 29.51321548 -41.3528186 28.61627472 -41.36553955 27.69215393 C-41.36253845 26.85796432 -41.35953735 26.02377472 -41.35644531 25.16430664 C-41.36009094 24.4308754 -41.36373657 23.69744415 -41.36749268 22.94178772 C-40.89534796 20.44703101 -39.93147074 19.59328884 -38 18 C-36.24511719 16.88427734 -36.24511719 16.88427734 -34.296875 15.8359375 C-33.20765747 15.24196167 -33.20765747 15.24196167 -32.09643555 14.63598633 C-31.32211182 14.21986084 -30.54778809 13.80373535 -29.75 13.375 C-24.98242347 10.78900788 -20.24467326 8.19747093 -15.65234375 5.30859375 C-14.6463916 4.67848389 -14.6463916 4.67848389 -13.62011719 4.03564453 C-12.35910224 3.23755397 -11.10537861 2.42778963 -9.86035156 1.60498047 C-6.04782996 -0.79593611 -4.28344038 -1.23490203 0 0 Z " fill="#333333" transform="translate(314,69)"/>
<path d="M0 0 C3.03271484 1.39526367 3.03271484 1.39526367 6.2109375 3.16796875 C6.78276764 3.48526443 7.35459778 3.80256012 7.9437561 4.12947083 C9.14783918 4.80021743 10.3495039 5.47532201 11.54882812 6.15454102 C13.3572315 7.1774494 15.17380468 8.18441471 16.9921875 9.18945312 C22.82219174 12.44068248 28.4101984 15.78510042 33.63134766 19.9621582 C34.84652756 21.1007036 34.84652756 21.1007036 36 21 C36 24.63 36 28.26 36 32 C35.34 32 34.68 32 34 32 C34.10828125 33.74023438 34.10828125 33.74023438 34.21875 35.515625 C35.78832783 61.51541687 35.78832783 61.51541687 33 66 C31.03564453 67.44458008 31.03564453 67.44458008 28.6328125 68.76953125 C27.75262451 69.26291992 26.87243652 69.75630859 25.96557617 70.26464844 C25.02818604 70.77543945 24.0907959 71.28623047 23.125 71.8125 C21.2065211 72.87538179 19.28854914 73.93917913 17.37109375 75.00390625 C15.98059814 75.77178467 15.98059814 75.77178467 14.56201172 76.55517578 C12.41102082 77.76820838 10.30916219 79.0203582 8.22265625 80.33984375 C2.46478708 83.96352203 -1.15411936 85.97798295 -8 85 C-8.763125 84.896875 -9.52625 84.79375 -10.3125 84.6875 C-12.4338659 83.82323982 -13.44451711 82.67992152 -15 81 C-16.65533995 79.65263027 -18.32012773 78.31665664 -20 77 C-16.71609035 75.04529188 -14.67768381 73.97342416 -10.8125 74.125 C-7.98536049 75.00455451 -6.79883885 75.70148369 -5 78 C-0.01075047 76.21235391 4.50768694 73.63055614 9.125 71.0625 C10.34123047 70.39831055 10.34123047 70.39831055 11.58203125 69.72070312 C12.36191406 69.28822266 13.14179688 68.85574219 13.9453125 68.41015625 C14.65187988 68.01965088 15.35844727 67.62914551 16.08642578 67.22680664 C18.03451185 66.09614977 18.03451185 66.09614977 19.37841797 64.47436523 C21 63 21 63 27 61 C27 48.79 27 36.58 27 24 C22.38 21.36 17.76 18.72 13 16 C11.4634375 15.06929687 9.926875 14.13859375 8.34375 13.1796875 C7.6940625 12.79039062 7.044375 12.40109375 6.375 12 C5.08470216 11.22582129 3.80384487 10.43575926 2.53125 9.6328125 C-0.61433607 7.78097554 -2.4010607 6.89660255 -6.0546875 7.52734375 C-9.31162765 9.15581382 -12.48122776 10.84821256 -15.625 12.6875 C-17.28402344 13.65236328 -17.28402344 13.65236328 -18.9765625 14.63671875 C-19.57726562 15.01352783 -20.17796875 15.39033691 -20.796875 15.77856445 C-23 17 -23 17 -26.109375 18.16479492 C-29.80541538 19.75423427 -32.21774786 21.07254615 -35 24 C-36.9902895 30.01962423 -36.12142679 36.71493328 -35.75 42.9375 C-35.68975628 44.68796865 -35.63501208 46.43863575 -35.5859375 48.18945312 C-35.45415652 52.46455718 -35.2474939 56.73009558 -35 61 C-32.03 61.99 -29.06 62.98 -26 64 C-26 64.66 -26 65.32 -26 66 C-23.525 65.505 -23.525 65.505 -21 65 C-20.97524531 60.37353911 -20.95711406 55.74711694 -20.94506836 51.12060547 C-20.94004563 49.54735645 -20.93322625 47.97411208 -20.92456055 46.40087891 C-20.91240471 44.13703257 -20.90675104 41.87324807 -20.90234375 39.609375 C-20.89718246 38.90818542 -20.89202118 38.20699585 -20.88670349 37.48455811 C-20.88632498 34.17514249 -20.97485273 31.16412237 -22 28 C-21.34 28 -20.68 28 -20 28 C-20 27.34 -20 26.68 -20 26 C-18.02 25.67 -16.04 25.34 -14 25 C-14 25.66 -14 26.32 -14 27 C-13.34 27 -12.68 27 -12 27 C-11.67 28.65 -11.34 30.3 -11 32 C-11.99 32 -12.98 32 -14 32 C-14 36.95 -14 41.9 -14 47 C-12.02 46.505 -12.02 46.505 -10 46 C-7.375 46.125 -7.375 46.125 -5 47 C-3.8125 49.5 -3.8125 49.5 -3 52 C-0.55028376 53.22485812 1.14234461 53.16722808 3.875 53.1875 C4.73867187 53.20167969 5.60234375 53.21585938 6.4921875 53.23046875 C9.1241288 52.98859252 10.73980544 52.32983541 13 51 C13 50.01 13 49.02 13 48 C11.35 48 9.7 48 8 48 C8 47.67 8 47.34 8 47 C7.34773438 46.95101562 6.69546875 46.90203125 6.0234375 46.8515625 C1.06720147 46.42757771 -3.33019451 45.84334427 -8 44 C-8 43.34 -8 42.68 -8 42 C-8.99 42 -9.98 42 -11 42 C-11.31493404 37.43345638 -11.40756712 34.86404229 -9.4375 30.6875 C-5.38811188 26.22279003 -2.30743803 25.11372915 3.56640625 24.82421875 C7.05015119 24.8136726 10.51891296 24.86964029 14 25 C14 25.66 14 26.32 14 27 C14.598125 27.268125 15.19625 27.53625 15.8125 27.8125 C17.97470166 28.98626662 19.31624122 30.23606223 21 32 C21.33 32 21.66 32 22 32 C21.67 34.31 21.34 36.62 21 39 C17.6875 38.8125 17.6875 38.8125 14 38 C13 36.33333333 12 34.66666667 11 33 C6.74222207 31.89613165 3.22635641 31.756954 -1 33 C-1.33 33.33 -1.66 33.66 -2 34 C-1.67 34.66 -1.34 35.32 -1 36 C1.52733235 36.65555119 1.52733235 36.65555119 4 37 C4 37.66 4 38.32 4 39 C4.64066406 39.03738281 5.28132813 39.07476562 5.94140625 39.11328125 C12.52424765 39.61361644 17.11771527 41.05885763 23 44 C22.07446055 50.16214423 21.15326135 55.11381018 17 60 C12.22850865 63.08137346 7.35425502 61.88996401 2 61 C-2.85538761 59.80086639 -7.2398101 58.43321686 -11 55 C-11.33 57.31 -11.66 59.62 -12 62 C-12.66 62 -13.32 62 -14 62 C-13.896875 62.886875 -13.79375 63.77375 -13.6875 64.6875 C-14 68 -14 68 -15.875 70.875 C-19.59051082 73.40154736 -21.73392902 73.83799139 -26.16015625 73.625 C-31.78408704 72.38727108 -38.675547 69.22075484 -42.12890625 64.43579102 C-43.46384502 60.70297596 -43.36603901 57.04316806 -43.40625 53.10546875 C-43.41765015 52.23988846 -43.42905029 51.37430817 -43.4407959 50.48249817 C-43.45966363 48.65268824 -43.47275108 46.82281085 -43.48046875 44.99291992 C-43.49986458 42.20695122 -43.56191671 39.42394707 -43.625 36.63867188 C-43.63806356 34.85678827 -43.64856314 33.07488366 -43.65625 31.29296875 C-43.6809436 30.46669479 -43.70563721 29.64042084 -43.7310791 28.78910828 C-43.68894715 23.26208208 -42.35412233 20.32489102 -38.68005371 16.20454407 C-37 15 -37 15 -33 15 C-32.67 14.34 -32.34 13.68 -32 13 C-29.7270083 11.68249567 -27.45952649 10.44885685 -25.125 9.25 C-23.75338119 8.53877209 -22.3822912 7.82652346 -21.01171875 7.11328125 C-20.33157715 6.75959473 -19.65143555 6.4059082 -18.95068359 6.04150391 C-15.38223226 4.13624566 -11.92050767 2.03537986 -8.46484375 -0.06640625 C-5.19660265 -1.30429789 -3.39366824 -0.79365775 0 0 Z M-12 50 C-11 53 -11 53 -11 53 Z " fill="#63985B" transform="translate(176,148)"/>
<path d="M0 0 C4.94026898 1.44853566 9.07937004 3.56340717 13.5 6.125 C14.18908447 6.51953369 14.87816895 6.91406738 15.58813477 7.32055664 C17.01571565 8.13811326 18.44222492 8.95754382 19.86767578 9.77880859 C21.9440355 10.96794888 24.03016737 12.13748046 26.12109375 13.30078125 C27.3932332 14.01301363 28.66536879 14.7252529 29.9375 15.4375 C31.08089844 16.07558594 32.22429687 16.71367188 33.40234375 17.37109375 C36 19 36 19 37 21 C37.68280784 26.97935839 37.65606904 33.07145774 37.78955078 39.08300781 C37.84623965 41.10113159 37.928039 43.11871547 38.03564453 45.13476562 C38.90927784 61.81869699 38.90927784 61.81869699 34.44165039 66.92285156 C31.0463184 69.02663182 27.70799075 70.52561056 24 72 C22.02742608 73.10358885 20.0714495 74.23758702 18.13671875 75.40625 C16.3216022 76.43976832 14.50521354 77.47105602 12.6875 78.5 C11.74455078 79.03625 10.80160156 79.5725 9.83007812 80.125 C7.55453484 81.41870989 5.27785563 82.71036737 3 84 C2.34 83.34 1.68 82.68 1 82 C1.66 81.01 2.32 80.02 3 79 C2.34 78.34 1.68 77.68 1 77 C1.66 76.01 2.32 75.02 3 74 C3.33 74 3.66 74 4 74 C4.33 72.68 4.66 71.36 5 70 C4.34 70 3.68 70 3 70 C3 66 3 66 5 64 C5.36442233 62.33985384 5.69972883 60.67293936 6 59 C6.495 58.505 6.495 58.505 7 58 C6.34 58 5.68 58 5 58 C4.67 58.66 4.34 59.32 4 60 C3.01 60 2.02 60 1 60 C1.495 57.03 1.495 57.03 2 54 C1.34 53.67 0.68 53.34 0 53 C0 52.34 0 51.68 0 51 C0.66 51 1.32 51 2 51 C2 50.01 2 49.02 2 48 C0.515 48.495 0.515 48.495 -1 49 C-1 48.34 -1 47.68 -1 47 C-0.34 47 0.32 47 1 47 C2.390117 44.09123087 2.390117 44.09123087 3 41 C4.485 40.505 4.485 40.505 6 40 C6 41.98 6 43.96 6 46 C7.29633621 44.93354885 7.29633621 44.93354885 7.0625 42.4375 C7.041875 41.633125 7.02125 40.82875 7 40 C7.66 40.99 8.32 41.98 9 43 C9.495 40.03 9.495 40.03 10 37 C9.01 37.66 8.02 38.32 7 39 C6.67 37.02 6.34 35.04 6 33 C7.485 32.505 7.485 32.505 9 32 C10.20882096 29.99983534 10.20882096 29.99983534 11 28 C10.34 27.01 9.68 26.02 9 25 C9.33 24.67 9.66 24.34 10 24 C8.84826645 21.53199953 7.95216435 19.95216435 6 18 C6.66 18 7.32 18 8 18 C8 16.35 8 14.7 8 13 C7.34 13 6.68 13 6 13 C6 12.34 6 11.68 6 11 C5.34 11 4.68 11 4 11 C3.67 11.66 3.34 12.32 3 13 C2.40267181 10.23735711 2 7.83967231 2 5 C1.37400383 3.31763529 0.71247732 1.6476038 0 0 Z " fill="#619C57" transform="translate(129,69)"/>
<path d="M0 0 C0.66 0 1.32 0 2 0 C2.47308594 0.969375 2.94617188 1.93875 3.43359375 2.9375 C7.20333851 10.60264768 11.1216803 18.1414511 15.35449219 25.56103516 C19.22641364 32.35581321 22.95172196 39.22823101 26.66308594 46.11181641 C29.57705388 51.48894546 32.61238692 56.76730251 35.79418945 61.99072266 C37 64 37 64 38 66 C34.11689607 65.40922528 31.27099042 64.24655612 27.8671875 62.3046875 C26.40925781 61.47710937 26.40925781 61.47710937 24.921875 60.6328125 C23.41367188 59.76269531 23.41367188 59.76269531 21.875 58.875 C20.89273438 58.318125 19.91046875 57.76125 18.8984375 57.1875 C16.90904077 56.05144976 14.93614812 54.88602979 12.98046875 53.69287109 C10.04280477 51.92405889 10.04280477 51.92405889 6.83203125 50.79541016 C3.25738938 49.22890984 1.38955258 48.11610195 -1 45 C-2.8669915 37.76486848 -2.0707884 30.0112692 -1.75 22.625 C-1.70336827 20.54567833 -1.66164932 18.46624031 -1.625 16.38671875 C-1.54209591 12.60351874 -1.44416687 8.82245147 -1.28808594 5.04150391 C-1.2571283 4.28318268 -1.22617065 3.52486145 -1.1942749 2.74356079 C-1 1 -1 1 0 0 Z " fill="#41863D" transform="translate(92,88)"/>
<path d="M0 0 C3.59188555 0.58358229 6.40343429 1.5394432 9.609375 3.25 C10.44597656 3.6934375 11.28257812 4.136875 12.14453125 4.59375 C13.00433594 5.0578125 13.86414063 5.521875 14.75 6 C16.06291016 6.69609375 16.06291016 6.69609375 17.40234375 7.40625 C23.83928571 10.83928571 23.83928571 10.83928571 25 12 C25.1860239 15.1118539 25.30624985 18.20284045 25.38330078 21.31811523 C25.41075378 22.29706253 25.43820679 23.27600983 25.4664917 24.28462219 C25.70674161 33.34217646 25.84989218 42.40150368 25.96293831 51.46145535 C26.04037288 57.55035411 26.1500754 63.63484362 26.33740234 69.72143555 C26.51761654 75.60398035 26.61370939 81.48247815 26.65185165 87.36760139 C26.68065595 89.60674556 26.73902606 91.84571846 26.82797623 94.08328056 C27.47648587 111.16110441 27.47648587 111.16110441 23.33963013 115.90334892 C19.28213194 119.15658802 14.83586513 121.25845544 10.02266312 123.16069412 C7.28222089 124.29784309 4.84757398 125.81211562 2.359375 127.41796875 C1.57949219 127.88654297 0.79960937 128.35511719 -0.00390625 128.83789062 C-1.5547504 129.76974567 -3.0986515 130.71321946 -4.63671875 131.66601562 C-5.40113281 132.12041016 -6.16554687 132.57480469 -6.953125 133.04296875 C-7.94554199 133.64661255 -7.94554199 133.64661255 -8.95800781 134.26245117 C-11.72906777 135.26333258 -13.20084093 134.87553002 -16 134 C-18.62792969 132.68066406 -18.62792969 132.68066406 -21.421875 131.015625 C-22.44796875 130.40976563 -23.4740625 129.80390625 -24.53125 129.1796875 C-25.5934375 128.54289063 -26.655625 127.90609375 -27.75 127.25 C-29.84845736 126.00436398 -31.94740828 124.75955903 -34.046875 123.515625 C-35.05169922 122.91685547 -36.05652344 122.31808594 -37.09179688 121.70117188 C-40.470962 119.72450779 -43.90037851 117.85768597 -47.36425781 116.03417969 C-49 115 -49 115 -50 113 C-50.1337737 111.64420073 -50.21056841 110.28251194 -50.25634766 108.92089844 C-50.2998082 107.65883575 -50.2998082 107.65883575 -50.34414673 106.37127686 C-50.44172067 102.51678681 -50.51568137 98.66247317 -50.56982422 94.80712891 C-50.60648614 92.77579908 -50.66105913 90.74471039 -50.73388672 88.71435547 C-50.83744831 85.78265579 -50.88176658 82.855123 -50.9140625 79.921875 C-50.95737701 79.01854431 -51.00069153 78.11521362 -51.0453186 77.18450928 C-51.03735864 74.51656921 -50.9080411 72.51239264 -50 70 C-47.31836048 67.36508242 -44.31732183 65.72606214 -41 64 C-39.36780518 62.97338257 -39.36780518 62.97338257 -37.70263672 61.92602539 C-34.43825858 59.95163289 -31.15930078 58.00356286 -27.875 56.0625 C-27.30313965 55.7130835 -26.7312793 55.36366699 -26.14208984 55.00366211 C-24.45725053 53.97515145 -22.75608568 52.97353683 -21.0546875 51.97265625 C-20.05937012 51.37718994 -19.06405273 50.78172363 -18.03857422 50.16821289 C-13.34284277 48.36288789 -9.64895097 49.45034968 -5 51 C-4.01 50.34 -3.02 49.68 -2 49 C-1.63637182 46.79274927 -1.63637182 46.79274927 -1.8125 44.375 C-1.83957031 43.55773438 -1.86664063 42.74046875 -1.89453125 41.8984375 C-1.94673828 40.95871094 -1.94673828 40.95871094 -2 40 C-1.34 40 -0.68 40 0 40 C-0.66 30.1 -1.32 20.2 -2 10 C-1.34 10 -0.68 10 0 10 C0 6.7 0 3.4 0 0 Z M1 3 C0.67 20.16 0.34 37.32 0 55 C-5 54 -5 54 -8 52.375 C-12.30868951 50.40018397 -14.44013295 51.46822714 -18.75 52.9375 C-21.1515301 53.7882089 -21.1515301 53.7882089 -22 56 C-23.72059405 56.93149402 -25.47830435 57.79480754 -27.25 58.625 C-38.31224843 63.78520946 -38.31224843 63.78520946 -48 71 C-48.38993542 76.89248124 -48.48525372 82.78629004 -48.56982422 88.69018555 C-48.60645091 90.67985784 -48.66098884 92.66928524 -48.73388672 94.65795898 C-49.66137177 105.68324529 -49.66137177 105.68324529 -46.07080078 115.60449219 C-43.72804678 117.17713674 -41.67099903 118.1242767 -39 119 C-37.88625 119.61875 -36.7725 120.2375 -35.625 120.875 C-33.0164133 122.19695965 -33.0164133 122.19695965 -30 122 C-30 122.66 -30 123.32 -30 124 C-28.13479083 124.93260459 -26.26447316 125.85587104 -24.375 126.73828125 C-22 128 -22 128 -19.875 129.73046875 C-17.08894654 131.76680296 -15.45975893 132.61898857 -12 133 C-6.29674645 131.17535277 -1.25340857 127.65154281 3.74462891 124.43212891 C7.06870347 122.32138834 10.49959969 120.41722011 13.9375 118.5 C17.02816988 116.73596853 20.03892172 114.97405219 23 113 C23.44449774 111.15252826 23.44449774 111.15252826 23.36076355 109.00106812 C23.36488754 108.16531754 23.36901154 107.32956696 23.3732605 106.4684906 C23.36247467 105.54995804 23.35168884 104.63142548 23.34057617 103.68505859 C23.34101425 102.71916306 23.34145233 101.75326752 23.34190369 100.75810242 C23.339808 97.55467754 23.31644007 94.35177132 23.29296875 91.1484375 C23.28737557 88.9316944 23.28310416 86.71494759 23.28010559 84.49819946 C23.26863494 78.65537327 23.2391486 72.81276976 23.20599365 66.97003174 C23.1753406 61.01130181 23.16161045 55.052536 23.14648438 49.09375 C23.11428108 37.39573534 23.06305791 25.69788616 23 14 C21.68 13.34 20.36 12.68 19 12 C19 11.34 19 10.68 19 10 C17.824375 9.566875 17.824375 9.566875 16.625 9.125 C14 8 14 8 12 6 C7.99505986 4.07169549 5.48482322 3 1 3 Z M-2 52 C-2.33 52.66 -2.66 53.32 -3 54 C-2.34 54 -1.68 54 -1 54 C-1.33 53.34 -1.66 52.68 -2 52 Z " fill="#222222" transform="translate(232,20)"/>
<path d="M0 0 C2.34781906 2.34781906 2.27740344 2.87197994 2.40161133 6.06323242 C2.43696487 6.90137985 2.47231842 7.73952728 2.50874329 8.60307312 C2.61112018 12.44792966 2.70131889 16.29206286 2.75512695 20.13793945 C2.79321808 22.16260452 2.8545584 24.18697229 2.93969727 26.21020508 C3.6385894 42.94395309 3.6385894 42.94395309 -0.33056641 47.92431641 C-4.86064207 50.94512757 -8.53166333 52.34126414 -14 52 C-13.125 47.25 -13.125 47.25 -12 45 C-12.09723451 43.00978479 -12.09723451 43.00978479 -12.4375 40.875 C-12.623125 39.59625 -12.80875 38.3175 -13 37 C-14.485 37.495 -14.485 37.495 -16 38 C-16 37.01 -16 36.02 -16 35 C-15.01 35.33 -14.02 35.66 -13 36 C-13.01160156 35.31292969 -13.02320313 34.62585938 -13.03515625 33.91796875 C-13.04417969 33.01691406 -13.05320313 32.11585937 -13.0625 31.1875 C-13.07410156 30.29417969 -13.08570313 29.40085937 -13.09765625 28.48046875 C-13 26 -13 26 -12 23 C-12.66 23.33 -13.32 23.66 -14 24 C-16 20.125 -16 20.125 -16 19 C-16.33 18.01 -16.66 17.02 -17 16 C-16.01 16 -15.02 16 -14 16 C-13.34 17.65 -12.68 19.3 -12 21 C-11.34 21 -10.68 21 -10 21 C-9.75507813 20.34644531 -9.51015625 19.69289063 -9.2578125 19.01953125 C-7.64417702 15.14580385 -5.76833217 11.43067791 -3.875 7.6875 C-3.50246094 6.94693359 -3.12992188 6.20636719 -2.74609375 5.44335938 C-1.83255194 3.62798783 -0.91652513 1.81386718 0 0 Z " fill="#43863F" transform="translate(164,88)"/>
<path d="M0 0 C2.61206055 1.18994141 2.61206055 1.18994141 5.38671875 2.8515625 C6.9190918 3.75841797 6.9190918 3.75841797 8.48242188 4.68359375 C9.54009766 5.32425781 10.59777344 5.96492188 11.6875 6.625 C12.72583984 7.24246094 13.76417969 7.85992187 14.83398438 8.49609375 C17.89598618 10.31985658 20.94810217 12.15939419 24 14 C28.07319196 16.42567086 28.07319196 16.42567086 32.14770508 18.84912109 C34 20 34 20 35 21 C35.09376053 22.81055025 35.1174411 24.62477201 35.11352539 26.43774414 C35.11341209 28.17943626 35.11341209 28.17943626 35.11329651 29.95631409 C35.10813522 31.219832 35.10297394 32.48334991 35.09765625 33.78515625 C35.0962413 35.07111191 35.09482635 36.35706757 35.09336853 37.68199158 C35.08954418 41.10643443 35.07971462 44.53083509 35.06866455 47.95526123 C35.05844864 51.44738189 35.05387053 54.93950934 35.04882812 58.43164062 C35.03809227 65.28777778 35.02101684 72.14388687 35 79 C34.01 79 33.02 79 32 79 C32 78.34 32 77.68 32 77 C31.34257813 76.76152344 30.68515625 76.52304688 30.0078125 76.27734375 C26.13705023 74.63352653 22.53521313 72.62595349 18.875 70.5625 C17.80185547 69.96985352 17.80185547 69.96985352 16.70703125 69.36523438 C16.01738281 68.97787109 15.32773437 68.59050781 14.6171875 68.19140625 C13.99440918 67.84279541 13.37163086 67.49418457 12.72998047 67.13500977 C10.77222454 65.85056053 9.39096947 64.90239068 8 63 C7.81811523 60.27612305 7.81811523 60.27612305 8.05859375 57.01171875 C8.11337891 55.83029297 8.16816406 54.64886719 8.22460938 53.43164062 C8.36596931 50.94552134 8.53504048 48.46081543 8.73242188 45.97851562 C8.87021084 42.40958741 8.88439207 39.46438895 8 36 C5.08925813 32.9361672 2.05945985 31.16211078 -2 30 C-5.84118455 30.43975666 -8.28188942 32.28188942 -11 35 C-11.99 35 -12.98 35 -14 35 C-13.91508301 35.84071045 -13.83016602 36.6814209 -13.74267578 37.54760742 C-11.78182904 61.00854296 -11.78182904 61.00854296 -17.17431641 67.69677734 C-22.76332545 72.19627574 -31.54707252 78 -39 78 C-39 77.01 -39 76.02 -39 75 C-37.60587891 74.31164062 -37.60587891 74.31164062 -36.18359375 73.609375 C-34.93484125 72.98969331 -33.68614643 72.36989539 -32.4375 71.75 C-31.82841797 71.44964844 -31.21933594 71.14929688 -30.59179688 70.83984375 C-29.34844134 70.22145528 -28.11361302 69.58565412 -26.88745117 68.93383789 C-25 68 -25 68 -22.99731445 67.34545898 C-20.75480535 66.48080498 -19.5541037 65.85134901 -18 64 C-17.06512935 59.52510162 -17.2052507 55.1170204 -17.3125 50.5625 C-17.34702616 48.12648794 -17.36460746 45.69016261 -17.36328125 43.25390625 C-17.38688721 42.17439697 -17.41049316 41.0948877 -17.43481445 39.98266602 C-16.80903786 35.69007052 -14.62218136 33.29256003 -11.2890625 30.63671875 C-7.26795181 28.3429866 -4.56864791 27.10418668 0 28 C8.22570533 32.22570533 8.22570533 32.22570533 11 35 C10.95000674 36.95863755 10.8454334 38.91591813 10.71875 40.87109375 C9.64924338 53.64077353 9.64924338 53.64077353 13.64697266 65.27099609 C17.60613587 68.6164374 22.11202545 70.65558978 27.0012207 72.29931641 C29.10666869 73.03739332 31.01445778 73.98745991 33 75 C33.2894494 67.63496034 33.44361722 60.27570211 33.5065918 52.90527344 C33.54360864 50.40235263 33.61090588 47.89968104 33.7097168 45.3984375 C34.79418634 32.02240794 34.79418634 32.02240794 30.39605713 19.93112183 C26.39969324 16.5485737 21.9075005 14.5667505 17.02584839 12.77331543 C14.48874424 11.80484129 12.29220154 10.49093642 10.015625 9.01953125 C8.7609098 8.28301343 7.50573953 7.54727001 6.25 6.8125 C5.60546875 6.41998047 4.9609375 6.02746094 4.296875 5.62304688 C1.58200644 4.05142727 -0.40019901 2.982733 -3.578125 3.07421875 C-11.61915558 6.14796754 -18.85181297 11.02414831 -26.20898438 15.4375 C-27.16482422 16.00726563 -28.12066406 16.57703125 -29.10546875 17.1640625 C-30.40713989 17.94450928 -30.40713989 17.94450928 -31.73510742 18.74072266 C-34 20 -34 20 -37 21 C-37.66 21.66 -38.32 22.32 -39 23 C-39 22.01 -39 21.02 -39 20 C-36.89453125 18.37890625 -36.89453125 18.37890625 -33.8125 16.5625 C-33.25240234 16.23121094 -32.69230469 15.89992188 -32.11523438 15.55859375 C-30.82946926 14.80210126 -29.54029137 14.05139204 -28.24853516 13.30517578 C-25.69956328 11.82560969 -23.16892715 10.31665857 -20.63671875 8.80859375 C-18.75857745 7.70442698 -16.87967053 6.60156148 -15 5.5 C-14.0922583 4.95931885 -13.1845166 4.4186377 -12.24926758 3.86157227 C-11.38325928 3.36069092 -10.51725098 2.85980957 -9.625 2.34375 C-8.46871094 1.66602539 -8.46871094 1.66602539 -7.2890625 0.97460938 C-4.56607458 -0.18475152 -2.93642951 -0.37426461 0 0 Z " fill="#212121" transform="translate(40,68)"/>
<path d="M0 0 C2.2890625 1.08813477 2.2890625 1.08813477 4.625 2.44140625 C5.4910083 2.93906494 6.3570166 3.43672363 7.24926758 3.94946289 C8.15700928 4.48176514 9.06475098 5.01406738 10 5.5625 C10.93030029 6.10318115 11.86060059 6.6438623 12.8190918 7.20092773 C14.68292346 8.28763801 16.54453957 9.37815802 18.40380859 10.47265625 C20.68635632 11.8154829 22.97666793 13.14366446 25.26953125 14.46875 C26.4513862 15.16520024 27.63245209 15.86299231 28.8125 16.5625 C29.82957031 17.16191406 30.84664063 17.76132813 31.89453125 18.37890625 C32.58933594 18.91386719 33.28414063 19.44882813 34 20 C34 20.99 34 21.98 34 23 C33.34 23 32.68 23 32 23 C32 22.34 32 21.68 32 21 C30.95199219 20.62101562 30.95199219 20.62101562 29.8828125 20.234375 C26.64869318 18.84957594 23.84617089 17.13344493 20.875 15.25 C15.86101725 12.10166859 10.77887024 9.17745886 5.53515625 6.421875 C2.58072553 4.76484452 -0.19008067 2.88985725 -3 1 C-3.78125244 1.46374023 -4.56250488 1.92748047 -5.36743164 2.40527344 C-8.29506067 4.14270524 -11.22299212 5.87962524 -14.15112305 7.61621094 C-15.41296142 8.36470722 -16.67468258 9.11340115 -17.9362793 9.86230469 C-19.76058888 10.94519522 -21.58533349 12.02734953 -23.41015625 13.109375 C-24.50465088 13.75874023 -25.59914551 14.40810547 -26.72680664 15.07714844 C-27.80696045 15.71168945 -28.88711426 16.34623047 -30 17 C-30.62607147 17.37354614 -31.25214294 17.74709229 -31.89718628 18.13195801 C-36.77448025 21 -36.77448025 21 -39 21 C-38.67 34.86 -38.34 48.72 -38 63 C-37.34 63.33 -36.68 63.66 -36 64 C-36 64.66 -36 65.32 -36 66 C-35.29101562 66.09925781 -34.58203125 66.19851562 -33.8515625 66.30078125 C-30.56676552 67.10623147 -28.259252 68.42662917 -25.375 70.1875 C-20.40665861 73.17218964 -15.38536981 76.00049929 -10.27734375 78.73828125 C-8 80 -8 80 -5 82 C0.19485037 81.85754524 4.50712834 78.56114224 8.8125 75.9375 C9.99489258 75.22883789 9.99489258 75.22883789 11.20117188 74.50585938 C13.13812608 73.34368685 15.07078295 72.17495583 17 71 C10.89644017 66.74365137 4.62201599 63.0917693 -1.95703125 59.61328125 C-5.35049963 57.8141767 -8.6799676 55.93025139 -12 54 C-10.35961914 53.3190918 -10.35961914 53.3190918 -8 53 C-5.29858398 54.13989258 -5.29858398 54.13989258 -2.24609375 55.89453125 C-1.14458984 56.52037109 -0.04308594 57.14621094 1.09179688 57.79101562 C2.24880106 58.46466663 3.40570104 59.13849663 4.5625 59.8125 C5.72267722 60.47571279 6.88347867 61.13783487 8.04492188 61.79882812 C16.19696234 66.46464156 16.19696234 66.46464156 20 69 C20 70.32 20 71.64 20 73 C16.45048651 75.04430895 12.88358428 77.05614694 9.3125 79.0625 C8.30509766 79.64322266 7.29769531 80.22394531 6.25976562 80.82226562 C4.79506836 81.63920898 4.79506836 81.63920898 3.30078125 82.47265625 C2.40528564 82.98062744 1.50979004 83.48859863 0.5871582 84.01196289 C-2.53246161 85.20334738 -3.85644055 85.04538906 -7 84 C-9.52026367 82.78833008 -9.52026367 82.78833008 -12.16796875 81.26953125 C-13.63266602 80.43518555 -13.63266602 80.43518555 -15.12695312 79.58398438 C-16.13693359 78.99939453 -17.14691406 78.41480469 -18.1875 77.8125 C-19.17814453 77.24724609 -20.16878906 76.68199219 -21.18945312 76.09960938 C-24.13459835 74.41363443 -27.06872194 72.70995337 -30 71 C-30.96760254 70.44103027 -31.93520508 69.88206055 -32.93212891 69.30615234 C-33.83753418 68.77586426 -34.74293945 68.24557617 -35.67578125 67.69921875 C-36.89068237 66.99091919 -36.89068237 66.99091919 -38.13012695 66.26831055 C-40 65 -40 65 -41 63 C-41.10385543 61.65796978 -41.14858854 60.31107218 -41.16113281 58.96508789 C-41.17074036 58.13405045 -41.1803479 57.303013 -41.19024658 56.4467926 C-41.19449646 55.54782761 -41.19874634 54.64886261 -41.203125 53.72265625 C-41.20882507 52.80036728 -41.21452515 51.87807831 -41.22039795 50.92784119 C-41.22985248 48.97509918 -41.23638372 47.02234118 -41.24023438 45.06958008 C-41.24994964 42.07800603 -41.28097255 39.08711611 -41.3125 36.09570312 C-41.31902899 34.20052492 -41.32427987 32.3053418 -41.328125 30.41015625 C-41.3404718 29.51321548 -41.3528186 28.61627472 -41.36553955 27.69215393 C-41.36253845 26.85796432 -41.35953735 26.02377472 -41.35644531 25.16430664 C-41.36009094 24.4308754 -41.36373657 23.69744415 -41.36749268 22.94178772 C-40.89534796 20.44703101 -39.93147074 19.59328884 -38 18 C-36.24511719 16.88427734 -36.24511719 16.88427734 -34.296875 15.8359375 C-33.20765747 15.24196167 -33.20765747 15.24196167 -32.09643555 14.63598633 C-31.32211182 14.21986084 -30.54778809 13.80373535 -29.75 13.375 C-24.98242347 10.78900788 -20.24467326 8.19747093 -15.65234375 5.30859375 C-14.6463916 4.67848389 -14.6463916 4.67848389 -13.62011719 4.03564453 C-12.35910224 3.23755397 -11.10537861 2.42778963 -9.86035156 1.60498047 C-6.04782996 -0.79593611 -4.28344038 -1.23490203 0 0 Z " fill="#202120" transform="translate(314,69)"/>
<path d="M0 0 C0.99 0 1.98 0 3 0 C3 1.98 3 3.96 3 6 C4.29633621 4.93354885 4.29633621 4.93354885 4.0625 2.4375 C4.041875 1.633125 4.02125 0.82875 4 0 C4.66 0.99 5.32 1.98 6 3 C6.99 2.01 7.98 1.02 9 0 C9.66 0.33 10.32 0.66 11 1 C10.38722388 3.96175123 9.74627478 5.38058783 8 8 C8.33 8.33 8.66 8.66 9 9 C8.71325582 11.00720923 8.38133299 13.0085944 8 15 C8.99 15.33 9.98 15.66 11 16 C10.67 16.66 10.34 17.32 10 18 C9.34 17.67 8.68 17.34 8 17 C8.79117904 18.99983534 8.79117904 18.99983534 10 21 C10.99 21.33 11.98 21.66 13 22 C13 22.66 13 23.32 13 24 C13.66 24.33 14.32 24.66 15 25 C14.67 25.99 14.34 26.98 14 28 C14.66 28.33 15.32 28.66 16 29 C14.94062791 35.15480261 14.94062791 35.15480261 12.52246094 37.32763672 C10.67968071 38.47242477 8.81831672 39.47353794 6.875 40.4375 C6.21628906 40.78748047 5.55757812 41.13746094 4.87890625 41.49804688 C3.26334631 42.35265467 1.63301133 43.1792306 0 44 C-0.66 43.34 -1.32 42.68 -2 42 C-1.34 41.01 -0.68 40.02 0 39 C-0.66 38.34 -1.32 37.68 -2 37 C-1.34 36.01 -0.68 35.02 0 34 C0.33 34 0.66 34 1 34 C1.33 32.68 1.66 31.36 2 30 C1.34 30 0.68 30 0 30 C0 26 0 26 2 24 C2.36442233 22.33985384 2.69972883 20.67293936 3 19 C3.33 18.67 3.66 18.34 4 18 C3.34 18 2.68 18 2 18 C1.67 18.66 1.34 19.32 1 20 C0.01 20 -0.98 20 -2 20 C-1.67 18.02 -1.34 16.04 -1 14 C-1.66 13.67 -2.32 13.34 -3 13 C-3 12.34 -3 11.68 -3 11 C-2.34 11 -1.68 11 -1 11 C-1 10.01 -1 9.02 -1 8 C-1.99 8.33 -2.98 8.66 -4 9 C-4 8.34 -4 7.68 -4 7 C-3.34 7 -2.68 7 -2 7 C-0.609883 4.09123087 -0.609883 4.09123087 0 1 C0 0.67 0 0.34 0 0 Z " fill="#67A25B" transform="translate(132,109)"/>
<path d="M0 0 C0.66 0 1.32 0 2 0 C2.54269531 1.09699219 3.08539063 2.19398437 3.64453125 3.32421875 C4.3670797 4.77869939 5.08974196 6.2331235 5.8125 7.6875 C6.16892578 8.40873047 6.52535156 9.12996094 6.89257812 9.87304688 C8.4300267 12.96204906 9.96159862 15.93894097 11.80078125 18.86328125 C13 21 13 21 12.375 23.5 C11.92125 24.325 11.4675 25.15 11 26 C10.505 26.9075 10.01 27.815 9.5 28.75 C8 31 8 31 6 32 C5.690625 32.928125 5.38125 33.85625 5.0625 34.8125 C4.05930553 37.8220834 3.13538598 39.68666519 1 42 C0.34 42 -0.32 42 -1 42 C-1.02464638 36.17928378 -1.0428343 30.35859766 -1.05493164 24.5378418 C-1.05997267 22.55606559 -1.06680538 20.57429311 -1.07543945 18.5925293 C-1.08751515 15.75047891 -1.09323045 12.90847753 -1.09765625 10.06640625 C-1.10281754 9.17474258 -1.10797882 8.28307892 -1.11329651 7.36439514 C-1.11349177 5.24259399 -1.0621003 3.1208922 -1 1 C-0.67 0.67 -0.34 0.34 0 0 Z " fill="#5B9451" transform="translate(92,88)"/>
<path d="M0 0 C3 2 3 2 3.50390625 4.2421875 C3.56398172 6.94157881 3.5252665 9.34804473 3 12 C0.375 14.6875 0.375 14.6875 -3 16 C-6.18131625 15.93762125 -8.07609399 15.66798838 -10.6640625 13.796875 C-12.5490441 11.26151963 -12.29752904 9.42998943 -12.1875 6.3125 C-12.16042969 5.31863281 -12.13335937 4.32476562 -12.10546875 3.30078125 C-12.07066406 2.54152344 -12.03585937 1.78226562 -12 1 C-7.54779565 -0.80208271 -4.66443851 -1.24385027 0 0 Z " fill="#629558" transform="translate(315,104)"/>
<path d="M0 0 C8.42201835 4.40366972 8.42201835 4.40366972 9.8203125 8.265625 C10.04139868 11.62997997 9.58451851 14.68772843 9 18 C11.92293675 16.42804569 14.83710603 14.84047585 17.75 13.25 C18.575 12.8065625 19.4 12.363125 20.25 11.90625 C24.41483371 9.62230893 27.74454687 7.51852005 31 4 C31.66 4 32.32 4 33 4 C32.63343478 6.52055321 32.37399766 7.69179718 30.37353516 9.34033203 C29.68565918 9.72560059 28.9977832 10.11086914 28.2890625 10.5078125 C27.53882813 10.93707031 26.78859375 11.36632812 26.015625 11.80859375 C25.22671875 12.24300781 24.4378125 12.67742187 23.625 13.125 C22.0752684 14.00215832 20.52577967 14.87974592 18.9765625 15.7578125 C18.28643066 16.1408252 17.59629883 16.52383789 16.88525391 16.91845703 C15.21523664 17.87652185 13.60196064 18.93202624 12 20 C10.68 20 9.36 20 8 20 C6.72257008 17.44514016 6.96450811 15.5387847 6.9375 12.6875 C6.62186459 8.51495224 6.62186459 8.51495224 4.33203125 5.1640625 C0.52330221 2.69160425 -2.40218549 1.48913172 -7 2 C-9.4728194 3.08761431 -9.4728194 3.08761431 -11.75 4.6875 C-12.52859375 5.18636719 -13.3071875 5.68523437 -14.109375 6.19921875 C-16.413949 8.39427787 -16.68170172 9.88598183 -17 13 C-17.66 13 -18.32 13 -19 13 C-19.26006613 7.97205472 -19.26006613 7.97205472 -18 5 C-12.69674089 0.55475527 -6.78131134 -2.51159679 0 0 Z " fill="#222122" transform="translate(315,97)"/>
<path d="M0 0 C1.875 1.0625 1.875 1.0625 3 3 C3.30540859 6.35949454 3.23408114 9.11049167 2.375 12.375 C1 14 1 14 -1.8125 14.9375 C-5.55306179 15.01084435 -7.07004101 14.26025408 -10 12 C-11.60725635 8.78548731 -11.05748185 5.56387464 -11 2 C-7.18791906 0.20607956 -4.21284637 -0.45791808 0 0 Z M-7 3 C-7.6814823 4.89179203 -7.6814823 4.89179203 -8 7 C-7.34 7.66 -6.68 8.32 -6 9 C-6 7.02 -6 5.04 -6 3 C-6.33 3 -6.66 3 -7 3 Z M0 4 C-0.33 4.99 -0.66 5.98 -1 7 C-0.34 7.66 0.32 8.32 1 9 C1 7.35 1 5.7 1 4 C0.67 4 0.34 4 0 4 Z " fill="#6A8764" transform="translate(224,164)"/>
<path d="M0 0 C0.598125 0.33 1.19625 0.66 1.8125 1 C4.05386471 2.20787988 4.05386471 2.20787988 7 2 C6.01 2.495 6.01 2.495 5 3 C5.01160156 3.69867188 5.02320313 4.39734375 5.03515625 5.1171875 C5.04869141 6.48230469 5.04869141 6.48230469 5.0625 7.875 C5.07410156 8.77992187 5.08570313 9.68484375 5.09765625 10.6171875 C5 13 5 13 4 15 C3.01 15.33 2.02 15.66 1 16 C1.99 16 2.98 16 4 16 C4.39222105 17.41199578 4.76311059 18.82992764 5.125 20.25 C5.33382812 21.03890625 5.54265625 21.8278125 5.7578125 22.640625 C6.04314411 25.4203071 5.44977894 26.65887549 4 29 C4.66 29.99 5.32 30.98 6 32 C3.6875 33.5625 3.6875 33.5625 1 35 C0.01 34.67 -0.98 34.34 -2 34 C-1.649375 33.2575 -1.29875 32.515 -0.9375 31.75 C0.07743336 28.77286216 -0.19970918 27.90105421 -1 25 C-0.34 24.34 0.32 23.68 1 23 C0.34 22.67 -0.32 22.34 -1 22 C-1.484375 20.0390625 -1.484375 20.0390625 -1.75 17.625 C-1.84796875 16.83351563 -1.9459375 16.04203125 -2.046875 15.2265625 C-2 13 -2 13 0 10 C0.69313908 8.34416775 1.36474424 6.67889021 2 5 C1.01 4.67 0.02 4.34 -1 4 C-0.67 2.68 -0.34 1.36 0 0 Z " fill="#57954F" transform="translate(147,109)"/>
<path d="M0 0 C4.14468273 1.65182246 7.16479443 3.52356102 10 7 C11.4867206 12.6903502 11.51969645 17.31609597 10 23 C6.31863435 27.18527881 1.85703195 28.40434824 -3.3125 30.0625 C-6.72832923 29.98306211 -8.24382158 28.97879476 -11 27 C-11.928125 26.484375 -12.85625 25.96875 -13.8125 25.4375 C-14.534375 24.963125 -15.25625 24.48875 -16 24 C-16 23.34 -16 22.68 -16 22 C-13.19044011 23.07424349 -10.62845118 24.20899621 -8 25.6875 C-4.53377119 27.2039751 -3.50462992 27.28218168 0 26 C2.40163848 24.75396163 4.68456266 23.4074227 7 22 C6.979375 20.824375 6.95875 19.64875 6.9375 18.4375 C6.93052739 14.52586533 7.35749657 10.85502056 8 7 C7.0925 6.9175 6.185 6.835 5.25 6.75 C1.53134758 5.89184944 0.61854188 4.61854188 -2 2 C-5.23930913 2.40837444 -7.80812129 3.85006166 -10.625 5.4375 C-11.40101563 5.86933594 -12.17703125 6.30117187 -12.9765625 6.74609375 C-15.12016373 7.96777267 -15.12016373 7.96777267 -17 10 C-17.33 9.34 -17.66 8.68 -18 8 C-15.63041591 5.4290787 -13.08487451 3.60329529 -10.125 1.75 C-8.86042969 0.93789062 -8.86042969 0.93789062 -7.5703125 0.109375 C-4.43515165 -1.24379473 -3.20900658 -1.06301462 0 0 Z " fill="#202020" transform="translate(223,97)"/>
<path d="M0 0 C0.66 1.32 1.32 2.64 2 4 C2.66 4.33 3.32 4.66 4 5 C3.5875 5.70125 3.175 6.4025 2.75 7.125 C1.60736169 10.14554168 1.60736169 10.14554168 3.75 13.125 C4.86375 14.548125 4.86375 14.548125 6 16 C6.66 16.99 7.32 17.98 8 19 C7.67 19.99 7.34 20.98 7 22 C6.34 22 5.68 22 5 22 C4.731875 22.9075 4.46375 23.815 4.1875 24.75 C3 28 3 28 0 32 C0 21.44 0 10.88 0 0 Z " fill="#5D9F54" transform="translate(93,98)"/>
<path d="M0 0 C2 2 2 2 2.24050903 3.87295532 C2.23606781 4.63240448 2.23162659 5.39185364 2.22705078 6.17431641 C2.22682419 7.46542831 2.22682419 7.46542831 2.22659302 8.78262329 C2.21627045 9.71287323 2.20594788 10.64312317 2.1953125 11.6015625 C2.1924826 12.55316254 2.18965271 13.50476257 2.18673706 14.48519897 C2.17551989 17.53192592 2.15041263 20.57836154 2.125 23.625 C2.11497218 25.68749576 2.10584599 27.74999612 2.09765625 29.8125 C2.07557554 34.87511267 2.0410353 39.9375069 2 45 C0.68 45 -0.64 45 -2 45 C-1.7215625 43.39125 -1.7215625 43.39125 -1.4375 41.75 C-1.0695432 38.59608454 -0.95534657 36.90181508 -2 34 C-1.34 34.33 -0.68 34.66 0 35 C0 33.68 0 32.36 0 31 C-0.66 31.66 -1.32 32.32 -2 33 C-2.66 33 -3.32 33 -4 33 C-4.6875 31.1875 -4.6875 31.1875 -5 29 C-3.5625 27.25 -3.5625 27.25 -2 26 C-1.34 26.33 -0.68 26.66 0 27 C-0.33 27.66 -0.66 28.32 -1 29 C-0.34 29 0.32 29 1 29 C0.67 19.43 0.34 9.86 0 0 Z " fill="#50864E" transform="translate(164,88)"/>
<path d="M0 0 C5.96652354 1.57013777 10.82909025 4.75029782 16 8 C15.67 8.66 15.34 9.32 15 10 C14.34 9.67 13.68 9.34 13 9 C12.67 9.66 12.34 10.32 12 11 C10.68 11 9.36 11 8 11 C7.01 11.495 7.01 11.495 6 12 C5.34 11.67 4.68 11.34 4 11 C3.67 11.66 3.34 12.32 3 13 C2.40267181 10.23735711 2 7.83967231 2 5 C1.37400383 3.31763529 0.71247732 1.6476038 0 0 Z " fill="#649E57" transform="translate(129,69)"/>
<path d="M0 0 C-0.99 0.495 -0.99 0.495 -2 1 C-2.33 1.99 -2.66 2.98 -3 4 C-5.31979381 5.03101947 -7.65429915 6.02936517 -10 7 C-11.97391222 8.64492685 -12.8563446 9.71268921 -14 12 C-15.65 11.67 -17.3 11.34 -19 11 C-19.33 11.99 -19.66 12.98 -20 14 C-20.99 14 -21.98 14 -23 14 C-22.67 12.68 -22.34 11.36 -22 10 C-20.35 9.67 -18.7 9.34 -17 9 C-17 8.34 -17 7.68 -17 7 C-10.25 3 -10.25 3 -8 3 C-8 2.34 -8 1.68 -8 1 C-5.07175348 0.02391783 -3.04386724 -0.08226668 0 0 Z " fill="#609D57" transform="translate(205,212)"/>
<path d="M0 0 C0 0.66 0 1.32 0 2 C-0.99 2.66 -1.98 3.32 -3 4 C-1.68 4.99 -0.36 5.98 1 7 C-0.32 7 -1.64 7 -3 7 C-6.84609917 7.4807624 -9.04866792 8.48590231 -12 11 C-11.67 12.32 -11.34 13.64 -11 15 C-11.99 15.33 -12.98 15.66 -14 16 C-14 17.65 -14 19.3 -14 21 C-14.33 21 -14.66 21 -15 21 C-16.0320728 10.43081 -16.0320728 10.43081 -12.25 5.8125 C-10.703125 4.14453125 -10.703125 4.14453125 -9 3 C-7.68 3 -6.36 3 -5 3 C-4.67 2.34 -4.34 1.68 -4 1 C-2 0 -2 0 0 0 Z " fill="#689260" transform="translate(148,160)"/>
<path d="M0 0 C0.33 0 0.66 0 1 0 C1.33 11.22 1.66 22.44 2 34 C2.66 34.33 3.32 34.66 4 35 C4 35.99 4 36.98 4 38 C5.65 38.33 7.3 38.66 9 39 C9 39.66 9 40.32 9 41 C10.65 41.33 12.3 41.66 14 42 C14 42.66 14 43.32 14 44 C11.5625 43.375 11.5625 43.375 8 42 C7.23623047 41.73574219 6.47246094 41.47148437 5.68554688 41.19921875 C2.68561396 39.78089141 1.04547308 38.64384474 -1 36 C-2.01456329 29.82524534 -1.52508285 23.8385322 -1.0625 17.625 C-0.96908067 15.91819484 -0.87984255 14.21115536 -0.79492188 12.50390625 C-0.57826935 8.33167058 -0.30459452 4.16670096 0 0 Z " fill="#487F44" transform="translate(92,97)"/>
<path d="M0 0 C0.66 0.99 1.32 1.98 2 3 C2.99 3.33 3.98 3.66 5 4 C5.33 3.01 5.66 2.02 6 1 C6 1.66 6 2.32 6 3 C6.66 3.33 7.32 3.66 8 4 C7.01 4.495 7.01 4.495 6 5 C5.34227572 8.02934491 5.34227572 8.02934491 5 11 C1.25 12.125 1.25 12.125 -1 11 C-1 10.34 -1 9.68 -1 9 C-1.99 9 -2.98 9 -4 9 C-3 7 -3 7 -2 6 C-1.95936168 4.33382885 -1.957279 2.66611905 -2 1 C-1.34 0.67 -0.68 0.34 0 0 Z " fill="#5EA253" transform="translate(169,181)"/>
<path d="M0 0 C-0.61488281 0.39832031 -1.22976562 0.79664062 -1.86328125 1.20703125 C-2.67152344 1.73683594 -3.47976562 2.26664062 -4.3125 2.8125 C-5.11300781 3.33457031 -5.91351563 3.85664062 -6.73828125 4.39453125 C-8.99337877 5.87293747 -8.99337877 5.87293747 -10.5 7.65625 C-12.51970881 9.46557248 -14.01477658 9.49382439 -16.6875 9.6875 C-17.49574219 9.75324219 -18.30398437 9.81898437 -19.13671875 9.88671875 C-19.75160156 9.92410156 -20.36648437 9.96148437 -21 10 C-17.33293291 6.90290776 -13.58617366 4.48670401 -9.375 2.1875 C-7.68503906 1.24970703 -7.68503906 1.24970703 -5.9609375 0.29296875 C-3 -1 -3 -1 0 0 Z " fill="#70A161" transform="translate(129,70)"/>
<path d="M0 0 C0 0.66 0 1.32 0 2 C0.66 2.33 1.32 2.66 2 3 C0.02 3.99 0.02 3.99 -2 5 C-1.67 5.99 -1.34 6.98 -1 8 C0.98 8 2.96 8 5 8 C5 8.33 5 8.66 5 9 C3.20841511 9.02696365 1.41671527 9.04637917 -0.375 9.0625 C-1.37273437 9.07410156 -2.37046875 9.08570313 -3.3984375 9.09765625 C-6 9 -6 9 -8 8 C-7.34 5.69 -6.68 3.38 -6 1 C-3.92446352 0.4465236 -2.15634036 0 0 0 Z " fill="#689762" transform="translate(180,185)"/>
<path d="M0 0 C1.67542976 0.28604898 3.34385343 0.61781233 5 1 C5 3.31 5 5.62 5 8 C2.50907189 9.24546405 1.58919267 8.7767578 -1 8 C-1.04241723 5.66705225 -1.04092937 3.33297433 -1 1 C-0.67 0.67 -0.34 0.34 0 0 Z " fill="#5A9653" transform="translate(219,166)"/>
<path d="M0 0 C0.99 0 1.98 0 3 0 C3.12375 1.11375 3.2475 2.2275 3.375 3.375 C3.6465813 7.03103677 3.6465813 7.03103677 6 9 C3.6875 10.5625 3.6875 10.5625 1 12 C0.01 11.67 -0.98 11.34 -2 11 C-1.649375 10.2575 -1.29875 9.515 -0.9375 8.75 C0.06948722 5.79617083 -0.1089296 4.87122686 -1 2 C-0.67 1.34 -0.34 0.68 0 0 Z " fill="#538E4C" transform="translate(147,132)"/>
<path d="M0 0 C0.33 0.66 0.66 1.32 1 2 C1.66 2 2.32 2 3 2 C3.33 3.65 3.66 5.3 4 7 C3.01 7 2.02 7 1 7 C1 6.34 1 5.68 1 5 C0.01 5 -0.98 5 -2 5 C-2 4.34 -2 3.68 -2 3 C-2.66 3 -3.32 3 -4 3 C-4.33 3.99 -4.66 4.98 -5 6 C-5.99 6.495 -5.99 6.495 -7 7 C-7 5.68 -7 4.36 -7 3 C-6.34 3 -5.68 3 -5 3 C-5 2.34 -5 1.68 -5 1 C-3.35 0.67 -1.7 0.34 0 0 Z " fill="#5F8F58" transform="translate(161,173)"/>
<path d="M0 0 C1.67542976 0.28604898 3.34385343 0.61781233 5 1 C4.01 1.495 4.01 1.495 3 2 C3.165 2.928125 3.33 3.85625 3.5 4.8125 C4 8 4 8 4 11 C3.67 10.34 3.34 9.68 3 9 C1.68 9 0.36 9 -1 9 C-1.09765625 2.84765625 -1.09765625 2.84765625 -1 1 C-0.67 0.67 -0.34 0.34 0 0 Z " fill="#628A5C" transform="translate(214,165)"/>
<path d="M0 0 C3.0916909 2.52956528 3.90931332 5.22454612 5 9 C3.02 9.99 3.02 9.99 1 11 C-0.98362069 8.08291076 -0.9876191 6.87619096 -0.625 3.25 C-0.41875 2.1775 -0.2125 1.105 0 0 Z " fill="#529248" transform="translate(100,102)"/>
<path d="M0 0 C1.98 0.66 3.96 1.32 6 2 C3.375 6.875 3.375 6.875 0 8 C0 7.34 0 6.68 0 6 C-0.99 6.33 -1.98 6.66 -3 7 C-3 6.01 -3 5.02 -3 4 C-2.01 4.33 -1.02 4.66 0 5 C0 3.35 0 1.7 0 0 Z " fill="#4A8D45" transform="translate(151,119)"/>
<path d="M0 0 C0.66 0 1.32 0 2 0 C1.5250019 4.98748002 0.10772305 8.06964437 -3 12 C-3.99 12.33 -4.98 12.66 -6 13 C-6.66 12.01 -7.32 11.02 -8 10 C-7.01 10 -6.02 10 -5 10 C-4.67 9.34 -4.34 8.68 -4 8 C-3.34 7.34 -2.68 6.68 -2 6 C-1.28591666 4.01643517 -0.61382258 2.01684563 0 0 Z " fill="#6B9565" transform="translate(196,196)"/>
<path d="M0 0 C0.99 0 1.98 0 3 0 C3.125 2.375 3.125 2.375 3 5 C2.34 5.66 1.68 6.32 1 7 C0.59952556 9.32275177 0.2602896 11.65739357 0 14 C-0.99 13.67 -1.98 13.34 -3 13 C-3 12.34 -3 11.68 -3 11 C-2.34 11 -1.68 11 -1 11 C-1 10.01 -1 9.02 -1 8 C-1.99 8.33 -2.98 8.66 -4 9 C-4 8.34 -4 7.68 -4 7 C-3.34 7 -2.68 7 -2 7 C-0.609883 4.09123087 -0.609883 4.09123087 0 1 C0 0.67 0 0.34 0 0 Z " fill="#67A159" transform="translate(132,109)"/>
<path d="M0 0 C2.46800047 1.15173355 4.04783565 2.04783565 6 4 C6.33 4 6.66 4 7 4 C6.67 6.31 6.34 8.62 6 11 C3.03 10.505 3.03 10.505 0 10 C0.33 9.34 0.66 8.68 1 8 C1.66 8 2.32 8 3 8 C2.37240135 5.07120629 1.41377341 2.63904371 0 0 Z " fill="#588454" transform="translate(191,176)"/>
<path d="M0 0 C-0.33 1.98 -0.66 3.96 -1 6 C-2.65 6.33 -4.3 6.66 -6 7 C-6 4 -6 4 -5 1 C-3 0 -3 0 0 0 Z " fill="#6FA163" transform="translate(314,107)"/>
<path d="M0 0 C1.98 0.66 3.96 1.32 6 2 C5.67 2.99 5.34 3.98 5 5 C3.02 5.33 1.04 5.66 -1 6 C-0.67 4.02 -0.34 2.04 0 0 Z " fill="#5E9C56" transform="translate(165,226)"/>
<path d="M0 0 C0.66 0.66 1.32 1.32 2 2 C1.34 3.32 0.68 4.64 0 6 C-0.66 6 -1.32 6 -2 6 C-2.33 6.66 -2.66 7.32 -3 8 C-3.99 8 -4.98 8 -6 8 C-5.67 6.35 -5.34 4.7 -5 3 C-4.01 3 -3.02 3 -2 3 C-1.34 2.01 -0.68 1.02 0 0 Z " fill="#64A054" transform="translate(136,121)"/>
<path d="M0 0 C1.65 0 3.3 0 5 0 C4.34 1.32 3.68 2.64 3 4 C2.67 3.67 2.34 3.34 2 3 C1.67 4.98 1.34 6.96 1 9 C1.99 9.33 2.98 9.66 4 10 C3.34 10.66 2.68 11.32 2 12 C1.34 11.67 0.68 11.34 0 11 C0 7.37 0 3.74 0 0 Z " fill="#63865F" transform="translate(303,105)"/>
<path d="M0 0 C0.33 0.66 0.66 1.32 1 2 C2.32 1.67 3.64 1.34 5 1 C5 1.99 5 2.98 5 4 C3.35 4.33 1.7 4.66 0 5 C-0.33 5.99 -0.66 6.98 -1 8 C-1.33 7.01 -1.66 6.02 -2 5 C-2.66 4.67 -3.32 4.34 -4 4 C-3.34 3.01 -2.68 2.02 -2 1 C-1.34 1.33 -0.68 1.66 0 2 C0 1.34 0 0.68 0 0 Z " fill="#69A55D" transform="translate(158,89)"/>
<path d="M0 0 C6.75 -0.125 6.75 -0.125 9 1 C8.67 1.99 8.34 2.98 8 4 C7.01 4.33 6.02 4.66 5 5 C4.34 4.67 3.68 4.34 3 4 C3 3.34 3 2.68 3 2 C2.01 2 1.02 2 0 2 C0 1.34 0 0.68 0 0 Z " fill="#589750" transform="translate(165,188)"/>
<path d="M0 0 C2.9719385 1.12451727 5.33440687 2.22293791 8 4 C7.67 4.66 7.34 5.32 7 6 C6.34 5.67 5.68 5.34 5 5 C4.67 5.66 4.34 6.32 4 7 C2 5.1875 2 5.1875 0 3 C0 2.01 0 1.02 0 0 Z " fill="#558B4F" transform="translate(137,73)"/>
<path d="M0 0 C1.65 0.33 3.3 0.66 5 1 C5 1.99 5 2.98 5 4 C3.35 4.66 1.7 5.32 0 6 C-1.125 2.25 -1.125 2.25 0 0 Z " fill="#589850" transform="translate(207,176)"/>
<path d="M0 0 C5.75 1.75 5.75 1.75 8 4 C6.35 4.66 4.7 5.32 3 6 C0 1.125 0 1.125 0 0 Z " fill="#548E4B" transform="translate(129,69)"/>
<path d="M0 0 C0 3.3 0 6.6 0 10 C-0.99 9.67 -1.98 9.34 -3 9 C-3 6.36 -3 3.72 -3 1 C-1 0 -1 0 0 0 Z " fill="#1A1A1A" transform="translate(233,59)"/>
<path d="M0 0 C1.32 0.33 2.64 0.66 4 1 C0.80009492 3.74277578 -2.00499382 5.6302836 -6 7 C-6 6.34 -6 5.68 -6 5 C-5.34 5 -4.68 5 -4 5 C-4 4.34 -4 3.68 -4 3 C-3.01 2.67 -2.02 2.34 -1 2 C-0.67 1.34 -0.34 0.68 0 0 Z " fill="#679161" transform="translate(186,223)"/>
<path d="M0 0 C0.66 0 1.32 0 2 0 C2 2.64 2 5.28 2 8 C0.68 8 -0.64 8 -2 8 C-1.34 5.36 -0.68 2.72 0 0 Z " fill="#4F7E4C" transform="translate(164,125)"/>
<path d="M0 0 C0.99 0.33 1.98 0.66 3 1 C3 5 3 5 1.5 6.75 C1.005 7.1625 0.51 7.575 0 8 C0 7.34 0 6.68 0 6 C-0.66 6 -1.32 6 -2 6 C-1.34 4.02 -0.68 2.04 0 0 Z " fill="#4B8F46" transform="translate(153,110)"/>
<path d="M0 0 C2.0625 1.6875 2.0625 1.6875 4 4 C3.75 6.75 3.75 6.75 3 9 C0 5.125 0 5.125 0 4 C-0.33 3.01 -0.66 2.02 -1 1 C-0.67 0.67 -0.34 0.34 0 0 Z " fill="#4E8B46" transform="translate(148,103)"/>
<path d="M0 0 C0.7425 0.61875 1.485 1.2375 2.25 1.875 C4.48801188 3.60437281 6.43739987 4.86106661 9 6 C7.234375 6.65234375 7.234375 6.65234375 5 7 C3.078125 6.00390625 3.078125 6.00390625 1.25 4.5625 C0.63640625 4.08941406 0.0228125 3.61632812 -0.609375 3.12890625 C-1.06828125 2.75636719 -1.5271875 2.38382813 -2 2 C-1.34 1.34 -0.68 0.68 0 0 Z " fill="#4F814B" transform="translate(121,147)"/>
<path d="M0 0 C0.66 0 1.32 0 2 0 C2.103125 1.093125 2.20625 2.18625 2.3125 3.3125 C2.97307727 6.85559629 3.2027092 7.93243723 6 10 C3 10 3 10 1.3125 8.9375 C-0.65926927 6.02679298 -0.19356822 3.41970529 0 0 Z " fill="#222222" transform="translate(296,111)"/>
<path d="M0 0 C3.79450934 0.39253545 5.51015791 2.24338912 8 5 C4.17902761 4.46930939 1.93828597 3.50298434 -1 1 C-0.67 0.67 -0.34 0.34 0 0 Z " fill="#6A9464" transform="translate(174,153)"/>
<path d="M0 0 C2.97 0.495 2.97 0.495 6 1 C6.33 2.32 6.66 3.64 7 5 C4.625 4.75 4.625 4.75 2 4 C0.6875 1.9375 0.6875 1.9375 0 0 Z " fill="#598154" transform="translate(165,194)"/>
<path d="M0 0 C0.99 0.495 0.99 0.495 2 1 C2.8125 3.8125 2.8125 3.8125 3 7 C2.01 8.32 1.02 9.64 0 11 C0 7.37 0 3.74 0 0 Z " fill="#63A35B" transform="translate(93,119)"/>
<path d="M0 0 C4.87362847 0.45336079 7.39042389 1.7089159 11 5 C6.87248551 4.39301257 3.6678852 2.96189209 0 1 C0 0.67 0 0.34 0 0 Z " fill="#232424" transform="translate(302,122)"/>
<path d="M0 0 C3.82946843 1.45255699 5.12050295 3.42895561 7 7 C6.01 7 5.02 7 4 7 C0 2.65714286 0 2.65714286 0 0 Z " fill="#549649" transform="translate(93,113)"/>
<path d="M0 0 C2.97 0.495 2.97 0.495 6 1 C6 1.99 6 2.98 6 4 C4.35 3.67 2.7 3.34 1 3 C0.67 2.01 0.34 1.02 0 0 Z " fill="#618A5C" transform="translate(309,103)"/>
<path d="M0 0 C0.144375 0.61875 0.28875 1.2375 0.4375 1.875 C0.93152225 4.03258322 0.93152225 4.03258322 2 6 C1.01 6 0.02 6 -1 6 C-1 5.34 -1 4.68 -1 4 C-2.32 3.34 -3.64 2.68 -5 2 C-4.01 1.67 -3.02 1.34 -2 1 C-1.34 1.33 -0.68 1.66 0 2 C0 1.34 0 0.68 0 0 Z " fill="#1B1B1B" transform="translate(73,141)"/>
<path d="M0 0 C0.99 0 1.98 0 3 0 C3.33 0.66 3.66 1.32 4 2 C4.99 2.33 5.98 2.66 7 3 C7 3.66 7 4.32 7 5 C5.02 5 3.04 5 1 5 C0.67 3.35 0.34 1.7 0 0 Z " fill="#689D5F" transform="translate(150,82)"/>
<path d="M0 0 C1.98 0.66 3.96 1.32 6 2 C5.67 2.99 5.34 3.98 5 5 C3.35 4.67 1.7 4.34 0 4 C0 2.68 0 1.36 0 0 Z " fill="#548F4B" transform="translate(218,170)"/>
<path d="M0 0 C0.99 0 1.98 0 3 0 C2.67 0.99 2.34 1.98 2 3 C-0.5625 4.1875 -0.5625 4.1875 -3 5 C-3.33 4.34 -3.66 3.68 -4 3 C-3.34 2.34 -2.68 1.68 -2 1 C-1.34 1.33 -0.68 1.66 0 2 C0 1.34 0 0.68 0 0 Z " fill="#68965C" transform="translate(134,148)"/>
<path d="M0 0 C0.33 0 0.66 0 1 0 C1 4.95 1 9.9 1 15 C0.67 15 0.34 15 0 15 C0 10.05 0 5.1 0 0 Z " fill="#708D6C" transform="translate(154,195)"/>
<path d="M0 0 C0.33 0 0.66 0 1 0 C1 4.95 1 9.9 1 15 C0.67 15 0.34 15 0 15 C0 10.05 0 5.1 0 0 Z " fill="#282828" transform="translate(180,105)"/>
<path d="M0 0 C0.66 0 1.32 0 2 0 C2 1.65 2 3.3 2 5 C1.34 5 0.68 5 0 5 C0 3.35 0 1.7 0 0 Z " fill="#000000" transform="translate(300,109)"/>
<path d="M0 0 C1.98 0.66 3.96 1.32 6 2 C6 2.33 6 2.66 6 3 C4.35 3 2.7 3 1 3 C0.67 2.01 0.34 1.02 0 0 Z " fill="#3F473F" transform="translate(315,102)"/>
<path d="M0 0 C0.66 0.66 1.32 1.32 2 2 C1.34 2 0.68 2 0 2 C0 1.34 0 0.68 0 0 Z " fill="#666D66" transform="translate(225,163)"/>
<path d="" fill="#7A856E" transform="translate(0,0)"/>
<path d="M0 0 C2 1 2 1 2 1 Z " fill="#151515" transform="translate(301,118)"/>
<path d="M0 0 C2 1 2 1 2 1 Z " fill="#0B0B0B" transform="translate(227,104)"/>
<path d="" fill="#808080" transform="translate(0,0)"/>
<path d="" fill="#000000" transform="translate(0,0)"/>
<path d="" fill="#6D6D6D" transform="translate(0,0)"/>
<path d="" fill="#669966" transform="translate(0,0)"/>
<path d="" fill="#808080" transform="translate(0,0)"/>
<path d="" fill="#808080" transform="translate(0,0)"/>
<path d="" fill="#808080" transform="translate(0,0)"/>
<path d="" fill="#808080" transform="translate(0,0)"/>
<path d="" fill="#669966" transform="translate(0,0)"/>
<path d="" fill="#6D6D6D" transform="translate(0,0)"/>
<path d="" fill="#808080" transform="translate(0,0)"/>
<path d="" fill="#808080" transform="translate(0,0)"/>
<path d="" fill="#000000" transform="translate(0,0)"/>
<path d="" fill="#000000" transform="translate(0,0)"/>
<path d="" fill="#000000" transform="translate(0,0)"/>
<path d="" fill="#000000" transform="translate(0,0)"/>
<path d="" fill="#000000" transform="translate(0,0)"/>
<path d="" fill="#000000" transform="translate(0,0)"/>
<path d="" fill="#000000" transform="translate(0,0)"/>
<path d="" fill="#000000" transform="translate(0,0)"/>
<path d="" fill="#000000" transform="translate(0,0)"/>
<path d="" fill="#555555" transform="translate(0,0)"/>
<path d="" fill="#202020" transform="translate(0,0)"/>
<path d="" fill="#333333" transform="translate(0,0)"/>
<path d="" fill="#1A1A1A" transform="translate(0,0)"/>
<path d="" fill="#333333" transform="translate(0,0)"/>
<path d="" fill="#000000" transform="translate(0,0)"/>
<path d="" fill="#404040" transform="translate(0,0)"/>
<path d="" fill="#000000" transform="translate(0,0)"/>
<path d="" fill="#404040" transform="translate(0,0)"/>
<path d="" fill="#000000" transform="translate(0,0)"/>
<path d="" fill="#000000" transform="translate(0,0)"/>
<path d="" fill="#000000" transform="translate(0,0)"/>
<path d="" fill="#000000" transform="translate(0,0)"/>
<path d="" fill="#333333" transform="translate(0,0)"/>
<path d="" fill="#000000" transform="translate(0,0)"/>
<path d="" fill="#000000" transform="translate(0,0)"/>
</svg>
