<?xml version="1.0" encoding="UTF-8"?>
<!DOCTYPE svg PUBLIC "-//W3C//DTD SVG 1.1//EN" "http://www.w3.org/Graphics/SVG/1.1/DTD/svg11.dtd">
<svg xmlns="http://www.w3.org/2000/svg" version="1.1" width="477px" height="523px" style="shape-rendering:geometricPrecision; text-rendering:geometricPrecision; image-rendering:optimizeQuality; fill-rule:evenodd; clip-rule:evenodd" xmlns:xlink="http://www.w3.org/1999/xlink">
<g><path style="opacity:0.998" fill="#427fb0" d="M 189.5,-0.5 C 207.5,-0.5 225.5,-0.5 243.5,-0.5C 253.029,0.953893 262.696,2.45389 272.5,4C 279.706,5.78378 286.373,8.61711 292.5,12.5C 286.831,11.1653 281.164,9.832 275.5,8.5C 275.5,10.1667 275.5,11.8333 275.5,13.5C 274.127,13.6567 272.793,13.49 271.5,13C 271.167,12 270.833,11 270.5,10C 266.271,8.50245 263.271,9.66912 261.5,13.5C 262.025,14.1924 262.692,14.6924 263.5,15C 255.392,16.38 249.892,21.2134 247,29.5C 244.564,31.4673 242.064,33.134 239.5,34.5C 238.56,37.7143 237.06,40.7143 235,43.5C 231.008,46.4925 227.342,49.8258 224,53.5C 223.667,55.1667 223.333,56.8333 223,58.5C 220.833,59.3333 219.333,60.8333 218.5,63C 217.552,63.4828 216.552,63.6495 215.5,63.5C 215.5,64.8333 215.5,66.1667 215.5,67.5C 214.178,67.33 213.011,67.6634 212,68.5C 210.333,71.5 208.667,74.5 207,77.5C 204.427,78.8065 202.094,80.4731 200,82.5C 198.397,85.6115 196.563,88.6115 194.5,91.5C 193.833,91.8333 193.167,92.1667 192.5,92.5C 191.548,90.9547 191.215,89.288 191.5,87.5C 190.022,87.238 188.689,87.5713 187.5,88.5C 186.833,89.8333 185.833,90.8333 184.5,91.5C 183.571,92.6888 183.238,94.0222 183.5,95.5C 194.176,95.9449 204.843,96.6116 215.5,97.5C 215.376,98.1067 215.043,98.44 214.5,98.5C 180.337,97.5017 146.004,97.1683 111.5,97.5C 111.5,79.8333 111.5,62.1667 111.5,44.5C 111.5,44.1667 111.5,43.8333 111.5,43.5C 112.497,60.9921 112.83,78.6588 112.5,96.5C 120.174,96.6664 127.841,96.4997 135.5,96C 140.711,92.0047 143.378,86.838 143.5,80.5C 147.295,80.0535 150.962,79.0535 154.5,77.5C 156.044,77.7896 157.377,78.4563 158.5,79.5C 158.833,79.1667 159.167,78.8333 159.5,78.5C 158.846,76.8849 158.346,75.2182 158,73.5C 157.586,73.9574 157.086,74.2907 156.5,74.5C 154.615,73.3906 152.615,72.5573 150.5,72C 155.962,73.1514 161.295,72.6514 166.5,70.5C 167.705,69.4231 168.372,68.0898 168.5,66.5C 174.463,65.1956 177.129,61.529 176.5,55.5C 178.942,55.8808 179.609,55.2141 178.5,53.5C 181.495,50.1275 180.828,48.1275 176.5,47.5C 176.768,44.8806 176.435,42.3806 175.5,40C 178.109,37.933 180.609,35.7663 183,33.5C 183.333,31.8333 183.667,30.1667 184,28.5C 186.167,27.6667 187.667,26.1667 188.5,24C 189.448,23.5172 190.448,23.3505 191.5,23.5C 191.336,26.1873 191.503,28.854 192,31.5C 196.703,26.8226 200.537,21.6559 203.5,16C 204.793,15.51 206.127,15.3433 207.5,15.5C 207.5,10.8333 207.5,6.16667 207.5,1.5C 201.301,1.34843 195.301,0.681766 189.5,-0.5 Z"/></g>
<g><path style="opacity:1" fill="#4a87b9" d="M 185.5,-0.5 C 186.833,-0.5 188.167,-0.5 189.5,-0.5C 195.301,0.681766 201.301,1.34843 207.5,1.5C 207.5,6.16667 207.5,10.8333 207.5,15.5C 206.127,15.3433 204.793,15.51 203.5,16C 200.537,21.6559 196.703,26.8226 192,31.5C 191.503,28.854 191.336,26.1873 191.5,23.5C 190.448,23.3505 189.448,23.5172 188.5,24C 187.667,26.1667 186.167,27.6667 184,28.5C 183.667,30.1667 183.333,31.8333 183,33.5C 180.609,35.7663 178.109,37.933 175.5,40C 176.435,42.3806 176.768,44.8806 176.5,47.5C 180.828,48.1275 181.495,50.1275 178.5,53.5C 179.609,55.2141 178.942,55.8808 176.5,55.5C 177.129,61.529 174.463,65.1956 168.5,66.5C 168.372,68.0898 167.705,69.4231 166.5,70.5C 161.295,72.6514 155.962,73.1514 150.5,72C 152.615,72.5573 154.615,73.3906 156.5,74.5C 157.086,74.2907 157.586,73.9574 158,73.5C 158.346,75.2182 158.846,76.8849 159.5,78.5C 159.167,78.8333 158.833,79.1667 158.5,79.5C 157.377,78.4563 156.044,77.7896 154.5,77.5C 150.962,79.0535 147.295,80.0535 143.5,80.5C 143.378,86.838 140.711,92.0047 135.5,96C 127.841,96.4997 120.174,96.6664 112.5,96.5C 112.83,78.6588 112.497,60.9921 111.5,43.5C 112.299,31.3964 117.633,21.8964 127.5,15C 134.442,11.0199 141.776,8.01986 149.5,6C 161.512,3.0949 173.512,0.928229 185.5,-0.5 Z M 168.5,66.5 C 158.266,72.6 149.099,71.2667 141,62.5C 134.672,49.1139 138.172,39.2806 151.5,33C 165.379,31.2643 173.379,37.2643 175.5,51C 175.18,57.1363 172.846,62.3029 168.5,66.5 Z"/></g>
<g><path style="opacity:1" fill="#3c78aa" d="M 292.5,12.5 C 292.137,14.9115 293.137,16.4115 295.5,17C 295.043,17.414 294.709,17.914 294.5,18.5C 295.766,19.3624 297.099,20.0291 298.5,20.5C 298.539,21.5832 298.873,22.5832 299.5,23.5C 298.635,24.5827 297.635,24.7494 296.5,24C 293.984,21.3167 291.317,18.8167 288.5,16.5C 288.167,17.3333 287.833,18.1667 287.5,19C 288.502,21.1684 289.502,23.335 290.5,25.5C 289.566,28.9648 288.066,29.2981 286,26.5C 283.773,28.6068 281.773,30.9401 280,33.5C 279.517,34.448 279.351,35.448 279.5,36.5C 276.936,37.866 274.436,39.5327 272,41.5C 270.366,44.48 268.7,47.48 267,50.5C 262.807,52.0259 259.974,54.8592 258.5,59C 257.552,59.4828 256.552,59.6495 255.5,59.5C 255.662,61.5273 255.495,63.5273 255,65.5C 250.361,69.3731 246.195,73.7064 242.5,78.5C 241.675,79.3857 240.675,79.719 239.5,79.5C 239.5,81.1667 239.5,82.8333 239.5,84.5C 237.24,85.1389 235.24,86.3055 233.5,88C 232.194,90.5728 230.527,92.9061 228.5,95C 225.518,95.498 222.518,95.6646 219.5,95.5C 219.117,98.462 220.117,99.462 222.5,98.5C 223.833,100.167 223.833,101.833 222.5,103.5C 221.575,102.359 220.741,102.359 220,103.5C 219.818,106.226 219.318,108.893 218.5,111.5C 217.509,107.555 217.176,103.555 217.5,99.5C 216.5,99.5 215.5,99.5 214.5,99.5C 214.5,99.1667 214.5,98.8333 214.5,98.5C 215.043,98.44 215.376,98.1067 215.5,97.5C 204.843,96.6116 194.176,95.9449 183.5,95.5C 183.238,94.0222 183.571,92.6888 184.5,91.5C 185.833,90.8333 186.833,89.8333 187.5,88.5C 188.689,87.5713 190.022,87.238 191.5,87.5C 191.215,89.288 191.548,90.9547 192.5,92.5C 193.167,92.1667 193.833,91.8333 194.5,91.5C 196.563,88.6115 198.397,85.6115 200,82.5C 202.094,80.4731 204.427,78.8065 207,77.5C 208.667,74.5 210.333,71.5 212,68.5C 213.011,67.6634 214.178,67.33 215.5,67.5C 215.5,66.1667 215.5,64.8333 215.5,63.5C 216.552,63.6495 217.552,63.4828 218.5,63C 219.333,60.8333 220.833,59.3333 223,58.5C 223.333,56.8333 223.667,55.1667 224,53.5C 227.342,49.8258 231.008,46.4925 235,43.5C 237.06,40.7143 238.56,37.7143 239.5,34.5C 242.064,33.134 244.564,31.4673 247,29.5C 249.892,21.2134 255.392,16.38 263.5,15C 262.692,14.6924 262.025,14.1924 261.5,13.5C 263.271,9.66912 266.271,8.50245 270.5,10C 270.833,11 271.167,12 271.5,13C 272.793,13.49 274.127,13.6567 275.5,13.5C 275.5,11.8333 275.5,10.1667 275.5,8.5C 281.164,9.832 286.831,11.1653 292.5,12.5 Z"/></g>
<g><path style="opacity:1" fill="#3a75a4" d="M 298.5,20.5 C 302.567,21.5926 305.067,24.2592 306,28.5C 307.615,29.3862 309.115,30.3862 310.5,31.5C 310.5,32.8333 310.5,34.1667 310.5,35.5C 309.325,35.719 308.325,35.3857 307.5,34.5C 305.862,31.6959 304.029,29.0292 302,26.5C 301.667,26.8333 301.333,27.1667 301,27.5C 301.778,30.5488 303.278,33.3821 305.5,36C 304.667,36.8333 303.833,37.6667 303,38.5C 301.976,43.5484 299.643,47.8817 296,51.5C 295.51,52.7932 295.343,54.1266 295.5,55.5C 292.191,55.3077 289.691,56.6411 288,59.5C 287.51,60.7932 287.343,62.1266 287.5,63.5C 286.5,63.5 285.5,63.5 284.5,63.5C 284.5,66.8333 282.833,68.5 279.5,68.5C 279.649,69.552 279.483,70.552 279,71.5C 274,76.8333 269,82.1667 264,87.5C 263.667,88.8333 263.333,90.1667 263,91.5C 260.782,92.9242 259.282,94.9242 258.5,97.5C 256.999,98.7515 255.332,99.7515 253.5,100.5C 252.138,103.236 250.304,105.569 248,107.5C 247.51,108.793 247.343,110.127 247.5,111.5C 246.022,111.238 244.689,111.571 243.5,112.5C 240.665,116.455 237.831,120.455 235,124.5C 228.896,129.765 223.73,135.765 219.5,142.5C 218.311,143.429 216.978,143.762 215.5,143.5C 215.657,144.873 215.49,146.207 215,147.5C 212.667,150.167 210.333,152.833 208,155.5C 207.51,156.793 207.343,158.127 207.5,159.5C 204.191,159.308 201.691,160.641 200,163.5C 199.51,164.793 199.343,166.127 199.5,167.5C 198.127,167.343 196.793,167.51 195.5,168C 192.735,172.135 189.902,176.302 187,180.5C 181.316,184.228 177.316,189.228 175,195.5C 173.309,198.359 170.809,199.692 167.5,199.5C 167.657,200.873 167.49,202.207 167,203.5C 164.842,204.489 163.675,206.156 163.5,208.5C 162.209,208.263 161.209,208.596 160.5,209.5C 159.833,209.5 159.5,209.833 159.5,210.5C 132.153,213.856 113.153,228.189 102.5,253.5C 100.857,253.48 99.5237,254.147 98.5,255.5C 96.9889,277.144 95.9889,298.81 95.5,320.5C 79.8333,320.5 64.1667,320.5 48.5,320.5C 47.5707,319.685 46.5707,318.852 45.5,318C 46.9675,316.902 47.8008,315.402 48,313.5C 48.414,313.957 48.914,314.291 49.5,314.5C 50.8622,311.764 52.6956,309.431 55,307.5C 55.49,306.207 55.6567,304.873 55.5,303.5C 53.712,303.785 52.0453,303.452 50.5,302.5C 52.5734,300.344 54.2401,298.011 55.5,295.5C 56.675,295.719 57.675,295.386 58.5,294.5C 62.1947,289.706 66.3614,285.373 71,281.5C 70.7751,278.175 72.1084,275.842 75,274.5C 76.1667,270.667 78.6667,268.167 82.5,267C 83.8333,263 86.5,260.333 90.5,259C 92.069,255.428 94.4024,252.428 97.5,250C 94.9607,248.195 93.9607,245.695 94.5,242.5C 95.5,242.5 96.5,242.5 97.5,242.5C 97.8647,245.625 98.698,248.625 100,251.5C 102.103,249.697 102.936,247.364 102.5,244.5C 101.448,244.649 100.448,244.483 99.5,244C 100.833,243 100.833,242 99.5,241C 100.025,240.308 100.692,239.808 101.5,239.5C 103.264,241.479 105.264,241.812 107.5,240.5C 105.816,239.146 105.316,237.479 106,235.5C 109.94,231.346 114.44,228.346 119.5,226.5C 119.247,224.173 119.914,222.173 121.5,220.5C 119.838,218.689 119.672,217.022 121,215.5C 121.308,216.308 121.808,216.975 122.5,217.5C 122.833,216.833 123.167,216.167 123.5,215.5C 124.768,216.428 126.101,216.595 127.5,216C 129.611,214.265 131.611,212.432 133.5,210.5C 131.389,209.152 129.555,209.485 128,211.5C 126.149,208.936 124.316,208.936 122.5,211.5C 120.999,210.248 119.332,209.248 117.5,208.5C 121.18,207.236 124.847,207.236 128.5,208.5C 129.478,208.023 130.311,207.357 131,206.5C 131.333,206.833 131.667,207.167 132,207.5C 134.371,205.362 136.204,202.862 137.5,200C 139.24,198.306 141.24,197.139 143.5,196.5C 143.5,194.833 143.5,193.167 143.5,191.5C 146.428,189.105 149.595,186.771 153,184.5C 156.98,178.887 161.646,173.887 167,169.5C 166.775,166.175 168.108,163.842 171,162.5C 172.333,158.5 175,155.833 179,154.5C 180.7,151.48 182.366,148.48 184,145.5C 186.436,143.533 188.936,141.866 191.5,140.5C 191.5,136.167 191.5,131.833 191.5,127.5C 196.833,127.5 202.167,127.5 207.5,127.5C 207.5,122.5 207.5,117.5 207.5,112.5C 191.5,112.5 175.5,112.5 159.5,112.5C 146.167,112.5 132.833,112.5 119.5,112.5C 112.833,112.5 106.167,112.5 99.5,112.5C 86.6774,111.505 73.6774,111.171 60.5,111.5C 111.664,110.501 162.997,110.168 214.5,110.5C 214.5,106.833 214.5,103.167 214.5,99.5C 215.5,99.5 216.5,99.5 217.5,99.5C 217.176,103.555 217.509,107.555 218.5,111.5C 219.318,108.893 219.818,106.226 220,103.5C 220.741,102.359 221.575,102.359 222.5,103.5C 223.833,101.833 223.833,100.167 222.5,98.5C 220.117,99.462 219.117,98.462 219.5,95.5C 222.518,95.6646 225.518,95.498 228.5,95C 230.527,92.9061 232.194,90.5728 233.5,88C 235.24,86.3055 237.24,85.1389 239.5,84.5C 239.5,82.8333 239.5,81.1667 239.5,79.5C 240.675,79.719 241.675,79.3857 242.5,78.5C 246.195,73.7064 250.361,69.3731 255,65.5C 255.495,63.5273 255.662,61.5273 255.5,59.5C 256.552,59.6495 257.552,59.4828 258.5,59C 259.974,54.8592 262.807,52.0259 267,50.5C 268.7,47.48 270.366,44.48 272,41.5C 274.436,39.5327 276.936,37.866 279.5,36.5C 279.351,35.448 279.517,34.448 280,33.5C 281.773,30.9401 283.773,28.6068 286,26.5C 288.066,29.2981 289.566,28.9648 290.5,25.5C 289.502,23.335 288.502,21.1684 287.5,19C 287.833,18.1667 288.167,17.3333 288.5,16.5C 291.317,18.8167 293.984,21.3167 296.5,24C 297.635,24.7494 298.635,24.5827 299.5,23.5C 298.873,22.5832 298.539,21.5832 298.5,20.5 Z"/></g>
<g><path style="opacity:0.988" fill="#5983a5" d="M 292.5,12.5 C 303.019,18.6832 310.686,27.3498 315.5,38.5C 313.983,38.4894 312.816,37.8228 312,36.5C 311.802,34.6183 311.302,32.9516 310.5,31.5C 309.115,30.3862 307.615,29.3862 306,28.5C 305.067,24.2592 302.567,21.5926 298.5,20.5C 297.099,20.0291 295.766,19.3624 294.5,18.5C 294.709,17.914 295.043,17.414 295.5,17C 293.137,16.4115 292.137,14.9115 292.5,12.5 Z"/></g>
<g><path style="opacity:1" fill="#356f9f" d="M 310.5,31.5 C 311.302,32.9516 311.802,34.6183 312,36.5C 312.816,37.8228 313.983,38.4894 315.5,38.5C 315.133,42.9671 315.633,47.3004 317,51.5C 317.333,51.1667 317.667,50.8333 318,50.5C 318.5,59.1603 318.666,67.8269 318.5,76.5C 317.596,77.209 317.263,78.209 317.5,79.5C 312.833,79.5 308.167,79.5 303.5,79.5C 303.5,84.8333 303.5,90.1667 303.5,95.5C 298.167,95.5 292.833,95.5 287.5,95.5C 287.5,100.833 287.5,106.167 287.5,111.5C 273.833,108.5 268.5,113.833 271.5,127.5C 268.15,127.335 264.817,127.502 261.5,128C 260.219,130.403 258.386,132.237 256,133.5C 255.502,136.817 255.335,140.15 255.5,143.5C 252.833,143.5 250.167,143.5 247.5,143.5C 247.649,144.552 247.483,145.552 247,146.5C 244.833,147.333 243.333,148.833 242.5,151C 241.552,151.483 240.552,151.649 239.5,151.5C 239.5,159.5 239.5,167.5 239.5,175.5C 234.167,175.5 228.833,175.5 223.5,175.5C 223.5,180.833 223.5,186.167 223.5,191.5C 218.167,191.5 212.833,191.5 207.5,191.5C 207.5,196.833 207.5,202.167 207.5,207.5C 194.871,208.506 180.205,208.839 163.5,208.5C 163.675,206.156 164.842,204.489 167,203.5C 167.49,202.207 167.657,200.873 167.5,199.5C 170.809,199.692 173.309,198.359 175,195.5C 177.316,189.228 181.316,184.228 187,180.5C 189.902,176.302 192.735,172.135 195.5,168C 196.793,167.51 198.127,167.343 199.5,167.5C 199.343,166.127 199.51,164.793 200,163.5C 201.691,160.641 204.191,159.308 207.5,159.5C 207.343,158.127 207.51,156.793 208,155.5C 210.333,152.833 212.667,150.167 215,147.5C 215.49,146.207 215.657,144.873 215.5,143.5C 216.978,143.762 218.311,143.429 219.5,142.5C 223.73,135.765 228.896,129.765 235,124.5C 237.831,120.455 240.665,116.455 243.5,112.5C 244.689,111.571 246.022,111.238 247.5,111.5C 247.343,110.127 247.51,108.793 248,107.5C 250.304,105.569 252.138,103.236 253.5,100.5C 255.332,99.7515 256.999,98.7515 258.5,97.5C 259.282,94.9242 260.782,92.9242 263,91.5C 263.333,90.1667 263.667,88.8333 264,87.5C 269,82.1667 274,76.8333 279,71.5C 279.483,70.552 279.649,69.552 279.5,68.5C 282.833,68.5 284.5,66.8333 284.5,63.5C 285.5,63.5 286.5,63.5 287.5,63.5C 287.343,62.1266 287.51,60.7932 288,59.5C 289.691,56.6411 292.191,55.3077 295.5,55.5C 295.343,54.1266 295.51,52.7932 296,51.5C 299.643,47.8817 301.976,43.5484 303,38.5C 303.833,37.6667 304.667,36.8333 305.5,36C 303.278,33.3821 301.778,30.5488 301,27.5C 301.333,27.1667 301.667,26.8333 302,26.5C 304.029,29.0292 305.862,31.6959 307.5,34.5C 308.325,35.3857 309.325,35.719 310.5,35.5C 310.5,34.1667 310.5,32.8333 310.5,31.5 Z"/></g>
<g><path style="opacity:0.549" fill="#457093" d="M 315.5,38.5 C 317.718,41.7193 318.885,45.386 319,49.5C 319.667,88.1667 319.667,126.833 319,165.5C 318.237,171.621 316.403,177.287 313.5,182.5C 313.131,180.559 312.464,178.725 311.5,177C 312.449,176.383 313.282,176.549 314,177.5C 316.571,171.785 317.904,165.785 318,159.5C 318.5,138.169 318.667,116.836 318.5,95.5C 318.5,89.1667 318.5,82.8333 318.5,76.5C 318.666,67.8269 318.5,59.1603 318,50.5C 317.667,50.8333 317.333,51.1667 317,51.5C 315.633,47.3004 315.133,42.9671 315.5,38.5 Z"/></g>
<g><path style="opacity:1" fill="#326c9a" d="M 318.5,76.5 C 318.5,82.8333 318.5,89.1667 318.5,95.5C 316.167,95.5 313.833,95.5 311.5,95.5C 311.5,96.8333 311.5,98.1667 311.5,99.5C 308.5,99.1667 307.167,100.5 307.5,103.5C 306.167,103.5 304.833,103.5 303.5,103.5C 303.5,106.167 303.5,108.833 303.5,111.5C 298.882,110.949 296.049,112.949 295,117.5C 292.427,118.806 290.094,120.473 288,122.5C 287.501,126.821 287.334,131.154 287.5,135.5C 286.448,135.351 285.448,135.517 284.5,136C 283.667,138.167 282.167,139.667 280,140.5C 279.517,141.448 279.351,142.448 279.5,143.5C 276.833,143.5 274.167,143.5 271.5,143.5C 271.665,146.85 271.498,150.183 271,153.5C 268.614,154.763 266.781,156.597 265.5,159C 262.183,159.498 258.85,159.665 255.5,159.5C 258.981,171.498 254.648,176.998 242.5,176C 241.667,176.833 240.833,177.667 240,178.5C 239.501,182.821 239.334,187.154 239.5,191.5C 236.15,191.335 232.817,191.502 229.5,192C 228.219,194.403 226.386,196.237 224,197.5C 223.502,200.817 223.335,204.15 223.5,207.5C 235.019,208.585 252.353,208.919 275.5,208.5C 237.197,209.482 198.864,209.815 160.5,209.5C 161.209,208.596 162.209,208.263 163.5,208.5C 180.205,208.839 194.871,208.506 207.5,207.5C 207.5,202.167 207.5,196.833 207.5,191.5C 212.833,191.5 218.167,191.5 223.5,191.5C 223.5,186.167 223.5,180.833 223.5,175.5C 228.833,175.5 234.167,175.5 239.5,175.5C 239.5,167.5 239.5,159.5 239.5,151.5C 240.552,151.649 241.552,151.483 242.5,151C 243.333,148.833 244.833,147.333 247,146.5C 247.483,145.552 247.649,144.552 247.5,143.5C 250.167,143.5 252.833,143.5 255.5,143.5C 255.335,140.15 255.502,136.817 256,133.5C 258.386,132.237 260.219,130.403 261.5,128C 264.817,127.502 268.15,127.335 271.5,127.5C 268.5,113.833 273.833,108.5 287.5,111.5C 287.5,106.167 287.5,100.833 287.5,95.5C 292.833,95.5 298.167,95.5 303.5,95.5C 303.5,90.1667 303.5,84.8333 303.5,79.5C 308.167,79.5 312.833,79.5 317.5,79.5C 317.263,78.209 317.596,77.209 318.5,76.5 Z"/></g>
<g><path style="opacity:0.129" fill="#7595ae" d="M 111.5,44.5 C 111.5,62.1667 111.5,79.8333 111.5,97.5C 146.004,97.1683 180.337,97.5017 214.5,98.5C 179.833,98.5 145.167,98.5 110.5,98.5C 110.17,80.3256 110.503,62.3256 111.5,44.5 Z"/></g>
<g><path style="opacity:1" fill="#306897" d="M 318.5,95.5 C 318.667,116.836 318.5,138.169 318,159.5C 317.904,165.785 316.571,171.785 314,177.5C 313.282,176.549 312.449,176.383 311.5,177C 312.464,178.725 313.131,180.559 313.5,182.5C 306.013,196.255 294.68,205.255 279.5,209.5C 278.432,208.566 277.099,208.232 275.5,208.5C 252.353,208.919 235.019,208.585 223.5,207.5C 223.335,204.15 223.502,200.817 224,197.5C 226.386,196.237 228.219,194.403 229.5,192C 232.817,191.502 236.15,191.335 239.5,191.5C 239.334,187.154 239.501,182.821 240,178.5C 240.833,177.667 241.667,176.833 242.5,176C 254.648,176.998 258.981,171.498 255.5,159.5C 258.85,159.665 262.183,159.498 265.5,159C 266.781,156.597 268.614,154.763 271,153.5C 271.498,150.183 271.665,146.85 271.5,143.5C 274.167,143.5 276.833,143.5 279.5,143.5C 279.351,142.448 279.517,141.448 280,140.5C 282.167,139.667 283.667,138.167 284.5,136C 285.448,135.517 286.448,135.351 287.5,135.5C 287.334,131.154 287.501,126.821 288,122.5C 290.094,120.473 292.427,118.806 295,117.5C 296.049,112.949 298.882,110.949 303.5,111.5C 303.5,108.833 303.5,106.167 303.5,103.5C 304.833,103.5 306.167,103.5 307.5,103.5C 307.167,100.5 308.5,99.1667 311.5,99.5C 311.5,98.1667 311.5,96.8333 311.5,95.5C 313.833,95.5 316.167,95.5 318.5,95.5 Z"/></g>
<g><path style="opacity:1" fill="#4685b8" d="M 99.5,112.5 C 106.167,112.5 112.833,112.5 119.5,112.5C 119.649,113.552 119.483,114.552 119,115.5C 116.667,118.167 114.333,120.833 112,123.5C 111.51,124.793 111.343,126.127 111.5,127.5C 110.022,127.238 108.689,127.571 107.5,128.5C 104.665,132.455 101.831,136.455 99,140.5C 93.3157,144.228 89.3157,149.228 87,155.5C 85.3091,158.359 82.8091,159.692 79.5,159.5C 79.6567,160.873 79.49,162.207 79,163.5C 76.6956,165.431 74.8622,167.764 73.5,170.5C 71.6675,171.248 70.0009,172.248 68.5,173.5C 67.7178,176.076 66.2178,178.076 64,179.5C 63.51,180.793 63.3433,182.127 63.5,183.5C 62.0222,183.238 60.6888,183.571 59.5,184.5C 56.6646,188.455 53.8313,192.455 51,196.5C 46.8333,199.333 43.3333,202.833 40.5,207C 37.5184,207.498 34.5184,207.665 31.5,207.5C 31.6655,211.514 31.4988,215.514 31,219.5C 29.5,220.333 28.3333,221.5 27.5,223C 23.8484,223.499 20.1817,223.665 16.5,223.5C 16.1667,225.5 15.8333,227.5 15.5,229.5C 14.1667,229.5 12.8333,229.5 11.5,229.5C 12.0815,233.315 11.2482,236.649 9,239.5C 7.95627,238.377 7.28961,237.044 7,235.5C 6.33333,236.833 5.33333,237.833 4,238.5C 3.55628,244.11 4.05628,249.61 5.5,255C 4.59391,256.699 4.26057,258.533 4.5,260.5C 2.55602,252.891 0.88935,245.224 -0.5,237.5C -0.5,224.167 -0.5,210.833 -0.5,197.5C 0.495904,197.414 1.32924,197.748 2,198.5C 2.17636,195.118 2.67636,191.785 3.5,188.5C 4.69509,190.297 6.36176,191.297 8.5,191.5C 8.64271,189.738 8.30937,188.071 7.5,186.5C 8.97792,183.368 9.97792,180.035 10.5,176.5C 11.1867,178.274 12.0201,179.941 13,181.5C 13.1667,180.667 13.3333,179.833 13.5,179C 11.9719,176.719 11.4719,174.219 12,171.5C 12.3333,172.5 12.6667,173.5 13,174.5C 16.6824,170.068 17.5158,165.068 15.5,159.5C 20.8333,159.5 26.1667,159.5 31.5,159.5C 30.9334,153.197 33.4334,148.53 39,145.5C 39.3333,143.833 39.6667,142.167 40,140.5C 42.8332,138.03 45.3332,135.197 47.5,132C 50.4939,129.836 53.8272,128.17 57.5,127C 57.4339,124.891 57.1005,122.725 56.5,120.5C 55.2402,119.618 54.0736,118.618 53,117.5C 52.6667,117.833 52.3333,118.167 52,118.5C 51.6258,117.584 51.1258,116.75 50.5,116C 54.0692,115.61 57.4025,114.61 60.5,113C 73.4957,112.5 86.4957,112.333 99.5,112.5 Z"/></g>
<g><path style="opacity:1" fill="#4280b1" d="M 119.5,112.5 C 132.833,112.5 146.167,112.5 159.5,112.5C 155.756,115.761 152.923,119.761 151,124.5C 148.906,126.527 146.573,128.194 144,129.5C 142.054,133.74 139.387,137.406 136,140.5C 135.517,141.448 135.351,142.448 135.5,143.5C 134.448,143.351 133.448,143.517 132.5,144C 131.667,146.167 130.167,147.667 128,148.5C 127.667,150.167 127.333,151.833 127,153.5C 120.185,159.494 113.685,165.828 107.5,172.5C 105.767,175.059 104.267,177.725 103,180.5C 100.906,182.527 98.5728,184.194 96,185.5C 94.054,189.74 91.3873,193.406 88,196.5C 87.5172,197.448 87.3505,198.448 87.5,199.5C 86.448,199.351 85.448,199.517 84.5,200C 83.6667,202.167 82.1667,203.667 80,204.5C 79.6667,206.167 79.3333,207.833 79,209.5C 75.6584,213.174 71.9917,216.508 68,219.5C 66.0655,222.371 64.3988,225.371 63,228.5C 60.9061,230.527 58.5728,232.194 56,233.5C 54.3663,236.48 52.6996,239.48 51,242.5C 49.5806,243.46 48.0806,244.293 46.5,245C 44.9036,248.048 42.7369,250.548 40,252.5C 39.5172,253.448 39.3505,254.448 39.5,255.5C 38.448,255.351 37.448,255.517 36.5,256C 35.6667,258.167 34.1667,259.667 32,260.5C 31.5172,261.448 31.3505,262.448 31.5,263.5C 30.448,263.351 29.448,263.517 28.5,264C 27.6667,266.167 26.1667,267.667 24,268.5C 23.6667,270.167 23.3333,271.833 23,273.5C 19.5714,276.258 16.9048,279.591 15,283.5C 14.3333,284.833 13.6667,284.833 13,283.5C 12.51,284.793 12.3433,286.127 12.5,287.5C 8.45643,279.01 5.78977,270.01 4.5,260.5C 4.26057,258.533 4.59391,256.699 5.5,255C 4.05628,249.61 3.55628,244.11 4,238.5C 5.33333,237.833 6.33333,236.833 7,235.5C 7.28961,237.044 7.95627,238.377 9,239.5C 11.2482,236.649 12.0815,233.315 11.5,229.5C 12.8333,229.5 14.1667,229.5 15.5,229.5C 15.8333,227.5 16.1667,225.5 16.5,223.5C 20.1817,223.665 23.8484,223.499 27.5,223C 28.3333,221.5 29.5,220.333 31,219.5C 31.4988,215.514 31.6655,211.514 31.5,207.5C 34.5184,207.665 37.5184,207.498 40.5,207C 43.3333,202.833 46.8333,199.333 51,196.5C 53.8313,192.455 56.6646,188.455 59.5,184.5C 60.6888,183.571 62.0222,183.238 63.5,183.5C 63.3433,182.127 63.51,180.793 64,179.5C 66.2178,178.076 67.7178,176.076 68.5,173.5C 70.0009,172.248 71.6675,171.248 73.5,170.5C 74.8622,167.764 76.6956,165.431 79,163.5C 79.49,162.207 79.6567,160.873 79.5,159.5C 82.8091,159.692 85.3091,158.359 87,155.5C 89.3157,149.228 93.3157,144.228 99,140.5C 101.831,136.455 104.665,132.455 107.5,128.5C 108.689,127.571 110.022,127.238 111.5,127.5C 111.343,126.127 111.51,124.793 112,123.5C 114.333,120.833 116.667,118.167 119,115.5C 119.483,114.552 119.649,113.552 119.5,112.5 Z"/></g>
<g><path style="opacity:1" fill="#3d79ab" d="M 159.5,112.5 C 175.5,112.5 191.5,112.5 207.5,112.5C 207.5,117.5 207.5,122.5 207.5,127.5C 202.167,127.5 196.833,127.5 191.5,127.5C 191.5,131.833 191.5,136.167 191.5,140.5C 188.936,141.866 186.436,143.533 184,145.5C 182.366,148.48 180.7,151.48 179,154.5C 175,155.833 172.333,158.5 171,162.5C 168.108,163.842 166.775,166.175 167,169.5C 161.646,173.887 156.98,178.887 153,184.5C 149.595,186.771 146.428,189.105 143.5,191.5C 143.5,193.167 143.5,194.833 143.5,196.5C 141.24,197.139 139.24,198.306 137.5,200C 136.204,202.862 134.371,205.362 132,207.5C 131.667,207.167 131.333,206.833 131,206.5C 130.311,207.357 129.478,208.023 128.5,208.5C 124.847,207.236 121.18,207.236 117.5,208.5C 119.332,209.248 120.999,210.248 122.5,211.5C 124.316,208.936 126.149,208.936 128,211.5C 129.555,209.485 131.389,209.152 133.5,210.5C 131.611,212.432 129.611,214.265 127.5,216C 126.101,216.595 124.768,216.428 123.5,215.5C 123.167,216.167 122.833,216.833 122.5,217.5C 121.808,216.975 121.308,216.308 121,215.5C 119.672,217.022 119.838,218.689 121.5,220.5C 119.914,222.173 119.247,224.173 119.5,226.5C 114.44,228.346 109.94,231.346 106,235.5C 105.316,237.479 105.816,239.146 107.5,240.5C 105.264,241.812 103.264,241.479 101.5,239.5C 100.692,239.808 100.025,240.308 99.5,241C 100.833,242 100.833,243 99.5,244C 100.448,244.483 101.448,244.649 102.5,244.5C 102.936,247.364 102.103,249.697 100,251.5C 98.698,248.625 97.8647,245.625 97.5,242.5C 96.5,242.5 95.5,242.5 94.5,242.5C 93.9607,245.695 94.9607,248.195 97.5,250C 94.4024,252.428 92.069,255.428 90.5,259C 86.5,260.333 83.8333,263 82.5,267C 78.6667,268.167 76.1667,270.667 75,274.5C 72.1084,275.842 70.7751,278.175 71,281.5C 66.3614,285.373 62.1947,289.706 58.5,294.5C 57.675,295.386 56.675,295.719 55.5,295.5C 54.2401,298.011 52.5734,300.344 50.5,302.5C 52.0453,303.452 53.712,303.785 55.5,303.5C 55.6567,304.873 55.49,306.207 55,307.5C 52.6956,309.431 50.8622,311.764 49.5,314.5C 48.914,314.291 48.414,313.957 48,313.5C 47.8008,315.402 46.9675,316.902 45.5,318C 46.5707,318.852 47.5707,319.685 48.5,320.5C 30.7828,315.785 18.7828,304.785 12.5,287.5C 12.3433,286.127 12.51,284.793 13,283.5C 13.6667,284.833 14.3333,284.833 15,283.5C 16.9048,279.591 19.5714,276.258 23,273.5C 23.3333,271.833 23.6667,270.167 24,268.5C 26.1667,267.667 27.6667,266.167 28.5,264C 29.448,263.517 30.448,263.351 31.5,263.5C 31.3505,262.448 31.5172,261.448 32,260.5C 34.1667,259.667 35.6667,258.167 36.5,256C 37.448,255.517 38.448,255.351 39.5,255.5C 39.3505,254.448 39.5172,253.448 40,252.5C 42.7369,250.548 44.9036,248.048 46.5,245C 48.0806,244.293 49.5806,243.46 51,242.5C 52.6996,239.48 54.3663,236.48 56,233.5C 58.5728,232.194 60.9061,230.527 63,228.5C 64.3988,225.371 66.0655,222.371 68,219.5C 71.9917,216.508 75.6584,213.174 79,209.5C 79.3333,207.833 79.6667,206.167 80,204.5C 82.1667,203.667 83.6667,202.167 84.5,200C 85.448,199.517 86.448,199.351 87.5,199.5C 87.3505,198.448 87.5172,197.448 88,196.5C 91.3873,193.406 94.054,189.74 96,185.5C 98.5728,184.194 100.906,182.527 103,180.5C 104.267,177.725 105.767,175.059 107.5,172.5C 113.685,165.828 120.185,159.494 127,153.5C 127.333,151.833 127.667,150.167 128,148.5C 130.167,147.667 131.667,146.167 132.5,144C 133.448,143.517 134.448,143.351 135.5,143.5C 135.351,142.448 135.517,141.448 136,140.5C 139.387,137.406 142.054,133.74 144,129.5C 146.573,128.194 148.906,126.527 151,124.5C 152.923,119.761 155.756,115.761 159.5,112.5 Z"/></g>
<g><path style="opacity:0.247" fill="#f6e590" d="M 399.5,119.5 C 396.07,118.286 392.736,116.786 389.5,115C 387.765,114.349 386.098,114.515 384.5,115.5C 383.614,114.675 383.281,113.675 383.5,112.5C 366.5,112.5 349.5,112.5 332.5,112.5C 332.667,132.169 332.5,151.836 332,171.5C 330.961,172.244 330.461,173.244 330.5,174.5C 330.167,174.5 329.833,174.5 329.5,174.5C 329.804,171.478 330.304,168.478 331,165.5C 331.5,147.17 331.667,128.836 331.5,110.5C 348.17,110.333 364.837,110.5 381.5,111C 388.304,112.419 394.304,115.253 399.5,119.5 Z"/></g>
<g><path style="opacity:1" fill="#fee670" d="M 399.5,119.5 C 404.545,122.271 408.211,126.271 410.5,131.5C 409.448,131.649 408.448,131.483 407.5,131C 406.845,129.513 405.845,128.347 404.5,127.5C 404.167,127.833 403.833,128.167 403.5,128.5C 405.139,129.916 405.973,131.583 406,133.5C 403.558,132.18 401.058,131.347 398.5,131C 393.668,133.666 390.002,137.499 387.5,142.5C 385.602,143.734 383.935,143.401 382.5,141.5C 380.999,142.752 379.332,143.752 377.5,144.5C 376.167,146.5 374.833,148.5 373.5,150.5C 368.812,152.174 364.812,154.841 361.5,158.5C 360.311,159.429 358.978,159.762 357.5,159.5C 357.131,164.846 354.798,166.18 350.5,163.5C 348.999,164.752 347.332,165.752 345.5,166.5C 341.867,172.132 337.533,177.132 332.5,181.5C 332.218,178.943 332.051,176.277 332,173.5C 331.617,174.056 331.117,174.389 330.5,174.5C 330.461,173.244 330.961,172.244 332,171.5C 332.5,151.836 332.667,132.169 332.5,112.5C 349.5,112.5 366.5,112.5 383.5,112.5C 383.281,113.675 383.614,114.675 384.5,115.5C 386.098,114.515 387.765,114.349 389.5,115C 392.736,116.786 396.07,118.286 399.5,119.5 Z"/></g>
<g><path style="opacity:1" fill="#4d8bbc" d="M 60.5,111.5 C 73.6774,111.171 86.6774,111.505 99.5,112.5C 86.4957,112.333 73.4957,112.5 60.5,113C 57.4025,114.61 54.0692,115.61 50.5,116C 51.1258,116.75 51.6258,117.584 52,118.5C 52.3333,118.167 52.6667,117.833 53,117.5C 54.0736,118.618 55.2402,119.618 56.5,120.5C 57.1005,122.725 57.4339,124.891 57.5,127C 53.8272,128.17 50.4939,129.836 47.5,132C 45.3332,135.197 42.8332,138.03 40,140.5C 39.6667,142.167 39.3333,143.833 39,145.5C 33.4334,148.53 30.9334,153.197 31.5,159.5C 26.1667,159.5 20.8333,159.5 15.5,159.5C 17.5158,165.068 16.6824,170.068 13,174.5C 12.6667,173.5 12.3333,172.5 12,171.5C 11.4719,174.219 11.9719,176.719 13.5,179C 13.3333,179.833 13.1667,180.667 13,181.5C 12.0201,179.941 11.1867,178.274 10.5,176.5C 9.97792,180.035 8.97792,183.368 7.5,186.5C 8.30937,188.071 8.64271,189.738 8.5,191.5C 6.36176,191.297 4.69509,190.297 3.5,188.5C 2.67636,191.785 2.17636,195.118 2,198.5C 1.32924,197.748 0.495904,197.414 -0.5,197.5C -0.5,196.833 -0.5,196.167 -0.5,195.5C 1.88905,182.539 4.72239,169.539 8,156.5C 16.4546,130.874 33.9546,115.874 60.5,111.5 Z"/></g>
<g><path style="opacity:1" fill="#fee367" d="M 410.5,131.5 C 416.274,139.607 420.44,148.607 423,158.5C 425.689,169.065 427.855,179.731 429.5,190.5C 428.069,190.119 427.236,189.119 427,187.5C 426.98,182.277 425.98,177.277 424,172.5C 423.434,174.723 422.6,176.723 421.5,178.5C 418.982,177.489 418.982,176.156 421.5,174.5C 418.007,170.158 416.673,165.158 417.5,159.5C 417.351,158.448 417.517,157.448 418,156.5C 418.654,157.696 419.154,157.696 419.5,156.5C 418.349,155.269 417.183,155.269 416,156.5C 414.571,153.035 414.737,149.535 416.5,146C 414.89,141.54 411.89,139.707 407.5,140.5C 408.246,141.736 408.579,143.07 408.5,144.5C 409.5,144.5 410.5,144.5 411.5,144.5C 407.443,151.883 401.443,157.216 393.5,160.5C 392.167,162.5 390.833,164.5 389.5,166.5C 387.668,167.248 386.001,168.248 384.5,169.5C 383.065,167.599 381.398,167.266 379.5,168.5C 376.854,170.132 375.521,172.465 375.5,175.5C 370.94,177.78 366.273,180.114 361.5,182.5C 359.013,184.809 357.013,187.476 355.5,190.5C 353.602,191.734 351.935,191.401 350.5,189.5C 346.5,190.833 343.833,193.5 342.5,197.5C 340.999,198.752 339.332,199.752 337.5,200.5C 335.999,209.232 333.832,209.565 331,201.5C 325.001,200.026 324.168,197.193 328.5,193C 327.944,192.617 327.611,192.117 327.5,191.5C 328.497,191.53 329.164,191.03 329.5,190C 328.546,188.092 327.879,186.092 327.5,184C 328.869,180.988 329.536,177.821 329.5,174.5C 329.833,174.5 330.167,174.5 330.5,174.5C 331.117,174.389 331.617,174.056 332,173.5C 332.051,176.277 332.218,178.943 332.5,181.5C 337.533,177.132 341.867,172.132 345.5,166.5C 347.332,165.752 348.999,164.752 350.5,163.5C 354.798,166.18 357.131,164.846 357.5,159.5C 358.978,159.762 360.311,159.429 361.5,158.5C 364.812,154.841 368.812,152.174 373.5,150.5C 374.833,148.5 376.167,146.5 377.5,144.5C 379.332,143.752 380.999,142.752 382.5,141.5C 383.935,143.401 385.602,143.734 387.5,142.5C 390.002,137.499 393.668,133.666 398.5,131C 401.058,131.347 403.558,132.18 406,133.5C 405.973,131.583 405.139,129.916 403.5,128.5C 403.833,128.167 404.167,127.833 404.5,127.5C 405.845,128.347 406.845,129.513 407.5,131C 408.448,131.483 409.448,131.649 410.5,131.5 Z"/></g>
<g><path style="opacity:1" fill="#fee160" d="M 417.5,159.5 C 416.167,159.5 414.833,159.5 413.5,159.5C 413.5,163.5 411.5,165.5 407.5,165.5C 407.5,166.833 407.5,168.167 407.5,169.5C 403.5,169.5 401.5,171.5 401.5,175.5C 398.833,175.5 396.167,175.5 393.5,175.5C 392.389,179.958 389.723,183.291 385.5,185.5C 384.328,185.081 383.328,184.415 382.5,183.5C 381.158,185.005 379.492,185.672 377.5,185.5C 377.5,189.5 375.5,191.5 371.5,191.5C 371.5,192.833 371.5,194.167 371.5,195.5C 364.647,196.846 359.647,200.68 356.5,207C 352.848,207.499 349.182,207.665 345.5,207.5C 345.785,209.288 345.452,210.955 344.5,212.5C 340.855,216.155 336.521,218.489 331.5,219.5C 331.5,220.833 331.5,222.167 331.5,223.5C 327.5,223.5 325.5,225.5 325.5,229.5C 315.343,229.004 309.343,233.671 307.5,243.5C 305.508,243.672 303.842,243.005 302.5,241.5C 300.868,244.146 298.535,245.479 295.5,245.5C 295.5,246.833 295.5,248.167 295.5,249.5C 291.5,249.5 289.5,251.5 289.5,255.5C 286.833,255.5 284.167,255.5 281.5,255.5C 280.389,259.958 277.723,263.291 273.5,265.5C 272.328,265.081 271.328,264.415 270.5,263.5C 269.158,265.005 267.492,265.672 265.5,265.5C 265.5,269.5 263.5,271.5 259.5,271.5C 259.5,272.833 259.5,274.167 259.5,275.5C 255.63,276.799 251.63,277.466 247.5,277.5C 247.5,278.833 247.5,280.167 247.5,281.5C 243.5,281.5 241.5,283.5 241.5,287.5C 238.833,287.5 236.167,287.5 233.5,287.5C 233.785,289.288 233.452,290.955 232.5,292.5C 228.855,296.155 224.521,298.489 219.5,299.5C 219.5,300.833 219.5,302.167 219.5,303.5C 215.5,303.5 213.5,305.5 213.5,309.5C 209.539,310.54 205.539,311.54 201.5,312.5C 198.854,314.132 197.521,316.465 197.5,319.5C 194.833,319.5 192.167,319.5 189.5,319.5C 189.5,323.5 187.5,325.5 183.5,325.5C 183.5,326.833 183.5,328.167 183.5,329.5C 179.678,329.649 177.345,331.649 176.5,335.5C 175.571,334.311 175.238,332.978 175.5,331.5C 174.167,331.5 172.833,331.5 171.5,331.5C 171.5,332.833 171.5,334.167 171.5,335.5C 167.5,335.5 165.5,337.5 165.5,341.5C 161.5,342.833 157.5,344.167 153.5,345.5C 153.5,349.5 151.5,351.5 147.5,351.5C 147.5,352.833 147.5,354.167 147.5,355.5C 143.63,356.799 139.63,357.466 135.5,357.5C 135.5,358.833 135.5,360.167 135.5,361.5C 131.5,361.5 129.5,363.5 129.5,367.5C 126.833,367.5 124.167,367.5 121.5,367.5C 121.785,369.288 121.452,370.955 120.5,372.5C 118.051,374.636 115.384,376.303 112.5,377.5C 112.5,371.5 112.5,365.5 112.5,359.5C 116.853,359.821 119.519,357.821 120.5,353.5C 122.5,352.167 124.5,350.833 126.5,349.5C 127.935,351.401 129.602,351.734 131.5,350.5C 133.013,347.476 135.013,344.809 137.5,342.5C 144.731,339.252 150.731,334.586 155.5,328.5C 158.167,327.167 160.833,325.833 163.5,324.5C 165.005,323.158 165.672,321.492 165.5,319.5C 169.242,318.782 172.242,316.782 174.5,313.5C 175.935,315.401 177.602,315.734 179.5,314.5C 181.833,312.167 184.167,309.833 186.5,307.5C 187.429,306.311 187.762,304.978 187.5,303.5C 191.182,303.665 194.848,303.499 198.5,303C 201.701,297.367 206.367,293.534 212.5,291.5C 213.429,290.311 213.762,288.978 213.5,287.5C 216.892,287.129 219.558,285.463 221.5,282.5C 224.167,281.167 226.833,279.833 229.5,278.5C 230.833,276.5 232.167,274.5 233.5,272.5C 235.332,271.752 236.999,270.752 238.5,269.5C 239.935,271.401 241.602,271.734 243.5,270.5C 245.013,267.476 247.013,264.809 249.5,262.5C 254.273,260.114 258.94,257.78 263.5,255.5C 263.924,251.732 265.924,249.065 269.5,247.5C 270.672,247.919 271.672,248.585 272.5,249.5C 276.5,248.167 279.167,245.5 280.5,241.5C 287.224,237.8 293.224,233.133 298.5,227.5C 299.386,226.675 299.719,225.675 299.5,224.5C 302.448,224.777 305.281,224.444 308,223.5C 308.167,223.167 308.333,222.833 308.5,222.5C 306.314,221.779 304.147,221.113 302,220.5C 305.975,217.735 309.975,218.402 314,222.5C 314.167,222 314.333,221.5 314.5,221C 313.491,219.832 312.491,218.665 311.5,217.5C 313.66,215.169 315.66,212.669 317.5,210C 318.448,209.517 319.448,209.351 320.5,209.5C 320.5,210.833 320.5,212.167 320.5,213.5C 323.5,213.167 325.167,211.5 325.5,208.5C 327.346,208.778 328.68,208.111 329.5,206.5C 326.926,203.347 323.926,200.68 320.5,198.5C 322.079,197.333 323.412,196 324.5,194.5C 324.5,192.5 324.5,190.5 324.5,188.5C 325.5,188.5 326.5,188.5 327.5,188.5C 327.5,189.5 327.5,190.5 327.5,191.5C 327.611,192.117 327.944,192.617 328.5,193C 324.168,197.193 325.001,200.026 331,201.5C 333.832,209.565 335.999,209.232 337.5,200.5C 339.332,199.752 340.999,198.752 342.5,197.5C 343.833,193.5 346.5,190.833 350.5,189.5C 351.935,191.401 353.602,191.734 355.5,190.5C 357.013,187.476 359.013,184.809 361.5,182.5C 366.273,180.114 370.94,177.78 375.5,175.5C 375.521,172.465 376.854,170.132 379.5,168.5C 381.398,167.266 383.065,167.599 384.5,169.5C 386.001,168.248 387.668,167.248 389.5,166.5C 390.833,164.5 392.167,162.5 393.5,160.5C 401.443,157.216 407.443,151.883 411.5,144.5C 410.5,144.5 409.5,144.5 408.5,144.5C 408.579,143.07 408.246,141.736 407.5,140.5C 411.89,139.707 414.89,141.54 416.5,146C 414.737,149.535 414.571,153.035 416,156.5C 417.183,155.269 418.349,155.269 419.5,156.5C 419.154,157.696 418.654,157.696 418,156.5C 417.517,157.448 417.351,158.448 417.5,159.5 Z"/></g>
<g><path style="opacity:1" fill="#fede59" d="M 417.5,159.5 C 416.673,165.158 418.007,170.158 421.5,174.5C 418.982,176.156 418.982,177.489 421.5,178.5C 420.028,182.023 418.861,185.689 418,189.5C 417.825,185.789 417.325,182.122 416.5,178.5C 414.783,179.668 414.116,181.335 414.5,183.5C 411.89,185.568 408.89,187.068 405.5,188C 403.893,190.515 401.56,191.849 398.5,192C 396.5,194.333 394.5,196.667 392.5,199C 391.207,199.49 389.873,199.657 388.5,199.5C 388.5,202.833 386.833,204.5 383.5,204.5C 383.5,205.5 383.5,206.5 383.5,207.5C 377.809,210.183 372.142,213.016 366.5,216C 364.5,218.333 362.5,220.667 360.5,223C 354.5,226 348.5,229 342.5,232C 340.5,234.333 338.5,236.667 336.5,239C 335.207,239.49 333.873,239.657 332.5,239.5C 332.703,241.39 332.037,242.89 330.5,244C 328.687,243.954 327.021,244.12 325.5,244.5C 324.258,246.733 322.924,248.899 321.5,251C 317.826,252.723 314.159,254.39 310.5,256C 308.451,258.593 306.285,261.093 304,263.5C 303.667,262.167 303.333,260.833 303,259.5C 300.632,261.594 298.798,264.094 297.5,267C 293.826,268.723 290.159,270.39 286.5,272C 284.5,274.333 282.5,276.667 280.5,279C 274.5,282 268.5,285 262.5,288C 260.5,290.333 258.5,292.667 256.5,295C 255.207,295.49 253.873,295.657 252.5,295.5C 252.5,298.833 250.833,300.5 247.5,300.5C 247.5,301.5 247.5,302.5 247.5,303.5C 241.809,306.183 236.142,309.016 230.5,312C 228.451,314.593 226.285,317.093 224,319.5C 222.421,318.2 221.255,318.534 220.5,320.5C 218.278,320.178 216.444,320.845 215,322.5C 214.19,326.358 214.357,330.024 215.5,333.5C 249.996,334.498 284.663,334.832 319.5,334.5C 319.667,350.837 319.5,367.17 319,383.5C 318.271,389.543 316.104,394.877 312.5,399.5C 313.149,391.445 314.149,383.445 315.5,375.5C 316.5,375.5 317.5,375.5 318.5,375.5C 318.5,362.5 318.5,349.5 318.5,336.5C 316.5,336.5 314.5,336.5 312.5,336.5C 293.5,336.5 274.5,336.5 255.5,336.5C 246.827,336.334 238.16,336.5 229.5,337C 226.005,340.251 222.005,342.751 217.5,344.5C 216.167,346.5 214.833,348.5 213.5,350.5C 211.668,351.248 210.001,352.248 208.5,353.5C 207.065,351.599 205.398,351.266 203.5,352.5C 201.987,355.524 199.987,358.191 197.5,360.5C 192.727,362.886 188.06,365.22 183.5,367.5C 182.723,370.962 180.723,373.629 177.5,375.5C 176.328,375.081 175.328,374.415 174.5,373.5C 172.999,374.752 171.332,375.752 169.5,376.5C 166.113,381.879 161.446,385.879 155.5,388.5C 151.465,392.2 147.798,396.2 144.5,400.5C 143.311,401.429 141.978,401.762 140.5,401.5C 140.5,400.5 140.5,399.5 140.5,398.5C 141.5,398.5 142.5,398.5 143.5,398.5C 143.719,397.325 143.386,396.325 142.5,395.5C 140.96,397.437 138.96,398.604 136.5,399C 136.043,399.414 135.709,399.914 135.5,400.5C 136.833,401.167 138.167,401.833 139.5,402.5C 137.78,403.934 135.78,404.767 133.5,405C 132.273,406.587 132.606,407.921 134.5,409C 129.548,409.126 129.215,410.293 133.5,412.5C 134.849,412.154 136.183,411.821 137.5,411.5C 137.423,412.75 136.756,413.583 135.5,414C 137.811,413.845 140.144,413.845 142.5,414C 139.879,417.288 140.879,419.121 145.5,419.5C 146.554,419.32 147.554,418.987 148.5,418.5C 148.564,419.365 148.897,420.365 149.5,421.5C 156.982,424.589 164.315,427.589 171.5,430.5C 155.249,427.541 140.583,421.041 127.5,411C 124.223,408.234 121.557,405.067 119.5,401.5C 118.785,397.742 117.285,394.409 115,391.5C 113.525,386.936 112.692,382.27 112.5,377.5C 115.384,376.303 118.051,374.636 120.5,372.5C 121.452,370.955 121.785,369.288 121.5,367.5C 124.167,367.5 126.833,367.5 129.5,367.5C 129.5,363.5 131.5,361.5 135.5,361.5C 135.5,360.167 135.5,358.833 135.5,357.5C 139.63,357.466 143.63,356.799 147.5,355.5C 147.5,354.167 147.5,352.833 147.5,351.5C 151.5,351.5 153.5,349.5 153.5,345.5C 157.5,344.167 161.5,342.833 165.5,341.5C 165.5,337.5 167.5,335.5 171.5,335.5C 171.5,334.167 171.5,332.833 171.5,331.5C 172.833,331.5 174.167,331.5 175.5,331.5C 175.238,332.978 175.571,334.311 176.5,335.5C 177.345,331.649 179.678,329.649 183.5,329.5C 183.5,328.167 183.5,326.833 183.5,325.5C 187.5,325.5 189.5,323.5 189.5,319.5C 192.167,319.5 194.833,319.5 197.5,319.5C 197.521,316.465 198.854,314.132 201.5,312.5C 205.539,311.54 209.539,310.54 213.5,309.5C 213.5,305.5 215.5,303.5 219.5,303.5C 219.5,302.167 219.5,300.833 219.5,299.5C 224.521,298.489 228.855,296.155 232.5,292.5C 233.452,290.955 233.785,289.288 233.5,287.5C 236.167,287.5 238.833,287.5 241.5,287.5C 241.5,283.5 243.5,281.5 247.5,281.5C 247.5,280.167 247.5,278.833 247.5,277.5C 251.63,277.466 255.63,276.799 259.5,275.5C 259.5,274.167 259.5,272.833 259.5,271.5C 263.5,271.5 265.5,269.5 265.5,265.5C 267.492,265.672 269.158,265.005 270.5,263.5C 271.328,264.415 272.328,265.081 273.5,265.5C 277.723,263.291 280.389,259.958 281.5,255.5C 284.167,255.5 286.833,255.5 289.5,255.5C 289.5,251.5 291.5,249.5 295.5,249.5C 295.5,248.167 295.5,246.833 295.5,245.5C 298.535,245.479 300.868,244.146 302.5,241.5C 303.842,243.005 305.508,243.672 307.5,243.5C 309.343,233.671 315.343,229.004 325.5,229.5C 325.5,225.5 327.5,223.5 331.5,223.5C 331.5,222.167 331.5,220.833 331.5,219.5C 336.521,218.489 340.855,216.155 344.5,212.5C 345.452,210.955 345.785,209.288 345.5,207.5C 349.182,207.665 352.848,207.499 356.5,207C 359.647,200.68 364.647,196.846 371.5,195.5C 371.5,194.167 371.5,192.833 371.5,191.5C 375.5,191.5 377.5,189.5 377.5,185.5C 379.492,185.672 381.158,185.005 382.5,183.5C 383.328,184.415 384.328,185.081 385.5,185.5C 389.723,183.291 392.389,179.958 393.5,175.5C 396.167,175.5 398.833,175.5 401.5,175.5C 401.5,171.5 403.5,169.5 407.5,169.5C 407.5,168.167 407.5,166.833 407.5,165.5C 411.5,165.5 413.5,163.5 413.5,159.5C 414.833,159.5 416.167,159.5 417.5,159.5 Z"/></g>
<g><path style="opacity:1" fill="#fedc54" d="M 429.5,190.5 C 429.5,191.833 429.5,193.167 429.5,194.5C 429.395,198.548 429.728,202.548 430.5,206.5C 428.872,202.238 427.872,197.571 427.5,192.5C 426.029,193.381 425.196,194.714 425,196.5C 422.826,191.138 421.493,191.471 421,197.5C 419.983,195.624 419.149,193.624 418.5,191.5C 415.837,195.161 415.837,198.827 418.5,202.5C 417.378,205.736 415.878,206.069 414,203.5C 412.676,206.244 410.509,207.577 407.5,207.5C 406.723,210.962 404.723,213.629 401.5,215.5C 400.328,215.081 399.328,214.415 398.5,213.5C 396.999,214.752 395.332,215.752 393.5,216.5C 390.113,221.879 385.446,225.879 379.5,228.5C 375.693,232.652 371.693,236.319 367.5,239.5C 367.762,238.022 367.429,236.689 366.5,235.5C 363.917,238.997 361.584,242.664 359.5,246.5C 356.638,247.43 354.305,249.097 352.5,251.5C 348.202,248.82 345.869,250.154 345.5,255.5C 342.108,255.871 339.442,257.537 337.5,260.5C 334.833,261.833 332.167,263.167 329.5,264.5C 328.167,266.5 326.833,268.5 325.5,270.5C 322.167,271.167 318.833,271.833 315.5,272.5C 313.987,275.524 311.987,278.191 309.5,280.5C 304.727,282.886 300.06,285.22 295.5,287.5C 294.723,290.962 292.723,293.629 289.5,295.5C 288.328,295.081 287.328,294.415 286.5,293.5C 284.999,294.752 283.332,295.752 281.5,296.5C 278.113,301.879 273.446,305.879 267.5,308.5C 263.391,312.609 259.391,316.609 255.5,320.5C 243.833,320.5 232.167,320.5 220.5,320.5C 221.255,318.534 222.421,318.2 224,319.5C 226.285,317.093 228.451,314.593 230.5,312C 236.142,309.016 241.809,306.183 247.5,303.5C 247.5,302.5 247.5,301.5 247.5,300.5C 250.833,300.5 252.5,298.833 252.5,295.5C 253.873,295.657 255.207,295.49 256.5,295C 258.5,292.667 260.5,290.333 262.5,288C 268.5,285 274.5,282 280.5,279C 282.5,276.667 284.5,274.333 286.5,272C 290.159,270.39 293.826,268.723 297.5,267C 298.798,264.094 300.632,261.594 303,259.5C 303.333,260.833 303.667,262.167 304,263.5C 306.285,261.093 308.451,258.593 310.5,256C 314.159,254.39 317.826,252.723 321.5,251C 322.924,248.899 324.258,246.733 325.5,244.5C 327.021,244.12 328.687,243.954 330.5,244C 332.037,242.89 332.703,241.39 332.5,239.5C 333.873,239.657 335.207,239.49 336.5,239C 338.5,236.667 340.5,234.333 342.5,232C 348.5,229 354.5,226 360.5,223C 362.5,220.667 364.5,218.333 366.5,216C 372.142,213.016 377.809,210.183 383.5,207.5C 383.5,206.5 383.5,205.5 383.5,204.5C 386.833,204.5 388.5,202.833 388.5,199.5C 389.873,199.657 391.207,199.49 392.5,199C 394.5,196.667 396.5,194.333 398.5,192C 401.56,191.849 403.893,190.515 405.5,188C 408.89,187.068 411.89,185.568 414.5,183.5C 414.116,181.335 414.783,179.668 416.5,178.5C 417.325,182.122 417.825,185.789 418,189.5C 418.861,185.689 420.028,182.023 421.5,178.5C 422.6,176.723 423.434,174.723 424,172.5C 425.98,177.277 426.98,182.277 427,187.5C 427.236,189.119 428.069,190.119 429.5,190.5 Z"/></g>
<g><path style="opacity:1" fill="#fedb4e" d="M 430.5,206.5 C 430.5,210.167 430.5,213.833 430.5,217.5C 427.675,217.081 425.509,218.081 424,220.5C 422.667,219.167 421.333,219.167 420,220.5C 420.907,222.998 421.74,225.665 422.5,228.5C 422.167,229.5 421.833,230.5 421.5,231.5C 419.717,229.977 419.051,227.977 419.5,225.5C 417.311,225.207 415.311,224.707 413.5,224C 409.627,228.639 405.294,232.805 400.5,236.5C 399.808,235.975 399.308,235.308 399,234.5C 396.402,235.68 394.736,237.68 394,240.5C 392.468,242.562 390.468,243.896 388,244.5C 387.517,245.448 387.351,246.448 387.5,247.5C 383.189,246.536 380.189,248.036 378.5,252C 373.576,254.3 368.909,256.966 364.5,260C 363.663,261.011 363.33,262.178 363.5,263.5C 356.507,265.748 350.34,269.414 345,274.5C 341.599,274.61 339.599,276.277 339,279.5C 335.803,281.667 332.97,284.167 330.5,287C 326.846,286.925 324.18,288.425 322.5,291.5C 317.749,294.244 313.082,297.078 308.5,300C 307.663,301.011 307.33,302.178 307.5,303.5C 305.473,303.338 303.473,303.505 301.5,304C 297.399,307.391 293.732,311.224 290.5,315.5C 288.574,316.061 286.574,316.227 284.5,316C 283.663,317.011 283.33,318.178 283.5,319.5C 285.099,319.232 286.432,319.566 287.5,320.5C 276.833,320.5 266.167,320.5 255.5,320.5C 259.391,316.609 263.391,312.609 267.5,308.5C 273.446,305.879 278.113,301.879 281.5,296.5C 283.332,295.752 284.999,294.752 286.5,293.5C 287.328,294.415 288.328,295.081 289.5,295.5C 292.723,293.629 294.723,290.962 295.5,287.5C 300.06,285.22 304.727,282.886 309.5,280.5C 311.987,278.191 313.987,275.524 315.5,272.5C 318.833,271.833 322.167,271.167 325.5,270.5C 326.833,268.5 328.167,266.5 329.5,264.5C 332.167,263.167 334.833,261.833 337.5,260.5C 339.442,257.537 342.108,255.871 345.5,255.5C 345.869,250.154 348.202,248.82 352.5,251.5C 354.305,249.097 356.638,247.43 359.5,246.5C 361.584,242.664 363.917,238.997 366.5,235.5C 367.429,236.689 367.762,238.022 367.5,239.5C 371.693,236.319 375.693,232.652 379.5,228.5C 385.446,225.879 390.113,221.879 393.5,216.5C 395.332,215.752 396.999,214.752 398.5,213.5C 399.328,214.415 400.328,215.081 401.5,215.5C 404.723,213.629 406.723,210.962 407.5,207.5C 410.509,207.577 412.676,206.244 414,203.5C 415.878,206.069 417.378,205.736 418.5,202.5C 415.837,198.827 415.837,195.161 418.5,191.5C 419.149,193.624 419.983,195.624 421,197.5C 421.493,191.471 422.826,191.138 425,196.5C 425.196,194.714 426.029,193.381 427.5,192.5C 427.872,197.571 428.872,202.238 430.5,206.5 Z"/></g>
<g><path style="opacity:1" fill="#fae583" d="M 329.5,174.5 C 329.536,177.821 328.869,180.988 327.5,184C 327.879,186.092 328.546,188.092 329.5,190C 329.164,191.03 328.497,191.53 327.5,191.5C 327.5,190.5 327.5,189.5 327.5,188.5C 326.5,188.5 325.5,188.5 324.5,188.5C 324.5,190.5 324.5,192.5 324.5,194.5C 322.805,195.011 321.139,195.678 319.5,196.5C 318.145,198.521 316.479,200.188 314.5,201.5C 320.8,193.234 325.8,184.234 329.5,174.5 Z"/></g>
<g><path style="opacity:0.471" fill="#456a89" d="M 275.5,208.5 C 277.099,208.232 278.432,208.566 279.5,209.5C 239.53,210.483 199.53,210.816 159.5,210.5C 159.5,209.833 159.833,209.5 160.5,209.5C 198.864,209.815 237.197,209.482 275.5,208.5 Z"/></g>
<g><path style="opacity:0.712" fill="#f9de7e" d="M 429.5,194.5 C 432.953,209.441 433.287,224.441 430.5,239.5C 430.5,232.167 430.5,224.833 430.5,217.5C 430.5,213.833 430.5,210.167 430.5,206.5C 429.728,202.548 429.395,198.548 429.5,194.5 Z"/></g>
<g><path style="opacity:1" fill="#fee366" d="M 324.5,194.5 C 323.412,196 322.079,197.333 320.5,198.5C 323.926,200.68 326.926,203.347 329.5,206.5C 328.68,208.111 327.346,208.778 325.5,208.5C 325.167,211.5 323.5,213.167 320.5,213.5C 320.5,212.167 320.5,210.833 320.5,209.5C 319.448,209.351 318.448,209.517 317.5,210C 315.66,212.669 313.66,215.169 311.5,217.5C 312.491,218.665 313.491,219.832 314.5,221C 314.333,221.5 314.167,222 314,222.5C 309.975,218.402 305.975,217.735 302,220.5C 304.147,221.113 306.314,221.779 308.5,222.5C 308.333,222.833 308.167,223.167 308,223.5C 305.281,224.444 302.448,224.777 299.5,224.5C 299.719,225.675 299.386,226.675 298.5,227.5C 293.224,233.133 287.224,237.8 280.5,241.5C 279.167,245.5 276.5,248.167 272.5,249.5C 271.672,248.585 270.672,247.919 269.5,247.5C 265.924,249.065 263.924,251.732 263.5,255.5C 258.94,257.78 254.273,260.114 249.5,262.5C 247.013,264.809 245.013,267.476 243.5,270.5C 241.602,271.734 239.935,271.401 238.5,269.5C 236.999,270.752 235.332,271.752 233.5,272.5C 232.167,274.5 230.833,276.5 229.5,278.5C 226.833,279.833 224.167,281.167 221.5,282.5C 219.558,285.463 216.892,287.129 213.5,287.5C 213.762,288.978 213.429,290.311 212.5,291.5C 206.367,293.534 201.701,297.367 198.5,303C 194.848,303.499 191.182,303.665 187.5,303.5C 187.762,304.978 187.429,306.311 186.5,307.5C 184.167,309.833 181.833,312.167 179.5,314.5C 177.602,315.734 175.935,315.401 174.5,313.5C 172.242,316.782 169.242,318.782 165.5,319.5C 165.672,321.492 165.005,323.158 163.5,324.5C 160.833,325.833 158.167,327.167 155.5,328.5C 150.731,334.586 144.731,339.252 137.5,342.5C 135.013,344.809 133.013,347.476 131.5,350.5C 129.602,351.734 127.935,351.401 126.5,349.5C 124.5,350.833 122.5,352.167 120.5,353.5C 119.519,357.821 116.853,359.821 112.5,359.5C 112.5,351.5 112.5,343.5 112.5,335.5C 113.675,335.719 114.675,335.386 115.5,334.5C 117.008,330.983 119.341,328.149 122.5,326C 131.979,321.673 140.979,316.506 149.5,310.5C 150.833,308.5 152.167,306.5 153.5,304.5C 155.332,303.752 156.999,302.752 158.5,301.5C 162.798,304.18 165.131,302.846 165.5,297.5C 168.5,297.833 169.833,296.5 169.5,293.5C 174.46,292.016 179.126,290.016 183.5,287.5C 183.521,284.465 184.854,282.132 187.5,280.5C 190.661,279.087 193.661,277.42 196.5,275.5C 197.429,274.311 197.762,272.978 197.5,271.5C 201.242,270.782 204.242,268.782 206.5,265.5C 207.935,267.401 209.602,267.734 211.5,266.5C 213.833,264.167 216.167,261.833 218.5,259.5C 219.429,258.311 219.762,256.978 219.5,255.5C 222.247,255.813 224.914,255.48 227.5,254.5C 229.841,249.493 233.507,245.826 238.5,243.5C 242.798,246.18 245.131,244.846 245.5,239.5C 251.622,235.269 258.289,231.769 265.5,229C 266.552,227.284 265.886,226.284 263.5,226C 264.416,225.722 265.082,225.222 265.5,224.5C 274.749,224.309 283.749,222.642 292.5,219.5C 295.448,217.245 298.781,215.578 302.5,214.5C 303.386,213.675 303.719,212.675 303.5,211.5C 306.526,211.163 308.526,209.496 309.5,206.5C 310.882,204.451 312.548,202.785 314.5,201.5C 316.479,200.188 318.145,198.521 319.5,196.5C 321.139,195.678 322.805,195.011 324.5,194.5 Z"/></g>
<g><path style="opacity:1" fill="#fed847" d="M 430.5,217.5 C 430.5,224.833 430.5,232.167 430.5,239.5C 429.833,240.167 429.167,240.833 428.5,241.5C 427.785,239.245 426.452,237.412 424.5,236C 424.833,235.667 425.167,235.333 425.5,235C 424.5,234.333 423.5,234.333 422.5,235C 419.159,239.216 415.492,243.049 411.5,246.5C 404.12,251.237 396.787,255.903 389.5,260.5C 388.106,263.205 386.272,265.538 384,267.5C 383.667,266.167 383.333,264.833 383,263.5C 380.715,265.907 378.549,268.407 376.5,271C 375.207,271.49 373.873,271.657 372.5,271.5C 372.703,273.39 372.037,274.89 370.5,276C 368.687,275.954 367.021,276.12 365.5,276.5C 364.197,278.937 362.53,281.104 360.5,283C 357.503,285.313 354.169,286.98 350.5,288C 348.451,290.593 346.285,293.093 344,295.5C 343.667,294.167 343.333,292.833 343,291.5C 340.629,293.638 338.796,296.138 337.5,299C 335.324,299.163 333.491,299.996 332,301.5C 331.657,304.193 330.324,306.193 328,307.5C 327.667,306.167 327.333,304.833 327,303.5C 324.715,305.907 322.549,308.407 320.5,311C 316.759,312.547 313.092,314.38 309.5,316.5C 308.295,317.577 307.628,318.91 307.5,320.5C 300.833,320.5 294.167,320.5 287.5,320.5C 286.432,319.566 285.099,319.232 283.5,319.5C 283.33,318.178 283.663,317.011 284.5,316C 286.574,316.227 288.574,316.061 290.5,315.5C 293.732,311.224 297.399,307.391 301.5,304C 303.473,303.505 305.473,303.338 307.5,303.5C 307.33,302.178 307.663,301.011 308.5,300C 313.082,297.078 317.749,294.244 322.5,291.5C 324.18,288.425 326.846,286.925 330.5,287C 332.97,284.167 335.803,281.667 339,279.5C 339.599,276.277 341.599,274.61 345,274.5C 350.34,269.414 356.507,265.748 363.5,263.5C 363.33,262.178 363.663,261.011 364.5,260C 368.909,256.966 373.576,254.3 378.5,252C 380.189,248.036 383.189,246.536 387.5,247.5C 387.351,246.448 387.517,245.448 388,244.5C 390.468,243.896 392.468,242.562 394,240.5C 394.736,237.68 396.402,235.68 399,234.5C 399.308,235.308 399.808,235.975 400.5,236.5C 405.294,232.805 409.627,228.639 413.5,224C 415.311,224.707 417.311,225.207 419.5,225.5C 419.051,227.977 419.717,229.977 421.5,231.5C 421.833,230.5 422.167,229.5 422.5,228.5C 421.74,225.665 420.907,222.998 420,220.5C 421.333,219.167 422.667,219.167 424,220.5C 425.509,218.081 427.675,217.081 430.5,217.5 Z"/></g>
<g><path style="opacity:0.964" fill="#fae894" d="M 309.5,206.5 C 308.526,209.496 306.526,211.163 303.5,211.5C 303.719,212.675 303.386,213.675 302.5,214.5C 298.781,215.578 295.448,217.245 292.5,219.5C 283.749,222.642 274.749,224.309 265.5,224.5C 258.5,224.5 251.5,224.5 244.5,224.5C 214.165,224.333 183.832,224.5 153.5,225C 152.672,225.915 151.672,226.581 150.5,227C 146.305,227.332 142.305,228.165 138.5,229.5C 144.425,225.47 151.092,223.303 158.5,223C 197.167,222.667 235.833,222.333 274.5,222C 287.587,219.813 299.253,214.647 309.5,206.5 Z"/></g>
<g><path style="opacity:1" fill="#fee773" d="M 244.5,224.5 C 242.83,228.346 240.497,229.346 237.5,227.5C 234.508,230.122 231.508,232.789 228.5,235.5C 227.571,236.689 227.238,238.022 227.5,239.5C 225.123,239.784 222.956,239.784 221,239.5C 218.696,241.431 216.862,243.764 215.5,246.5C 213.054,248.019 210.721,249.686 208.5,251.5C 207.065,249.599 205.398,249.266 203.5,250.5C 202.248,252.001 201.248,253.668 200.5,255.5C 199.914,255.291 199.414,254.957 199,254.5C 195.697,259.406 191.197,262.74 185.5,264.5C 184.167,266.5 182.833,268.5 181.5,270.5C 179.668,271.248 178.001,272.248 176.5,273.5C 175.252,272.96 174.085,272.293 173,271.5C 170.51,274.46 168.01,277.46 165.5,280.5C 160.831,282.499 156.497,284.999 152.5,288C 151.663,289.011 151.33,290.178 151.5,291.5C 148.5,291.167 147.167,292.5 147.5,295.5C 144.102,295.18 140.768,295.513 137.5,296.5C 135.5,299.833 133.5,303.167 131.5,306.5C 130.672,307.415 129.672,308.081 128.5,308.5C 126.802,307.319 125.135,307.319 123.5,308.5C 121.167,310.833 118.833,313.167 116.5,315.5C 115.571,316.689 115.238,318.022 115.5,319.5C 114.5,319.5 113.5,319.5 112.5,319.5C 112.167,300.821 112.5,282.155 113.5,263.5C 115.273,261.047 116.773,258.381 118,255.5C 118.716,251.616 119.883,247.949 121.5,244.5C 123.379,243.659 125.379,243.325 127.5,243.5C 127.433,240.234 129.099,238.734 132.5,239C 133.167,237.667 134.167,236.667 135.5,236C 135.167,235.667 134.833,235.333 134.5,235C 136.052,233.288 137.385,231.455 138.5,229.5C 142.305,228.165 146.305,227.332 150.5,227C 151.672,226.581 152.672,225.915 153.5,225C 183.832,224.5 214.165,224.333 244.5,224.5 Z"/></g>
<g><path style="opacity:1" fill="#fee66d" d="M 244.5,224.5 C 251.5,224.5 258.5,224.5 265.5,224.5C 265.082,225.222 264.416,225.722 263.5,226C 265.886,226.284 266.552,227.284 265.5,229C 258.289,231.769 251.622,235.269 245.5,239.5C 245.131,244.846 242.798,246.18 238.5,243.5C 233.507,245.826 229.841,249.493 227.5,254.5C 224.914,255.48 222.247,255.813 219.5,255.5C 219.762,256.978 219.429,258.311 218.5,259.5C 216.167,261.833 213.833,264.167 211.5,266.5C 209.602,267.734 207.935,267.401 206.5,265.5C 204.242,268.782 201.242,270.782 197.5,271.5C 197.762,272.978 197.429,274.311 196.5,275.5C 193.661,277.42 190.661,279.087 187.5,280.5C 184.854,282.132 183.521,284.465 183.5,287.5C 179.126,290.016 174.46,292.016 169.5,293.5C 169.833,296.5 168.5,297.833 165.5,297.5C 165.131,302.846 162.798,304.18 158.5,301.5C 156.999,302.752 155.332,303.752 153.5,304.5C 152.167,306.5 150.833,308.5 149.5,310.5C 140.979,316.506 131.979,321.673 122.5,326C 119.341,328.149 117.008,330.983 115.5,334.5C 114.675,335.386 113.675,335.719 112.5,335.5C 112.5,330.167 112.5,324.833 112.5,319.5C 113.5,319.5 114.5,319.5 115.5,319.5C 115.238,318.022 115.571,316.689 116.5,315.5C 118.833,313.167 121.167,310.833 123.5,308.5C 125.135,307.319 126.802,307.319 128.5,308.5C 129.672,308.081 130.672,307.415 131.5,306.5C 133.5,303.167 135.5,299.833 137.5,296.5C 140.768,295.513 144.102,295.18 147.5,295.5C 147.167,292.5 148.5,291.167 151.5,291.5C 151.33,290.178 151.663,289.011 152.5,288C 156.497,284.999 160.831,282.499 165.5,280.5C 168.01,277.46 170.51,274.46 173,271.5C 174.085,272.293 175.252,272.96 176.5,273.5C 178.001,272.248 179.668,271.248 181.5,270.5C 182.833,268.5 184.167,266.5 185.5,264.5C 191.197,262.74 195.697,259.406 199,254.5C 199.414,254.957 199.914,255.291 200.5,255.5C 201.248,253.668 202.248,252.001 203.5,250.5C 205.398,249.266 207.065,249.599 208.5,251.5C 210.721,249.686 213.054,248.019 215.5,246.5C 216.862,243.764 218.696,241.431 221,239.5C 222.956,239.784 225.123,239.784 227.5,239.5C 227.238,238.022 227.571,236.689 228.5,235.5C 231.508,232.789 234.508,230.122 237.5,227.5C 240.497,229.346 242.83,228.346 244.5,224.5 Z"/></g>
<g><path style="opacity:1" fill="#fce989" d="M 138.5,229.5 C 137.385,231.455 136.052,233.288 134.5,235C 134.833,235.333 135.167,235.667 135.5,236C 134.167,236.667 133.167,237.667 132.5,239C 129.099,238.734 127.433,240.234 127.5,243.5C 125.379,243.325 123.379,243.659 121.5,244.5C 125.606,237.727 131.273,232.727 138.5,229.5 Z"/></g>
<g><path style="opacity:1" fill="#fed641" d="M 428.5,241.5 C 428.424,248.731 427.091,255.731 424.5,262.5C 424.043,263.298 423.376,263.631 422.5,263.5C 420.824,265.886 419.49,268.553 418.5,271.5C 417.511,267.893 417.177,264.226 417.5,260.5C 416.5,260.5 415.5,260.5 414.5,260.5C 414.817,264.172 413.151,265.838 409.5,265.5C 409.677,267.981 408.677,269.814 406.5,271C 403.518,271.498 400.518,271.665 397.5,271.5C 397.5,275.5 395.5,277.5 391.5,277.5C 391.5,278.833 391.5,280.167 391.5,281.5C 387.701,281.792 385.201,283.792 384,287.5C 383.751,286.376 383.251,285.376 382.5,284.5C 382.167,284.667 381.833,284.833 381.5,285C 378.725,288.034 376.058,291.201 373.5,294.5C 371.604,295.466 369.604,295.799 367.5,295.5C 367.5,296.833 367.5,298.167 367.5,299.5C 366.167,299.5 364.833,299.5 363.5,299.5C 363.5,300.833 363.5,302.167 363.5,303.5C 359.5,303.5 357.5,305.5 357.5,309.5C 354.102,309.18 350.768,309.513 347.5,310.5C 344.427,313.069 341.927,316.069 340,319.5C 339,319.167 338,318.833 337,318.5C 334.723,319.117 332.556,319.784 330.5,320.5C 322.833,320.5 315.167,320.5 307.5,320.5C 307.628,318.91 308.295,317.577 309.5,316.5C 313.092,314.38 316.759,312.547 320.5,311C 322.549,308.407 324.715,305.907 327,303.5C 327.333,304.833 327.667,306.167 328,307.5C 330.324,306.193 331.657,304.193 332,301.5C 333.491,299.996 335.324,299.163 337.5,299C 338.796,296.138 340.629,293.638 343,291.5C 343.333,292.833 343.667,294.167 344,295.5C 346.285,293.093 348.451,290.593 350.5,288C 354.169,286.98 357.503,285.313 360.5,283C 362.53,281.104 364.197,278.937 365.5,276.5C 367.021,276.12 368.687,275.954 370.5,276C 372.037,274.89 372.703,273.39 372.5,271.5C 373.873,271.657 375.207,271.49 376.5,271C 378.549,268.407 380.715,265.907 383,263.5C 383.333,264.833 383.667,266.167 384,267.5C 386.272,265.538 388.106,263.205 389.5,260.5C 396.787,255.903 404.12,251.237 411.5,246.5C 415.492,243.049 419.159,239.216 422.5,235C 423.5,234.333 424.5,234.333 425.5,235C 425.167,235.333 424.833,235.667 424.5,236C 426.452,237.412 427.785,239.245 428.5,241.5 Z"/></g>
<g><path style="opacity:1" fill="#fed43b" d="M 422.5,263.5 C 422.665,266.518 422.498,269.518 422,272.5C 417.864,281.421 414.03,290.421 410.5,299.5C 409.5,299.5 408.5,299.5 407.5,299.5C 407.5,300.833 407.5,302.167 407.5,303.5C 403.849,303.162 402.183,304.828 402.5,308.5C 401.022,308.238 399.689,308.571 398.5,309.5C 398.709,310.086 399.043,310.586 399.5,311C 398.207,311.49 396.873,311.657 395.5,311.5C 395.703,313.39 395.037,314.89 393.5,316C 390.244,317.502 386.911,318.835 383.5,320C 365.836,320.5 348.17,320.667 330.5,320.5C 332.556,319.784 334.723,319.117 337,318.5C 338,318.833 339,319.167 340,319.5C 341.927,316.069 344.427,313.069 347.5,310.5C 350.768,309.513 354.102,309.18 357.5,309.5C 357.5,305.5 359.5,303.5 363.5,303.5C 363.5,302.167 363.5,300.833 363.5,299.5C 364.833,299.5 366.167,299.5 367.5,299.5C 367.5,298.167 367.5,296.833 367.5,295.5C 369.604,295.799 371.604,295.466 373.5,294.5C 376.058,291.201 378.725,288.034 381.5,285C 381.833,284.833 382.167,284.667 382.5,284.5C 383.251,285.376 383.751,286.376 384,287.5C 385.201,283.792 387.701,281.792 391.5,281.5C 391.5,280.167 391.5,278.833 391.5,277.5C 395.5,277.5 397.5,275.5 397.5,271.5C 400.518,271.665 403.518,271.498 406.5,271C 408.677,269.814 409.677,267.981 409.5,265.5C 413.151,265.838 414.817,264.172 414.5,260.5C 415.5,260.5 416.5,260.5 417.5,260.5C 417.177,264.226 417.511,267.893 418.5,271.5C 419.49,268.553 420.824,265.886 422.5,263.5 Z"/></g>
<g><path style="opacity:1" fill="#517b9f" d="M 102.5,253.5 C 100.89,258.713 99.7236,264.047 99,269.5C 98.5001,287.164 98.3334,304.83 98.5,322.5C 82.8298,322.667 67.1631,322.5 51.5,322C 50.2625,321.768 49.2625,321.268 48.5,320.5C 64.1667,320.5 79.8333,320.5 95.5,320.5C 95.9889,298.81 96.9889,277.144 98.5,255.5C 99.5237,254.147 100.857,253.48 102.5,253.5 Z"/></g>
<g><path style="opacity:1" fill="#f7d86b" d="M 430.5,239.5 C 427.672,264.143 419.506,286.809 406,307.5C 399.425,315.037 391.258,319.87 381.5,322C 326.5,322.333 271.5,322.667 216.5,323C 215.544,326.394 215.211,329.894 215.5,333.5C 214.357,330.024 214.19,326.358 215,322.5C 216.444,320.845 218.278,320.178 220.5,320.5C 232.167,320.5 243.833,320.5 255.5,320.5C 266.167,320.5 276.833,320.5 287.5,320.5C 294.167,320.5 300.833,320.5 307.5,320.5C 315.167,320.5 322.833,320.5 330.5,320.5C 348.17,320.667 365.836,320.5 383.5,320C 386.911,318.835 390.244,317.502 393.5,316C 395.037,314.89 395.703,313.39 395.5,311.5C 396.873,311.657 398.207,311.49 399.5,311C 399.043,310.586 398.709,310.086 398.5,309.5C 399.689,308.571 401.022,308.238 402.5,308.5C 402.183,304.828 403.849,303.162 407.5,303.5C 407.5,302.167 407.5,300.833 407.5,299.5C 408.5,299.5 409.5,299.5 410.5,299.5C 414.03,290.421 417.864,281.421 422,272.5C 422.498,269.518 422.665,266.518 422.5,263.5C 423.376,263.631 424.043,263.298 424.5,262.5C 427.091,255.731 428.424,248.731 428.5,241.5C 429.167,240.833 429.833,240.167 430.5,239.5 Z"/></g>
<g><path style="opacity:1" fill="#feda4d" d="M 255.5,336.5 C 255.762,337.978 255.429,339.311 254.5,340.5C 251.932,342.717 248.932,343.884 245.5,344C 241.722,347.721 238.055,351.554 234.5,355.5C 232.574,356.061 230.574,356.227 228.5,356C 227.809,357.067 227.309,358.234 227,359.5C 223.803,361.667 220.97,364.167 218.5,367C 216.423,367.192 214.423,367.692 212.5,368.5C 208.042,373.561 202.709,377.394 196.5,380C 195.663,381.011 195.33,382.178 195.5,383.5C 193.473,383.338 191.473,383.505 189.5,384C 185.722,387.721 182.055,391.554 178.5,395.5C 176.574,396.061 174.574,396.227 172.5,396C 171.809,397.067 171.309,398.234 171,399.5C 167.803,401.667 164.97,404.167 162.5,407C 160.423,407.192 158.423,407.692 156.5,408.5C 153.198,412.794 148.865,415.46 143.5,416.5C 143.842,411.339 141.508,409.172 136.5,410C 137.056,410.383 137.389,410.883 137.5,411.5C 136.183,411.821 134.849,412.154 133.5,412.5C 129.215,410.293 129.548,409.126 134.5,409C 132.606,407.921 132.273,406.587 133.5,405C 135.78,404.767 137.78,403.934 139.5,402.5C 138.167,401.833 136.833,401.167 135.5,400.5C 135.709,399.914 136.043,399.414 136.5,399C 138.96,398.604 140.96,397.437 142.5,395.5C 143.386,396.325 143.719,397.325 143.5,398.5C 142.5,398.5 141.5,398.5 140.5,398.5C 140.5,399.5 140.5,400.5 140.5,401.5C 141.978,401.762 143.311,401.429 144.5,400.5C 147.798,396.2 151.465,392.2 155.5,388.5C 161.446,385.879 166.113,381.879 169.5,376.5C 171.332,375.752 172.999,374.752 174.5,373.5C 175.328,374.415 176.328,375.081 177.5,375.5C 180.723,373.629 182.723,370.962 183.5,367.5C 188.06,365.22 192.727,362.886 197.5,360.5C 199.987,358.191 201.987,355.524 203.5,352.5C 205.398,351.266 207.065,351.599 208.5,353.5C 210.001,352.248 211.668,351.248 213.5,350.5C 214.833,348.5 216.167,346.5 217.5,344.5C 222.005,342.751 226.005,340.251 229.5,337C 238.16,336.5 246.827,336.334 255.5,336.5 Z"/></g>
<g><path style="opacity:1" fill="#fed33a" d="M 312.5,336.5 C 314.5,336.5 316.5,336.5 318.5,336.5C 318.5,349.5 318.5,362.5 318.5,375.5C 317.5,375.5 316.5,375.5 315.5,375.5C 314.149,383.445 313.149,391.445 312.5,399.5C 310.686,399.772 308.686,399.939 306.5,400C 306.034,401.299 306.034,402.799 306.5,404.5C 304.5,404.5 302.5,404.5 300.5,404.5C 300.5,403.5 300.5,402.5 300.5,401.5C 296.423,401.983 294.09,400.316 293.5,396.5C 291.891,396.906 290.557,396.906 289.5,396.5C 290.861,394.972 292.028,393.305 293,391.5C 293.354,387.646 293.854,383.812 294.5,380C 294.316,378.624 293.649,377.791 292.5,377.5C 292.337,375.143 292.503,372.81 293,370.5C 293.414,370.957 293.914,371.291 294.5,371.5C 295.614,370.277 295.781,368.944 295,367.5C 294.259,368.641 293.425,368.641 292.5,367.5C 291.808,368.025 291.308,368.692 291,369.5C 288.693,368.167 286.859,366.334 285.5,364C 285.833,363.667 286.167,363.333 286.5,363C 285.044,362.577 284.544,361.744 285,360.5C 287.592,363.754 289.759,363.754 291.5,360.5C 290.167,359.833 288.833,359.167 287.5,358.5C 291.122,357.675 294.789,357.175 298.5,357C 300.246,353.086 303.246,350.919 307.5,350.5C 306.167,349.833 304.833,349.167 303.5,348.5C 306.681,346.408 309.681,344.075 312.5,341.5C 313.666,339.833 313.666,338.166 312.5,336.5 Z"/></g>
<g><path style="opacity:1" fill="#fed644" d="M 255.5,336.5 C 274.5,336.5 293.5,336.5 312.5,336.5C 313.666,338.166 313.666,339.833 312.5,341.5C 309.681,344.075 306.681,346.408 303.5,348.5C 304.833,349.167 306.167,349.833 307.5,350.5C 303.246,350.919 300.246,353.086 298.5,357C 294.789,357.175 291.122,357.675 287.5,358.5C 288.833,359.167 290.167,359.833 291.5,360.5C 289.759,363.754 287.592,363.754 285,360.5C 284.544,361.744 285.044,362.577 286.5,363C 286.167,363.333 285.833,363.667 285.5,364C 286.859,366.334 288.693,368.167 291,369.5C 291.308,368.692 291.808,368.025 292.5,367.5C 293.425,368.641 294.259,368.641 295,367.5C 295.781,368.944 295.614,370.277 294.5,371.5C 293.914,371.291 293.414,370.957 293,370.5C 292.503,372.81 292.337,375.143 292.5,377.5C 289.888,370.221 284.888,365.221 277.5,362.5C 274.36,361.359 271.027,361.192 267.5,362C 263.109,363.575 259.443,365.075 256.5,366.5C 256.296,369.518 255.963,372.518 255.5,375.5C 253.948,381.416 254.614,387.082 257.5,392.5C 255.519,391.314 253.519,389.981 251.5,388.5C 249.51,384.995 247.843,381.329 246.5,377.5C 245.412,381.904 245.746,386.237 247.5,390.5C 246.833,391.833 245.833,392.833 244.5,393.5C 243.909,387.755 243.076,382.088 242,376.5C 241.268,381.136 240.102,385.469 238.5,389.5C 235.32,390.662 232.653,392.662 230.5,395.5C 229.571,396.689 229.238,398.022 229.5,399.5C 226.833,399.5 224.167,399.5 221.5,399.5C 221.5,403.5 219.5,405.5 215.5,405.5C 215.5,406.833 215.5,408.167 215.5,409.5C 211.875,409.619 209.541,411.453 208.5,415C 205.447,415.179 202.447,415.679 199.5,416.5C 197.995,417.842 197.328,419.508 197.5,421.5C 193.5,422.833 189.5,424.167 185.5,425.5C 185.116,427.929 184.449,430.263 183.5,432.5C 198.088,434.036 212.755,434.702 227.5,434.5C 219.35,435.493 211.017,435.826 202.5,435.5C 191.78,435.485 181.447,433.818 171.5,430.5C 164.315,427.589 156.982,424.589 149.5,421.5C 148.897,420.365 148.564,419.365 148.5,418.5C 147.554,418.987 146.554,419.32 145.5,419.5C 140.879,419.121 139.879,417.288 142.5,414C 140.144,413.845 137.811,413.845 135.5,414C 136.756,413.583 137.423,412.75 137.5,411.5C 137.389,410.883 137.056,410.383 136.5,410C 141.508,409.172 143.842,411.339 143.5,416.5C 148.865,415.46 153.198,412.794 156.5,408.5C 158.423,407.692 160.423,407.192 162.5,407C 164.97,404.167 167.803,401.667 171,399.5C 171.309,398.234 171.809,397.067 172.5,396C 174.574,396.227 176.574,396.061 178.5,395.5C 182.055,391.554 185.722,387.721 189.5,384C 191.473,383.505 193.473,383.338 195.5,383.5C 195.33,382.178 195.663,381.011 196.5,380C 202.709,377.394 208.042,373.561 212.5,368.5C 214.423,367.692 216.423,367.192 218.5,367C 220.97,364.167 223.803,361.667 227,359.5C 227.309,358.234 227.809,357.067 228.5,356C 230.574,356.227 232.574,356.061 234.5,355.5C 238.055,351.554 241.722,347.721 245.5,344C 248.932,343.884 251.932,342.717 254.5,340.5C 255.429,339.311 255.762,337.978 255.5,336.5 Z"/></g>
<g><path style="opacity:0.988" fill="#f8e387" d="M 121.5,244.5 C 119.883,247.949 118.716,251.616 118,255.5C 116.773,258.381 115.273,261.047 113.5,263.5C 112.5,282.155 112.167,300.821 112.5,319.5C 112.5,324.833 112.5,330.167 112.5,335.5C 112.5,343.5 112.5,351.5 112.5,359.5C 112.5,365.5 112.5,371.5 112.5,377.5C 112.692,382.27 113.525,386.936 115,391.5C 117.285,394.409 118.785,397.742 119.5,401.5C 115.253,396.304 112.419,390.304 111,383.5C 110.333,344.833 110.333,306.167 111,267.5C 112.498,258.803 115.998,251.137 121.5,244.5 Z"/></g>
<g><path style="opacity:1" fill="#f8db74" d="M 277.5,362.5 C 266.999,361.742 259.666,366.075 255.5,375.5C 255.963,372.518 256.296,369.518 256.5,366.5C 259.443,365.075 263.109,363.575 267.5,362C 271.027,361.192 274.36,361.359 277.5,362.5 Z"/></g>
<g><path style="opacity:1" fill="#fed43b" d="M 257.5,392.5 C 257.786,395.173 258.12,397.507 258.5,399.5C 261.28,398.037 263.447,398.704 265,401.5C 266.958,402.051 268.958,402.385 271,402.5C 275.147,401.877 279.314,401.544 283.5,401.5C 283.5,400.5 283.5,399.5 283.5,398.5C 284.833,398.5 286.167,398.5 287.5,398.5C 287.5,399.5 287.5,400.5 287.5,401.5C 289.512,400.986 291.512,400.82 293.5,401C 294.453,402.955 295.787,404.622 297.5,406C 296.663,407.011 296.33,408.178 296.5,409.5C 297.675,409.281 298.675,409.614 299.5,410.5C 298.271,411.281 296.938,411.781 295.5,412C 295.957,412.414 296.291,412.914 296.5,413.5C 294.445,414.187 292.779,415.354 291.5,417C 288.833,417 286.167,417 283.5,417C 282.871,419.375 281.871,421.541 280.5,423.5C 277.199,425.584 273.532,426.918 269.5,427.5C 262.219,428.972 254.886,430.139 247.5,431C 244.399,431.638 241.732,432.805 239.5,434.5C 235.5,434.5 231.5,434.5 227.5,434.5C 212.755,434.702 198.088,434.036 183.5,432.5C 184.449,430.263 185.116,427.929 185.5,425.5C 189.5,424.167 193.5,422.833 197.5,421.5C 197.328,419.508 197.995,417.842 199.5,416.5C 202.447,415.679 205.447,415.179 208.5,415C 209.541,411.453 211.875,409.619 215.5,409.5C 215.5,408.167 215.5,406.833 215.5,405.5C 219.5,405.5 221.5,403.5 221.5,399.5C 224.167,399.5 226.833,399.5 229.5,399.5C 229.238,398.022 229.571,396.689 230.5,395.5C 232.653,392.662 235.32,390.662 238.5,389.5C 240.102,385.469 241.268,381.136 242,376.5C 243.076,382.088 243.909,387.755 244.5,393.5C 245.833,392.833 246.833,391.833 247.5,390.5C 245.746,386.237 245.412,381.904 246.5,377.5C 247.843,381.329 249.51,384.995 251.5,388.5C 253.519,389.981 255.519,391.314 257.5,392.5 Z"/></g>
<g><path style="opacity:1" fill="#fbd54f" d="M 292.5,377.5 C 293.649,377.791 294.316,378.624 294.5,380C 293.854,383.812 293.354,387.646 293,391.5C 292.028,393.305 290.861,394.972 289.5,396.5C 290.557,396.906 291.891,396.906 293.5,396.5C 294.09,400.316 296.423,401.983 300.5,401.5C 300.5,402.5 300.5,403.5 300.5,404.5C 302.5,404.5 304.5,404.5 306.5,404.5C 306.034,402.799 306.034,401.299 306.5,400C 308.686,399.939 310.686,399.772 312.5,399.5C 304.816,411.356 294.149,419.356 280.5,423.5C 281.871,421.541 282.871,419.375 283.5,417C 286.167,417 288.833,417 291.5,417C 292.779,415.354 294.445,414.187 296.5,413.5C 296.291,412.914 295.957,412.414 295.5,412C 296.938,411.781 298.271,411.281 299.5,410.5C 298.675,409.614 297.675,409.281 296.5,409.5C 296.33,408.178 296.663,407.011 297.5,406C 295.787,404.622 294.453,402.955 293.5,401C 291.512,400.82 289.512,400.986 287.5,401.5C 287.5,400.5 287.5,399.5 287.5,398.5C 286.167,398.5 284.833,398.5 283.5,398.5C 290.162,393.212 293.162,386.212 292.5,377.5 Z"/></g>
<g><path style="opacity:1" fill="#f8d453" d="M 257.5,392.5 C 264.692,400.615 273.359,402.615 283.5,398.5C 283.5,399.5 283.5,400.5 283.5,401.5C 279.314,401.544 275.147,401.877 271,402.5C 268.958,402.385 266.958,402.051 265,401.5C 263.447,398.704 261.28,398.037 258.5,399.5C 258.12,397.507 257.786,395.173 257.5,392.5 Z"/></g>
<g><path style="opacity:1" fill="#f8da6e" d="M 269.5,427.5 C 259.908,431.089 249.908,433.422 239.5,434.5C 241.732,432.805 244.399,431.638 247.5,431C 254.886,430.139 262.219,428.972 269.5,427.5 Z"/></g>
<g><path style="opacity:0.306" fill="#f1d472" d="M 227.5,434.5 C 231.5,434.5 235.5,434.5 239.5,434.5C 227.202,436.55 214.869,436.883 202.5,435.5C 211.017,435.826 219.35,435.493 227.5,434.5 Z"/></g>
</svg>
