<?xml version="1.0" encoding="UTF-8"?>
<svg version="1.1" xmlns="http://www.w3.org/2000/svg" width="228" height="221">
<path d="M0 0 C9.56806658 3.77490127 18.27067959 9.28311879 25.9375 16.12109375 C26.38738281 15.76917969 26.83726563 15.41726562 27.30078125 15.0546875 C39.62966093 5.59183997 50.86886281 -2.42976668 66.9375 -0.87890625 C72.70090136 1.89987655 76.28117336 6.04648764 78.6875 11.93359375 C81.67241152 21.7201889 81.54704753 37.90199868 76.9375 47.12109375 C77.61554688 47.27964844 78.29359375 47.43820313 78.9921875 47.6015625 C91.09825586 50.63646329 103.87450772 56.25495178 110.9375 67.12109375 C113.35464569 71.53863586 114.55777127 75.0172725 113.62890625 80.08203125 C110.31452532 89.85664619 100.55290332 95.91408042 91.875 100.43359375 C87.26513808 102.64703577 82.95177326 104.15681043 77.9375 105.12109375 C78.42089844 106.74917969 78.42089844 106.74917969 78.9140625 108.41015625 C80.24474119 113.7634884 80.30531046 119.00328328 80.3125 124.49609375 C80.33699219 125.47320312 80.36148438 126.4503125 80.38671875 127.45703125 C80.41993733 135.78382178 78.76027588 143.29475528 73.0625 149.62109375 C68.76269311 153.39679482 64.83986592 154.3405348 59.1875 153.99609375 C48.63671717 152.5924769 41.22547454 147.50131805 32.9375 141.12109375 C31.546649 140.11417558 30.15162037 139.11296623 28.75 138.12109375 C27.821875 137.46109375 26.89375 136.80109375 25.9375 136.12109375 C25.3290625 136.67796875 24.720625 137.23484375 24.09375 137.80859375 C18.55292748 142.63236865 13.12675099 146.3601043 6.5625 149.62109375 C5.54639648 150.12769531 5.54639648 150.12769531 4.50976562 150.64453125 C-1.73920227 153.64205401 -8.23214463 155.56560002 -15.11328125 153.5078125 C-20.77674219 151.08670961 -23.5307451 147.65610447 -26.0625 142.12109375 C-30.23170233 131.00322086 -28.47004457 117.4709467 -26.0625 106.12109375 C-27.24392578 105.71890625 -27.24392578 105.71890625 -28.44921875 105.30859375 C-40.9707187 100.80381744 -53.14796256 94.99197718 -60.21875 83.19140625 C-62.19905726 78.33231899 -61.62531022 72.80952442 -60 67.93359375 C-52.5318634 57.0927503 -42.13458352 52.13829106 -29.87109375 48.296875 C-28.48083984 47.71486328 -28.48083984 47.71486328 -27.0625 47.12109375 C-25.87438791 43.55675747 -26.3303149 41.73091925 -27 38.05859375 C-28.73496683 27.40094038 -29.84088417 14.872052 -23.25 5.62109375 C-17.18132919 -2.05829666 -9.00483487 -2.58429572 0 0 Z M31.9375 24.12109375 C32.82501953 25.08208984 32.82501953 25.08208984 33.73046875 26.0625 C40.94985943 33.96496517 40.94985943 33.96496517 43.375 38.12109375 C47.07713427 42.45529972 50.46342729 42.49737233 55.9375 43.12109375 C58.31332341 43.4908411 60.68832346 43.86591515 63.0625 44.24609375 C65.02049559 44.54001918 66.97871221 44.83249492 68.9375 45.12109375 C70.37224267 38.35730687 71.16604025 31.71266867 71.25 24.80859375 C71.26675781 23.51308594 71.28351563 22.21757813 71.30078125 20.8828125 C70.8231579 15.93709971 69.59971784 11.89794731 66.125 8.18359375 C54.21881572 2.40058996 39.48316906 16.08860733 31.9375 24.12109375 Z M-15.0625 9.12109375 C-20.39809495 16.23522035 -19.46887071 25.64401172 -19.0625 34.12109375 C-18.58341615 37.22472391 -17.89922054 40.08798178 -17.0625 43.12109375 C-9.73155827 45.1177916 -1.01469791 44.08095535 5.9375 41.12109375 C11.93521535 36.70172454 16.94577175 29.90347767 19.9375 23.12109375 C12.85947945 16.08703606 2.99286117 8.40956538 -7.1875 6.99609375 C-10.81860218 7.11322608 -12.09832309 7.31897362 -15.0625 9.12109375 Z M23.5625 32.30859375 C20.60429867 35.2817304 20.60429867 35.2817304 17.9375 40.12109375 C23.2175 40.12109375 28.4975 40.12109375 33.9375 40.12109375 C31.9091169 36.06432756 29.9161858 33.48166235 26.9375 30.12109375 C25.52194121 30.00818112 25.52194121 30.00818112 23.5625 32.30859375 Z M7.04711914 53.24072266 C5.34192663 56.06411321 3.64705193 58.88824606 2 61.74609375 C1.39865234 62.71933594 0.79730469 63.69257812 0.17773438 64.6953125 C-3.41504088 70.63364772 -3.41504088 70.63364772 -4.2109375 77.35546875 C-2.90433582 81.63970011 -1.17308592 85.00872603 1.25 88.74609375 C1.64123047 89.37515625 2.03246094 90.00421875 2.43554688 90.65234375 C3.58391314 92.48820623 4.75713375 94.30568545 5.9375 96.12109375 C6.30536621 96.70213867 6.67323242 97.28318359 7.05224609 97.88183594 C8.98818997 101.02750703 8.98818997 101.02750703 11.9375 103.12109375 C28.30224377 105.23728842 28.30224377 105.23728842 44.02197266 102.05029297 C47.41399071 98.81062143 48.54134333 94.46873471 49.9375 90.12109375 C50.58425967 88.91973522 51.26610049 87.73664655 51.98046875 86.57421875 C55.94094298 80.83123149 55.94094298 80.83123149 56.390625 74.2421875 C54.61405738 70.42638769 52.66045123 66.76851223 50.5625 63.12109375 C50.17578125 62.4353125 49.7890625 61.74953125 49.390625 61.04296875 C48.62139744 59.69036727 47.83364891 58.34811416 47.02685547 57.01757812 C45.9375 55.12109375 45.9375 55.12109375 44.484375 51.65234375 C41.35080494 48.53799805 40.17483484 48.67218888 35.8515625 48.46484375 C33.42140991 48.48611423 30.99137391 48.53945093 28.5625 48.62109375 C26.73332031 48.6365625 26.73332031 48.6365625 24.8671875 48.65234375 C15.05810337 48.44762743 15.05810337 48.44762743 7.04711914 53.24072266 Z M-10.9375 52.12109375 C-11.96875 52.45109375 -13 52.78109375 -14.0625 53.12109375 C-13.60804036 54.53900783 -13.14875056 55.95537421 -12.6875 57.37109375 C-12.43226562 58.16 -12.17703125 58.94890625 -11.9140625 59.76171875 C-10.99641927 62.44826 -10.99641927 62.44826 -9.0625 66.12109375 C-6.4225 61.17109375 -3.7825 56.22109375 -1.0625 51.12109375 C-6.26992101 51.04411868 -6.26992101 51.04411868 -10.9375 52.12109375 Z M52.9375 51.12109375 C53.86834971 52.89543187 54.80744613 54.66544524 55.75 56.43359375 C56.27207031 57.41972656 56.79414063 58.40585938 57.33203125 59.421875 C58.7094876 61.73774443 59.93280591 63.35720376 61.9375 65.12109375 C62.61104499 63.68680374 63.27609701 62.24852318 63.9375 60.80859375 C64.494375 59.60783203 64.494375 59.60783203 65.0625 58.3828125 C66.11790667 56.05895416 66.11790667 56.05895416 65.9375 53.12109375 C61.43396738 51.36361761 57.76110189 50.92814967 52.9375 51.12109375 Z M74.9375 55.12109375 C74.61136719 55.98992187 74.28523437 56.85875 73.94921875 57.75390625 C73.51222656 58.90632813 73.07523438 60.05875 72.625 61.24609375 C71.98111328 62.95152344 71.98111328 62.95152344 71.32421875 64.69140625 C69.9375 68.12109375 69.9375 68.12109375 68.20703125 71.17578125 C66.25065645 75.71457078 67.39808962 78.66073882 69.05859375 83.15625 C69.49300781 84.15527344 69.92742187 85.15429688 70.375 86.18359375 C70.80683594 87.18519531 71.23867187 88.18679687 71.68359375 89.21875 C72.09738281 90.17652344 72.51117188 91.13429687 72.9375 92.12109375 C73.61001869 93.78540767 74.27876471 95.45127638 74.9375 97.12109375 C86.04340094 94.66448893 97.11205678 89.41610643 103.9375 80.12109375 C105.17800807 77.17999517 105.17800807 77.17999517 104.9375 74.12109375 C99.55101622 62.8797363 86.81174122 59.18241257 75.9375 55.12109375 C75.6075 55.12109375 75.2775 55.12109375 74.9375 55.12109375 Z M-49 68.62109375 C-51.40837123 71.5403316 -52.53512665 73.35414125 -53.0625 77.12109375 C-50.23100271 85.16850711 -42.8062336 89.51316437 -35.58984375 93.48046875 C-31.07799326 95.61643913 -27.04412302 96.5013991 -22.0625 97.12109375 C-21.07197453 94.62509072 -20.09505943 92.12504578 -19.125 89.62109375 C-18.84720703 88.925 -18.56941406 88.22890625 -18.28320312 87.51171875 C-16.09647662 81.82096062 -14.08755364 76.21870812 -15.98828125 70.1796875 C-16.67470703 68.88224609 -16.67470703 68.88224609 -17.375 67.55859375 C-19.45145804 63.41721355 -20.96429536 59.61374908 -22.0625 55.12109375 C-31.60835549 55.12109375 -42.1092434 62.75662005 -49 68.62109375 Z M-10.0625 86.12109375 C-10.73281719 88.07818055 -11.39864683 90.03680488 -12.0625 91.99609375 C-12.43375 93.08664063 -12.805 94.1771875 -13.1875 95.30078125 C-14.161272 97.94730229 -14.161272 97.94730229 -14.0625 100.12109375 C-9.7725 100.78109375 -5.4825 101.44109375 -1.0625 102.12109375 C-2.59857281 98.28091172 -4.19563533 94.90261043 -6.1875 91.30859375 C-6.72632813 90.33277344 -7.26515625 89.35695313 -7.8203125 88.3515625 C-8.23023438 87.61550781 -8.64015625 86.87945312 -9.0625 86.12109375 C-9.3925 86.12109375 -9.7225 86.12109375 -10.0625 86.12109375 Z M60.9375 87.12109375 C60.9375 88.11109375 60.9375 89.10109375 60.9375 90.12109375 C60.2775 90.12109375 59.6175 90.12109375 58.9375 90.12109375 C57.33972476 92.29860554 57.33972476 92.29860554 55.8125 94.99609375 C55.27367187 95.90101562 54.73484375 96.8059375 54.1796875 97.73828125 C52.7834107 99.96881397 52.7834107 99.96881397 52.9375 102.12109375 C55.08479141 101.84036302 57.23033193 101.54620876 59.375 101.24609375 C60.56996094 101.08367187 61.76492187 100.92125 62.99609375 100.75390625 C63.96675781 100.54507813 64.93742187 100.33625 65.9375 100.12109375 C66.2675 99.46109375 66.5975 98.80109375 66.9375 98.12109375 C66.2430283 95.94388884 66.2430283 95.94388884 65.125 93.62109375 C64.58939453 92.43 64.58939453 92.43 64.04296875 91.21484375 C62.9964326 88.98325877 62.9964326 88.98325877 60.9375 87.12109375 Z M-16.0625 108.12109375 C-20.35317752 116.27338105 -20.28631696 127.86702914 -18.53125 136.8359375 C-17.57537062 139.62565068 -16.25853718 141.87227733 -14.4375 144.18359375 C-9.44891206 146.1527732 -4.38792397 144.58615479 0.5 142.87109375 C4.48557847 140.84207198 8.21662554 138.59682235 11.9375 136.12109375 C12.94103516 135.46367187 12.94103516 135.46367187 13.96484375 134.79296875 C17.88345995 132.21785497 17.88345995 132.21785497 19.9375 128.12109375 C18.46594521 126.01286627 17.00384239 124.16357663 15.3125 122.24609375 C14.87292969 121.72917969 14.43335938 121.21226562 13.98046875 120.6796875 C13.08872805 119.64150258 12.18209368 118.61593625 11.26147461 117.60327148 C10.0408195 116.23675901 8.90424654 114.79636191 7.77734375 113.3515625 C3.56550885 110.0435051 -0.65130085 109.85938003 -5.875 109.30859375 C-6.85404297 109.18806641 -7.83308594 109.06753906 -8.84179688 108.94335938 C-11.24709736 108.65003005 -13.65294404 108.37665754 -16.0625 108.12109375 Z M58.5625 109.05859375 C55.45131392 109.66379565 52.55196733 110.1435232 49.37890625 110.328125 C44.84964482 111.37175732 43.82690812 113.07744086 41.25 116.87109375 C40.52425781 117.9178125 39.79851562 118.96453125 39.05078125 120.04296875 C38.00470703 121.56664062 38.00470703 121.56664062 36.9375 123.12109375 C35.61943851 124.79986398 34.29122887 126.47095021 32.9375 128.12109375 C36.86535194 137.11279402 48.29647142 141.5820027 56.9375 145.12109375 C60.27313603 145.99012841 61.47563436 145.9393529 64.9375 145.12109375 C69.67900856 141.30727164 70.86516458 137.26007978 71.7265625 131.3359375 C72.23450873 123.59446063 72.2449828 115.25115914 68.9375 108.12109375 C65.33914137 108.02366527 62.09174837 108.36589027 58.5625 109.05859375 Z M17.9375 112.12109375 C20.1360391 115.78532558 22.24028014 118.86582841 24.9375 122.12109375 C28.38945767 120.69528515 30.0389256 119.02363041 32.1875 115.99609375 C33.54875 114.07796875 33.54875 114.07796875 34.9375 112.12109375 C29.3275 112.12109375 23.7175 112.12109375 17.9375 112.12109375 Z " fill="#52BEDA" transform="translate(88.0625,11.87890625)"/>
<path d="M0 0 C5.67476113 1.96434039 9.31400331 5.62800662 12 11 C12.59057744 16.67862925 12.29370905 21.16922672 9 26 C4.99653611 30.03627917 1.41408246 32.12458106 -4.3125 32.3125 C-8.94226662 32.25237316 -11.4369151 31.06591027 -15 28 C-19.39893104 23.00661882 -20.35676337 20.08984773 -20.28125 13.5390625 C-19.73016315 8.56397287 -16.99302299 5.87480597 -13.375 2.6875 C-8.92314854 -0.47565762 -5.3540278 -0.48837416 0 0 Z " fill="#50C0DD" transform="translate(118,72)"/>
<path d="M0 0 C0.75603516 -0.020625 1.51207031 -0.04125 2.29101562 -0.0625 C7.19905119 -0.09655402 10.58854176 0.48103193 14.8125 3.25 C17.27666065 7.25426106 17.97773065 9.27513918 17.1875 13.9375 C15.8125 17.25 15.8125 17.25 12.8125 21.25 C14.4625 24.22 16.1125 27.19 17.8125 30.25 C14.625 30.6875 14.625 30.6875 10.8125 30.25 C9.515625 28.7265625 9.515625 28.7265625 8.375 26.8125 C6.66710845 23.94409752 6.66710845 23.94409752 3.7265625 22.5625 C1.26253869 22.25024355 1.26253869 22.25024355 -2.1875 22.25 C-1.8575 25.22 -1.5275 28.19 -1.1875 31.25 C-3.4975 30.92 -5.8075 30.59 -8.1875 30.25 C-8.35478213 26.13850113 -8.51537468 22.02680194 -8.66967773 17.91479492 C-8.72316026 16.51498319 -8.77849434 15.11524096 -8.83569336 13.71557617 C-8.91742949 11.7077104 -8.99203025 9.69955813 -9.06640625 7.69140625 C-9.1135376 6.48170166 -9.16066895 5.27199707 -9.20922852 4.02563477 C-9.16497115 -1.62787107 -4.48633992 0.02983435 0 0 Z M-1.1875 6.25 C-1.1875 9.55 -1.1875 12.85 -1.1875 16.25 C0.6996875 16.2809375 0.6996875 16.2809375 2.625 16.3125 C3.33269531 16.32410156 4.04039063 16.33570313 4.76953125 16.34765625 C7.01555461 16.33263217 7.01555461 16.33263217 9.8125 15.25 C10.1425 13.27 10.4725 11.29 10.8125 9.25 C8.90848862 7.34598862 7.47824314 6.31479561 4.765625 6.05078125 C2.78016727 6.0613422 0.7955086 6.15084957 -1.1875 6.25 Z " fill="#50BEDA" transform="translate(64.1875,179.75)"/>
<path d="M0 0 C11.08537666 0.19172821 11.08537666 0.19172821 14.6875 3.375 C16.96162906 7.92325812 17.12292721 11.70922767 17.0625 16.6875 C17.05798828 17.38939453 17.05347656 18.09128906 17.04882812 18.81445312 C17.03706927 20.54300538 17.01913454 22.27151365 17 24 C15 25 15 25 12.1875 24.5 C9.10656967 23.80144483 9.10656967 23.80144483 6.5625 24.625 C2.73047201 25.18578458 0.35798879 23.77403181 -3 22 C-5 19 -5 19 -4.8125 16.5 C-3.93740139 13.80738888 -3.22274287 12.70980221 -1 11 C1.75078884 10.08307039 3.35948913 9.89113917 6.1875 9.9375 C8.0746875 9.9684375 8.0746875 9.9684375 10 10 C9.67 9.34 9.34 8.68 9 8 C4.92516321 7.15427916 1.98481402 6.96690007 -2 8 C-2.66 7.34 -3.32 6.68 -4 6 C-4 5.01 -4 4.02 -4 3 C-2.68 2.67 -1.36 2.34 0 2 C0 1.34 0 0.68 0 0 Z M2 15 C2 16.32 2 17.64 2 19 C4.60582371 19.93065133 5.64198224 20.14917407 8.25 19.0625 C8.8275 18.711875 9.405 18.36125 10 18 C10 17.01 10 16.02 10 15 C7.36 15 4.72 15 2 15 Z " fill="#53B8D1" transform="translate(114,186)"/>
<path d="M0 0 C6.70967742 3.74193548 6.70967742 3.74193548 8 8 C8.1875 10.6875 8.1875 10.6875 8 13 C7 14 7 14 3.40234375 14.09765625 C1.91403133 14.0909822 0.42573568 14.07902183 -1.0625 14.0625 C-2.20041992 14.05573242 -2.20041992 14.05573242 -3.36132812 14.04882812 C-5.24091871 14.0370068 -7.12046899 14.01907078 -9 14 C-6.64005691 16.68507608 -6.64005691 16.68507608 -3.0625 17.25 C-0.10552307 17.10539831 -0.10552307 17.10539831 2.25 16.375 C2.8275 16.25125 3.405 16.1275 4 16 C6 18 6 18 6 21 C1.14420876 23.23848533 -2.62750464 24.55741647 -7.875 22.9375 C-11.28238002 21.51874769 -13.51618217 20.52406735 -15 17 C-16.21555334 12.28185221 -16.5159785 9.11451356 -14.4375 4.625 C-10.04775008 -0.10242299 -6.30311237 -1.96972262 0 0 Z M-7 5 C-7.66 6.32 -8.32 7.64 -9 9 C-5.37 9 -1.74 9 2 9 C-0.72606304 5.71185401 -0.72606304 5.71185401 -4.75 4.75 C-5.86375 4.87375 -5.86375 4.87375 -7 5 Z " fill="#53B9D3" transform="translate(100,187)"/>
<path d="M0 0 C0 1.32 0 2.64 0 4 C-2.3125 4.625 -2.3125 4.625 -5 5 C-5.99 4.34 -6.98 3.68 -8 3 C-11.14221967 3.31506627 -11.14221967 3.31506627 -14 4 C-15.17008745 8.61009488 -15.17008745 8.61009488 -13.875 12.9375 C-11.37340652 14.35506964 -9.84183576 14.34656534 -7 14 C-4.74867483 13.08431094 -4.74867483 13.08431094 -3 12 C-2.01 12.66 -1.02 13.32 0 14 C-1.01087802 16.93154625 -2.02695838 18.01972564 -4.5625 19.875 C-9.19249747 21.3902719 -12.51140267 20.76642518 -17 19 C-19.87940824 16.69647341 -21.751806 14.77281431 -22.2734375 11.046875 C-22.45390385 6.96555917 -22.45963229 3.91156091 -19.9375 0.5625 C-13.33922066 -5.19344581 -7.10794832 -4.73863221 0 0 Z " fill="#53BBD5" transform="translate(157,190)"/>
<path d="M0 0 C1.98 0 3.96 0 6 0 C6 1.65 6 3.3 6 5 C7.98 5 9.96 5 12 5 C12 6.65 12 8.3 12 10 C10.02 10 8.04 10 6 10 C6 14.29 6 18.58 6 23 C7.98 22.67 9.96 22.34 12 22 C12.33 23.65 12.66 25.3 13 27 C10 29 10 29 6.5 28.8125 C1.9172695 27.74865185 1.9172695 27.74865185 0 25 C-0.51171875 21.64453125 -0.51171875 21.64453125 -0.6875 17.8125 C-0.75324219 16.54019531 -0.81898438 15.26789063 -0.88671875 13.95703125 C-0.92410156 12.98121094 -0.96148437 12.00539062 -1 11 C-1.99 10.67 -2.98 10.34 -4 10 C-4 8.35 -4 6.7 -4 5 C-3.34 4.67 -2.68 4.34 -2 4 C-2 3.34 -2 2.68 -2 2 C-1.34 2 -0.68 2 0 2 C0 1.34 0 0.68 0 0 Z " fill="#53BCD8" transform="translate(162,182)"/>
<path d="M0 0 C2 1 2 1 3.125 3.875 C4.15529376 7.55462056 4.20940161 9.37179516 3 13 C-3.03841808 14.18998141 -9.05457728 14.32592429 -15.1875 14.51757812 C-16.00476563 14.55173828 -16.82203125 14.58589844 -17.6640625 14.62109375 C-18.40092285 14.6461499 -19.1377832 14.67120605 -19.89697266 14.69702148 C-22.25930337 15.03735727 -23.93255017 15.83257104 -26 17 C-28.12046792 13.46588679 -28.53199289 10.05606165 -29 6 C-23.58461538 1.93846154 -23.58461538 1.93846154 -20.625 2.25 C-20.08875 2.4975 -19.5525 2.745 -19 3 C-19.33 3.99 -19.66 4.98 -20 6 C-16.3791799 7.01382963 -12.72188582 7.49897691 -9 8 C-9 8.66 -9 9.32 -9 10 C-9.99 10 -10.98 10 -12 10 C-12 10.66 -12 11.32 -12 12 C-10.02 12 -8.04 12 -6 12 C-5.896875 11.38125 -5.79375 10.7625 -5.6875 10.125 C-5 8 -5 8 -2 6 C-0.78715124 2.94570927 -0.78715124 2.94570927 0 0 Z " fill="#50C1DE" transform="translate(125,46)"/>
<path d="M0 0 C0 1.32 0 2.64 0 4 C0.66 4.33 1.32 4.66 2 5 C1.67 6.32 1.34 7.64 1 9 C-2.3125 9.25 -2.3125 9.25 -6 9 C-7.9375 7 -7.9375 7 -9 5 C-9 5.66 -9 6.32 -9 7 C-14.94 7 -20.88 7 -27 7 C-27 7.99 -27 8.98 -27 10 C-28.98 10.33 -30.96 10.66 -33 11 C-33 7.18291777 -31.90837676 5.4828169 -29.66259766 2.47949219 C-27.08221621 0.18329372 -24.9012522 0.31430813 -21.55273438 0.43359375 C-20.38194336 0.52833984 -20.38194336 0.52833984 -19.1875 0.625 C-17.639571 0.7054456 -16.09137984 0.78100199 -14.54296875 0.8515625 C-13.78935059 0.89055664 -13.03573242 0.92955078 -12.25927734 0.96972656 C-8.11620791 1.02524208 -4.12091079 0 0 0 Z " fill="#4DC1DE" transform="translate(132,116)"/>
<path d="M0 0 C7.04440079 -0.21133202 13.24112575 -0.07965362 20 2 C20 3.65 20 5.3 20 7 C18.4840625 6.7525 18.4840625 6.7525 16.9375 6.5 C13.23737067 6.03014231 9.72392609 5.92400151 6 6 C6.54755277 9.83286936 8.2333041 11.40098264 11 14 C12.9451 16.91765 13.45276317 18.62537285 14 22 C13.34 22.33 12.68 22.66 12 23 C8.74808029 19.83841139 5.58685081 16.73656228 3 13 C3 11.68 3 10.36 3 9 C2.01 8.67 1.02 8.34 0 8 C-2 5 -2 5 -3 3 C-2.01 3 -1.02 3 0 3 C0 2.01 0 1.02 0 0 Z " fill="#4FC1E0" transform="translate(132,55)"/>
<path d="M0 0 C0.66 0.66 1.32 1.32 2 2 C1.67 2.99 1.34 3.98 1 5 C0.34 5 -0.32 5 -1 5 C-1.2475 5.86625 -1.495 6.7325 -1.75 7.625 C-3.06778613 11.18302254 -4.80186822 13.9226155 -7 17 C-6.154375 16.690625 -5.30875 16.38125 -4.4375 16.0625 C-0.9502146 14.98461179 2.38177535 14.43418696 6 14 C5.505 11.525 5.505 11.525 5 9 C5.99 9.33 6.98 9.66 8 10 C8.042721 11.66611905 8.04063832 13.33382885 8 15 C6.06729418 16.93270582 2.61358612 16.62663055 0 17 C-0.495 17.495 -0.495 17.495 -1 18 C-3.33297433 18.04092937 -5.66705225 18.04241723 -8 18 C-8.33 18.66 -8.66 19.32 -9 20 C-9.99 20.33 -10.98 20.66 -12 21 C-10.02 21.33 -8.04 21.66 -6 22 C-6 22.33 -6 22.66 -6 23 C-4.35 23.33 -2.7 23.66 -1 24 C-1 24.33 -1 24.66 -1 25 C-7.435 25.495 -7.435 25.495 -14 26 C-14 25.34 -14 24.68 -14 24 C-14.99 23.67 -15.98 23.34 -17 23 C-16.67 21.68 -16.34 20.36 -16 19 C-16.9787207 19.01047363 -17.95744141 19.02094727 -18.96582031 19.03173828 C-22.60364105 19.06799093 -26.24144587 19.09091958 -29.87939453 19.10986328 C-31.45266405 19.11990887 -33.02591496 19.13354781 -34.59912109 19.15087891 C-36.86300252 19.17519096 -39.12663666 19.18649747 -41.390625 19.1953125 C-42.09181458 19.20563507 -42.79300415 19.21595764 -43.51544189 19.22659302 C-47.18563476 19.22743257 -49.88089213 19.02112595 -53 17 C-53 16.01 -53 15.02 -53 14 C-52.34 14 -51.68 14 -51 14 C-50.40445313 14.73017334 -50.40445313 14.73017334 -49.796875 15.47509766 C-47.07519222 17.78483008 -44.76785542 17.3886966 -41.25 17.3984375 C-40.59547852 17.40130768 -39.94095703 17.40417786 -39.26660156 17.40713501 C-37.88475681 17.40917368 -36.50288307 17.40365746 -35.12109375 17.39111328 C-33.0071555 17.37505436 -30.89512887 17.39096601 -28.78125 17.41015625 C-27.43749578 17.40817378 -26.09374276 17.40433002 -24.75 17.3984375 C-22.91695312 17.39336182 -22.91695312 17.39336182 -21.046875 17.38818359 C-17.9954061 17.2665101 -17.9954061 17.2665101 -16.078125 15.47509766 C-15.72234375 14.98831543 -15.3665625 14.5015332 -15 14 C-15.33 15.32 -15.66 16.64 -16 18 C-13.69 17.67 -11.38 17.34 -9 17 C-9 16.01 -9 15.02 -9 14 C-8.01162674 12.9885069 -7.00943333 11.99047683 -6 11 C-5.07151333 9.32013683 -4.19883325 7.60858777 -3.375 5.875 C-1.08333333 1.08333333 -1.08333333 1.08333333 0 0 Z " fill="#5BB8D3" transform="translate(148,97)"/>
<path d="M0 0 C0.66 0.33 1.32 0.66 2 1 C1.67 1.99 1.34 2.98 1 4 C0.01 4.33 -0.98 4.66 -2 5 C-2.33 5.66 -2.66 6.32 -3 7 C1.25731568 7.40749675 1.25731568 7.40749675 4.875 5.5 C5.24625 5.005 5.6175 4.51 6 4 C6.66 4.33 7.32 4.66 8 5 C8 5.66 8 6.32 8 7 C7.01 7.33 6.02 7.66 5 8 C-0.3143118 15.15388126 0.5923536 24.49630655 1 33 C1.47908385 36.10363016 2.16327946 38.96688803 3 42 C5.97 42 8.94 42 12 42 C8.7868736 44.14208427 6.78934603 44.59687808 3 45 C2.34 44.67 1.68 44.34 1 44 C0.39605027 41.87606196 -0.11034511 39.72384773 -0.5625 37.5625 C-1.41161711 33.15314156 -1.41161711 33.15314156 -3 29 C-2.93731998 27.20507224 -2.80228756 25.41225028 -2.625 23.625 C-2.53476563 22.66851562 -2.44453125 21.71203125 -2.3515625 20.7265625 C-2 18 -2 18 -1.3359375 15.7734375 C-1.16964844 14.89558594 -1.16964844 14.89558594 -1 14 C-1.66 13.34 -2.32 12.68 -3 12 C-3 11.01 -3 10.02 -3 9 C-3.66 9 -4.32 9 -5 9 C-5.66 15.93 -6.32 22.86 -7 30 C-9 28 -9 28 -9.15234375 24.62109375 C-9.09899265 23.22574443 -9.02630493 21.83104216 -8.9375 20.4375 C-8.86958252 19.35529175 -8.86958252 19.35529175 -8.80029297 18.2512207 C-8.14990644 10.69366132 -5.51005854 5.23616674 0 0 Z " fill="#5CB4CD" transform="translate(69,13)"/>
<path d="M0 0 C1.48831242 0.00667405 2.97660807 0.01863442 4.46484375 0.03515625 C5.22345703 0.03966797 5.98207031 0.04417969 6.76367188 0.04882812 C8.64326246 0.06064945 10.52281274 0.07858547 12.40234375 0.09765625 C12.40234375 0.42765625 12.40234375 0.75765625 12.40234375 1.09765625 C7.45234375 1.09765625 2.50234375 1.09765625 -2.59765625 1.09765625 C-2.26765625 8.35765625 -1.93765625 15.61765625 -1.59765625 23.09765625 C-0.93765625 23.09765625 -0.27765625 23.09765625 0.40234375 23.09765625 C0.40234375 22.43765625 0.40234375 21.77765625 0.40234375 21.09765625 C4.79670586 20.24021974 8.92806451 20.00817067 13.40234375 20.09765625 C13.40234375 21.74765625 13.40234375 23.39765625 13.40234375 25.09765625 C14.39234375 25.09765625 15.38234375 25.09765625 16.40234375 25.09765625 C16.73234375 24.10765625 17.06234375 23.11765625 17.40234375 22.09765625 C19.05234375 24.73765625 20.70234375 27.37765625 22.40234375 30.09765625 C19.21484375 30.53515625 19.21484375 30.53515625 15.40234375 30.09765625 C14.10546875 28.57421875 14.10546875 28.57421875 12.96484375 26.66015625 C11.2569522 23.79175377 11.2569522 23.79175377 8.31640625 22.41015625 C5.85238244 22.0978998 5.85238244 22.0978998 2.40234375 22.09765625 C2.73234375 25.06765625 3.06234375 28.03765625 3.40234375 31.09765625 C1.09234375 30.76765625 -1.21765625 30.43765625 -3.59765625 30.09765625 C-3.76493838 25.98615738 -3.92553093 21.87445819 -4.07983398 17.76245117 C-4.13331651 16.36263944 -4.18865059 14.96289721 -4.24584961 13.56323242 C-4.32758574 11.55536665 -4.4021865 9.54721438 -4.4765625 7.5390625 C-4.52369385 6.32935791 -4.5708252 5.11965332 -4.61938477 3.87329102 C-4.58663657 -0.31001444 -4.30870702 0.1169573 0 0 Z " fill="#5CB6CE" transform="translate(59.59765625,179.90234375)"/>
<path d="M0 0 C0.33 0.66 0.66 1.32 1 2 C1.99 2 2.98 2 4 2 C4 2.99 4 3.98 4 5 C4.60328125 5.04898438 5.2065625 5.09796875 5.828125 5.1484375 C7.02695313 5.26058594 7.02695313 5.26058594 8.25 5.375 C9.03890625 5.44460937 9.8278125 5.51421875 10.640625 5.5859375 C13.09733198 6.01708144 14.79254956 6.87818092 17 8 C20.16695956 8.16724737 20.16695956 8.16724737 23 8 C22.67 8.66 22.34 9.32 22 10 C22.66 10.33 23.32 10.66 24 11 C24 11.66 24 12.32 24 13 C16.31939758 15.09470975 9.06929416 12.32109232 2.30859375 8.46484375 C1.54675781 7.98144531 0.78492188 7.49804688 0 7 C-0.928125 6.443125 -1.85625 5.88625 -2.8125 5.3125 C-3.8953125 4.6628125 -3.8953125 4.6628125 -5 4 C-3.36587557 2.29159719 -2.13093906 1.06546953 0 0 Z " fill="#50C1E0" transform="translate(131,151)"/>
<path d="M0 0 C0.66 0 1.32 0 2 0 C2 4.29 2 8.58 2 13 C-9.46079738 16.4109516 -9.46079738 16.4109516 -13 15 C-14.8125 13.25 -14.8125 13.25 -16 11 C-15.6875 8.25 -15.6875 8.25 -15 6 C-14.01 6.33 -13.02 6.66 -12 7 C-12 7.99 -12 8.98 -12 10 C-9.36 9.67 -6.72 9.34 -4 9 C-3.67 7.35 -3.34 5.7 -3 4 C-4.65 4 -6.3 4 -8 4 C-5.34601922 2.23067948 -3.9651626 1.69187127 -1 1 C-0.67 0.67 -0.34 0.34 0 0 Z " fill="#4EBFDC" transform="translate(127,195)"/>
<path d="M0 0 C3.04780657 2.20119364 4.88116104 3.77992785 6.6875 7.125 C10.05826163 11.31567662 13.8371212 11.42853632 19 12 C19 12.33 19 12.66 19 13 C15.04 13 11.08 13 7 13 C7 13.99 7 14.98 7 16 C7 16.33 7 16.66 7 17 C7.33820153 19.01954441 7.33820153 19.01954441 8 21 C8.66 21.33 9.32 21.66 10 22 C10.625 25.0625 10.625 25.0625 11 28 C6.125 23.5 6.125 23.5 5 19 C-4.24 19 -13.48 19 -23 19 C-23 18.67 -23 18.34 -23 18 C-14.42 17.67 -5.84 17.34 3 17 C3.33 15.35 3.66 13.7 4 12 C3.34 11.01 2.68 10.02 2 9 C1.3671875 6.73828125 1.3671875 6.73828125 0.875 4.3125 C0.70742187 3.50425781 0.53984375 2.69601563 0.3671875 1.86328125 C0.24601562 1.24839844 0.12484375 0.63351563 0 0 Z " fill="#5DBAD6" transform="translate(125,42)"/>
<path d="M0 0 C0.66 0 1.32 0 2 0 C1.41196203 3.02419525 0.77321882 6.01758453 0 9 C0.66 9 1.32 9 2 9 C3 12 3 12 3 14 C3.33 14.99 3.66 15.98 4 17 C3.71189453 18.16595703 3.71189453 18.16595703 3.41796875 19.35546875 C2.87868263 22.76758748 3.74816141 24.26754798 5.3125 27.3125 C7.53857854 31.875961 8.97022137 36.03833935 10 41 C9.01 41.495 9.01 41.495 8 42 C7.72736328 41.14728516 7.72736328 41.14728516 7.44921875 40.27734375 C5.85915366 35.39298997 4.09540222 30.68970973 2 26 C1.01 26 0.02 26 -1 26 C-1.66 25.67 -2.32 25.34 -3 25 C-2 23 -2 23 0 21 C-0.33 20.34 -0.66 19.68 -1 19 C-1.66 19.66 -2.32 20.32 -3 21 C-2.979375 20.0925 -2.95875 19.185 -2.9375 18.25 C-2.83231017 15.1886818 -2.83231017 15.1886818 -3.625 13.15625 C-4.15798792 10.09156945 -3.18949843 8.11872328 -2.0625 5.25 C-1.49208984 3.77273437 -1.49208984 3.77273437 -0.91015625 2.265625 C-0.60980469 1.51796875 -0.30945313 0.7703125 0 0 Z " fill="#52BDD7" transform="translate(153,68)"/>
<path d="M0 0 C0.66 1.32 1.32 2.64 2 4 C2.99 4 3.98 4 5 4 C5.39787418 8.50924066 3.98878751 11.02242497 2 15 C1.74715633 17.75146274 1.74715633 17.75146274 2 20 C2.99 20.33 3.98 20.66 5 21 C-0.60526694 23.32330984 -6.12524968 25.46745644 -12 27 C-10.25 25 -10.25 25 -8 23 C-6.68 23 -5.36 23 -4 23 C-3.67 21.68 -3.34 20.36 -3 19 C-2.34 19 -1.68 19 -1 19 C-1 18.34 -1 17.68 -1 17 C-2.41805831 17.28482368 -3.83440379 17.57818144 -5.25 17.875 C-6.43335938 18.11863281 -6.43335938 18.11863281 -7.640625 18.3671875 C-10.02675211 18.91075382 -10.02675211 18.91075382 -12.109375 20.1328125 C-14 21 -14 21 -17 20 C-11.10258813 16.94253032 -5.26873698 14.20566671 1 12 C0.67 8.04 0.34 4.08 0 0 Z " fill="#57B7CF" transform="translate(61,46)"/>
<path d="M0 0 C1 3 1 3 1 5 C1.99 4.67 2.98 4.34 4 4 C4.33 4.66 4.66 5.32 5 6 C5.226875 5.38125 5.45375 4.7625 5.6875 4.125 C7.40962687 1.33679458 8.87800152 0.83760935 12 0 C12.99 0.33 13.98 0.66 15 1 C13.73299277 1.9841125 12.4612381 2.96211497 11.1875 3.9375 C10.12595703 4.75541016 10.12595703 4.75541016 9.04296875 5.58984375 C7 7 7 7 4 8 C4 8.66 4 9.32 4 10 C3.236875 9.835 2.47375 9.67 1.6875 9.5 C-1.03596236 8.90854604 -1.03596236 8.90854604 -4 9 C-5.53995173 12.07990345 -5.22377524 14.58742761 -5 18 C-3.59869291 22.00373453 -2.34881047 25.28905819 1 28 C0.67 28.66 0.34 29.32 0 30 C-5.12435111 24.06654082 -7.43073924 20.48517897 -7.25390625 12.46875 C-6.69249499 7.01010509 -3.97730991 3.56586406 0 0 Z " fill="#58BAD5" transform="translate(34,73)"/>
<path d="M0 0 C2.4375 0.375 2.4375 0.375 5 1 C5.33 1.66 5.66 2.32 6 3 C0.17677824 8.97646444 0.17677824 8.97646444 -4.125 9.0625 C-5.548125 9.0315625 -5.548125 9.0315625 -7 9 C-7 9.66 -7 10.32 -7 11 C-8.65 11 -10.3 11 -12 11 C-12 9.68 -12 8.36 -12 7 C-9.09307326 5.51273516 -6.24412851 4.09222633 -3.1875 2.9375 C-0.83484431 2.20797383 -0.83484431 2.20797383 0 0 Z " fill="#51C0E0" transform="translate(181,102)"/>
<path d="M0 0 C0 0.33 0 0.66 0 1 C-4.26616316 2.13764351 -7.56486311 3 -12 3 C-11.71125 3.58007812 -11.4225 4.16015625 -11.125 4.7578125 C-8.94519199 9.34449185 -7.46689523 12.80222849 -8 18 C-9.32 17.34 -10.64 16.68 -12 16 C-12 15.34 -12 14.68 -12 14 C-12.99 14 -13.98 14 -15 14 C-15 15.65 -15 17.3 -15 19 C-16.60938465 16.58592302 -17.65490738 14.65955563 -18.6875 12 C-18.95949219 11.319375 -19.23148437 10.63875 -19.51171875 9.9375 C-20 8 -20 8 -19 5 C-18.01 5 -17.02 5 -16 5 C-16 7.31 -16 9.62 -16 12 C-14.68 11.67 -13.36 11.34 -12 11 C-12.33 8.03 -12.66 5.06 -13 2 C-8.46298506 0.54815522 -4.81938524 -0.23509196 0 0 Z " fill="#59BCD5" transform="translate(86,62)"/>
<path d="M0 0 C0.66 0.33 1.32 0.66 2 1 C2 2.32 2 3.64 2 5 C3.32 5.33 4.64 5.66 6 6 C6 5.34 6 4.68 6 4 C7.65 3.67 9.3 3.34 11 3 C8.24881027 5.85215083 5.39684775 8.34358701 2.25 10.75 C1.45078125 11.36359375 0.6515625 11.9771875 -0.171875 12.609375 C-0.77515625 13.06828125 -1.3784375 13.5271875 -2 14 C-2.66 13.67 -3.32 13.34 -4 13 C-4 12.34 -4 11.68 -4 11 C-3.01 10.67 -2.02 10.34 -1 10 C-0.67 9.01 -0.34 8.02 0 7 C-1.97536745 7.34786708 -1.97536745 7.34786708 -4 8 C-4.33 8.66 -4.66 9.32 -5 10 C-5.33 9.34 -5.66 8.68 -6 8 C-7.65 8.33 -9.3 8.66 -11 9 C-11.33 8.34 -11.66 7.68 -12 7 C-11.319375 6.95875 -10.63875 6.9175 -9.9375 6.875 C-5.74484213 5.62612319 -3.1407561 2.95973269 0 0 Z " fill="#57B7CE" transform="translate(123,21)"/>
<path d="M0 0 C0.66 0.66 1.32 1.32 2 2 C1.62746094 2.556875 1.25492188 3.11375 0.87109375 3.6875 C-1.9978176 8.31528071 -3.77686608 11.62320548 -2.6640625 17.078125 C-1.53813939 20.33667895 0.18589183 23.07401908 2 26 C2 26.66 2 27.32 2 28 C0.68 27.34 -0.64 26.68 -2 26 C-2 25.34 -2 24.68 -2 24 C-2.66 24 -3.32 24 -4 24 C-3.67 22.68 -3.34 21.36 -3 20 C-3.66 20 -4.32 20 -5 20 C-5 16.37 -5 12.74 -5 9 C-5.99 9.33 -6.98 9.66 -8 10 C-7.7215625 9.0409375 -7.7215625 9.0409375 -7.4375 8.0625 C-7.293125 7.381875 -7.14875 6.70125 -7 6 C-7.33 5.67 -7.66 5.34 -8 5 C-8.33 4.34 -8.66 3.68 -9 3 C-7.88625 3.061875 -6.7725 3.12375 -5.625 3.1875 C-4.42875 3.125625 -3.2325 3.06375 -2 3 C-1.34 2.01 -0.68 1.02 0 0 Z M-10 10 C-8 11 -8 11 -8 11 Z " fill="#55BBD6" transform="translate(88,74)"/>
<path d="M0 0 C0 0.99 0 1.98 0 3 C1.22880216 4.2941742 1.22880216 4.2941742 4 6 C3.43628586 9.26954202 2.50037734 10.82575883 0 13 C0 12.01 0 11.02 0 10 C-3.76165664 10.50833198 -5.50035938 11.1594993 -8 14 C-11.22791555 16.1519437 -12.28400809 16.20086443 -16 16 C-16 15.34 -16 14.68 -16 14 C-15.10925781 13.78472656 -14.21851562 13.56945313 -13.30078125 13.34765625 C-9.30223949 11.71511553 -7.79410788 9.84340842 -5.1875 6.4375 C-4.41792969 5.44621094 -3.64835937 4.45492187 -2.85546875 3.43359375 C-2.24316406 2.63050781 -1.63085938 1.82742187 -1 1 C-0.67 0.67 -0.34 0.34 0 0 Z " fill="#59B6D0" transform="translate(105,39)"/>
<path d="M0 0 C-0.33 0.66 -0.66 1.32 -1 2 C-1.66 2 -2.32 2 -3 2 C-2.67 2.99 -2.34 3.98 -2 5 C2.29 5 6.58 5 11 5 C11 5.66 11 6.32 11 7 C9.2675 6.938125 9.2675 6.938125 7.5 6.875 C3.05518699 6.85912567 -0.73724131 7.78206895 -5 9 C-4.67 7.68 -4.34 6.36 -4 5 C-6.97 4.505 -6.97 4.505 -10 4 C-10.33 4.66 -10.66 5.32 -11 6 C-11.66 6 -12.32 6 -13 6 C-14.62514468 7.45833358 -14.62514468 7.45833358 -16 9 C-16.66 8.34 -17.32 7.68 -18 7 C-16.23174858 5.85018626 -14.46030479 4.70528078 -12.6875 3.5625 C-11.70136719 2.92441406 -10.71523437 2.28632813 -9.69921875 1.62890625 C-6.00485019 -0.60054627 -4.08274307 -1.2670582 0 0 Z " fill="#58B4C9" transform="translate(143,13)"/>
<path d="M0 0 C1 3 1 3 0.9375 6.375 C0.99841263 9.90793275 1.60980844 11.82709221 3 15 C4.93674185 15.19517554 6.87444009 15.38087873 8.8125 15.5625 C9.89144531 15.66691406 10.97039062 15.77132812 12.08203125 15.87890625 C15.06482454 16.17577609 15.06482454 16.17577609 18 15 C18 14.34 18 13.68 18 13 C13.545 13.495 13.545 13.495 9 14 C9 13.67 9 13.34 9 13 C13.5 11.5 13.5 11.5 18 10 C18.99 10.66 19.98 11.32 21 12 C19.98912198 14.93154625 18.97304162 16.01972564 16.4375 17.875 C11.80750253 19.3902719 8.48859733 18.76642518 4 17 C1.59593924 15.07675139 0.36080466 13.72160933 -1 11 C-1.09499503 9.50243129 -1.12987198 8.00057068 -1.125 6.5 C-1.12757813 5.7059375 -1.13015625 4.911875 -1.1328125 4.09375 C-1 2 -1 2 0 0 Z " fill="#5FB1C6" transform="translate(136,192)"/>
<path d="M0 0 C0.99 0.495 0.99 0.495 2 1 C2.433125 2.6396875 2.433125 2.6396875 2.875 4.3125 C4.039744 8.130272 5.11391 9.402519 8 12 C8 12.66 8 13.32 8 14 C9.32 14 10.64 14 12 14 C12 14.99 12 15.98 12 17 C14.31 17 16.62 17 19 17 C17.4375 18.1875 17.4375 18.1875 15 19 C9.12957175 17.11307663 5.88428463 14.58216782 2.3125 9.6875 C0.7372953 6.46208086 0.3484038 3.55371871 0 0 Z M10 5 C10.639375 5.66 11.27875 6.32 11.9375 7 C16.04464253 9.68221553 19.23379829 9.37381974 24 9 C21.4013299 11.5986701 19.60157242 11.63249261 16 12 C15.01 11.67 14.02 11.34 13 11 C12.67 11.99 12.34 12.98 12 14 C11.34 11.03 10.68 8.06 10 5 Z " fill="#5FB3C9" transform="translate(61,147)"/>
<path d="M0 0 C1.98 0 3.96 0 6 0 C6 1.65 6 3.3 6 5 C7.98 5 9.96 5 12 5 C12 6.65 12 8.3 12 10 C10.02 10 8.04 10 6 10 C6 14.29 6 18.58 6 23 C5.34 23 4.68 23 4 23 C3.97314062 20.85423363 3.95366912 18.70837355 3.9375 16.5625 C3.92589844 15.36753906 3.91429687 14.17257813 3.90234375 12.94140625 C4 10 4 10 5 9 C6.99958364 8.95919217 9.00045254 8.95745644 11 9 C8.64046906 6.64046906 7.22104383 6.50858587 4 6 C4 4.68 4 3.36 4 2 C3.01 2 2.02 2 1 2 C1 3.65 1 5.3 1 7 C0.67 7 0.34 7 0 7 C0 4.69 0 2.38 0 0 Z " fill="#57B3CC" transform="translate(162,182)"/>
<path d="M0 0 C1.76462683 3.08809695 2 4.23312136 2 8 C-2.62 8 -7.24 8 -12 8 C-11.67 6.35 -11.34 4.7 -11 3 C-5.555 2.505 -5.555 2.505 0 2 C0 1.34 0 0.68 0 0 Z " fill="#4FC2DE" transform="translate(85,155)"/>
<path d="M0 0 C2.31 0.66 4.62 1.32 7 2 C7 2.66 7 3.32 7 4 C20.32152169 10.98857838 20.32152169 10.98857838 35 13 C30.57729699 15.94846867 27.07328897 14.9756325 22 14 C13.95199464 11.79247502 7.3536422 7.32737331 1 2 C0.67 1.34 0.34 0.68 0 0 Z " fill="#5CB3CD" transform="translate(120,151)"/>
<path d="M0 0 C1.32 0.99 2.64 1.98 4 3 C3.50769231 10.38461538 3.50769231 10.38461538 0.9375 13.5 C0.298125 13.995 -0.34125 14.49 -1 15 C-3.33479983 11.35187527 -3.38018947 8.25812212 -3 4 C-1.5 1.5625 -1.5 1.5625 0 0 Z " fill="#50C0DD" transform="translate(31,80)"/>
<path d="M0 0 C1.65 0.33 3.3 0.66 5 1 C4.01 2.32 3.02 3.64 2 5 C1.34 4.67 0.68 4.34 0 4 C-0.1546875 5.5778125 -0.1546875 5.5778125 -0.3125 7.1875 C-0.98157825 10.89784302 -1.6824713 13.05852127 -4 16 C-4.99 16 -5.98 16 -7 16 C-7 16.99 -7 17.98 -7 19 C-7.66 19 -8.32 19 -9 19 C-9.33 20.32 -9.66 21.64 -10 23 C-11 20 -11 20 -9.453125 16.85546875 C-8.72893958 15.62674973 -7.99407988 14.40427446 -7.25 13.1875 C-6.52449703 11.97357807 -5.80052183 10.75874168 -5.078125 9.54296875 C-4.72685547 8.95435059 -4.37558594 8.36573242 -4.01367188 7.75927734 C-2.55676851 5.23074997 -1.27072092 2.62588848 0 0 Z " fill="#5AB7D1" transform="translate(144,89)"/>
<path d="M0 0 C0.66 0 1.32 0 2 0 C2 4.29 2 8.58 2 13 C0.35 13.33 -1.3 13.66 -3 14 C-2.814375 13.278125 -2.62875 12.55625 -2.4375 11.8125 C-1.98004693 8.87173027 -2.26483643 6.85896942 -3 4 C-4.65 4 -6.3 4 -8 4 C-5.34601922 2.23067948 -3.9651626 1.69187127 -1 1 C-0.67 0.67 -0.34 0.34 0 0 Z " fill="#50C1E0" transform="translate(127,195)"/>
<path d="M0 0 C0.66 0 1.32 0 2 0 C2.309375 0.969375 2.61875 1.93875 2.9375 2.9375 C4.61361677 6.12771371 4.61361677 6.12771371 7.09765625 6.62109375 C10.41383977 6.97158469 13.66762228 7 17 7 C17 7.66 17 8.32 17 9 C13.47425575 11.35049617 12.15027493 11.32551176 8 11 C2.4 9.6 2.4 9.6 0 6 C-0.125 2.8125 -0.125 2.8125 0 0 Z " fill="#50C0DC" transform="translate(137,198)"/>
<path d="M0 0 C1.06992188 -0.04898438 2.13984375 -0.09796875 3.2421875 -0.1484375 C6.125 0.375 6.125 0.375 8.01953125 2.7734375 C9.125 5.375 9.125 5.375 8.9375 7.375 C8.669375 8.035 8.40125 8.695 8.125 9.375 C7.774375 10.2825 7.42375 11.19 7.0625 12.125 C6.753125 12.8675 6.44375 13.61 6.125 14.375 C1.67 13.385 1.67 13.385 -2.875 12.375 C-2.875 12.045 -2.875 11.715 -2.875 11.375 C1.58 10.88 1.58 10.88 6.125 10.375 C6.3752157 7.45865871 6.3752157 7.45865871 6.125 4.375 C3.22407498 2.44104999 2.22825263 2.07368059 -1.0625 1.75 C-2.9496875 1.564375 -2.9496875 1.564375 -4.875 1.375 C-4.875 3.355 -4.875 5.335 -4.875 7.375 C-5.535 7.375 -6.195 7.375 -6.875 7.375 C-6.91754356 5.37545254 -6.91580783 3.37458364 -6.875 1.375 C-5.06460804 -0.43539196 -2.44409565 0.07619483 0 0 Z " fill="#5BB4CC" transform="translate(67.875,184.625)"/>
<path d="M0 0 C0.66 0.66 1.32 1.32 2 2 C1.69690596 6.09176955 1.12300942 9.46165096 -1 13 C-1 12.34 -1 11.68 -1 11 C-2.98 11.99 -2.98 11.99 -5 13 C-6.28432364 9.14702908 -5.58019149 7.68711349 -4 4 C-1.875 1.625 -1.875 1.625 0 0 Z " fill="#4FC2DC" transform="translate(163,144)"/>
<path d="M0 0 C3.7602985 0.58107632 6.53035032 1.65199496 9.8125 3.5625 C10.60269531 4.01753906 11.39289063 4.47257812 12.20703125 4.94140625 C12.79871094 5.29074219 13.39039062 5.64007813 14 6 C13.01 6.495 13.01 6.495 12 7 C11.360625 6.67 10.72125 6.34 10.0625 6 C7.8881755 4.64925728 7.8881755 4.64925728 5 6 C4.01 6.495 4.01 6.495 3 7 C3.33 7.99 3.66 8.98 4 10 C0.37 9.01 -3.26 8.02 -7 7 C-7 6.67 -7 6.34 -7 6 C-4.36 6 -1.72 6 1 6 C0.67 4.02 0.34 2.04 0 0 Z " fill="#5AB4CC" transform="translate(88,13)"/>
<path d="M0 0 C1.64666203 0.1135629 3.29236082 0.24117381 4.9375 0.375 C6.31228516 0.47941406 6.31228516 0.47941406 7.71484375 0.5859375 C8.84599609 0.79089844 8.84599609 0.79089844 10 1 C10.33 1.66 10.66 2.32 11 3 C9.02 3 7.04 3 5 3 C5 3.66 5 4.32 5 5 C4.34 5 3.68 5 3 5 C2.67 5.99 2.34 6.98 2 8 C0.35 7.67 -1.3 7.34 -3 7 C-3 6.01 -3 5.02 -3 4 C-2.34 4 -1.68 4 -1 4 C-0.67 2.68 -0.34 1.36 0 0 Z " fill="#4DC2DF" transform="translate(143,11)"/>
<path d="M0 0 C1 3 1 3 0.875 6.3125 C1.01267997 10.37405897 1.87785955 12.57192696 4 16 C4.66 16.33 5.32 16.66 6 17 C6 17.66 6 18.32 6 19 C10.29 19.99 14.58 20.98 19 22 C19 22.33 19 22.66 19 23 C14.31278181 23.37497746 10.95124198 23.48459497 6.6875 21.3125 C3.48273175 18.55490871 0.89891708 15.79783416 -1 12 C-1.0955931 10.33555539 -1.12984645 8.66718037 -1.125 7 C-1.12757812 6.113125 -1.13015625 5.22625 -1.1328125 4.3125 C-1 2 -1 2 0 0 Z " fill="#61B6CA" transform="translate(99,81)"/>
<path d="M0 0 C8.18887218 0.64648991 15.43776924 5.33736235 22 10 C19 11 19 11 16.51953125 10.00390625 C15.62621094 9.52824219 14.73289063 9.05257812 13.8125 8.5625 C12.91144531 8.08941406 12.01039063 7.61632812 11.08203125 7.12890625 C10.39496094 6.75636719 9.70789063 6.38382812 9 6 C9 6.66 9 7.32 9 8 C8.34 8 7.68 8 7 8 C6.938125 7.071875 6.938125 7.071875 6.875 6.125 C6.58625 5.42375 6.2975 4.7225 6 4 C3.00384054 2.6954344 3.00384054 2.6954344 0 2 C0 1.34 0 0.68 0 0 Z " fill="#59B3CB" transform="translate(170,61)"/>
<path d="M0 0 C5.42687849 4.22090549 8.78586069 7.45352113 9.8125 14.5 C10.13087128 18.16739227 9.80657055 20.70566547 8 24 C7.67 24 7.34 24 7 24 C7 19.71 7 15.42 7 11 C6.34 11 5.68 11 5 11 C4.731875 10.071875 4.46375 9.14375 4.1875 8.1875 C3.06289965 5.1688359 2.29293427 4.0844857 0 2 C0 1.34 0 0.68 0 0 Z " fill="#5EB1CA" transform="translate(192,72)"/>
<path d="M0 0 C2.31 1.65 4.62 3.3 7 5 C3.66666667 5 0.33333333 5 -3 5 C-2.34 6.32 -1.68 7.64 -1 9 C-1.598125 8.67 -2.19625 8.34 -2.8125 8 C-5.05386471 6.79212012 -5.05386471 6.79212012 -8 7 C-10.15028304 7.94978897 -10.15028304 7.94978897 -12 9 C-9.78071806 6.09197539 -8.07030857 4.04687238 -5 2 C-2.3125 1.875 -2.3125 1.875 0 2 C0 1.34 0 0.68 0 0 Z " fill="#5BB6D1" transform="translate(121,142)"/>
<path d="M0 0 C5.75 0.875 5.75 0.875 8 2 C8 2.66 8 3.32 8 4 C7.34 4 6.68 4 6 4 C6.33 5.32 6.66 6.64 7 8 C2.25 7.125 2.25 7.125 0 6 C0 5.34 0 4.68 0 4 C-0.66 3.67 -1.32 3.34 -2 3 C-1.34 2.01 -0.68 1.02 0 0 Z " fill="#50C1DF" transform="translate(92,17)"/>
<path d="M0 0 C3.5625 1.5 3.5625 1.5 6 3 C4 4 4 4 2.375 3.5625 C-2.96822591 2.29699913 -8.14621095 2.37633024 -13 5 C-14.70294787 6.28667172 -16.37946188 7.61096733 -18 9 C-14.78408016 0.81402223 -7.91620547 -0.79559854 0 0 Z " fill="#5CB5C8" transform="translate(118,72)"/>
<path d="M0 0 C0.33 0 0.66 0 1 0 C1.06058594 0.77085938 1.12117188 1.54171875 1.18359375 2.3359375 C1.26738281 3.33882813 1.35117187 4.34171875 1.4375 5.375 C1.55931641 6.87160156 1.55931641 6.87160156 1.68359375 8.3984375 C1.84965626 10.97927613 1.84965626 10.97927613 3 13 C2.34 13.66 1.68 14.32 1 15 C-0.21693876 17.43387753 -0.31959896 19.41838846 -0.5625 22.125 C-0.68818359 23.49011719 -0.68818359 23.49011719 -0.81640625 24.8828125 C-0.87699219 25.58148438 -0.93757813 26.28015625 -1 27 C-1.33 27 -1.66 27 -2 27 C-2.20871753 17.75845174 -2.14982548 9.0599788 0 0 Z " fill="#5CB2CA" transform="translate(62,119)"/>
<path d="M0 0 C0.66 0 1.32 0 2 0 C4.28487759 6.34188464 4.23299776 12.24579268 4.125 18.9375 C4.11597656 20.00291016 4.10695312 21.06832031 4.09765625 22.16601562 C4.07423414 24.77758034 4.04143452 27.38866937 4 30 C3.67 30 3.34 30 3 30 C2.98018066 29.37432129 2.96036133 28.74864258 2.93994141 28.10400391 C2.84485774 25.27723481 2.73511254 22.45122185 2.625 19.625 C2.5940625 18.64015625 2.563125 17.6553125 2.53125 16.640625 C2.49257812 15.69960937 2.45390625 14.75859375 2.4140625 13.7890625 C2.3826416 12.91975098 2.3512207 12.05043945 2.31884766 11.15478516 C2.18770567 8.79038206 2.18770567 8.79038206 0 7 C0.33 6.01 0.66 5.02 1 4 C0.01 3.67 -0.98 3.34 -2 3 C-1.34 2.01 -0.68 1.02 0 0 Z " fill="#57B4CD" transform="translate(164,118)"/>
<path d="M0 0 C2.45391569 3.68087353 2.22802759 6.44355588 2.125 10.6875 C2.11597656 11.38939453 2.10695312 12.09128906 2.09765625 12.81445312 C2.07413704 14.54311525 2.03826713 16.27160145 2 18 C1.34 18.33 0.68 18.66 0 19 C-2.125 18.0625 -2.125 18.0625 -4 17 C-2.68 16.67 -1.36 16.34 0 16 C0 10.72 0 5.44 0 0 Z " fill="#5DB1C6" transform="translate(129,192)"/>
<path d="M0 0 C2 2 2 2 2.1875 4.5625 C2 7 2 7 1 8 C-1.53049402 8.07313567 -4.03304837 8.09247527 -6.5625 8.0625 C-7.62887695 8.05573242 -7.62887695 8.05573242 -8.71679688 8.04882812 C-10.47790013 8.03700864 -12.23896036 8.01907263 -14 8 C-13.67 7.34 -13.34 6.68 -13 6 C-8.71 6 -4.42 6 0 6 C0 4.02 0 2.04 0 0 Z " fill="#62B0C8" transform="translate(106,193)"/>
<path d="M0 0 C1 2 1 2 1.3125 5.6875 C1.81084289 10.24733747 3.60266396 13.13332897 6 17 C6 17.66 6 18.32 6 19 C4.68 18.34 3.36 17.68 2 17 C2 16.34 2 15.68 2 15 C1.34 15 0.68 15 0 15 C0.33 13.68 0.66 12.36 1 11 C0.34 11 -0.32 11 -1 11 C-1.02688151 9.35425434 -1.04634123 7.70838587 -1.0625 6.0625 C-1.07410156 5.14597656 -1.08570312 4.22945313 -1.09765625 3.28515625 C-1 1 -1 1 0 0 Z " fill="#5BB4CD" transform="translate(84,83)"/>
<path d="M0 0 C0 1.32 0 2.64 0 4 C-1.65 4.33 -3.3 4.66 -5 5 C-5.33 4.34 -5.66 3.68 -6 3 C-4.68 3 -3.36 3 -2 3 C-3.61451262 -0.04100725 -3.61451262 -0.04100725 -5.75 -0.6875 C-8.51916967 -1.0721069 -11.20802347 -1.06345401 -14 -1 C-14 -1.66 -14 -2.32 -14 -3 C-8.96422726 -5.0143091 -4.2631787 -2.84211913 0 0 Z " fill="#62B0CC" transform="translate(157,190)"/>
<path d="M0 0 C4.18423892 3.50897269 8.19588166 7.08060535 12 11 C10.35 11 8.7 11 7 11 C6.67 10.01 6.34 9.02 6 8 C4.824375 7.7834375 4.824375 7.7834375 3.625 7.5625 C1 7 1 7 -1 6 C-0.67 4.02 -0.34 2.04 0 0 Z " fill="#57B5CE" transform="translate(36,92)"/>
<path d="M0 0 C0.66 0.66 1.32 1.32 2 2 C1.67 2.99 1.34 3.98 1 5 C0.34 5 -0.32 5 -1 5 C-1.2475 5.86625 -1.495 6.7325 -1.75 7.625 C-3.07800024 11.21060064 -4.68630848 13.96327987 -7 17 C-7.66 17 -8.32 17 -9 17 C-9 14 -9 14 -7.6640625 12.6328125 C-7.11492187 12.09398438 -6.56578125 11.55515625 -6 11 C-5.07151333 9.32013683 -4.19883325 7.60858777 -3.375 5.875 C-1.08333333 1.08333333 -1.08333333 1.08333333 0 0 Z " fill="#5FB3C9" transform="translate(148,97)"/>
<path d="M0 0 C0.83907952 2.62212351 0.98045306 4.51799401 0.875 7.3125 C1.04329236 12.27712453 2.40089191 16.163987 5.6875 19.9375 C6.3371875 20.4634375 6.3371875 20.4634375 7 21 C6.67 21.66 6.34 22.32 6 23 C-1.29721941 14.55058805 -1.29721941 14.55058805 -1.1875 7.9375 C-1.18105469 7.08027344 -1.17460937 6.22304687 -1.16796875 5.33984375 C-1 3 -1 3 0 0 Z " fill="#63B1C6" transform="translate(28,80)"/>
<path d="M0 0 C0 0.33 0 0.66 0 1 C-4.26616316 2.13764351 -7.56486311 3 -12 3 C-10.68 6.3 -9.36 9.6 -8 13 C-8.66 13 -9.32 13 -10 13 C-12.84450614 9.28026121 -13.3227506 6.62609198 -13 2 C-8.46298506 0.54815522 -4.81938524 -0.23509196 0 0 Z " fill="#64AFCC" transform="translate(86,62)"/>
<path d="M0 0 C0.66 0 1.32 0 2 0 C1.45388137 3.82283043 -0.23818615 5.41079952 -3 8 C-3.33 8.66 -3.66 9.32 -4 10 C-6.5625 10.625 -6.5625 10.625 -9 11 C-9 10.01 -9 9.02 -9 8 C-8.443125 7.79375 -7.88625 7.5875 -7.3125 7.375 C-5.02890674 6.01718779 -4.0008439 4.92057214 -2.375 2.875 C-1.59125 1.92625 -0.8075 0.9775 0 0 Z " fill="#5CB7CF" transform="translate(122,125)"/>
<path d="M0 0 C2.56538479 2.56538479 3.37357879 5.06045896 4.6875 8.4375 C5.14511719 9.59121094 5.60273438 10.74492188 6.07421875 11.93359375 C7 15 7 15 6 18 C5.67 18 5.34 18 5 18 C4.70996094 17.11248047 4.70996094 17.11248047 4.4140625 16.20703125 C2.7491571 11.1472778 2.7491571 11.1472778 0.8125 6.1875 C0 4 0 4 0 0 Z " fill="#5AB0CA" transform="translate(156,92)"/>
<path d="M0 0 C-0.7115625 0.6496875 -0.7115625 0.6496875 -1.4375 1.3125 C-3.23686957 3.02309613 -3.23686957 3.02309613 -4 6 C-4.66 6 -5.32 6 -6 6 C-6 5.01 -6 4.02 -6 3 C-7.65 3 -9.3 3 -11 3 C-10 1 -10 1 -7.1875 -0.1875 C-4.14038924 -0.96421451 -2.86250637 -1.10096399 0 0 Z " fill="#51C0E2" transform="translate(61,63)"/>
<path d="M0 0 C0.66 0 1.32 0 2 0 C2.45375 1.0725 2.9075 2.145 3.375 3.25 C4.25518422 5.3289113 5.15183563 7.27330413 6.25 9.25 C7 11 7 11 6 14 C4.80285445 12.04754815 3.61751926 10.08785003 2.4375 8.125 C1.77621094 7.03445312 1.11492187 5.94390625 0.43359375 4.8203125 C-0.03949219 3.88960938 -0.51257813 2.95890625 -1 2 C-0.67 1.34 -0.34 0.68 0 0 Z " fill="#5BB5CC" transform="translate(80,98)"/>
<path d="M0 0 C1.1875 1.6875 1.1875 1.6875 2 4 C0.625 6.75 0.625 6.75 -1 9 C-1.99 8.67 -2.98 8.34 -4 8 C-3.67 7.67 -3.34 7.34 -3 7 C-4.65 6.67 -6.3 6.34 -8 6 C-8 5.34 -8 4.68 -8 4 C-4.535 3.505 -4.535 3.505 -1 3 C-0.67 2.01 -0.34 1.02 0 0 Z " fill="#57B1C9" transform="translate(124,201)"/>
<path d="M0 0 C0.99 0.33 1.98 0.66 3 1 C3.042721 2.66611905 3.04063832 4.33382885 3 6 C1.06826897 7.93173103 -2.39155594 7.63390259 -5 8 C-5.99 8.495 -5.99 8.495 -7 9 C-7.99 8.34 -8.98 7.68 -10 7 C-4.555 6.01 -4.555 6.01 1 5 C0.67 3.35 0.34 1.7 0 0 Z " fill="#5BB3CD" transform="translate(153,106)"/>
<path d="M0 0 C-1.26700723 0.9841125 -2.5387619 1.96211497 -3.8125 2.9375 C-4.87404297 3.75541016 -4.87404297 3.75541016 -5.95703125 4.58984375 C-8 6 -8 6 -11 7 C-11.33 7.66 -11.66 8.32 -12 9 C-12 8.01 -12 7.02 -12 6 C-11.01 5.34 -10.02 4.68 -9 4 C-8.67 3.01 -8.34 2.02 -8 1 C-4.68510482 -0.74468167 -3.63361056 -1.21120352 0 0 Z " fill="#5DB6C8" transform="translate(49,74)"/>
<path d="M0 0 C1.32 0.66 2.64 1.32 4 2 C4 2.99 4 3.98 4 5 C1.69 5.33 -0.62 5.66 -3 6 C-3 5.01 -3 4.02 -3 3 C-2.34 3 -1.68 3 -1 3 C-0.67 2.01 -0.34 1.02 0 0 Z " fill="#50C0E3" transform="translate(159,55)"/>
<path d="M0 0 C5.12605611 3.04792525 6.0854722 6.4704241 7.51953125 11.953125 C7.67808594 12.62859375 7.83664063 13.3040625 8 14 C7.34 14 6.68 14 6 14 C5.81824219 13.37351562 5.63648438 12.74703125 5.44921875 12.1015625 C5.07216797 10.87566406 5.07216797 10.87566406 4.6875 9.625 C4.32205078 8.40683594 4.32205078 8.40683594 3.94921875 7.1640625 C3.08631815 4.66815371 3.08631815 4.66815371 0 3 C0 2.01 0 1.02 0 0 Z " fill="#5FB0C6" transform="translate(159,14)"/>
<path d="M0 0 C0.99 0.33 1.98 0.66 3 1 C2.319375 1.556875 1.63875 2.11375 0.9375 2.6875 C-1.317511 4.83467165 -1.317511 4.83467165 -0.8125 7.625 C-0.06646319 9.97842556 -0.06646319 9.97842556 1 12 C-0.9375 11.3125 -0.9375 11.3125 -3 10 C-4 7.6875 -4 7.6875 -4 5 C-2.0625 2.1875 -2.0625 2.1875 0 0 Z " fill="#60B1CA" transform="translate(113,197)"/>
<path d="M0 0 C-0.1875 1.8125 -0.1875 1.8125 -1 4 C-3.3125 5.8125 -3.3125 5.8125 -6 7 C-8.16796875 6.57421875 -8.16796875 6.57421875 -10 6 C-8.71283353 4.99421411 -7.42011342 3.99553202 -6.125 3 C-5.40570313 2.443125 -4.68640625 1.88625 -3.9453125 1.3125 C-2 0 -2 0 0 0 Z " fill="#5BB2C8" transform="translate(103,146)"/>
<path d="M0 0 C0.66 0.33 1.32 0.66 2 1 C1.52389341 5.99911924 -0.03162219 8.97832683 -3 13 C-3 9.90124328 -2.41738748 7.75578485 -1.5 4.8125 C-1.2215625 3.91144531 -0.943125 3.01039063 -0.65625 2.08203125 C-0.4396875 1.39496094 -0.223125 0.70789063 0 0 Z " fill="#57B4C6" transform="translate(165,147)"/>
<path d="M0 0 C0.66 0.33 1.32 0.66 2 1 C0.35 4.96 -1.3 8.92 -3 13 C-3.33 12.34 -3.66 11.68 -4 11 C-4.66 10.67 -5.32 10.34 -6 10 C-5.34 10 -4.68 10 -4 10 C-3.79503906 9.36191406 -3.59007812 8.72382812 -3.37890625 8.06640625 C-3.10949219 7.24011719 -2.84007812 6.41382812 -2.5625 5.5625 C-2.29566406 4.73878906 -2.02882812 3.91507812 -1.75390625 3.06640625 C-1 1 -1 1 0 0 Z " fill="#5DB6CD" transform="translate(162,66)"/>
<path d="M0 0 C1.65 0 3.3 0 5 0 C5 0.99 5 1.98 5 3 C0.65714286 7 0.65714286 7 -2 7 C-2 6.34 -2 5.68 -2 5 C-0.68 4.67 0.64 4.34 2 4 C1.34 2.68 0.68 1.36 0 0 Z " fill="#5DB5D0" transform="translate(103,150)"/>
<path d="M0 0 C1.5625 1.8125 1.5625 1.8125 3 4 C2.67 4.99 2.34 5.98 2 7 C1.01 7 0.02 7 -1 7 C-1.66 5.02 -2.32 3.04 -3 1 C-2.01 0.67 -1.02 0.34 0 0 Z " fill="#54B9D8" transform="translate(153,98)"/>
<path d="M0 0 C1.65 0.33 3.3 0.66 5 1 C4.67 2.32 4.34 3.64 4 5 C2.35 5 0.7 5 -1 5 C-0.67 3.35 -0.34 1.7 0 0 Z " fill="#4CC3DE" transform="translate(85,14)"/>
<path d="M0 0 C0.99 0.33 1.98 0.66 3 1 C3.33 2.65 3.66 4.3 4 6 C0.62496331 4.8141763 -1.64722731 3.72426311 -4 1 C-2.68 1.33 -1.36 1.66 0 2 C0 1.34 0 0.68 0 0 Z " fill="#58B7CF" transform="translate(43,105)"/>
<path d="M0 0 C2 1.8125 2 1.8125 4 4 C4 4.99 4 5.98 4 7 C2.68 7 1.36 7 0 7 C-0.93423645 3.98968256 -1.04449911 3.13349732 0 0 Z " fill="#52B7D0" transform="translate(76,202)"/>
<path d="M0 0 C3.19199167 2.41556126 5.74716687 4.68003538 8 8 C7.67 8.66 7.34 9.32 7 10 C4.13211375 8.94844171 3.17723991 8.36380824 1.8125 5.5625 C1.544375 4.716875 1.27625 3.87125 1 3 C0.67 2.01 0.34 1.02 0 0 Z " fill="#60B3C9" transform="translate(125,42)"/>
<path d="M0 0 C2.74277578 3.19990508 4.6302836 6.00499382 6 10 C4.125 9.8125 4.125 9.8125 2 9 C0.21715186 5.70173093 0 3.8225249 0 0 Z " fill="#5EB1CC" transform="translate(141,64)"/>
<path d="M0 0 C0.66 0 1.32 0 2 0 C0.7508258 3.45925163 -0.67527795 6.14693203 -3 9 C-3 7.02 -3 5.04 -3 3 C-2.01 2.67 -1.02 2.34 0 2 C0 1.34 0 0.68 0 0 Z " fill="#5BB6CF" transform="translate(93,66)"/>
<path d="M0 0 C1.7492214 -0.08142927 3.49954542 -0.13938541 5.25 -0.1875 C6.22453125 -0.22230469 7.1990625 -0.25710938 8.203125 -0.29296875 C11.37468742 0.03924798 12.67040307 0.88672279 15 3 C13.33388095 3.042721 11.66617115 3.04063832 10 3 C9.67 2.67 9.34 2.34 9 2 C7.48530552 1.76807135 5.96245438 1.58784762 4.4375 1.4375 C3.61121094 1.35371094 2.78492188 1.26992187 1.93359375 1.18359375 C1.29550781 1.12300781 0.65742188 1.06242188 0 1 C0 0.67 0 0.34 0 0 Z " fill="#5EACBD" transform="translate(144,11)"/>
<path d="M0 0 C7.625 0.875 7.625 0.875 11 2 C11 2.66 11 3.32 11 4 C7.0507432 3.44894091 3.65079826 2.61064629 0 1 C0 0.67 0 0.34 0 0 Z " fill="#5EB7CC" transform="translate(51,113)"/>
<path d="M0 0 C0 0.66 0 1.32 0 2 C-0.99 2.33 -1.98 2.66 -3 3 C-3.99 4.485 -3.99 4.485 -5 6 C-6.32 5.67 -7.64 5.34 -9 5 C-7.87926138 4.16094435 -6.75325453 3.32892169 -5.625 2.5 C-4.99851562 2.0359375 -4.37203125 1.571875 -3.7265625 1.09375 C-2 0 -2 0 0 0 Z " fill="#5CB5CB" transform="translate(44,67)"/>
<path d="M0 0 C-2.1875 2.0625 -2.1875 2.0625 -5 4 C-7.8125 3.75 -7.8125 3.75 -10 3 C-6.68152292 -0.06320961 -4.44849969 -0.3033068 0 0 Z " fill="#5BB9D2" transform="translate(88,54)"/>
<path d="M0 0 C0.66 0 1.32 0 2 0 C2 1.98 2 3.96 2 6 C0.68 6 -0.64 6 -2 6 C-1.34 4.02 -0.68 2.04 0 0 Z " fill="#50C0E2" transform="translate(104,193)"/>
<path d="M0 0 C0.66 0 1.32 0 2 0 C1.44271087 3.34373475 0.64826111 6.03312999 -1 9 C-1.66 8.67 -2.32 8.34 -3 8 C-2.01 5.36 -1.02 2.72 0 0 Z " fill="#5AB6C9" transform="translate(153,68)"/>
<path d="M0 0 C-0.33 1.32 -0.66 2.64 -1 4 C-1.99 4 -2.98 4 -4 4 C-4.33 5.32 -4.66 6.64 -5 8 C-4.74438677 5.6568787 -4.40729228 3.32156597 -4 1 C-2 0 -2 0 0 0 Z " fill="#4EC4DF" transform="translate(123,28)"/>
<path d="M0 0 C2.25 -0.25 2.25 -0.25 5 0 C7.3125 2 7.3125 2 9 4 C3.46153846 3.38461538 3.46153846 3.38461538 1.125 1.4375 C0.75375 0.963125 0.3825 0.48875 0 0 Z " fill="#5CB4C8" transform="translate(87,206)"/>
<path d="M0 0 C2.4375 0.625 2.4375 0.625 5 2 C5.8125 5.125 5.8125 5.125 6 8 C1.125 3.375 1.125 3.375 0 0 Z " fill="#5AB4C5" transform="translate(130,62)"/>
<path d="M0 0 C0.66 0 1.32 0 2 0 C2 1.65 2 3.3 2 5 C0.35 5 -1.3 5 -3 5 C-1.625 2.5 -1.625 2.5 0 0 Z " fill="#55C0E5" transform="translate(162,49)"/>
</svg>
