<?xml version="1.0" encoding="UTF-8"?>
<svg version="1.1" xmlns="http://www.w3.org/2000/svg" width="252" height="200">
<path d="M0 0 C13.41130831 -0.431463 27.92887695 1.61742652 38.25 10.85546875 C44.49906767 17.63799342 45.89386763 23.82541918 45.625 32.89453125 C44.75370234 43.2878676 39.75672627 54.53245864 31.73046875 61.3984375 C30.55291016 62.26855469 30.55291016 62.26855469 29.3515625 63.15625 C28.6296875 63.89875 27.9078125 64.64125 27.1640625 65.40625 C25.3515625 67.15625 25.3515625 67.15625 23.3515625 67.15625 C23.3515625 67.81625 23.3515625 68.47625 23.3515625 69.15625 C6.96226074 79.44508944 -13.6092141 85.37179659 -32.90234375 81.50390625 C-39.12622199 79.48698882 -44.50975172 76.30194221 -48.6484375 71.15625 C-49.6484375 67.71875 -49.6484375 67.71875 -49.6484375 65.15625 C-46.05480034 65.49315348 -43.98192415 66.57315706 -41.1484375 68.65625 C-33.19727503 73.80287487 -22.90126819 72.56772761 -13.97265625 70.94140625 C-4.33726211 68.66559635 3.98924407 65.23371099 12.14453125 59.609375 C14.3515625 58.15625 14.3515625 58.15625 17.3515625 57.15625 C17.6815625 56.16625 18.0115625 55.17625 18.3515625 54.15625 C19.52396493 53.01734478 20.6975892 51.87965596 21.87890625 50.75 C27.04164672 45.1627371 30.48653357 39.45047411 30.5390625 31.78125 C30.55324219 30.84539063 30.56742188 29.90953125 30.58203125 28.9453125 C30.32808975 25.87218993 29.8859574 23.83798523 28.3515625 21.15625 C26.08108317 19.8443648 26.08108317 19.8443648 23.3515625 19.15625 C22.43761719 18.86363281 21.52367187 18.57101563 20.58203125 18.26953125 C-5.18583053 11.48851499 -30.48481679 22.96248658 -52.4375 35.609375 C-58.19646981 39.02689963 -63.51272103 42.84760444 -68.6484375 47.15625 C-69.78539063 48.10564453 -69.78539063 48.10564453 -70.9453125 49.07421875 C-77.66910501 55.20399199 -82.33608973 63.2302284 -83.7734375 72.28125 C-84.07964299 79.07245031 -81.61174629 84.89089371 -77.2109375 89.96875 C-75.9425 91.0515625 -75.9425 91.0515625 -74.6484375 92.15625 C-73.54435547 93.29320313 -73.54435547 93.29320313 -72.41796875 94.453125 C-69.36707749 97.43086372 -66.15124499 100.0032784 -62.7734375 102.59375 C-58.89637219 105.58293007 -55.11469765 108.57262373 -51.5234375 111.90625 C-49.00027874 114.42248406 -49.00027874 114.42248406 -46.73486328 113.93969727 C-44.47596221 113.09148599 -42.48338979 112.07287716 -40.390625 110.87109375 C-39.20533203 110.19916992 -39.20533203 110.19916992 -37.99609375 109.51367188 C-37.18011719 109.04509766 -36.36414063 108.57652344 -35.5234375 108.09375 C-33.89804314 107.16150112 -32.2705368 106.2329218 -30.640625 105.30859375 C-29.56337158 104.6897229 -29.56337158 104.6897229 -28.46435547 104.05834961 C-26.6484375 103.15625 -26.6484375 103.15625 -24.6484375 103.15625 C-24.39449219 102.56972656 -24.14054687 101.98320313 -23.87890625 101.37890625 C-20.51427373 95.30120498 -14.15052087 91.16598486 -7.6484375 89.15625 C-3.72652978 88.69093891 -1.63372593 88.53396257 1.7265625 90.65625 C4.04391052 94.2214008 4.14622123 96.91253049 4.3515625 101.15625 C4.0215625 101.81625 3.6915625 102.47625 3.3515625 103.15625 C4.2178125 102.846875 4.2178125 102.846875 5.1015625 102.53125 C7.88887278 102.06669829 8.93187249 102.82440382 11.3515625 104.15625 C10.87414777 110.84005626 9.47873233 117.03796319 7.72363281 123.48242188 C6.74665575 127.15728971 6.26397112 130.36741356 6.3515625 134.15625 C14.7067476 116.15884919 14.7067476 116.15884919 22.9140625 98.09375 C23.378125 97.0720874 23.378125 97.0720874 23.8515625 96.02978516 C25.76244391 91.7441028 27.24596568 87.46157261 28.52319336 82.94360352 C28.79655518 82.35377686 29.06991699 81.7639502 29.3515625 81.15625 C32.36646807 80.15128148 34.39337942 80.05289697 37.5390625 80.09375 C38.89064453 80.10728516 38.89064453 80.10728516 40.26953125 80.12109375 C40.95660156 80.13269531 41.64367187 80.14429687 42.3515625 80.15625 C43.40625 81.96484375 43.40625 81.96484375 44.3515625 84.15625 C43.88511276 85.78882409 43.40983973 87.41978483 42.875 89.03125 C41.31846134 95.35033231 41.77523934 102.1985027 44.3515625 108.15625 C47.89526063 103.39633491 50.85362534 98.66182116 53.4765625 93.34375 C53.82565674 92.64813965 54.17475098 91.9525293 54.53442383 91.23583984 C56.45806646 87.30845968 57.95520461 83.53616641 59.0390625 79.28125 C60.09534993 75.34657934 60.09534993 75.34657934 62.5390625 73.53125 C71.66735197 72.31414474 71.66735197 72.31414474 75.3515625 74.15625 C75.135 75.826875 75.135 75.826875 74.9140625 77.53125 C74.82769531 78.2634375 74.74132812 78.995625 74.65234375 79.75 C74.45130535 81.35830718 74.21928145 82.96303345 73.95703125 84.5625 C73.01375533 91.11360308 74.0666983 95.99164115 76.3515625 102.15625 C76.6815625 103.14625 77.0115625 104.13625 77.3515625 105.15625 C78.06699219 104.87910156 78.78242188 104.60195312 79.51953125 104.31640625 C91.3788957 100.00530481 102.33950634 98.61690545 114.3515625 103.15625 C120.02889279 105.88919934 124.88876977 108.75429335 128.3515625 114.15625 C128.9084375 114.89875 129.4653125 115.64125 130.0390625 116.40625 C132.47760086 121.51556847 132.64901936 126.37150887 131.7265625 131.90625 C129.676054 136.75290645 126.66617746 139.27984003 122.3515625 142.15625 C119.6640625 142.28125 119.6640625 142.28125 117.3515625 142.15625 C118.3515625 139.15625 118.3515625 139.15625 120.7890625 137.34375 C123.91444607 134.67573963 124.65296484 133.19259205 125.3515625 129.15625 C125.01273914 124.84472276 123.88705323 121.87023764 121.2890625 118.40625 C115.46973311 113.94889132 108.62356227 111.03543015 101.234375 111.0234375 C100.46222656 111.02214844 99.69007813 111.02085938 98.89453125 111.01953125 C97.69763672 111.02533203 97.69763672 111.02533203 96.4765625 111.03125 C95.29126953 111.02544922 95.29126953 111.02544922 94.08203125 111.01953125 C89.7263663 111.02677861 85.63995748 111.28753976 81.3515625 112.15625 C81.7021875 113.166875 82.0528125 114.1775 82.4140625 115.21875 C83.83039959 120.13603301 82.95058906 124.35917031 81.3515625 129.15625 C80.6915625 129.15625 80.0315625 129.15625 79.3515625 129.15625 C78.98804688 130.04957031 78.98804688 130.04957031 78.6171875 130.9609375 C75.84830659 135.76374945 70.06747691 138.43028621 65.1015625 140.53125 C58.81031502 141.96107897 58.81031502 141.96107897 55.5390625 140.15625 C53.58649558 136.86771624 53.704155 133.80022934 54.3515625 130.15625 C56.36561038 124.50796462 59.08381902 120.2783016 63.3515625 116.09375 C65.20007445 114.25568106 65.20007445 114.25568106 66.3515625 112.15625 C66.12565638 108.76765816 64.81150402 106.18004346 63.3515625 103.15625 C62.6642405 101.16325404 61.99314655 99.16443683 61.3515625 97.15625 C59.72438616 99.90496773 58.10020811 102.65544546 56.4765625 105.40625 C56.01636719 106.18355469 55.55617187 106.96085937 55.08203125 107.76171875 C54.63730469 108.51582031 54.19257813 109.26992187 53.734375 110.046875 C53.32590332 110.73813477 52.91743164 111.42939453 52.49658203 112.14160156 C52.11872559 112.80643555 51.74086914 113.47126953 51.3515625 114.15625 C50.95308105 114.82495117 50.55459961 115.49365234 50.14404297 116.18261719 C48.99845974 119.0356347 50.07735399 121.0944133 50.8828125 123.9453125 C52.01582164 129.28933893 51.24454881 134.30327976 48.2890625 138.90625 C43.96140326 144.26608084 38.07917099 147.5295587 31.37890625 148.94921875 C27.87751159 149.30677928 24.80373134 148.82245802 21.3515625 148.15625 C20.3515625 147.15625 20.3515625 147.15625 20.06640625 144.39453125 C20.40822025 140.51283533 21.37759751 139.246005 23.9140625 136.34375 C24.6359375 135.48652344 25.3578125 134.62929687 26.1015625 133.74609375 C27.55785551 132.06983981 29.01606496 130.39524811 30.4765625 128.72265625 C34.17385744 124.5071212 34.17385744 124.5071212 35.6015625 119.28125 C34.40728978 116.2955682 33.10880146 113.38581533 31.7734375 110.4609375 C31.0942627 108.97182861 31.0942627 108.97182861 30.40136719 107.45263672 C30.05493164 106.6948291 29.70849609 105.93702148 29.3515625 105.15625 C28.98357544 106.05210815 28.98357544 106.05210815 28.6081543 106.96606445 C24.1046403 117.84167123 19.45387246 128.5536852 13.6015625 138.78125 C13.16674561 139.55509033 12.73192871 140.32893066 12.28393555 141.1262207 C9.53193585 145.8006152 6.82786486 149.05024428 2.3515625 152.15625 C-0.8359375 152.40625 -0.8359375 152.40625 -3.6484375 151.15625 C-5.60623766 147.57820143 -6.70116483 144.09308046 -7.6484375 140.15625 C-8.22851562 141.40341797 -8.22851562 141.40341797 -8.8203125 142.67578125 C-9.34109375 143.76246094 -9.861875 144.84914062 -10.3984375 145.96875 C-11.16414063 147.58716797 -11.16414063 147.58716797 -11.9453125 149.23828125 C-13.63164115 152.12747277 -14.76773084 153.52291729 -17.6484375 155.15625 C-21.56986431 155.65534069 -23.83228821 155.59279497 -27.3359375 153.71875 C-33.67461588 146.69480909 -34.77951725 138.38644921 -34.6484375 129.15625 C-33.63744849 120.13427198 -33.63744849 120.13427198 -31.6484375 116.15625 C-34.9484375 118.13625 -38.2484375 120.11625 -41.6484375 122.15625 C-41.48988281 123.15269531 -41.33132812 124.14914063 -41.16796875 125.17578125 C-39.39395273 137.71993362 -39.8033755 150.15270378 -46.9609375 161.03125 C-54.72805013 170.79358423 -64.46269181 175.35954077 -76.6484375 177.15625 C-82.16169733 177.49270414 -86.23205709 176.92188694 -90.6484375 173.46875 C-94.693901 169.45184272 -95.69964114 165.48928422 -96.0234375 159.90625 C-95.89050965 153.37063089 -93.22949126 147.52783064 -89.6484375 142.15625 C-88.9884375 142.15625 -88.3284375 142.15625 -87.6484375 142.15625 C-87.38417969 141.55167969 -87.11992188 140.94710937 -86.84765625 140.32421875 C-83.50223976 134.27631598 -75.65915713 130.84552753 -69.8984375 127.34375 C-69.2485083 126.94647705 -68.5985791 126.5492041 -67.92895508 126.13989258 C-64.8557054 124.30531219 -62.14214013 122.90660421 -58.6484375 122.15625 C-58.6484375 121.16625 -58.6484375 120.17625 -58.6484375 119.15625 C-59.66164063 118.82173828 -59.66164063 118.82173828 -60.6953125 118.48046875 C-64.4970612 116.77571636 -67.58137583 114.46680477 -70.8984375 111.96875 C-71.89641357 111.22455811 -71.89641357 111.22455811 -72.91455078 110.46533203 C-74.23514014 109.47818265 -75.5537242 108.48834394 -76.87011719 107.49560547 C-78.34427182 106.3853347 -79.82727035 105.28681756 -81.3125 104.19140625 C-92.07908331 96.10695765 -99.78793765 87.74733773 -103.7109375 74.59375 C-103.43586019 59.46449782 -94.4114079 47.7897175 -84.15039062 37.59863281 C-80.53907915 34.1305528 -76.71093876 31.0750009 -72.6484375 28.15625 C-71.74867187 27.50269531 -70.84890625 26.84914063 -69.921875 26.17578125 C-49.8519943 12.19178082 -24.55130707 1.44845469 0 0 Z M-10.9609375 102.21484375 C-17.54444182 109.78892163 -21.8732696 119.55368061 -21.53125 129.59765625 C-21.30359777 132.79513536 -21.01266266 135.97174079 -20.6484375 139.15625 C-19.6584375 139.15625 -18.6684375 139.15625 -17.6484375 139.15625 C-13.32155494 133.98183374 -11.29266344 127.66003884 -8.9609375 121.40625 C-8.55810547 120.37242187 -8.15527344 119.33859375 -7.74023438 118.2734375 C-5.33224815 111.86827481 -3.91010568 106.0033926 -3.6484375 99.15625 C-7.07981507 99.15625 -8.41899392 99.98428826 -10.9609375 102.21484375 Z M70.3515625 118.15625 C64.81102229 124.27610095 64.81102229 124.27610095 63.3515625 132.15625 C66.05658653 131.27894491 68.03556256 130.43956029 70.1640625 128.53125 C71.9314816 124.99641181 71.54785317 122.08206331 71.3515625 118.15625 C71.0215625 118.15625 70.6915625 118.15625 70.3515625 118.15625 Z M-73.578125 142.00390625 C-78.38531458 147.00156938 -80.09399768 151.28578804 -80.08203125 158.23828125 C-79.78861697 160.56059309 -79.78861697 160.56059309 -76.6484375 162.15625 C-70.49769699 162.74909246 -65.60948912 160.5870997 -60.7265625 157.02734375 C-54.7164153 151.61595182 -50.95828334 144.69997822 -50.50390625 136.5703125 C-50.28387962 131.70449716 -50.28387962 131.70449716 -51.6484375 127.15625 C-58.76106388 127.15625 -68.60955156 137.33089104 -73.578125 142.00390625 Z M36.3515625 133.15625 C37.3515625 135.15625 37.3515625 135.15625 37.3515625 135.15625 Z M34.3515625 135.15625 C34.0215625 135.81625 33.6915625 136.47625 33.3515625 137.15625 C34.3415625 136.82625 35.3315625 136.49625 36.3515625 136.15625 C35.6915625 135.82625 35.0315625 135.49625 34.3515625 135.15625 Z " fill="#CB6297" transform="translate(111.6484375,10.84375)"/>
<path d="M0 0 C0.66 0 1.32 0 2 0 C-0.43361952 17.05512218 -0.43361952 17.05512218 -4.79296875 24.70703125 C-6.83633411 28.58876415 -7.89360385 32.7723074 -9 37 C-7.576875 36.505 -7.576875 36.505 -6.125 36 C-3 35 -3 35 -1 35 C-1.0825 35.886875 -1.165 36.77375 -1.25 37.6875 C-0.94791837 41.69008159 0.29727467 43.12835434 3 46 C2.34 46 1.68 46 1 46 C1 47.32 1 48.64 1 50 C2.32 50.66 3.64 51.32 5 52 C3.515 52.495 3.515 52.495 2 53 C-2.3590077 49.51279384 -2.94552183 46.27239085 -4 41 C-4.99 42.98 -5.98 44.96 -7 47 C-7.495 45.515 -7.495 45.515 -8 44 C-8.66 43.67 -9.32 43.34 -10 43 C-9.34 42.34 -8.68 41.68 -8 41 C-9.32 40.67 -10.64 40.34 -12 40 C-12.33 40.66 -12.66 41.32 -13 42 C-14.32 42 -15.64 42 -17 42 C-16 40 -16 40 -14.09423828 38.23291016 C-11.7050044 35.685471 -10.73935561 33.5256722 -9.4921875 30.2734375 C-8.84830078 28.60087891 -8.84830078 28.60087891 -8.19140625 26.89453125 C-7.75699219 25.73308594 -7.32257813 24.57164062 -6.875 23.375 C-6.43285156 22.23675781 -5.99070312 21.09851563 -5.53515625 19.92578125 C-3.03536713 13.34778633 -1.07849849 6.95977835 0 0 Z " fill="#BB618E" transform="translate(108,110)"/>
<path d="M0 0 C1.13199829 0.00483398 1.13199829 0.00483398 2.28686523 0.00976562 C8.41102035 0.16193484 13.47162204 1.4636507 18.875 4.4375 C18.545 6.0875 18.215 7.7375 17.875 9.4375 C17.215 9.1075 16.555 8.7775 15.875 8.4375 C15.545 8.7675 15.215 9.0975 14.875 9.4375 C13.864375 9.14875 12.85375 8.86 11.8125 8.5625 C6.76107562 7.17059292 1.63231929 7.06377207 -3.57641602 6.95556641 C-8.70570082 6.76251889 -8.70570082 6.76251889 -11.10546875 4.90234375 C-11.44191406 4.41894531 -11.77835938 3.93554688 -12.125 3.4375 C-8.51294464 -0.12727715 -4.80836286 -0.06305361 0 0 Z " fill="#CF629A" transform="translate(210.125,112.5625)"/>
<path d="M0 0 C0.66 0 1.32 0 2 0 C1.33333333 2.66666667 0.66666667 5.33333333 0 8 C3.36591866 6.55746343 5.51047079 4.66735273 8 2 C7.34 3.98 6.68 5.96 6 8 C5.01 8 4.02 8 3 8 C3 8.66 3 9.32 3 10 C5.78938212 10.41890218 5.78938212 10.41890218 9 10 C11.75041666 7.58333229 11.75041666 7.58333229 14 5 C14.66 5 15.32 5 16 5 C13.53968775 11.0460865 7.52777415 13.93055709 1.75 16.375 C-4.54124748 17.80482897 -4.54124748 17.80482897 -7.8125 16 C-9.6982906 12.82393163 -9.42183238 9.55445641 -9 6 C-8 3 -8 3 -7 1 C-6.14340865 4.08084955 -5.73058631 7.06792001 -5.4375 10.25 C-5.35371094 11.14203125 -5.26992187 12.0340625 -5.18359375 12.953125 C-5.12300781 13.62859375 -5.06242188 14.3040625 -5 15 C-4.01 14.67 -3.02 14.34 -2 14 C-2.33 13.01 -2.66 12.02 -3 11 C-2.6875 9.25 -2.6875 9.25 -2 7 C-1.649375 5.7625 -1.29875 4.525 -0.9375 3.25 C-0.628125 2.1775 -0.31875 1.105 0 0 Z " fill="#C26090" transform="translate(175,135)"/>
<path d="M0 0 C1 3 1 3 -0.43359375 6.35546875 C-1.09148807 7.6380304 -1.75989743 8.91524057 -2.4375 10.1875 C-2.77587891 10.84169922 -3.11425781 11.49589844 -3.46289062 12.16992188 C-4.29969098 13.78459299 -5.14869746 15.39292763 -6 17 C-6.61875 16.34 -7.2375 15.68 -7.875 15 C-9.75637427 12.7715451 -9.75637427 12.7715451 -12 13 C-12.19142578 13.86044922 -12.19142578 13.86044922 -12.38671875 14.73828125 C-13.00779494 17.02874693 -13.80205816 19.04182072 -14.8125 21.1875 C-15.12832031 21.88230469 -15.44414063 22.57710937 -15.76953125 23.29296875 C-17 25 -17 25 -19.13671875 25.73828125 C-19.75160156 25.82464844 -20.36648437 25.91101563 -21 26 C-21.34548714 19.66606918 -20.29342747 14.89738492 -18 9 C-17 13 -17 13 -18 22 C-15.36 16.39 -12.72 10.78 -10 5 C-9.67 5.99 -9.34 6.98 -9 8 C-8.01 7.67 -7.02 7.34 -6 7 C-5.67 7.66 -5.34 8.32 -5 9 C-3.35 6.03 -1.7 3.06 0 0 Z " fill="#BB608D" transform="translate(136,123)"/>
<path d="M0 0 C0.66 0 1.32 0 2 0 C2.598125 0.763125 3.19625 1.52625 3.8125 2.3125 C8.66233883 8.27087342 15.63124025 9.9866942 23 11 C26.59962156 10.9974704 30.16615175 10.72054049 33.7434082 10.33300781 C35.48989293 10.15326372 37.24564996 10.06908538 39 10 C39.66 10.66 40.32 11.32 41 12 C30.42735773 14.54987255 17.60099268 14.43006963 8 9 C5.07332076 6.9008323 2.35306247 4.73737354 0 2 C0 1.34 0 0.68 0 0 Z " fill="#B6648B" transform="translate(63,80)"/>
<path d="M0 0 C2 1 2 1 3 2 C4.99422795 2.36628677 6.99453311 2.70131344 9 3 C9 5.64 9 8.28 9 11 C8.01 11.495 8.01 11.495 7 12 C6.67 9.69 6.34 7.38 6 5 C4.35 6.65 2.7 8.3 1 10 C1 9.34 1 8.68 1 8 C-0.32 8 -1.64 8 -3 8 C-3.66 8 -4.32 8 -5 8 C-5 8.66 -5 9.32 -5 10 C-5.66 9.67 -6.32 9.34 -7 9 C-4.69 6.03 -2.38 3.06 0 0 Z " fill="#C06090" transform="translate(176,125)"/>
<path d="M0 0 C0 0.66 0 1.32 0 2 C-1.65 2.66 -3.3 3.32 -5 4 C-5 4.66 -5 5.32 -5 6 C-10.47105828 9.43460881 -16.1729183 12.00589686 -22.1875 14.3125 C-22.86425781 14.57885254 -23.54101562 14.84520508 -24.23828125 15.11962891 C-28.30189574 16.63651245 -31.66971243 17.28958377 -36 17 C-34.9375 15.5625 -34.9375 15.5625 -33 14 C-31.38729458 13.76481379 -29.7727162 13.53799371 -28.15234375 13.36328125 C-19.09507965 11.83455972 -11.18741106 7.36813498 -4.125 1.6875 C-2 0 -2 0 0 0 Z " fill="#B7608B" transform="translate(140,74)"/>
<path d="M0 0 C2.49252474 7.47757422 4.66691412 14.58379604 0.98828125 22.0546875 C-1.45383865 25.76794236 -3.55578629 27.85720219 -8 29 C-6.64407995 24.43917803 -4.99372211 23.35527201 -1 21 C0.88885749 15.66540854 0.31096113 9.50167078 -0.5625 4 C-0.7790625 2.515 -0.7790625 2.515 -1 1 C-0.67 0.67 -0.34 0.34 0 0 Z " fill="#B85F8B" transform="translate(160,126)"/>
<path d="M0 0 C-3.08809695 1.76462683 -4.23312136 2 -8 2 C-8.33 1.34 -8.66 0.68 -9 0 C-9.63502441 0.03029297 -10.27004883 0.06058594 -10.92431641 0.09179688 C-13.82447734 0.22932046 -16.72473551 0.36467871 -19.625 0.5 C-21.12353516 0.57154297 -21.12353516 0.57154297 -22.65234375 0.64453125 C-27.4391967 0.86643834 -32.20634828 1.06544234 -37 1 C-26.36406589 -4.84026739 -11.31762555 -2.24747174 0 0 Z " fill="#B46088" transform="translate(133,13)"/>
<path d="M0 0 C0.33 0 0.66 0 1 0 C1.33 1.65 1.66 3.3 2 5 C3.32 5.33 4.64 5.66 6 6 C6.33 4.68 6.66 3.36 7 2 C7 2.66 7 3.32 7 4 C10.96 3.34 14.92 2.68 19 2 C19 2.99 19 3.98 19 5 C12.54609039 7.34086476 7.76830543 8.47672118 1 7 C0 6 0 6 -0.0625 2.9375 C-0.041875 1.968125 -0.02125 0.99875 0 0 Z " fill="#C25E93" transform="translate(132,152)"/>
<path d="M0 0 C0.66 0.33 1.32 0.66 2 1 C1.01 1.33 0.02 1.66 -1 2 C-0.67 2.99 -0.34 3.98 0 5 C-0.9075 5.2475 -1.815 5.495 -2.75 5.75 C-6.12772697 7.04912576 -7.57519053 8.40198985 -10 11 C-10.66 11 -11.32 11 -12 11 C-12 11.66 -12 12.32 -12 13 C-13.98 13.66 -15.96 14.32 -18 15 C-15.11217066 8.21797656 -6.53250585 3.08223867 0 0 Z " fill="#BA618E" transform="translate(42,138)"/>
<path d="M0 0 C0.33 0 0.66 0 1 0 C1.33292585 4.24480464 1.43885872 6.35542625 -1 9.9375 C-1.66 10.618125 -2.32 11.29875 -3 12 C-2.67 12.66 -2.34 13.32 -2 14 C-3.32 14.33 -4.64 14.66 -6 15 C-6.0825 15.598125 -6.165 16.19625 -6.25 16.8125 C-7.20455872 19.5966296 -8.57132271 20.43311142 -11 22 C-11.6875 20.1875 -11.6875 20.1875 -12 18 C-10.6875 16.25 -10.6875 16.25 -9 15 C-8.34 15 -7.68 15 -7 15 C-6.7525 14.484375 -6.505 13.96875 -6.25 13.4375 C-5.20779731 11.40520476 -4.09909008 9.46414322 -2.9375 7.5 C-1.5072995 5.02772032 -0.45675276 2.85470472 0 0 Z " fill="#C46190" transform="translate(60,151)"/>
<path d="M0 0 C7.75 -0.125 7.75 -0.125 10 1 C9.855625 2.11375 9.71125 3.2275 9.5625 4.375 C9.15619775 7.64283094 8.7812057 10.91247567 8.4375 14.1875 C8.35371094 14.98542969 8.26992187 15.78335938 8.18359375 16.60546875 C7.99387706 19.07985873 7.96915711 21.51935026 8 24 C5.02909411 19.54364117 5.54652292 14.52148892 6.453125 9.48046875 C6.93188879 7.308933 7.44197059 5.15239916 8 3 C5.36 2.67 2.72 2.34 0 2 C0 1.34 0 0.68 0 0 Z " fill="#B66389" transform="translate(177,84)"/>
<path d="M0 0 C0.39832031 0.51175781 0.79664062 1.02351563 1.20703125 1.55078125 C0.54703125 2.87078125 -0.11296875 4.19078125 -0.79296875 5.55078125 C-4.09296875 4.56078125 -7.39296875 3.57078125 -10.79296875 2.55078125 C-10.79296875 1.89078125 -10.79296875 1.23078125 -10.79296875 0.55078125 C-9.36150497 0.1336461 -7.92237989 -0.25726845 -6.48046875 -0.63671875 C-5.67996094 -0.85714844 -4.87945312 -1.07757813 -4.0546875 -1.3046875 C-1.79296875 -1.44921875 -1.79296875 -1.44921875 0 0 Z " fill="#CF639B" transform="translate(82.79296875,85.44921875)"/>
<path d="M0 0 C2 1 4 2 6 3 C6 3.99 6 4.98 6 6 C6.66 6 7.32 6 8 6 C9.71230248 7.61974559 11.37163262 9.2958946 13 11 C13.928125 11.928125 14.85625 12.85625 15.8125 13.8125 C16.8953125 14.8953125 16.8953125 14.8953125 18 16 C14.55245575 14.41445489 11.57879463 12.39932636 8.5 10.1875 C7.5615625 9.52105469 6.623125 8.85460937 5.65625 8.16796875 C2.99438642 5.99541833 1.03815546 3.75439405 -1 1 C-0.67 0.67 -0.34 0.34 0 0 Z M6 2 C9 3 9 3 9 3 Z " fill="#B7608B" transform="translate(22,105)"/>
<path d="M0 0 C3.60822687 3.11619594 4.85894343 6.36125451 5.265625 11.0859375 C5.23707122 17.0965084 5.10550138 22.34146504 3 28 C2.67 28 2.34 28 2 28 C2.12568359 26.26363281 2.12568359 26.26363281 2.25390625 24.4921875 C2.35713442 22.95314934 2.45997869 21.4140854 2.5625 19.875 C2.61857422 19.11445312 2.67464844 18.35390625 2.73242188 17.5703125 C3.01498074 13.20006872 2.93147699 9.31929331 2 5 C1.34 5 0.68 5 0 5 C0 3.35 0 1.7 0 0 Z " fill="#B06A8A" transform="translate(152,26)"/>
<path d="M0 0 C2.875 0.1875 2.875 0.1875 6 1 C7.375 3.5625 7.375 3.5625 8 6 C6.35 7.32 4.7 8.64 3 10 C0 3.375 0 3.375 0 0 Z " fill="#CA6199" transform="translate(234,124)"/>
<path d="M0 0 C0.33 1.65 0.66 3.3 1 5 C-1 6 -1 6 -4 7 C-4 6.34 -4 5.68 -4 5 C-6.31 4.67 -8.62 4.34 -11 4 C-7.95841042 -0.56238437 -5.1474794 -0.11438843 0 0 Z " fill="#CF649A" transform="translate(109,102)"/>
<path d="M0 0 C0 3.40719902 -0.756215 4.6775013 -2.375 7.625 C-4.56503183 11.82615965 -5.79677108 15.61937081 -6.54296875 20.28515625 C-6.76919922 21.13400391 -6.76919922 21.13400391 -7 22 C-7.66 22.33 -8.32 22.66 -9 23 C-10.17015161 18.90446935 -9.76143048 16.83370162 -8 13 C-8 12.34 -8 11.68 -8 11 C-7.01166063 9.98847378 -6.00941113 8.99049945 -5 8 C-4.0685158 6.62770075 -3.17265697 5.23059663 -2.3125 3.8125 C-1.87550781 3.09707031 -1.43851563 2.38164063 -0.98828125 1.64453125 C-0.66214844 1.10183594 -0.33601563 0.55914062 0 0 Z " fill="#B9618D" transform="translate(98,115)"/>
<path d="M0 0 C2.42858726 3.6428809 2.34347103 6.40906819 2.3125 10.625 C2.31121094 11.33978516 2.30992188 12.05457031 2.30859375 12.79101562 C2.2075514 18.36350109 1.20890891 22.8458792 -1 28 C-1.33 28 -1.66 28 -2 28 C-2.15446861 24.75615919 -2.1174058 22.32286594 -1 19.25 C0.63537412 13.93503412 0.76408901 8.29226702 -1 3 C-0.67 2.01 -0.34 1.02 0 0 Z " fill="#B3628C" transform="translate(69,137)"/>
<path d="M0 0 C0.66 0.33 1.32 0.66 2 1 C1.19175781 1.58007812 0.38351563 2.16015625 -0.44921875 2.7578125 C-5.90598318 6.7278384 -11.02353216 10.46134836 -15 16 C-16 13 -16 13 -14.75 10.3125 C-14.1725 9.549375 -13.595 8.78625 -13 8 C-12.01 8 -11.02 8 -10 8 C-10 7.34 -10 6.68 -10 6 C-5.61538462 3 -5.61538462 3 -3 3 C-3 2.34 -3 1.68 -3 1 C-2.01 0.67 -1.02 0.34 0 0 Z " fill="#B45F88" transform="translate(51,141)"/>
<path d="M0 0 C1.98 0.66 3.96 1.32 6 2 C5.52013969 7.56890517 4.70084819 12.67067568 3 18 C2.34 17.67 1.68 17.34 1 17 C1.495 15.205625 1.495 15.205625 2 13.375 C2.89265823 9.84208503 3.18296045 6.65920891 3 3 C1.68 2.34 0.36 1.68 -1 1 C-0.67 0.67 -0.34 0.34 0 0 Z " fill="#B95F89" transform="translate(117,113)"/>
<path d="M0 0 C0.12375 0.639375 0.2475 1.27875 0.375 1.9375 C0.58125 2.618125 0.7875 3.29875 1 4 C1.66 4.33 2.32 4.66 3 5 C2.09507812 5.78117187 2.09507812 5.78117187 1.171875 6.578125 C-1.42295639 9.47164202 -2.43735099 12.10375276 -3.75 15.75 C-4.17796875 16.92046875 -4.6059375 18.0909375 -5.046875 19.296875 C-5.36140625 20.18890625 -5.6759375 21.0809375 -6 22 C-6.66 22 -7.32 22 -8 22 C-7.36271679 17.73816852 -5.86584981 14.30824131 -4 10.4375 C-1.53865454 5.37945142 -1.53865454 5.37945142 0 0 Z " fill="#B8608C" transform="translate(139,97)"/>
<path d="M0 0 C1.32 0.33 2.64 0.66 4 1 C4.80967438 3.91482778 5.21845993 5.46113217 4.0625 8.3125 C3.5365625 9.1478125 3.5365625 9.1478125 3 10 C2.01 10 1.02 10 0 10 C0 6.7 0 3.4 0 0 Z " fill="#D15C8C" transform="translate(239,133)"/>
<path d="M0 0 C0.33 0 0.66 0 1 0 C1.04898437 0.92683594 1.09796875 1.85367188 1.1484375 2.80859375 C1.22320312 4.00613281 1.29796875 5.20367187 1.375 6.4375 C1.44460938 7.63246094 1.51421875 8.82742187 1.5859375 10.05859375 C1.72257813 11.02925781 1.85921875 11.99992187 2 13 C2.66 13.33 3.32 13.66 4 14 C4.625 17.0625 4.625 17.0625 5 20 C1.53788463 16.82963593 -0.00313758 13.56829864 -1 9 C-0.95727615 5.93337734 -0.57812301 3.00902577 0 0 Z " fill="#B7608B" transform="translate(9,77)"/>
<path d="M0 0 C0.66 0.33 1.32 0.66 2 1 C0.58922306 2.7755291 -0.82886536 4.54525031 -2.25 6.3125 C-3.03890625 7.29863281 -3.8278125 8.28476563 -4.640625 9.30078125 C-6.65198298 11.6018547 -8.4793158 13.30605396 -11 15 C-9.3718356 11.24269753 -6.98598083 8.383177 -4.375 5.25 C-3.55773437 4.26515625 -2.74046875 3.2803125 -1.8984375 2.265625 C-1.27195313 1.51796875 -0.64546875 0.7703125 0 0 Z " fill="#B25E87" transform="translate(144,137)"/>
<path d="M0 0 C0.99 0.33 1.98 0.66 3 1 C3.99 0.67 4.98 0.34 6 0 C7 3 7 3 7 7 C6.67 7.66 6.34 8.32 6 9 C4.99406757 7.8803014 3.9954151 6.7540588 3 5.625 C2.443125 4.99851562 1.88625 4.37203125 1.3125 3.7265625 C0 2 0 2 0 0 Z " fill="#BF618E" transform="translate(14,97)"/>
<path d="M0 0 C0.33 0.66 0.66 1.32 1 2 C0.07456291 3.34173403 -0.86577405 4.67320159 -1.8125 6 C-2.33457031 6.7425 -2.85664062 7.485 -3.39453125 8.25 C-3.92433594 8.8275 -4.45414062 9.405 -5 10 C-5.99 10 -6.98 10 -8 10 C-7.34 7.69 -6.68 5.38 -6 3 C-4.33333333 3 -2.66666667 3 -1 3 C-0.67 2.01 -0.34 1.02 0 0 Z " fill="#BD608D" transform="translate(122,151)"/>
<path d="M0 0 C1.0326802 2.78823655 1.04509293 3.8677274 0.0625 6.75 C-0.288125 7.4925 -0.63875 8.235 -1 9 C-2.65 9 -4.3 9 -6 9 C-4.68775452 5.06326356 -3.08089673 2.77280706 0 0 Z " fill="#BF628F" transform="translate(22,55)"/>
<path d="M0 0 C0.33 0.99 0.66 1.98 1 3 C1.66 3.33 2.32 3.66 3 4 C0.64031256 6.09749995 -0.54616994 6.96905704 -3.75 7.1875 C-4.86375 7.0946875 -4.86375 7.0946875 -6 7 C-4.77065985 3.31197956 -3.06140622 2.27643027 0 0 Z " fill="#B75981" transform="translate(235,146)"/>
<path d="M0 0 C0 3.95564164 -1.40521394 5.10866696 -4 8 C-4.99 8.66 -5.98 9.32 -7 10 C-7.99 9.67 -8.98 9.34 -10 9 C-6.7 6.03 -3.4 3.06 0 0 Z " fill="#B65D89" transform="translate(33,44)"/>
<path d="M0 0 C0.33 0.66 0.66 1.32 1 2 C-2.63662604 4.46007056 -5.59132188 5.70608813 -10 6 C-10.66 5.34 -11.32 4.68 -12 4 C-8.04 2.68 -4.08 1.36 0 0 Z " fill="#C16192" transform="translate(59,136)"/>
<path d="M0 0 C0.99 0.33 1.98 0.66 3 1 C3 4.3 3 7.6 3 11 C2.01 11 1.02 11 0 11 C0 7.37 0 3.74 0 0 Z " fill="#BC6390" transform="translate(61,139)"/>
<path d="M0 0 C0.33 0.66 0.66 1.32 1 2 C-0.20866842 5.40624736 -1.96222489 7.10139056 -5 9 C-5.66 9 -6.32 9 -7 9 C-7 9.66 -7 10.32 -7 11 C-7.66 11 -8.32 11 -9 11 C-7.75596862 7.26790586 -5.82756102 5.69291525 -3 3 C-2.401875 2.401875 -1.80375 1.80375 -1.1875 1.1875 C-0.795625 0.795625 -0.40375 0.40375 0 0 Z " fill="#B7638C" transform="translate(138,57)"/>
<path d="M0 0 C0.66 0 1.32 0 2 0 C0.48328036 4.55015893 -3.16891053 6.50057264 -7 9 C-7.66 8.67 -8.32 8.34 -9 8 C-7.57092175 5.14184349 -5.3584734 4.4503467 -2.59375 3 C-0.82455659 2.08240231 -0.82455659 2.08240231 0 0 Z " fill="#BB5D8B" transform="translate(189,140)"/>
<path d="M0 0 C0.33 0 0.66 0 1 0 C1.42670076 3.48472283 1.64789556 6.0186845 -0.3359375 9.0234375 C-1.83609212 10.74896747 -3.36656784 12.40059768 -5 14 C-5.66 13.67 -6.32 13.34 -7 13 C-6.401875 12.34 -5.80375 11.68 -5.1875 11 C-2.57574169 7.41816003 -1.41905856 4.18622274 0 0 Z " fill="#B56089" transform="translate(60,151)"/>
<path d="M0 0 C0 3.20395416 -0.74335022 5.09399739 -2 8 C-2.99 8 -3.98 8 -5 8 C-3.375 2.25 -3.375 2.25 0 0 Z " fill="#C55993" transform="translate(145,145)"/>
<path d="M0 0 C4.23830976 2.82553984 3.97715348 5.12180888 5 10 C3.68 10.99 2.36 11.98 1 13 C1.20625 12.0925 1.4125 11.185 1.625 10.25 C2.02449578 6.78770325 1.69369481 5.88924409 0 3 C0 2.01 0 1.02 0 0 Z " fill="#B9608C" transform="translate(145,123)"/>
<path d="M0 0 C0.66 0.33 1.32 0.66 2 1 C1.67 1.33 1.34 1.66 1 2 C0.95919217 3.99958364 0.95745644 6.00045254 1 8 C0.34 8 -0.32 8 -1 8 C-1.33 8.99 -1.66 9.98 -2 11 C-2.95465783 8.83032311 -3.14401212 7.43671207 -2.3984375 5.17578125 C-1.64129615 3.4315257 -0.82390802 1.71372869 0 0 Z " fill="#B9608C" transform="translate(173,85)"/>
<path d="M0 0 C0.66 0.66 1.32 1.32 2 2 C-1.72965139 4.03435531 -3.66905042 5 -8 5 C-8 4.34 -8 3.68 -8 3 C-6.35 3 -4.7 3 -3 3 C-3 2.34 -3 1.68 -3 1 C-2.01 0.67 -1.02 0.34 0 0 Z " fill="#B9628E" transform="translate(150,154)"/>
<path d="M0 0 C1.70840281 1.63412443 2.93453047 2.86906094 4 5 C4.039992 6.99960012 4.04346799 9.00047242 4 11 C2 7.25 2 7.25 2 5 C1.34 5 0.68 5 0 5 C0 3.35 0 1.7 0 0 Z " fill="#BA618C" transform="translate(152,26)"/>
<path d="M0 0 C-1.31224548 3.93673644 -2.91910327 6.22719294 -6 9 C-5.66666667 7.66666667 -5.33333333 6.33333333 -5 5 C-4.855625 4.278125 -4.71125 3.55625 -4.5625 2.8125 C-4.376875 2.214375 -4.19125 1.61625 -4 1 C-2 0 -2 0 0 0 Z " fill="#B5648B" transform="translate(67,166)"/>
<path d="M0 0 C0.99 0.99 1.98 1.98 3 3 C2.67 3.66 2.34 4.32 2 5 C-0.5625 5.625 -0.5625 5.625 -3 6 C-1.125 1.125 -1.125 1.125 0 0 Z " fill="#C75E95" transform="translate(238,144)"/>
<path d="M0 0 C0.66 0.33 1.32 0.66 2 1 C0.90931332 4.77545388 0.0916909 7.47043472 -3 10 C-3 8.35 -3 6.7 -3 5 C-2.34 5 -1.68 5 -1 5 C-0.67 3.35 -0.34 1.7 0 0 Z " fill="#BC648F" transform="translate(152,54)"/>
<path d="M0 0 C0.99 0 1.98 0 3 0 C3 1.32 3 2.64 3 4 C1.68 3.67 0.36 3.34 -1 3 C-0.67 2.01 -0.34 1.02 0 0 Z " fill="#BE6492" transform="translate(240,130)"/>
</svg>
