<?xml version="1.0" encoding="UTF-8"?>
<svg version="1.1" xmlns="http://www.w3.org/2000/svg" width="190" height="256">
<path d="M0 0 C3.72150754 0.00096562 7.44090139 -0.04062566 11.16210938 -0.08496094 C38.19819316 -0.21832138 73.37901693 3.48702324 93.88867188 23.50097656 C93.88867188 24.16097656 93.88867188 24.82097656 93.88867188 25.50097656 C94.87867188 25.83097656 95.86867187 26.16097656 96.88867188 26.50097656 C99.36357794 30.21333565 99.18222555 33.06560839 99.17628479 37.36271667 C99.1829326 38.17226234 99.18958041 38.98180801 99.19642967 39.81588537 C99.21616907 42.53801632 99.22150735 45.25998308 99.22680664 47.98217773 C99.23769845 49.9302107 99.24936979 51.87823944 99.26176453 53.82626343 C99.29231182 59.12603181 99.30929841 64.4257567 99.32198071 69.72559524 C99.33005998 73.03651007 99.34024041 76.34741234 99.35099602 79.65831947 C99.38372813 90.01667887 99.40762311 100.37500786 99.41980988 110.73341197 C99.4340619 122.69172124 99.47792122 134.64944005 99.54731137 146.60755366 C99.59908998 155.84928464 99.62398297 165.09084771 99.62863201 174.33272153 C99.63203093 179.85301247 99.64690116 185.37270673 99.6899128 190.89284325 C99.72968116 196.08790008 99.73606135 201.2819442 99.71701241 206.477108 C99.71574676 208.38143689 99.72641108 210.28581766 99.7500267 212.19000053 C99.93912144 228.36338432 99.93912144 228.36338432 95.52452087 233.69648743 C93.00758645 236.05792224 92.42526133 236.50097656 88.88867188 236.50097656 C88.88867188 237.16097656 88.88867188 237.82097656 88.88867188 238.50097656 C63.77963687 252.85408451 37.33636063 257.39941898 8.59570312 257.15283203 C4.89023688 257.1259879 1.18779841 257.1527792 -2.51757812 257.18457031 C-31.95490201 257.22686217 -64.66081601 252.27070167 -87.11132812 231.50097656 C-90.51667155 228.05488838 -91.57385965 225.63647749 -91.66961223 220.77226049 C-91.66409994 220.03102003 -91.65858765 219.28977956 -91.65290833 218.52607727 C-91.66267612 217.72848454 -91.67244391 216.93089181 -91.68250769 216.10912961 C-91.71014789 213.43915103 -91.70923597 210.76996369 -91.70825195 208.09985352 C-91.72185938 206.18431934 -91.73709251 204.26879613 -91.75382996 202.35328674 C-91.79345014 197.15056023 -91.80693027 191.94808292 -91.81328797 186.74522042 C-91.81835372 183.4928862 -91.82886415 180.24061617 -91.8412838 176.98830223 C-91.88428775 165.63645298 -91.90550044 154.28478949 -91.9074707 142.93286133 C-91.90990339 132.36079521 -91.96086808 121.78971166 -92.03436261 111.21792251 C-92.09527168 102.13489797 -92.12138605 93.05219652 -92.12080592 83.96896905 C-92.12108885 78.54688015 -92.13545599 73.12573224 -92.18515968 67.7038517 C-92.23079816 62.60043292 -92.23301107 57.49878307 -92.20247078 52.39526939 C-92.19857383 50.52725303 -92.20991814 48.65912998 -92.23801041 46.7913208 C-92.46122699 30.95222231 -92.46122699 30.95222231 -86.77006531 24.49406433 C-84.39593029 22.30568218 -84.39593029 22.30568218 -82.11132812 20.50097656 C-81.17442501 19.71421775 -81.17442501 19.71421775 -80.21859455 18.91156483 C-76.46235142 15.98837287 -72.47834834 14.26458088 -68.11132812 12.50097656 C-67.12132813 11.84097656 -66.13132812 11.18097656 -65.11132812 10.50097656 C-57.78302205 7.86235907 -50.22408645 5.89768405 -42.61230469 4.27075195 C-40.45301938 3.79598023 -38.30058456 3.28674315 -36.16308594 2.72192383 C-24.22542524 -0.16484917 -12.22619498 -0.02227573 0 0 Z M-11.65527344 15.52294922 C-26.76622911 15.72529747 -45.48398316 18.49072698 -58.11132812 27.50097656 C-60.53188961 30.19516674 -61.96338798 32.05715612 -63.11132812 35.50097656 C-62.59179109 38.13373743 -62.59179109 38.13373743 -61.11132812 40.50097656 C-58.58759911 41.86175692 -58.58759911 41.86175692 -56.11132812 42.50097656 C-56.11132812 43.16097656 -56.11132812 43.82097656 -56.11132812 44.50097656 C-27.53099556 57.85627215 8.38335459 58.87990759 38.88867188 52.50097656 C39.63101074 52.34580566 40.37334961 52.19063477 41.13818359 52.03076172 C52.02445977 49.67690743 63.19792872 47.16152017 70.88867188 38.50097656 C72.46100668 36.14266366 72.46100668 36.14266366 71.88867188 33.50097656 C68.23526718 26.71160216 61.91393912 23.84784532 54.88867188 21.50097656 C51.47009951 20.5023408 48.03317015 19.606476 44.57617188 18.75097656 C43.73562256 18.54005371 42.89507324 18.32913086 42.02905273 18.11181641 C24.55771412 14.05938338 6.14512371 15.36920299 -11.65527344 15.52294922 Z M-58.04882812 118.18847656 C-60.61281082 122.30638816 -61.44019482 125.66574727 -61.11132812 130.50097656 C-59.99486337 133.53832336 -59.99486337 133.53832336 -58.11132812 135.50097656 C-57.45132813 135.50097656 -56.79132812 135.50097656 -56.11132812 135.50097656 C-55.78132813 136.49097656 -55.45132813 137.48097656 -55.11132812 138.50097656 C-52.89322094 139.89514212 -52.89322094 139.89514212 -50.23632812 141.06347656 C-47.33608405 142.42058786 -44.78533067 143.7183082 -42.11132812 145.50097656 C-41.92382812 148.62597656 -41.92382812 148.62597656 -42.11132812 151.50097656 C-48.51486135 151.73717246 -53.95761974 151.32429757 -60.11132812 149.50097656 C-60.11132812 153.13097656 -60.11132812 156.76097656 -60.11132812 160.50097656 C-50.52965647 163.5069912 -40.20020779 164.20771782 -31.11132812 159.50097656 C-28.01838118 157.32933296 -26.4452856 155.83460937 -25.51757812 152.12988281 C-24.91956647 147.55645276 -24.51838839 143.50824706 -27.11132812 139.50097656 C-32.26534017 134.6414795 -38.79604431 131.58160282 -45.11132812 128.50097656 C-45.11132812 126.85097656 -45.11132812 125.20097656 -45.11132812 123.50097656 C-42.04158741 121.68419124 -40.19308167 121.30724078 -36.67382812 121.81347656 C-35.89265625 121.92175781 -35.11148438 122.03003906 -34.30664062 122.14160156 C-31.89373194 122.53659729 -29.49665255 122.96235492 -27.11132812 123.50097656 C-27.11132812 120.20097656 -27.11132812 116.90097656 -27.11132812 113.50097656 C-37.65293776 108.46196622 -49.67783925 110.52991227 -58.04882812 118.18847656 Z M-13.11132812 119.50097656 C-13.11132812 120.16097656 -13.11132812 120.82097656 -13.11132812 121.50097656 C-14.10132812 121.83097656 -15.09132813 122.16097656 -16.11132812 122.50097656 C-19.92587203 128.96843372 -20.06224749 137.26875497 -19.11132812 144.50097656 C-17.88319059 148.13833409 -16.43852943 151.43300413 -14.11132812 154.50097656 C-13.12132813 154.83097656 -12.13132812 155.16097656 -11.11132812 155.50097656 C-11.11132812 156.16097656 -11.11132812 156.82097656 -11.11132812 157.50097656 C-7.0805546 159.58834142 -3.12507785 161.56313597 1.13867188 163.12597656 C7.18654422 165.34352975 7.18654422 165.34352975 8.88867188 166.50097656 C9.03304687 167.09910156 9.17742187 167.69722656 9.32617188 168.31347656 C10.23184858 171.83555262 12.07861886 173.25734785 14.88867188 175.50097656 C17.69154557 176.09378883 20.35243644 175.9789527 23.20117188 175.81347656 C23.94173828 175.79091797 24.68230469 175.76835937 25.4453125 175.74511719 C27.26064545 175.68655806 29.07492868 175.59688543 30.88867188 175.50097656 C29.32169567 172.03823898 28.31388864 171.10654692 24.88867188 169.50097656 C24.22867188 168.51097656 23.56867188 167.52097656 22.88867188 166.50097656 C21.89867187 166.17097656 20.90867188 165.84097656 19.88867188 165.50097656 C18.70117188 162.93847656 18.70117188 162.93847656 17.88867188 160.50097656 C18.83742187 159.77910156 19.78617188 159.05722656 20.76367188 158.31347656 C23.56279749 156.00287758 24.87384745 154.05286204 25.88867188 150.50097656 C26.54867187 150.50097656 27.20867187 150.50097656 27.88867188 150.50097656 C30.54808999 141.85786768 31.54939136 131.9871899 27.88867188 123.50097656 C24.0753402 117.35431257 18.73907834 113.69117694 11.88867188 111.50097656 C2.69421301 110.00899973 -6.88955251 112.0865283 -13.11132812 119.50097656 Z M38.88867188 111.50097656 C38.88867188 128.00097656 38.88867188 144.50097656 38.88867188 161.50097656 C49.44867188 161.50097656 60.00867188 161.50097656 70.88867188 161.50097656 C70.88867188 158.20097656 70.88867188 154.90097656 70.88867188 151.50097656 C65.27867187 151.50097656 59.66867188 151.50097656 53.88867188 151.50097656 C53.88867188 138.30097656 53.88867188 125.10097656 53.88867188 111.50097656 C48.93867188 111.50097656 43.98867187 111.50097656 38.88867188 111.50097656 Z " fill="#00BBF2" transform="translate(91.111328125,-0.5009765625)"/>
<path d="M0 0 C3.3841661 1.51396904 3.88816477 2.71482016 5.25 6.1875 C6.66223658 13.36636928 6.5647811 18.50700586 3 25 C0.45657646 27.92022703 -1.02851989 28.00407427 -4.9375 28.5625 C-8.39285237 28.39488962 -9.03633634 27.97139479 -11.9375 25.6875 C-15.76107489 20.23632229 -15.37463501 13.36020059 -14.375 7.0625 C-11.24891636 0.09985915 -7.04743382 -0.7830482 0 0 Z " fill="#00BBF2" transform="translate(101,123)"/>
</svg>
